M48
;Layer_Color=9474304
;FILE_FORMAT=2:5
INCH,TZ
;TYPE=PLATED
T01F00S00C0.01181
T03F00S00C0.04016
T04F00S00C0.07283
;TYPE=NON_PLATED
T05F00S00C0.07087
T06F00S00C0.12598
%
T01
X755906Y448819
X763780
X771654
X779528
X775591Y456693
X767717
X759843
X763780Y464567
X771654
X779528
X755906
X783465Y456693
X787402Y448819
X795276
X803150
X811024
X818898
X842520
X852221Y444780
X866288
X880147Y444758
X892940Y453188
X904182Y448416
X905512Y464567
X913386
X920965Y444014
X834578Y468512
X940945Y456693
X942508Y454316
X940945Y472441
Y488189
Y503937
Y535433
Y551181
Y566929
Y598425
Y614174
X925809Y608017
Y601911
X917426Y602892
Y608149
X917323Y614174
X921260Y622048
X913386
X905512
X901575Y614174
X910214Y608017
Y602951
X909449Y582678
X913386Y574803
X921260
X929134
X937008
X933071Y566929
X925197
X917323
X909449
X901575
X905512Y574803
Y559055
X913386
X921260
X929134
X937008
X933071Y551181
X925197
X917323
X909449
X901575
X905512Y543307
X913386
X921260
X929134
X937008
X933071Y535433
X925197
X917323
X909449
X901575
X897638Y559055
X889764
X885827Y566929
X877953
X862942Y560910
X862994Y556824
X863098Y552572
X859127Y549737
X853485Y532004
X837660Y531675
X837607Y535421
X832162Y535252
X831999Y531675
X826136Y531807
X826083Y535252
X828001Y524831
X808847Y522829
X810629Y537581
X816161Y554540
X816108Y559262
X821453Y559214
X821506Y554540
X827760Y554672
Y559345
X826815Y578686
X824182Y580983
X831895Y578686
X830612Y584959
X829427Y597777
X822239Y596510
X820218Y589058
X813002Y592756
X807087Y582678
X795276Y590552
X787402
X783465Y598425
X787402Y606299
X783465Y614174
X787402Y622048
X790585Y621620
X811024Y622048
X816462Y619254
X829826Y622998
X839941Y608622
X840142Y604856
X856270Y618131
X856447Y623984
X860829
X864799Y611360
X862208Y574131
X847600Y573535
Y576502
X842298
X842369Y573535
X835494Y545866
X833469Y492226
X840574Y494445
X843555Y494282
X844401Y478731
X843480Y475757
X839551Y476551
X834709Y471809
X783465Y472441
Y488189
Y503937
Y519685
Y535433
Y551181
X787402Y559055
X783465Y566929
X787402Y574803
X783465Y582678
X808580Y609317
X870763Y523916
X868795Y521453
X876423Y525158
X878637Y519583
X882627Y515652
X884595Y512558
X896688Y508392
X898045Y497402
X902177Y492573
X903715Y488182
X910553
X910494Y491395
X910691Y495923
X909784Y502306
X909540Y483521
X910203Y480109
Y474912
X926892Y469873
X937008Y511811
X917323Y519685
X913504Y518828
X880606Y489427
X775591Y488189
X767717
X759843
X763780Y496063
X771654
X779528
X775591Y503937
X767717
X759843
X763780Y511811
X771654
X779528
X775591Y519685
X767717
X759843
X763780Y527559
X771654
X779528
X775591Y535433
X767717
X759843
X763780Y543307
X771654
X779528
X775591Y551181
X767717
X759843
X763780Y559055
X771654
X779528
X775591Y566929
X767717
X759843
X763780Y574803
X771654
X779528
X775591Y582678
X767717
X759843
X763780Y590552
X771654
X779528
X775591Y598425
X767717
X759843
X763780Y606299
X771654
X779528
X775591Y614174
X767717
X759843
X763780Y622048
X771654
X779528
X755906
Y606299
Y590552
Y574803
Y559055
Y543307
Y527559
Y511811
Y496063
Y480315
X763780
X771654
X779528
X775591Y472441
X767717
X759843
X775591Y629922
X771654Y637796
Y653544
X759843Y645670
X783465
X791339
X799213
X807087
X814961
X811024Y653544
X803150
X795276
X803150Y637796
X811024
X885827Y645670
X893701
X901575
X909449
X917323
X925197
X933071
X937008Y653544
Y637796
X933071Y629922
X925197
X917323
X909449
X901575
X905512Y637796
X913386
X921260
X897638
Y653544
X889764
X940945Y645670
Y629922
T03
X799280Y457616
Y467616
X825847Y458490
Y448490
X835847
Y458490
X799280Y477616
Y487616
Y497616
X799270Y516700
Y526700
Y536700
Y558555
Y568555
Y578555
Y597688
Y607688
Y617688
X872731Y577539
Y567539
Y557539
Y547539
Y537539
X893572Y535708
Y545708
Y555708
Y565708
Y575708
X858219Y514582
X848219
X838219
T04
X763145Y633545
Y656655
X786255
Y633545
X838745Y634445
Y657555
X861855
Y634445
T05
X930169Y619890
Y639575
T06
X774700Y645100
X850300Y646000
M30
