G04*
G04 #@! TF.GenerationSoftware,Altium Limited,Altium Designer,24.0.1 (36)*
G04*
G04 Layer_Color=255*
%FSLAX25Y25*%
%MOIN*%
G70*
G04*
G04 #@! TF.SameCoordinates,4AE72286-74C0-4861-BAE4-8600210459B3*
G04*
G04*
G04 #@! TF.FilePolarity,Positive*
G04*
G01*
G75*
%ADD17C,0.00700*%
%ADD19R,0.03434X0.03954*%
G04:AMPARAMS|DCode=20|XSize=39.54mil|YSize=34.34mil|CornerRadius=17.17mil|HoleSize=0mil|Usage=FLASHONLY|Rotation=270.000|XOffset=0mil|YOffset=0mil|HoleType=Round|Shape=RoundedRectangle|*
%AMROUNDEDRECTD20*
21,1,0.03954,0.00000,0,0,270.0*
21,1,0.00520,0.03434,0,0,270.0*
1,1,0.03434,0.00000,-0.00260*
1,1,0.03434,0.00000,0.00260*
1,1,0.03434,0.00000,0.00260*
1,1,0.03434,0.00000,-0.00260*
%
%ADD20ROUNDEDRECTD20*%
G04:AMPARAMS|DCode=21|XSize=39.54mil|YSize=125.28mil|CornerRadius=17.2mil|HoleSize=0mil|Usage=FLASHONLY|Rotation=270.000|XOffset=0mil|YOffset=0mil|HoleType=Round|Shape=RoundedRectangle|*
%AMROUNDEDRECTD21*
21,1,0.03954,0.09088,0,0,270.0*
21,1,0.00514,0.12528,0,0,270.0*
1,1,0.03440,-0.04544,-0.00257*
1,1,0.03440,-0.04544,0.00257*
1,1,0.03440,0.04544,0.00257*
1,1,0.03440,0.04544,-0.00257*
%
%ADD21ROUNDEDRECTD21*%
%ADD25R,0.06121X0.07505*%
%ADD32R,0.02029X0.01860*%
%ADD33R,0.02985X0.03197*%
%ADD37R,0.03937X0.01181*%
%ADD39R,0.03985X0.04560*%
%ADD41R,0.01860X0.02029*%
%ADD42R,0.03248X0.00984*%
%ADD44R,0.02657X0.00984*%
%ADD45R,0.00984X0.03248*%
%ADD46R,0.03197X0.02985*%
%ADD48R,0.01575X0.04232*%
%ADD49R,0.11713X0.01378*%
%ADD50C,0.03543*%
%ADD61C,0.06181*%
%ADD62R,0.06181X0.06181*%
%ADD64C,0.05984*%
G04:AMPARAMS|DCode=65|XSize=43.31mil|YSize=80.71mil|CornerRadius=21.65mil|HoleSize=0mil|Usage=FLASHONLY|Rotation=90.000|XOffset=0mil|YOffset=0mil|HoleType=Round|Shape=RoundedRectangle|*
%AMROUNDEDRECTD65*
21,1,0.04331,0.03740,0,0,90.0*
21,1,0.00000,0.08071,0,0,90.0*
1,1,0.04331,0.01870,0.00000*
1,1,0.04331,0.01870,0.00000*
1,1,0.04331,-0.01870,0.00000*
1,1,0.04331,-0.01870,0.00000*
%
%ADD65ROUNDEDRECTD65*%
%ADD66R,0.05984X0.05984*%
G04:AMPARAMS|DCode=68|XSize=17.72mil|YSize=55.12mil|CornerRadius=1.95mil|HoleSize=0mil|Usage=FLASHONLY|Rotation=180.000|XOffset=0mil|YOffset=0mil|HoleType=Round|Shape=RoundedRectangle|*
%AMROUNDEDRECTD68*
21,1,0.01772,0.05122,0,0,180.0*
21,1,0.01382,0.05512,0,0,180.0*
1,1,0.00390,-0.00691,0.02561*
1,1,0.00390,0.00691,0.02561*
1,1,0.00390,0.00691,-0.02561*
1,1,0.00390,-0.00691,-0.02561*
%
%ADD68ROUNDEDRECTD68*%
%ADD69O,0.01181X0.06299*%
%ADD70O,0.06299X0.01181*%
%ADD71R,0.03937X0.03543*%
%ADD72R,0.27559X0.15748*%
%ADD73R,0.15748X0.09843*%
%ADD74R,0.03543X0.03937*%
%ADD75R,0.07480X0.11024*%
%ADD76R,0.03347X0.03740*%
%ADD77R,0.03150X0.03150*%
%ADD78R,0.03150X0.03543*%
%ADD79R,0.03543X0.03150*%
%ADD80R,0.07874X0.21654*%
%ADD81R,0.04724X0.06496*%
%ADD82R,0.03740X0.03347*%
%ADD83R,0.00984X0.00984*%
%ADD84R,0.03150X0.03150*%
%ADD85C,0.06102*%
%ADD86R,0.06102X0.06102*%
%ADD87C,0.12598*%
%ADD88C,0.07087*%
%ADD89R,0.06102X0.06102*%
D17*
X857831Y549708D02*
X861163D01*
X861830Y550375D01*
Y551708D01*
X861163Y552374D01*
X857831D01*
X861830Y555706D02*
X857831D01*
X859830Y553707D01*
Y556373D01*
D19*
X831310Y567381D02*
D03*
D20*
X822295D02*
D03*
X813279D02*
D03*
D21*
X822295Y541437D02*
D03*
D25*
X838680Y618000D02*
D03*
X850300D02*
D03*
X842180Y584828D02*
D03*
X830559D02*
D03*
D32*
X862214Y444670D02*
D03*
X859233D02*
D03*
X900094Y453057D02*
D03*
X873238Y444627D02*
D03*
X840522Y489166D02*
D03*
X897113Y453057D02*
D03*
X870257Y444627D02*
D03*
X843502Y489166D02*
D03*
D33*
X845662Y499663D02*
D03*
X840725D02*
D03*
X894633Y444627D02*
D03*
X899570D02*
D03*
D37*
X915120Y495726D02*
D03*
Y491789D02*
D03*
Y507537D02*
D03*
Y505568D02*
D03*
Y479978D02*
D03*
Y478009D02*
D03*
Y493757D02*
D03*
Y489820D02*
D03*
Y487852D02*
D03*
Y499663D02*
D03*
Y501631D02*
D03*
Y483915D02*
D03*
Y503600D02*
D03*
Y481946D02*
D03*
Y485883D02*
D03*
Y497694D02*
D03*
D39*
X812094Y604937D02*
D03*
Y598622D02*
D03*
D41*
X853167Y504500D02*
D03*
X840536Y471232D02*
D03*
X853167Y501519D02*
D03*
X840536Y468252D02*
D03*
D42*
X826078Y599811D02*
D03*
D44*
X825782Y597843D02*
D03*
Y601780D02*
D03*
D45*
X830066Y593756D02*
D03*
X828097D02*
D03*
Y605866D02*
D03*
X832034Y593756D02*
D03*
X830066Y605866D02*
D03*
X832034D02*
D03*
D46*
X903329Y497564D02*
D03*
Y502501D02*
D03*
D48*
X836267Y594248D02*
D03*
Y605374D02*
D03*
D49*
X837893Y599811D02*
D03*
D50*
X916695Y510765D02*
D03*
Y474781D02*
D03*
D61*
X893572Y555708D02*
D03*
Y545708D02*
D03*
Y565708D02*
D03*
Y575708D02*
D03*
X799270Y558555D02*
D03*
Y568555D02*
D03*
Y607688D02*
D03*
Y597688D02*
D03*
X799280Y477616D02*
D03*
X799270Y526700D02*
D03*
X799280Y487616D02*
D03*
X799270Y516700D02*
D03*
X799280Y467616D02*
D03*
Y457616D02*
D03*
D62*
X893572Y535708D02*
D03*
X799270Y578555D02*
D03*
Y617688D02*
D03*
Y536700D02*
D03*
X799280Y497616D02*
D03*
D64*
X835847Y448490D02*
D03*
X825847Y458490D02*
D03*
Y448490D02*
D03*
D65*
X928506Y510568D02*
D03*
Y474978D02*
D03*
D66*
X835847Y458490D02*
D03*
D68*
X855991Y544094D02*
D03*
X863668D02*
D03*
X861109Y567322D02*
D03*
Y544094D02*
D03*
X855991Y567322D02*
D03*
X858550D02*
D03*
Y544094D02*
D03*
X863668Y567322D02*
D03*
D69*
X882574Y499466D02*
D03*
X884543Y453797D02*
D03*
X858952D02*
D03*
X886511D02*
D03*
X860921Y499466D02*
D03*
Y453797D02*
D03*
X884543Y499466D02*
D03*
X868795D02*
D03*
X878637D02*
D03*
X888480D02*
D03*
Y453797D02*
D03*
X862889D02*
D03*
X858952Y499466D02*
D03*
X866826D02*
D03*
X870763D02*
D03*
X880606D02*
D03*
X864857Y453797D02*
D03*
X866826D02*
D03*
X868795D02*
D03*
X870763D02*
D03*
X872731D02*
D03*
X874700D02*
D03*
X876668D02*
D03*
X878637D02*
D03*
X880606D02*
D03*
X882574D02*
D03*
X886511Y499466D02*
D03*
X876668D02*
D03*
X874700D02*
D03*
X872731D02*
D03*
X864857D02*
D03*
X862889D02*
D03*
D70*
X896550Y487458D02*
D03*
X850881Y477616D02*
D03*
X896550Y473679D02*
D03*
X850881Y483521D02*
D03*
X896550D02*
D03*
X850881Y463836D02*
D03*
Y473679D02*
D03*
Y461868D02*
D03*
X896550Y489427D02*
D03*
X850881Y469742D02*
D03*
X896550Y475647D02*
D03*
X850881Y479584D02*
D03*
Y481553D02*
D03*
X896550Y485490D02*
D03*
X850881Y465805D02*
D03*
X896550Y491395D02*
D03*
X850881D02*
D03*
Y467773D02*
D03*
X896550Y477616D02*
D03*
Y479584D02*
D03*
X850881Y471710D02*
D03*
Y489427D02*
D03*
Y487458D02*
D03*
Y485490D02*
D03*
Y475647D02*
D03*
X896550Y461868D02*
D03*
Y463836D02*
D03*
Y465805D02*
D03*
Y467773D02*
D03*
Y469742D02*
D03*
Y471710D02*
D03*
Y481553D02*
D03*
D71*
X829774Y617552D02*
D03*
Y622866D02*
D03*
X841463Y561566D02*
D03*
Y566881D02*
D03*
X840094Y541437D02*
D03*
Y546752D02*
D03*
X849003Y561566D02*
D03*
Y566881D02*
D03*
X833417Y502879D02*
D03*
X820264Y604083D02*
D03*
X833417Y497564D02*
D03*
X833521Y486572D02*
D03*
Y481257D02*
D03*
X820264Y609398D02*
D03*
X822606Y617552D02*
D03*
Y622866D02*
D03*
D72*
X917373Y604142D02*
D03*
Y655323D02*
D03*
D73*
X882924Y632095D02*
D03*
D74*
X813965Y614894D02*
D03*
X808650D02*
D03*
X861941Y616032D02*
D03*
X835876Y574500D02*
D03*
X812291Y532759D02*
D03*
X817606D02*
D03*
X867256Y616032D02*
D03*
X830561Y574500D02*
D03*
D75*
X851168Y599811D02*
D03*
X867310D02*
D03*
D76*
X910494Y446639D02*
D03*
X915612D02*
D03*
X858452Y523681D02*
D03*
X853333D02*
D03*
X838114Y524700D02*
D03*
X832996D02*
D03*
X936926Y459396D02*
D03*
X858695Y534628D02*
D03*
X921328Y518697D02*
D03*
X933167Y445469D02*
D03*
X936612Y452316D02*
D03*
X931808Y459396D02*
D03*
X931808Y466789D02*
D03*
X820165Y578995D02*
D03*
X815047D02*
D03*
X814850Y586698D02*
D03*
X809732D02*
D03*
X926446Y518697D02*
D03*
X928049Y445469D02*
D03*
X931493Y452316D02*
D03*
X936926Y466789D02*
D03*
X863813Y534628D02*
D03*
D77*
X917114Y462349D02*
D03*
Y456443D02*
D03*
X909667Y462349D02*
D03*
Y456443D02*
D03*
X923887Y462349D02*
D03*
Y456443D02*
D03*
D78*
X798200Y627308D02*
D03*
Y634001D02*
D03*
D79*
X807956Y627358D02*
D03*
X814649D02*
D03*
D80*
X818643Y516265D02*
D03*
Y478863D02*
D03*
D81*
X907541Y589411D02*
D03*
X918565D02*
D03*
D82*
X907405Y513640D02*
D03*
X905535Y474190D02*
D03*
X907405Y508522D02*
D03*
X905535Y479309D02*
D03*
D83*
X841582Y605225D02*
D03*
Y594398D02*
D03*
X825538Y594299D02*
D03*
Y605323D02*
D03*
D84*
X938919Y518697D02*
D03*
X936655Y589411D02*
D03*
X933014Y518697D02*
D03*
X930750Y589411D02*
D03*
D85*
X872731Y577539D02*
D03*
Y567539D02*
D03*
Y557539D02*
D03*
Y547539D02*
D03*
X848219Y514582D02*
D03*
X838219D02*
D03*
D86*
X872731Y537539D02*
D03*
D87*
X774700Y645100D02*
D03*
X763145Y633545D02*
D03*
Y656655D02*
D03*
X786255Y633545D02*
D03*
Y656655D02*
D03*
X838745Y657555D02*
D03*
X861855D02*
D03*
X838745Y634445D02*
D03*
X861855D02*
D03*
X850300Y646000D02*
D03*
D88*
X930169Y639575D02*
D03*
Y619890D02*
D03*
D89*
X858219Y514582D02*
D03*
M02*
