G04*
G04 #@! TF.GenerationSoftware,Altium Limited,Altium Designer,24.0.1 (36)*
G04*
G04 Layer_Color=2752767*
%FSLAX25Y25*%
%MOIN*%
G70*
G04*
G04 #@! TF.SameCoordinates,4AE72286-74C0-4861-BAE4-8600210459B3*
G04*
G04*
G04 #@! TF.FilePolarity,Positive*
G04*
G01*
G75*
%ADD17C,0.00700*%
%ADD92C,0.00500*%
%ADD93C,0.00667*%
D17*
X857831Y549708D02*
X861163D01*
X861830Y550375D01*
Y551708D01*
X861163Y552374D01*
X857831D01*
X861830Y555706D02*
X857831D01*
X859830Y553707D01*
Y556373D01*
D92*
X872731Y575539D02*
X870732Y579539D01*
X874732D01*
X872731Y575539D01*
Y565539D02*
X870732Y569539D01*
X874732D01*
X872731Y565539D01*
Y555539D02*
X870732Y559539D01*
X874732D01*
X872731Y555539D01*
Y545539D02*
X870732Y549539D01*
X874732D01*
X872731Y545539D01*
Y535539D02*
X870732Y539539D01*
X874732D01*
X872731Y535539D01*
X772700Y643100D02*
X773700Y645100D01*
X772700Y647100D01*
X774700Y646100D01*
X776700Y647100D01*
X775700Y645100D01*
X776700Y643100D01*
X774700Y644100D01*
X772700Y643100D01*
X848300Y644000D02*
X849300Y646000D01*
X848300Y648000D01*
X850300Y647000D01*
X852300Y648000D01*
X851300Y646000D01*
X852300Y644000D01*
X850300Y645000D01*
X848300Y644000D01*
X929169Y638575D02*
Y637575D01*
X931168D01*
Y638575D01*
X932168D01*
Y640575D01*
X931168D01*
Y641575D01*
X929169D01*
Y640575D01*
X928168D01*
Y638575D01*
X929169D01*
Y618890D02*
Y617890D01*
X931168D01*
Y618890D01*
X932168D01*
Y620890D01*
X931168D01*
Y621890D01*
X929169D01*
Y620890D01*
X928168D01*
Y618890D01*
X929169D01*
X893572Y553708D02*
X891572Y557708D01*
X895572D01*
X893572Y553708D01*
Y543708D02*
X891572Y547708D01*
X895572D01*
X893572Y543708D01*
Y563708D02*
X891572Y567708D01*
X895572D01*
X893572Y563708D01*
Y573708D02*
X891572Y577708D01*
X895572D01*
X893572Y573708D01*
Y533708D02*
X891572Y537708D01*
X895572D01*
X893572Y533708D01*
X799270Y556555D02*
X797270Y560555D01*
X801270D01*
X799270Y556555D01*
Y576555D02*
X797270Y580555D01*
X801270D01*
X799270Y576555D01*
Y566555D02*
X797270Y570555D01*
X801270D01*
X799270Y566555D01*
X848219Y512582D02*
X846219Y516582D01*
X850219D01*
X848219Y512582D01*
X858219D02*
X856219Y516582D01*
X860219D01*
X858219Y512582D01*
X838219D02*
X836219Y516582D01*
X840219D01*
X838219Y512582D01*
X799270Y605688D02*
X797270Y609688D01*
X801270D01*
X799270Y605688D01*
Y615688D02*
X797270Y619688D01*
X801270D01*
X799270Y615688D01*
Y595688D02*
X797270Y599688D01*
X801270D01*
X799270Y595688D01*
X835847Y446490D02*
X833847Y450490D01*
X837847D01*
X835847Y446490D01*
X799280Y475616D02*
X797280Y479616D01*
X801280D01*
X799280Y475616D01*
X799270Y524700D02*
X797270Y528700D01*
X801270D01*
X799270Y524700D01*
X825847Y456490D02*
X823847Y460490D01*
X827847D01*
X825847Y456490D01*
X926506Y508568D02*
Y512568D01*
X930506D01*
Y508568D01*
X926506D01*
Y472978D02*
Y476978D01*
X930506D01*
Y472978D01*
X926506D01*
X799280Y485616D02*
X797280Y489616D01*
X801280D01*
X799280Y485616D01*
X799270Y514700D02*
X797270Y518700D01*
X801270D01*
X799270Y514700D01*
X825847Y446490D02*
X823847Y450490D01*
X827847D01*
X825847Y446490D01*
X799280Y465616D02*
X797280Y469616D01*
X801280D01*
X799280Y465616D01*
X799270Y534700D02*
X797270Y538700D01*
X801270D01*
X799270Y534700D01*
X799280Y455616D02*
X797280Y459616D01*
X801280D01*
X799280Y455616D01*
X835847Y456490D02*
X833847Y460490D01*
X837847D01*
X835847Y456490D01*
X799280Y495616D02*
X797280Y499616D01*
X801280D01*
X799280Y495616D01*
X940508Y454316D02*
X942508Y456316D01*
X944508Y454316D01*
X942508Y452316D01*
X940508Y454316D01*
X822182Y580983D02*
X824182Y582983D01*
X826182Y580983D01*
X824182Y578983D01*
X822182Y580983D01*
X806847Y522829D02*
X808847Y524829D01*
X810847Y522829D01*
X808847Y520829D01*
X806847Y522829D01*
X833494Y545866D02*
X835494Y547866D01*
X837494Y545866D01*
X835494Y543866D01*
X833494Y545866D01*
X935008Y653544D02*
X937008Y655544D01*
X939008Y653544D01*
X937008Y651544D01*
X935008Y653544D01*
X938945Y645670D02*
X940945Y647670D01*
X942945Y645670D01*
X940945Y643670D01*
X938945Y645670D01*
X935008Y637796D02*
X937008Y639796D01*
X939008Y637796D01*
X937008Y635796D01*
X935008Y637796D01*
X938945Y629922D02*
X940945Y631922D01*
X942945Y629922D01*
X940945Y627922D01*
X938945Y629922D01*
Y614174D02*
X940945Y616174D01*
X942945Y614174D01*
X940945Y612174D01*
X938945Y614174D01*
Y598425D02*
X940945Y600425D01*
X942945Y598425D01*
X940945Y596425D01*
X938945Y598425D01*
X935008Y574803D02*
X937008Y576803D01*
X939008Y574803D01*
X937008Y572803D01*
X935008Y574803D01*
X938945Y566929D02*
X940945Y568929D01*
X942945Y566929D01*
X940945Y564929D01*
X938945Y566929D01*
X935008Y559055D02*
X937008Y561055D01*
X939008Y559055D01*
X937008Y557055D01*
X935008Y559055D01*
X938945Y551181D02*
X940945Y553181D01*
X942945Y551181D01*
X940945Y549181D01*
X938945Y551181D01*
X935008Y543307D02*
X937008Y545307D01*
X939008Y543307D01*
X937008Y541307D01*
X935008Y543307D01*
X938945Y535433D02*
X940945Y537433D01*
X942945Y535433D01*
X940945Y533433D01*
X938945Y535433D01*
X935008Y511811D02*
X937008Y513811D01*
X939008Y511811D01*
X937008Y509811D01*
X935008Y511811D01*
X938945Y503937D02*
X940945Y505937D01*
X942945Y503937D01*
X940945Y501937D01*
X938945Y503937D01*
Y488189D02*
X940945Y490189D01*
X942945Y488189D01*
X940945Y486189D01*
X938945Y488189D01*
Y472441D02*
X940945Y474441D01*
X942945Y472441D01*
X940945Y470441D01*
X938945Y472441D01*
Y456693D02*
X940945Y458693D01*
X942945Y456693D01*
X940945Y454693D01*
X938945Y456693D01*
X931071Y645670D02*
X933071Y647670D01*
X935071Y645670D01*
X933071Y643670D01*
X931071Y645670D01*
Y629922D02*
X933071Y631922D01*
X935071Y629922D01*
X933071Y627922D01*
X931071Y629922D01*
X927134Y574803D02*
X929134Y576803D01*
X931134Y574803D01*
X929134Y572803D01*
X927134Y574803D01*
X931071Y566929D02*
X933071Y568929D01*
X935071Y566929D01*
X933071Y564929D01*
X931071Y566929D01*
X927134Y559055D02*
X929134Y561055D01*
X931134Y559055D01*
X929134Y557055D01*
X927134Y559055D01*
X931071Y551181D02*
X933071Y553181D01*
X935071Y551181D01*
X933071Y549181D01*
X931071Y551181D01*
X927134Y543307D02*
X929134Y545307D01*
X931134Y543307D01*
X929134Y541307D01*
X927134Y543307D01*
X931071Y535433D02*
X933071Y537433D01*
X935071Y535433D01*
X933071Y533433D01*
X931071Y535433D01*
X923197Y645670D02*
X925197Y647670D01*
X927197Y645670D01*
X925197Y643670D01*
X923197Y645670D01*
X919260Y637796D02*
X921260Y639796D01*
X923260Y637796D01*
X921260Y635796D01*
X919260Y637796D01*
X923197Y629922D02*
X925197Y631922D01*
X927197Y629922D01*
X925197Y627922D01*
X923197Y629922D01*
X919260Y622048D02*
X921260Y624048D01*
X923260Y622048D01*
X921260Y620048D01*
X919260Y622048D01*
Y574803D02*
X921260Y576803D01*
X923260Y574803D01*
X921260Y572803D01*
X919260Y574803D01*
X923197Y566929D02*
X925197Y568929D01*
X927197Y566929D01*
X925197Y564929D01*
X923197Y566929D01*
X919260Y559055D02*
X921260Y561055D01*
X923260Y559055D01*
X921260Y557055D01*
X919260Y559055D01*
X923197Y551181D02*
X925197Y553181D01*
X927197Y551181D01*
X925197Y549181D01*
X923197Y551181D01*
X919260Y543307D02*
X921260Y545307D01*
X923260Y543307D01*
X921260Y541307D01*
X919260Y543307D01*
X923197Y535433D02*
X925197Y537433D01*
X927197Y535433D01*
X925197Y533433D01*
X923197Y535433D01*
X915323Y645670D02*
X917323Y647670D01*
X919323Y645670D01*
X917323Y643670D01*
X915323Y645670D01*
X911386Y637796D02*
X913386Y639796D01*
X915386Y637796D01*
X913386Y635796D01*
X911386Y637796D01*
X915323Y629922D02*
X917323Y631922D01*
X919323Y629922D01*
X917323Y627922D01*
X915323Y629922D01*
X911386Y622048D02*
X913386Y624048D01*
X915386Y622048D01*
X913386Y620048D01*
X911386Y622048D01*
X915323Y614174D02*
X917323Y616174D01*
X919323Y614174D01*
X917323Y612174D01*
X915323Y614174D01*
X911386Y574803D02*
X913386Y576803D01*
X915386Y574803D01*
X913386Y572803D01*
X911386Y574803D01*
X915323Y566929D02*
X917323Y568929D01*
X919323Y566929D01*
X917323Y564929D01*
X915323Y566929D01*
X911386Y559055D02*
X913386Y561055D01*
X915386Y559055D01*
X913386Y557055D01*
X911386Y559055D01*
X915323Y551181D02*
X917323Y553181D01*
X919323Y551181D01*
X917323Y549181D01*
X915323Y551181D01*
X911386Y543307D02*
X913386Y545307D01*
X915386Y543307D01*
X913386Y541307D01*
X911386Y543307D01*
X915323Y535433D02*
X917323Y537433D01*
X919323Y535433D01*
X917323Y533433D01*
X915323Y535433D01*
Y519685D02*
X917323Y521685D01*
X919323Y519685D01*
X917323Y517685D01*
X915323Y519685D01*
X911386Y464567D02*
X913386Y466567D01*
X915386Y464567D01*
X913386Y462567D01*
X911386Y464567D01*
X907449Y645670D02*
X909449Y647670D01*
X911449Y645670D01*
X909449Y643670D01*
X907449Y645670D01*
X903512Y637796D02*
X905512Y639796D01*
X907512Y637796D01*
X905512Y635796D01*
X903512Y637796D01*
X907449Y629922D02*
X909449Y631922D01*
X911449Y629922D01*
X909449Y627922D01*
X907449Y629922D01*
X903512Y622048D02*
X905512Y624048D01*
X907512Y622048D01*
X905512Y620048D01*
X903512Y622048D01*
X907449Y582678D02*
X909449Y584678D01*
X911449Y582678D01*
X909449Y580678D01*
X907449Y582678D01*
X903512Y574803D02*
X905512Y576803D01*
X907512Y574803D01*
X905512Y572803D01*
X903512Y574803D01*
X907449Y566929D02*
X909449Y568929D01*
X911449Y566929D01*
X909449Y564929D01*
X907449Y566929D01*
X903512Y559055D02*
X905512Y561055D01*
X907512Y559055D01*
X905512Y557055D01*
X903512Y559055D01*
X907449Y551181D02*
X909449Y553181D01*
X911449Y551181D01*
X909449Y549181D01*
X907449Y551181D01*
X903512Y543307D02*
X905512Y545307D01*
X907512Y543307D01*
X905512Y541307D01*
X903512Y543307D01*
X907449Y535433D02*
X909449Y537433D01*
X911449Y535433D01*
X909449Y533433D01*
X907449Y535433D01*
X903512Y464567D02*
X905512Y466567D01*
X907512Y464567D01*
X905512Y462567D01*
X903512Y464567D01*
X895638Y653544D02*
X897638Y655544D01*
X899638Y653544D01*
X897638Y651544D01*
X895638Y653544D01*
X899575Y645670D02*
X901575Y647670D01*
X903575Y645670D01*
X901575Y643670D01*
X899575Y645670D01*
X895638Y637796D02*
X897638Y639796D01*
X899638Y637796D01*
X897638Y635796D01*
X895638Y637796D01*
X899575Y629922D02*
X901575Y631922D01*
X903575Y629922D01*
X901575Y627922D01*
X899575Y629922D01*
Y614174D02*
X901575Y616174D01*
X903575Y614174D01*
X901575Y612174D01*
X899575Y614174D01*
Y566929D02*
X901575Y568929D01*
X903575Y566929D01*
X901575Y564929D01*
X899575Y566929D01*
X895638Y559055D02*
X897638Y561055D01*
X899638Y559055D01*
X897638Y557055D01*
X895638Y559055D01*
X899575Y551181D02*
X901575Y553181D01*
X903575Y551181D01*
X901575Y549181D01*
X899575Y551181D01*
Y535433D02*
X901575Y537433D01*
X903575Y535433D01*
X901575Y533433D01*
X899575Y535433D01*
X887764Y653544D02*
X889764Y655544D01*
X891764Y653544D01*
X889764Y651544D01*
X887764Y653544D01*
X891701Y645670D02*
X893701Y647670D01*
X895701Y645670D01*
X893701Y643670D01*
X891701Y645670D01*
X887764Y559055D02*
X889764Y561055D01*
X891764Y559055D01*
X889764Y557055D01*
X887764Y559055D01*
X883827Y645670D02*
X885827Y647670D01*
X887827Y645670D01*
X885827Y643670D01*
X883827Y645670D01*
Y566929D02*
X885827Y568929D01*
X887827Y566929D01*
X885827Y564929D01*
X883827Y566929D01*
X875953D02*
X877953Y568929D01*
X879953Y566929D01*
X877953Y564929D01*
X875953Y566929D01*
X840520Y448819D02*
X842520Y450819D01*
X844520Y448819D01*
X842520Y446819D01*
X840520Y448819D01*
X816898D02*
X818898Y450819D01*
X820898Y448819D01*
X818898Y446819D01*
X816898Y448819D01*
X809024Y653544D02*
X811024Y655544D01*
X813024Y653544D01*
X811024Y651544D01*
X809024Y653544D01*
X812961Y645670D02*
X814961Y647670D01*
X816961Y645670D01*
X814961Y643670D01*
X812961Y645670D01*
X809024Y637796D02*
X811024Y639796D01*
X813024Y637796D01*
X811024Y635796D01*
X809024Y637796D01*
Y622048D02*
X811024Y624048D01*
X813024Y622048D01*
X811024Y620048D01*
X809024Y622048D01*
Y448819D02*
X811024Y450819D01*
X813024Y448819D01*
X811024Y446819D01*
X809024Y448819D01*
X801150Y653544D02*
X803150Y655544D01*
X805150Y653544D01*
X803150Y651544D01*
X801150Y653544D01*
X805087Y645670D02*
X807087Y647670D01*
X809087Y645670D01*
X807087Y643670D01*
X805087Y645670D01*
X801150Y637796D02*
X803150Y639796D01*
X805150Y637796D01*
X803150Y635796D01*
X801150Y637796D01*
X805087Y582678D02*
X807087Y584678D01*
X809087Y582678D01*
X807087Y580678D01*
X805087Y582678D01*
X801150Y448819D02*
X803150Y450819D01*
X805150Y448819D01*
X803150Y446819D01*
X801150Y448819D01*
X793276Y653544D02*
X795276Y655544D01*
X797276Y653544D01*
X795276Y651544D01*
X793276Y653544D01*
X797213Y645670D02*
X799213Y647670D01*
X801213Y645670D01*
X799213Y643670D01*
X797213Y645670D01*
X793276Y590552D02*
X795276Y592552D01*
X797276Y590552D01*
X795276Y588552D01*
X793276Y590552D01*
Y448819D02*
X795276Y450819D01*
X797276Y448819D01*
X795276Y446819D01*
X793276Y448819D01*
X789339Y645670D02*
X791339Y647670D01*
X793339Y645670D01*
X791339Y643670D01*
X789339Y645670D01*
X785402Y622048D02*
X787402Y624048D01*
X789402Y622048D01*
X787402Y620048D01*
X785402Y622048D01*
Y606299D02*
X787402Y608299D01*
X789402Y606299D01*
X787402Y604299D01*
X785402Y606299D01*
Y590552D02*
X787402Y592552D01*
X789402Y590552D01*
X787402Y588552D01*
X785402Y590552D01*
Y574803D02*
X787402Y576803D01*
X789402Y574803D01*
X787402Y572803D01*
X785402Y574803D01*
Y559055D02*
X787402Y561055D01*
X789402Y559055D01*
X787402Y557055D01*
X785402Y559055D01*
Y448819D02*
X787402Y450819D01*
X789402Y448819D01*
X787402Y446819D01*
X785402Y448819D01*
X781465Y645670D02*
X783465Y647670D01*
X785465Y645670D01*
X783465Y643670D01*
X781465Y645670D01*
X777528Y622048D02*
X779528Y624048D01*
X781528Y622048D01*
X779528Y620048D01*
X777528Y622048D01*
X781465Y614174D02*
X783465Y616174D01*
X785465Y614174D01*
X783465Y612174D01*
X781465Y614174D01*
X777528Y606299D02*
X779528Y608299D01*
X781528Y606299D01*
X779528Y604299D01*
X777528Y606299D01*
X781465Y598425D02*
X783465Y600425D01*
X785465Y598425D01*
X783465Y596425D01*
X781465Y598425D01*
X777528Y590552D02*
X779528Y592552D01*
X781528Y590552D01*
X779528Y588552D01*
X777528Y590552D01*
X781465Y582678D02*
X783465Y584678D01*
X785465Y582678D01*
X783465Y580678D01*
X781465Y582678D01*
X777528Y574803D02*
X779528Y576803D01*
X781528Y574803D01*
X779528Y572803D01*
X777528Y574803D01*
X781465Y566929D02*
X783465Y568929D01*
X785465Y566929D01*
X783465Y564929D01*
X781465Y566929D01*
X777528Y559055D02*
X779528Y561055D01*
X781528Y559055D01*
X779528Y557055D01*
X777528Y559055D01*
X781465Y551181D02*
X783465Y553181D01*
X785465Y551181D01*
X783465Y549181D01*
X781465Y551181D01*
X777528Y543307D02*
X779528Y545307D01*
X781528Y543307D01*
X779528Y541307D01*
X777528Y543307D01*
X781465Y535433D02*
X783465Y537433D01*
X785465Y535433D01*
X783465Y533433D01*
X781465Y535433D01*
X777528Y527559D02*
X779528Y529559D01*
X781528Y527559D01*
X779528Y525559D01*
X777528Y527559D01*
X781465Y519685D02*
X783465Y521685D01*
X785465Y519685D01*
X783465Y517685D01*
X781465Y519685D01*
X777528Y511811D02*
X779528Y513811D01*
X781528Y511811D01*
X779528Y509811D01*
X777528Y511811D01*
X781465Y503937D02*
X783465Y505937D01*
X785465Y503937D01*
X783465Y501937D01*
X781465Y503937D01*
X777528Y496063D02*
X779528Y498063D01*
X781528Y496063D01*
X779528Y494063D01*
X777528Y496063D01*
X781465Y488189D02*
X783465Y490189D01*
X785465Y488189D01*
X783465Y486189D01*
X781465Y488189D01*
X777528Y480315D02*
X779528Y482315D01*
X781528Y480315D01*
X779528Y478315D01*
X777528Y480315D01*
X781465Y472441D02*
X783465Y474441D01*
X785465Y472441D01*
X783465Y470441D01*
X781465Y472441D01*
X777528Y464567D02*
X779528Y466567D01*
X781528Y464567D01*
X779528Y462567D01*
X777528Y464567D01*
X781465Y456693D02*
X783465Y458693D01*
X785465Y456693D01*
X783465Y454693D01*
X781465Y456693D01*
X777528Y448819D02*
X779528Y450819D01*
X781528Y448819D01*
X779528Y446819D01*
X777528Y448819D01*
X769654Y653544D02*
X771654Y655544D01*
X773654Y653544D01*
X771654Y651544D01*
X769654Y653544D01*
Y637796D02*
X771654Y639796D01*
X773654Y637796D01*
X771654Y635796D01*
X769654Y637796D01*
X773591Y629922D02*
X775591Y631922D01*
X777591Y629922D01*
X775591Y627922D01*
X773591Y629922D01*
X769654Y622048D02*
X771654Y624048D01*
X773654Y622048D01*
X771654Y620048D01*
X769654Y622048D01*
X773591Y614174D02*
X775591Y616174D01*
X777591Y614174D01*
X775591Y612174D01*
X773591Y614174D01*
X769654Y606299D02*
X771654Y608299D01*
X773654Y606299D01*
X771654Y604299D01*
X769654Y606299D01*
X773591Y598425D02*
X775591Y600425D01*
X777591Y598425D01*
X775591Y596425D01*
X773591Y598425D01*
X769654Y590552D02*
X771654Y592552D01*
X773654Y590552D01*
X771654Y588552D01*
X769654Y590552D01*
X773591Y582678D02*
X775591Y584678D01*
X777591Y582678D01*
X775591Y580678D01*
X773591Y582678D01*
X769654Y574803D02*
X771654Y576803D01*
X773654Y574803D01*
X771654Y572803D01*
X769654Y574803D01*
X773591Y566929D02*
X775591Y568929D01*
X777591Y566929D01*
X775591Y564929D01*
X773591Y566929D01*
X769654Y559055D02*
X771654Y561055D01*
X773654Y559055D01*
X771654Y557055D01*
X769654Y559055D01*
X773591Y551181D02*
X775591Y553181D01*
X777591Y551181D01*
X775591Y549181D01*
X773591Y551181D01*
X769654Y543307D02*
X771654Y545307D01*
X773654Y543307D01*
X771654Y541307D01*
X769654Y543307D01*
X773591Y535433D02*
X775591Y537433D01*
X777591Y535433D01*
X775591Y533433D01*
X773591Y535433D01*
X769654Y527559D02*
X771654Y529559D01*
X773654Y527559D01*
X771654Y525559D01*
X769654Y527559D01*
X773591Y519685D02*
X775591Y521685D01*
X777591Y519685D01*
X775591Y517685D01*
X773591Y519685D01*
X769654Y511811D02*
X771654Y513811D01*
X773654Y511811D01*
X771654Y509811D01*
X769654Y511811D01*
X773591Y503937D02*
X775591Y505937D01*
X777591Y503937D01*
X775591Y501937D01*
X773591Y503937D01*
X769654Y496063D02*
X771654Y498063D01*
X773654Y496063D01*
X771654Y494063D01*
X769654Y496063D01*
X773591Y488189D02*
X775591Y490189D01*
X777591Y488189D01*
X775591Y486189D01*
X773591Y488189D01*
X769654Y480315D02*
X771654Y482315D01*
X773654Y480315D01*
X771654Y478315D01*
X769654Y480315D01*
X773591Y472441D02*
X775591Y474441D01*
X777591Y472441D01*
X775591Y470441D01*
X773591Y472441D01*
X769654Y464567D02*
X771654Y466567D01*
X773654Y464567D01*
X771654Y462567D01*
X769654Y464567D01*
X773591Y456693D02*
X775591Y458693D01*
X777591Y456693D01*
X775591Y454693D01*
X773591Y456693D01*
X769654Y448819D02*
X771654Y450819D01*
X773654Y448819D01*
X771654Y446819D01*
X769654Y448819D01*
X761780Y622048D02*
X763780Y624048D01*
X765780Y622048D01*
X763780Y620048D01*
X761780Y622048D01*
X765717Y614174D02*
X767717Y616174D01*
X769717Y614174D01*
X767717Y612174D01*
X765717Y614174D01*
X761780Y606299D02*
X763780Y608299D01*
X765780Y606299D01*
X763780Y604299D01*
X761780Y606299D01*
X765717Y598425D02*
X767717Y600425D01*
X769717Y598425D01*
X767717Y596425D01*
X765717Y598425D01*
X761780Y590552D02*
X763780Y592552D01*
X765780Y590552D01*
X763780Y588552D01*
X761780Y590552D01*
X765717Y582678D02*
X767717Y584678D01*
X769717Y582678D01*
X767717Y580678D01*
X765717Y582678D01*
X761780Y574803D02*
X763780Y576803D01*
X765780Y574803D01*
X763780Y572803D01*
X761780Y574803D01*
X765717Y566929D02*
X767717Y568929D01*
X769717Y566929D01*
X767717Y564929D01*
X765717Y566929D01*
X761780Y559055D02*
X763780Y561055D01*
X765780Y559055D01*
X763780Y557055D01*
X761780Y559055D01*
X765717Y551181D02*
X767717Y553181D01*
X769717Y551181D01*
X767717Y549181D01*
X765717Y551181D01*
X761780Y543307D02*
X763780Y545307D01*
X765780Y543307D01*
X763780Y541307D01*
X761780Y543307D01*
X765717Y535433D02*
X767717Y537433D01*
X769717Y535433D01*
X767717Y533433D01*
X765717Y535433D01*
X761780Y527559D02*
X763780Y529559D01*
X765780Y527559D01*
X763780Y525559D01*
X761780Y527559D01*
X765717Y519685D02*
X767717Y521685D01*
X769717Y519685D01*
X767717Y517685D01*
X765717Y519685D01*
X761780Y511811D02*
X763780Y513811D01*
X765780Y511811D01*
X763780Y509811D01*
X761780Y511811D01*
X765717Y503937D02*
X767717Y505937D01*
X769717Y503937D01*
X767717Y501937D01*
X765717Y503937D01*
X761780Y496063D02*
X763780Y498063D01*
X765780Y496063D01*
X763780Y494063D01*
X761780Y496063D01*
X765717Y488189D02*
X767717Y490189D01*
X769717Y488189D01*
X767717Y486189D01*
X765717Y488189D01*
X761780Y480315D02*
X763780Y482315D01*
X765780Y480315D01*
X763780Y478315D01*
X761780Y480315D01*
X765717Y472441D02*
X767717Y474441D01*
X769717Y472441D01*
X767717Y470441D01*
X765717Y472441D01*
X761780Y464567D02*
X763780Y466567D01*
X765780Y464567D01*
X763780Y462567D01*
X761780Y464567D01*
X765717Y456693D02*
X767717Y458693D01*
X769717Y456693D01*
X767717Y454693D01*
X765717Y456693D01*
X761780Y448819D02*
X763780Y450819D01*
X765780Y448819D01*
X763780Y446819D01*
X761780Y448819D01*
X757843Y645670D02*
X759843Y647670D01*
X761843Y645670D01*
X759843Y643670D01*
X757843Y645670D01*
X753906Y622048D02*
X755906Y624048D01*
X757906Y622048D01*
X755906Y620048D01*
X753906Y622048D01*
X757843Y614174D02*
X759843Y616174D01*
X761843Y614174D01*
X759843Y612174D01*
X757843Y614174D01*
X753906Y606299D02*
X755906Y608299D01*
X757906Y606299D01*
X755906Y604299D01*
X753906Y606299D01*
X757843Y598425D02*
X759843Y600425D01*
X761843Y598425D01*
X759843Y596425D01*
X757843Y598425D01*
X753906Y590552D02*
X755906Y592552D01*
X757906Y590552D01*
X755906Y588552D01*
X753906Y590552D01*
X757843Y582678D02*
X759843Y584678D01*
X761843Y582678D01*
X759843Y580678D01*
X757843Y582678D01*
X753906Y574803D02*
X755906Y576803D01*
X757906Y574803D01*
X755906Y572803D01*
X753906Y574803D01*
X757843Y566929D02*
X759843Y568929D01*
X761843Y566929D01*
X759843Y564929D01*
X757843Y566929D01*
X753906Y559055D02*
X755906Y561055D01*
X757906Y559055D01*
X755906Y557055D01*
X753906Y559055D01*
X757843Y551181D02*
X759843Y553181D01*
X761843Y551181D01*
X759843Y549181D01*
X757843Y551181D01*
X753906Y543307D02*
X755906Y545307D01*
X757906Y543307D01*
X755906Y541307D01*
X753906Y543307D01*
X757843Y535433D02*
X759843Y537433D01*
X761843Y535433D01*
X759843Y533433D01*
X757843Y535433D01*
X753906Y527559D02*
X755906Y529559D01*
X757906Y527559D01*
X755906Y525559D01*
X753906Y527559D01*
X757843Y519685D02*
X759843Y521685D01*
X761843Y519685D01*
X759843Y517685D01*
X757843Y519685D01*
X753906Y511811D02*
X755906Y513811D01*
X757906Y511811D01*
X755906Y509811D01*
X753906Y511811D01*
X757843Y503937D02*
X759843Y505937D01*
X761843Y503937D01*
X759843Y501937D01*
X757843Y503937D01*
X753906Y496063D02*
X755906Y498063D01*
X757906Y496063D01*
X755906Y494063D01*
X753906Y496063D01*
X757843Y488189D02*
X759843Y490189D01*
X761843Y488189D01*
X759843Y486189D01*
X757843Y488189D01*
X753906Y480315D02*
X755906Y482315D01*
X757906Y480315D01*
X755906Y478315D01*
X753906Y480315D01*
X757843Y472441D02*
X759843Y474441D01*
X761843Y472441D01*
X759843Y470441D01*
X757843Y472441D01*
X753906Y464567D02*
X755906Y466567D01*
X757906Y464567D01*
X755906Y462567D01*
X753906Y464567D01*
X757843Y456693D02*
X759843Y458693D01*
X761843Y456693D01*
X759843Y454693D01*
X757843Y456693D01*
X753906Y448819D02*
X755906Y450819D01*
X757906Y448819D01*
X755906Y446819D01*
X753906Y448819D01*
X788585Y621620D02*
X790585Y623620D01*
X792585Y621620D01*
X790585Y619620D01*
X788585Y621620D01*
X890940Y453188D02*
X892940Y455188D01*
X894940Y453188D01*
X892940Y451188D01*
X890940Y453188D01*
X918966Y444014D02*
X920965Y446014D01*
X922966Y444014D01*
X920965Y442014D01*
X918966Y444014D01*
X901715Y488182D02*
X903715Y490182D01*
X905715Y488182D01*
X903715Y486182D01*
X901715Y488182D01*
X908691Y495923D02*
X910691Y497923D01*
X912691Y495923D01*
X910691Y493923D01*
X908691Y495923D01*
X908494Y491395D02*
X910494Y493395D01*
X912494Y491395D01*
X910494Y489395D01*
X908494Y491395D01*
X908553Y488182D02*
X910553Y490182D01*
X912553Y488182D01*
X910553Y486182D01*
X908553Y488182D01*
X860208Y574131D02*
X862208Y576131D01*
X864208Y574131D01*
X862208Y572131D01*
X860208Y574131D01*
X854270Y618131D02*
X856270Y620131D01*
X858270Y618131D01*
X856270Y616131D01*
X854270Y618131D01*
X858829Y623984D02*
X860829Y625984D01*
X862829Y623984D01*
X860829Y621984D01*
X858829Y623984D01*
X854447D02*
X856447Y625984D01*
X858447Y623984D01*
X856447Y621984D01*
X854447Y623984D01*
X827826Y622998D02*
X829826Y624998D01*
X831826Y622998D01*
X829826Y620998D01*
X827826Y622998D01*
X818218Y589058D02*
X820218Y591058D01*
X822218Y589058D01*
X820218Y587058D01*
X818218Y589058D01*
X857127Y549737D02*
X859127Y551737D01*
X861127Y549737D01*
X859127Y547737D01*
X857127Y549737D01*
X851485Y532004D02*
X853485Y534004D01*
X855485Y532004D01*
X853485Y530004D01*
X851485Y532004D01*
X874423Y525158D02*
X876423Y527158D01*
X878423Y525158D01*
X876423Y523158D01*
X874423Y525158D01*
X811002Y592756D02*
X813002Y594756D01*
X815002Y592756D01*
X813002Y590756D01*
X811002Y592756D01*
X876637Y519583D02*
X878637Y521583D01*
X880637Y519583D01*
X878637Y517583D01*
X876637Y519583D01*
X868763Y523916D02*
X870763Y525916D01*
X872763Y523916D01*
X870763Y521916D01*
X868763Y523916D01*
X866794Y521453D02*
X868795Y523453D01*
X870794Y521453D01*
X868795Y519453D01*
X866794Y521453D01*
X808629Y537581D02*
X810629Y539581D01*
X812629Y537581D01*
X810629Y535581D01*
X808629Y537581D01*
X861098Y552572D02*
X863098Y554572D01*
X865098Y552572D01*
X863098Y550572D01*
X861098Y552572D01*
X825760Y554672D02*
X827760Y556672D01*
X829760Y554672D01*
X827760Y552672D01*
X825760Y554672D01*
Y559345D02*
X827760Y561345D01*
X829760Y559345D01*
X827760Y557345D01*
X825760Y559345D01*
X819506Y554540D02*
X821506Y556540D01*
X823506Y554540D01*
X821506Y552540D01*
X819506Y554540D01*
X819453Y559214D02*
X821453Y561214D01*
X823453Y559214D01*
X821453Y557214D01*
X819453Y559214D01*
X814161Y554540D02*
X816161Y556540D01*
X818161Y554540D01*
X816161Y552540D01*
X814161Y554540D01*
X814108Y559262D02*
X816108Y561262D01*
X818108Y559262D01*
X816108Y557262D01*
X814108Y559262D01*
X911504Y518828D02*
X913504Y520828D01*
X915504Y518828D01*
X913504Y516828D01*
X911504Y518828D01*
X894688Y508392D02*
X896688Y510392D01*
X898688Y508392D01*
X896688Y506391D01*
X894688Y508392D01*
X878606Y489427D02*
X880606Y491427D01*
X882606Y489427D01*
X880606Y487427D01*
X878606Y489427D01*
X907784Y502306D02*
X909784Y504306D01*
X911784Y502306D01*
X909784Y500306D01*
X907784Y502306D01*
X924892Y469873D02*
X926892Y471873D01*
X928892Y469873D01*
X926892Y467873D01*
X924892Y469873D01*
X908203Y474912D02*
X910203Y476912D01*
X912203Y474912D01*
X910203Y472912D01*
X908203Y474912D01*
Y480109D02*
X910203Y482109D01*
X912203Y480109D01*
X910203Y478109D01*
X908203Y480109D01*
X907540Y483521D02*
X909540Y485521D01*
X911540Y483521D01*
X909540Y481521D01*
X907540Y483521D01*
X860995Y556824D02*
X862994Y558824D01*
X864995Y556824D01*
X862994Y554824D01*
X860995Y556824D01*
X860942Y560910D02*
X862942Y562910D01*
X864942Y560910D01*
X862942Y558910D01*
X860942Y560910D01*
X862799Y611360D02*
X864799Y613360D01*
X866798Y611360D01*
X864799Y609360D01*
X862799Y611360D01*
X923810Y601911D02*
X925809Y603911D01*
X927810Y601911D01*
X925809Y599911D01*
X923810Y601911D01*
Y608017D02*
X925809Y610017D01*
X927810Y608017D01*
X925809Y606017D01*
X923810Y608017D01*
X915426Y602892D02*
X917426Y604892D01*
X919426Y602892D01*
X917426Y600892D01*
X915426Y602892D01*
Y608149D02*
X917426Y610149D01*
X919426Y608149D01*
X917426Y606149D01*
X915426Y608149D01*
X908214Y602951D02*
X910214Y604951D01*
X912214Y602951D01*
X910214Y600951D01*
X908214Y602951D01*
Y608017D02*
X910214Y610017D01*
X912214Y608017D01*
X910214Y606017D01*
X908214Y608017D01*
X826001Y524831D02*
X828001Y526831D01*
X830001Y524831D01*
X828001Y522831D01*
X826001Y524831D01*
X835660Y531675D02*
X837660Y533675D01*
X839660Y531675D01*
X837660Y529675D01*
X835660Y531675D01*
X835607Y535421D02*
X837607Y537421D01*
X839607Y535421D01*
X837607Y533421D01*
X835607Y535421D01*
X830163Y535252D02*
X832162Y537252D01*
X834163Y535252D01*
X832162Y533252D01*
X830163Y535252D01*
X829999Y531675D02*
X831999Y533675D01*
X833999Y531675D01*
X831999Y529675D01*
X829999Y531675D01*
X824136Y531807D02*
X826136Y533807D01*
X828136Y531807D01*
X826136Y529807D01*
X824136Y531807D01*
X824083Y535252D02*
X826083Y537252D01*
X828083Y535252D01*
X826083Y533252D01*
X824083Y535252D01*
X814462Y619254D02*
X816462Y621254D01*
X818462Y619254D01*
X816462Y617254D01*
X814462Y619254D01*
X820239Y596510D02*
X822239Y598510D01*
X824239Y596510D01*
X822239Y594510D01*
X820239Y596510D01*
X827427Y597777D02*
X829427Y599777D01*
X831427Y597777D01*
X829427Y595777D01*
X827427Y597777D01*
X806580Y609317D02*
X808580Y611317D01*
X810580Y609317D01*
X808580Y607317D01*
X806580Y609317D01*
X840369Y573535D02*
X842369Y575535D01*
X844369Y573535D01*
X842369Y571535D01*
X840369Y573535D01*
X845600D02*
X847600Y575535D01*
X849600Y573535D01*
X847600Y571535D01*
X845600Y573535D01*
Y576502D02*
X847600Y578502D01*
X849600Y576502D01*
X847600Y574502D01*
X845600Y576502D01*
X840298D02*
X842298Y578502D01*
X844298Y576502D01*
X842298Y574502D01*
X840298Y576502D01*
X828612Y584959D02*
X830612Y586959D01*
X832612Y584959D01*
X830612Y582959D01*
X828612Y584959D01*
X829895Y578686D02*
X831895Y580686D01*
X833895Y578686D01*
X831895Y576686D01*
X829895Y578686D01*
X824815D02*
X826815Y580686D01*
X828815Y578686D01*
X826815Y576686D01*
X824815Y578686D01*
X838142Y604856D02*
X840142Y606856D01*
X842142Y604856D01*
X840142Y602856D01*
X838142Y604856D01*
X837941Y608622D02*
X839941Y610622D01*
X841941Y608622D01*
X839941Y606622D01*
X837941Y608622D01*
X838574Y494445D02*
X840574Y496445D01*
X842574Y494445D01*
X840574Y492445D01*
X838574Y494445D01*
X841555Y494282D02*
X843555Y496282D01*
X845555Y494282D01*
X843555Y492282D01*
X841555Y494282D01*
X882595Y512558D02*
X884595Y514558D01*
X886595Y512558D01*
X884595Y510558D01*
X882595Y512558D01*
X880627Y515652D02*
X882627Y517652D01*
X884627Y515652D01*
X882627Y513652D01*
X880627Y515652D01*
X841480Y475757D02*
X843480Y477757D01*
X845480Y475757D01*
X843480Y473757D01*
X841480Y475757D01*
X837551Y476551D02*
X839551Y478551D01*
X841551Y476551D01*
X839551Y474551D01*
X837551Y476551D01*
X842400Y478731D02*
X844401Y480731D01*
X846401Y478731D01*
X844401Y476731D01*
X842400Y478731D01*
X832709Y471809D02*
X834709Y473809D01*
X836709Y471809D01*
X834709Y469809D01*
X832709Y471809D01*
X831469Y492226D02*
X833469Y494226D01*
X835469Y492226D01*
X833469Y490226D01*
X831469Y492226D01*
X900177Y492573D02*
X902177Y494573D01*
X904177Y492573D01*
X902177Y490573D01*
X900177Y492573D01*
X896045Y497402D02*
X898045Y499402D01*
X900045Y497402D01*
X898045Y495402D01*
X896045Y497402D01*
X832578Y468512D02*
X834578Y470512D01*
X836578Y468512D01*
X834578Y466512D01*
X832578Y468512D01*
X850221Y444780D02*
X852221Y446780D01*
X854221Y444780D01*
X852221Y442780D01*
X850221Y444780D01*
X864288D02*
X866288Y446780D01*
X868288Y444780D01*
X866288Y442780D01*
X864288Y444780D01*
X878146Y444758D02*
X880147Y446758D01*
X882146Y444758D01*
X880147Y442758D01*
X878146Y444758D01*
X902182Y448416D02*
X904182Y450416D01*
X906182Y448416D01*
X904182Y446416D01*
X902182Y448416D01*
D93*
X765145Y633545D02*
G03*
X765145Y633545I-2000J0D01*
G01*
Y656655D02*
G03*
X765145Y656655I-2000J0D01*
G01*
X788255Y633545D02*
G03*
X788255Y633545I-2000J0D01*
G01*
Y656655D02*
G03*
X788255Y656655I-2000J0D01*
G01*
X840745Y657555D02*
G03*
X840745Y657555I-2000J0D01*
G01*
X863855D02*
G03*
X863855Y657555I-2000J0D01*
G01*
X840745Y634445D02*
G03*
X840745Y634445I-2000J0D01*
G01*
X863855D02*
G03*
X863855Y634445I-2000J0D01*
G01*
M02*
