G04*
G04 #@! TF.GenerationSoftware,Altium Limited,Altium Designer,24.0.1 (36)*
G04*
G04 Layer_Color=65535*
%FSLAX25Y25*%
%MOIN*%
G70*
G04*
G04 #@! TF.SameCoordinates,4AE72286-74C0-4861-BAE4-8600210459B3*
G04*
G04*
G04 #@! TF.FilePolarity,Positive*
G04*
G01*
G75*
%ADD10C,0.00984*%
%ADD11C,0.02362*%
%ADD12C,0.00787*%
%ADD13C,0.00591*%
%ADD14C,0.00394*%
%ADD15C,0.01000*%
%ADD16C,0.00472*%
%ADD17C,0.00700*%
G36*
X890200Y517434D02*
X889711D01*
Y521324D01*
X889703D01*
Y521332D01*
X875647D01*
Y521324D01*
X875639D01*
Y517434D01*
X875150D01*
Y521836D01*
X890200D01*
Y517434D01*
D02*
G37*
G36*
X889079Y517058D02*
X889094D01*
Y517050D01*
X889109D01*
Y517042D01*
X889124D01*
Y517035D01*
X889131D01*
Y517028D01*
X889146D01*
Y517020D01*
X889161D01*
Y517012D01*
X889169D01*
Y517005D01*
X889184D01*
Y516997D01*
X889199D01*
Y516990D01*
X889207D01*
Y516982D01*
X889222D01*
Y516975D01*
X889237D01*
Y516967D01*
X889252D01*
Y516960D01*
X889259D01*
Y516952D01*
X889274D01*
Y516945D01*
X889289D01*
Y516937D01*
X889297D01*
Y516930D01*
X889312D01*
Y516922D01*
X889327D01*
Y516915D01*
X889334D01*
Y516907D01*
X889350D01*
Y516899D01*
X889365D01*
Y516892D01*
X889372D01*
Y516885D01*
X889387D01*
Y516877D01*
X889402D01*
Y516869D01*
X889417D01*
Y516862D01*
X889425D01*
Y516854D01*
X889440D01*
Y516847D01*
X889455D01*
Y516839D01*
X889462D01*
Y516832D01*
X889478D01*
Y516824D01*
X889493D01*
Y516817D01*
X889500D01*
Y516809D01*
X889515D01*
Y516802D01*
X889530D01*
Y516794D01*
X889545D01*
Y516787D01*
X889553D01*
Y516779D01*
X889568D01*
Y516772D01*
X889583D01*
Y516764D01*
X889590D01*
Y516757D01*
X889605D01*
Y516749D01*
X889620D01*
Y516742D01*
X889628D01*
Y516734D01*
X889643D01*
Y516726D01*
X889658D01*
Y516719D01*
X889666D01*
Y516711D01*
X889681D01*
Y516704D01*
X889696D01*
Y516696D01*
X889711D01*
Y516689D01*
X889718D01*
Y516681D01*
X889733D01*
Y516674D01*
X889748D01*
Y516666D01*
X889756D01*
Y516659D01*
X889771D01*
Y516651D01*
X889786D01*
Y516644D01*
X889793D01*
Y516636D01*
X889809D01*
Y516629D01*
X889824D01*
Y516621D01*
X889839D01*
Y516614D01*
X889846D01*
Y516606D01*
X889861D01*
Y516599D01*
X889876D01*
Y516591D01*
X889884D01*
Y516583D01*
X889899D01*
Y516576D01*
X889914D01*
Y516569D01*
X889921D01*
Y516561D01*
X889937D01*
Y516553D01*
X889952D01*
Y516546D01*
X889959D01*
Y516538D01*
X889974D01*
Y516531D01*
X889989D01*
Y516523D01*
X890004D01*
Y516516D01*
X890012D01*
Y516508D01*
X890027D01*
Y516501D01*
X890042D01*
Y516493D01*
X890049D01*
Y516486D01*
X890064D01*
Y516478D01*
X890079D01*
Y516471D01*
X890087D01*
Y516463D01*
X890102D01*
Y516456D01*
X890117D01*
Y516448D01*
X890132D01*
Y516440D01*
X890140D01*
Y516433D01*
X890155D01*
Y516426D01*
X890170D01*
Y516418D01*
X890177D01*
Y516410D01*
X890192D01*
Y516403D01*
X890200D01*
Y515289D01*
X888951D01*
Y515966D01*
X887062D01*
Y517065D01*
X889079D01*
Y517058D01*
D02*
G37*
G36*
Y514416D02*
X889094D01*
Y514409D01*
X889109D01*
Y514401D01*
X889124D01*
Y514394D01*
X889131D01*
Y514386D01*
X889146D01*
Y514379D01*
X889161D01*
Y514371D01*
X889176D01*
Y514364D01*
X889184D01*
Y514356D01*
X889199D01*
Y514349D01*
X889214D01*
Y514341D01*
X889222D01*
Y514333D01*
X889237D01*
Y514326D01*
X889252D01*
Y514319D01*
X889267D01*
Y514311D01*
X889274D01*
Y514303D01*
X889289D01*
Y514296D01*
X889304D01*
Y514288D01*
X889312D01*
Y514281D01*
X889327D01*
Y514273D01*
X889342D01*
Y514266D01*
X889357D01*
Y514258D01*
X889365D01*
Y514251D01*
X889380D01*
Y514243D01*
X889395D01*
Y514236D01*
X889410D01*
Y514228D01*
X889417D01*
Y514221D01*
X889432D01*
Y514213D01*
X889447D01*
Y514206D01*
X889455D01*
Y514198D01*
X889470D01*
Y514191D01*
X889485D01*
Y514183D01*
X889500D01*
Y514176D01*
X889508D01*
Y514168D01*
X889523D01*
Y514160D01*
X889538D01*
Y514153D01*
X889545D01*
Y514145D01*
X889560D01*
Y514138D01*
X889575D01*
Y514130D01*
X889590D01*
Y514123D01*
X889598D01*
Y514115D01*
X889613D01*
Y514108D01*
X889628D01*
Y514100D01*
X889635D01*
Y514093D01*
X889651D01*
Y514085D01*
X889666D01*
Y514078D01*
X889681D01*
Y514070D01*
X889688D01*
Y514063D01*
X889703D01*
Y514055D01*
X889718D01*
Y514048D01*
X889733D01*
Y514040D01*
X889741D01*
Y514033D01*
X889756D01*
Y514025D01*
X889771D01*
Y514017D01*
X889779D01*
Y514010D01*
X889793D01*
Y514002D01*
X889809D01*
Y513995D01*
X889824D01*
Y513987D01*
X889831D01*
Y513980D01*
X889846D01*
Y513972D01*
X889861D01*
Y513965D01*
X889869D01*
Y513957D01*
X889884D01*
Y513950D01*
X889899D01*
Y513942D01*
X889914D01*
Y513935D01*
X889921D01*
Y513927D01*
X889937D01*
Y513920D01*
X889952D01*
Y513912D01*
X889959D01*
Y513905D01*
X889974D01*
Y513897D01*
X889989D01*
Y513890D01*
X890004D01*
Y513882D01*
X890012D01*
Y513874D01*
X890027D01*
Y513867D01*
X890042D01*
Y513860D01*
X890057D01*
Y513852D01*
X890064D01*
Y513844D01*
X890079D01*
Y513837D01*
X890094D01*
Y513829D01*
X890102D01*
Y513822D01*
X890117D01*
Y513814D01*
X890132D01*
Y513807D01*
X890147D01*
Y513799D01*
X890155D01*
Y513792D01*
X890170D01*
Y513784D01*
X890185D01*
Y513777D01*
X890192D01*
Y513769D01*
X890200D01*
Y512618D01*
Y512136D01*
X890192D01*
Y512129D01*
X890185D01*
Y512121D01*
X890170D01*
Y512114D01*
X890155D01*
Y512106D01*
X890147D01*
Y512099D01*
X890132D01*
Y512091D01*
X890117D01*
Y512084D01*
X890102D01*
Y512076D01*
X890094D01*
Y512069D01*
X890079D01*
Y512061D01*
X890064D01*
Y512053D01*
X890057D01*
Y512046D01*
X890042D01*
Y512038D01*
X890027D01*
Y512031D01*
X890012D01*
Y512023D01*
X890004D01*
Y512016D01*
X889989D01*
Y512008D01*
X889974D01*
Y512001D01*
X889959D01*
Y511993D01*
X889952D01*
Y511986D01*
X889937D01*
Y511978D01*
X889921D01*
Y511971D01*
X889914D01*
Y511963D01*
X889899D01*
Y511956D01*
X889884D01*
Y511948D01*
X889869D01*
Y511941D01*
X889861D01*
Y511933D01*
X889846D01*
Y511926D01*
X889831D01*
Y511918D01*
X889824D01*
Y511910D01*
X889809D01*
Y511903D01*
X889793D01*
Y511895D01*
X889779D01*
Y511888D01*
X889771D01*
Y511880D01*
X889756D01*
Y511873D01*
X889741D01*
Y511865D01*
X889733D01*
Y511858D01*
X889718D01*
Y511850D01*
X889703D01*
Y511843D01*
X889688D01*
Y511835D01*
X889681D01*
Y511828D01*
X889666D01*
Y511820D01*
X889651D01*
Y511813D01*
X889635D01*
Y511805D01*
X889628D01*
Y511798D01*
X889613D01*
Y511790D01*
X889598D01*
Y511783D01*
X889590D01*
Y511775D01*
X889575D01*
Y511767D01*
X889560D01*
Y511760D01*
X889545D01*
Y511753D01*
X889538D01*
Y511745D01*
X889523D01*
Y511737D01*
X889508D01*
Y511730D01*
X889500D01*
Y511722D01*
X889485D01*
Y511715D01*
X889470D01*
Y511707D01*
X889455D01*
Y511700D01*
X889447D01*
Y511692D01*
X889432D01*
Y511685D01*
X889417D01*
Y511677D01*
X889410D01*
Y511670D01*
X889395D01*
Y511662D01*
X889380D01*
Y511655D01*
X889365D01*
Y511647D01*
X889357D01*
Y511640D01*
X889342D01*
Y511632D01*
X889327D01*
Y511624D01*
X889312D01*
Y511617D01*
X889304D01*
Y511610D01*
X889289D01*
Y511602D01*
X889274D01*
Y511594D01*
X889267D01*
Y511587D01*
X889252D01*
Y511579D01*
X889237D01*
Y511572D01*
X889222D01*
Y511564D01*
X889214D01*
Y511557D01*
X889199D01*
Y511549D01*
X889184D01*
Y511542D01*
X889176D01*
Y511534D01*
X889161D01*
Y511527D01*
X889146D01*
Y511519D01*
X889131D01*
Y511512D01*
X889124D01*
Y511504D01*
X889109D01*
Y511497D01*
X889094D01*
Y511489D01*
X889079D01*
Y511482D01*
X887100D01*
Y512422D01*
Y512430D01*
Y512610D01*
X887107D01*
Y512618D01*
X888951D01*
Y513288D01*
X887107D01*
Y513295D01*
X887100D01*
Y513476D01*
Y513483D01*
Y514424D01*
X889079D01*
Y514416D01*
D02*
G37*
G36*
X886625Y515966D02*
X884744D01*
Y512663D01*
Y512655D01*
Y512618D01*
X886588D01*
Y511482D01*
X884609D01*
Y511489D01*
X884594D01*
Y511497D01*
X884586D01*
Y511504D01*
X884571D01*
Y511512D01*
X884556D01*
Y511519D01*
X884549D01*
Y511527D01*
X884534D01*
Y511534D01*
X884519D01*
Y511542D01*
X884503D01*
Y511549D01*
X884496D01*
Y511557D01*
X884481D01*
Y511564D01*
X884466D01*
Y511572D01*
X884458D01*
Y511579D01*
X884443D01*
Y511587D01*
X884428D01*
Y511594D01*
X884413D01*
Y511602D01*
X884406D01*
Y511610D01*
X884391D01*
Y511617D01*
X884376D01*
Y511624D01*
X884368D01*
Y511632D01*
X884353D01*
Y511640D01*
X884338D01*
Y511647D01*
X884323D01*
Y511655D01*
X884315D01*
Y511662D01*
X884300D01*
Y511670D01*
X884285D01*
Y511677D01*
X884270D01*
Y511685D01*
X884263D01*
Y511692D01*
X884248D01*
Y511700D01*
X884233D01*
Y511707D01*
X884225D01*
Y511715D01*
X884210D01*
Y511722D01*
X884195D01*
Y511730D01*
X884180D01*
Y511737D01*
X884172D01*
Y511745D01*
X884157D01*
Y511753D01*
X884142D01*
Y511760D01*
X884135D01*
Y511767D01*
X884120D01*
Y511775D01*
X884105D01*
Y511783D01*
X884090D01*
Y511790D01*
X884082D01*
Y511798D01*
X884067D01*
Y511805D01*
X884052D01*
Y511813D01*
X884044D01*
Y511820D01*
X884029D01*
Y511828D01*
X884014D01*
Y511835D01*
X883999D01*
Y511843D01*
X883992D01*
Y511850D01*
X883977D01*
Y511858D01*
X883962D01*
Y511865D01*
X883947D01*
Y511873D01*
X883939D01*
Y511880D01*
X883924D01*
Y511888D01*
X883909D01*
Y511895D01*
X883902D01*
Y511903D01*
X883886D01*
Y511910D01*
X883871D01*
Y511918D01*
X883856D01*
Y511926D01*
X883849D01*
Y511933D01*
X883834D01*
Y511941D01*
X883819D01*
Y511948D01*
X883811D01*
Y511956D01*
X883796D01*
Y511963D01*
X883781D01*
Y511971D01*
X883766D01*
Y511978D01*
X883759D01*
Y511986D01*
X883743D01*
Y511993D01*
X883728D01*
Y512001D01*
X883713D01*
Y512008D01*
X883706D01*
Y512016D01*
X883691D01*
Y512023D01*
X883676D01*
Y512031D01*
X883668D01*
Y512038D01*
X883653D01*
Y512046D01*
X883638D01*
Y512053D01*
X883623D01*
Y512061D01*
X883615D01*
Y512069D01*
X883601D01*
Y512076D01*
X883585D01*
Y512084D01*
X883578D01*
Y512091D01*
X883563D01*
Y512099D01*
X883548D01*
Y512106D01*
X883533D01*
Y512114D01*
X883525D01*
Y512121D01*
X883510D01*
Y512129D01*
X883495D01*
Y512136D01*
X883488D01*
Y512144D01*
X883480D01*
Y516395D01*
X883488D01*
Y516403D01*
X883503D01*
Y516410D01*
X883510D01*
Y516418D01*
X883525D01*
Y516426D01*
X883540D01*
Y516433D01*
X883548D01*
Y516440D01*
X883563D01*
Y516448D01*
X883578D01*
Y516456D01*
X883593D01*
Y516463D01*
X883601D01*
Y516471D01*
X883615D01*
Y516478D01*
X883631D01*
Y516486D01*
X883638D01*
Y516493D01*
X883653D01*
Y516501D01*
X883668D01*
Y516508D01*
X883676D01*
Y516516D01*
X883691D01*
Y516523D01*
X883706D01*
Y516531D01*
X883721D01*
Y516538D01*
X883728D01*
Y516546D01*
X883743D01*
Y516553D01*
X883759D01*
Y516561D01*
X883766D01*
Y516569D01*
X883781D01*
Y516576D01*
X883796D01*
Y516583D01*
X883804D01*
Y516591D01*
X883819D01*
Y516599D01*
X883834D01*
Y516606D01*
X883841D01*
Y516614D01*
X883856D01*
Y516621D01*
X883871D01*
Y516629D01*
X883886D01*
Y516636D01*
X883894D01*
Y516644D01*
X883909D01*
Y516651D01*
X883924D01*
Y516659D01*
X883932D01*
Y516666D01*
X883947D01*
Y516674D01*
X883962D01*
Y516681D01*
X883969D01*
Y516689D01*
X883984D01*
Y516696D01*
X883999D01*
Y516704D01*
X884014D01*
Y516711D01*
X884022D01*
Y516719D01*
X884037D01*
Y516726D01*
X884052D01*
Y516734D01*
X884060D01*
Y516742D01*
X884075D01*
Y516749D01*
X884090D01*
Y516757D01*
X884097D01*
Y516764D01*
X884112D01*
Y516772D01*
X884127D01*
Y516779D01*
X884135D01*
Y516787D01*
X884150D01*
Y516794D01*
X884165D01*
Y516802D01*
X884180D01*
Y516809D01*
X884187D01*
Y516817D01*
X884202D01*
Y516824D01*
X884217D01*
Y516832D01*
X884225D01*
Y516839D01*
X884240D01*
Y516847D01*
X884255D01*
Y516854D01*
X884263D01*
Y516862D01*
X884278D01*
Y516869D01*
X884293D01*
Y516877D01*
X884308D01*
Y516885D01*
X884315D01*
Y516892D01*
X884330D01*
Y516899D01*
X884346D01*
Y516907D01*
X884353D01*
Y516915D01*
X884368D01*
Y516922D01*
X884383D01*
Y516930D01*
X884391D01*
Y516937D01*
X884406D01*
Y516945D01*
X884421D01*
Y516952D01*
X884428D01*
Y516960D01*
X884443D01*
Y516967D01*
X884458D01*
Y516975D01*
X884473D01*
Y516982D01*
X884481D01*
Y516990D01*
X884496D01*
Y516997D01*
X884511D01*
Y517005D01*
X884519D01*
Y517012D01*
X884534D01*
Y517020D01*
X884549D01*
Y517028D01*
X884556D01*
Y517035D01*
X884571D01*
Y517042D01*
X884586D01*
Y517050D01*
X884601D01*
Y517058D01*
X884609D01*
Y517065D01*
X886625D01*
Y515966D01*
D02*
G37*
G36*
X881832Y513686D02*
Y513679D01*
Y512144D01*
X881825D01*
Y512136D01*
X881817D01*
Y512129D01*
X881802D01*
Y512121D01*
X881787D01*
Y512114D01*
X881779D01*
Y512106D01*
X881764D01*
Y512099D01*
X881749D01*
Y512091D01*
X881742D01*
Y512084D01*
X881727D01*
Y512076D01*
X881719D01*
Y512069D01*
X881704D01*
Y512061D01*
X881689D01*
Y512053D01*
X881682D01*
Y512046D01*
X881667D01*
Y512038D01*
X881651D01*
Y512031D01*
X881644D01*
Y512023D01*
X881629D01*
Y512016D01*
X881614D01*
Y512008D01*
X881606D01*
Y512001D01*
X881591D01*
Y511993D01*
X881576D01*
Y511986D01*
X881569D01*
Y511978D01*
X881554D01*
Y511971D01*
X881539D01*
Y511963D01*
X881531D01*
Y511956D01*
X881516D01*
Y511948D01*
X881501D01*
Y511941D01*
X881493D01*
Y511933D01*
X881479D01*
Y511926D01*
X881463D01*
Y511918D01*
X881456D01*
Y511910D01*
X881441D01*
Y511903D01*
X881426D01*
Y511895D01*
X881418D01*
Y511888D01*
X881403D01*
Y511880D01*
X881388D01*
Y511873D01*
X881381D01*
Y511865D01*
X881366D01*
Y511858D01*
X881351D01*
Y511850D01*
X881343D01*
Y511843D01*
X881328D01*
Y511835D01*
X881313D01*
Y511828D01*
X881305D01*
Y511820D01*
X881290D01*
Y511813D01*
X881275D01*
Y511805D01*
X881268D01*
Y511798D01*
X881253D01*
Y511790D01*
X881238D01*
Y511783D01*
X881230D01*
Y511775D01*
X881215D01*
Y511767D01*
X881200D01*
Y511760D01*
X881192D01*
Y511753D01*
X881178D01*
Y511745D01*
X881162D01*
Y511737D01*
X881155D01*
Y511730D01*
X881140D01*
Y511722D01*
X881125D01*
Y511715D01*
X881117D01*
Y511707D01*
X881102D01*
Y511700D01*
X881087D01*
Y511692D01*
X881080D01*
Y511685D01*
X881065D01*
Y511677D01*
X881050D01*
Y511670D01*
X881042D01*
Y511662D01*
X881027D01*
Y511655D01*
X881012D01*
Y511647D01*
X881004D01*
Y511640D01*
X880989D01*
Y511632D01*
X880974D01*
Y511624D01*
X880967D01*
Y511617D01*
X880952D01*
Y511610D01*
X880937D01*
Y511602D01*
X880929D01*
Y511594D01*
X880914D01*
Y511587D01*
X880899D01*
Y511579D01*
X880892D01*
Y511572D01*
X880877D01*
Y511564D01*
X880869D01*
Y511557D01*
X880854D01*
Y511549D01*
X880839D01*
Y511542D01*
X880831D01*
Y511534D01*
X880816D01*
Y511527D01*
X880801D01*
Y511519D01*
X880794D01*
Y511512D01*
X880779D01*
Y511504D01*
X880764D01*
Y511497D01*
X880756D01*
Y511489D01*
X880741D01*
Y511482D01*
X878724D01*
Y512580D01*
X880606D01*
Y517065D01*
X881832D01*
Y513686D01*
D02*
G37*
G36*
X876399Y512580D02*
X878243D01*
Y512573D01*
X878250D01*
Y511482D01*
X876271D01*
Y511489D01*
X876256D01*
Y511497D01*
X876241D01*
Y511504D01*
X876226D01*
Y511512D01*
X876219D01*
Y511519D01*
X876204D01*
Y511527D01*
X876188D01*
Y511534D01*
X876181D01*
Y511542D01*
X876166D01*
Y511549D01*
X876151D01*
Y511557D01*
X876136D01*
Y511564D01*
X876128D01*
Y511572D01*
X876113D01*
Y511579D01*
X876098D01*
Y511587D01*
X876091D01*
Y511594D01*
X876075D01*
Y511602D01*
X876060D01*
Y511610D01*
X876045D01*
Y511617D01*
X876038D01*
Y511624D01*
X876023D01*
Y511632D01*
X876008D01*
Y511640D01*
X875993D01*
Y511647D01*
X875985D01*
Y511655D01*
X875970D01*
Y511662D01*
X875955D01*
Y511670D01*
X875948D01*
Y511677D01*
X875933D01*
Y511685D01*
X875918D01*
Y511692D01*
X875902D01*
Y511700D01*
X875895D01*
Y511707D01*
X875880D01*
Y511715D01*
X875865D01*
Y511722D01*
X875857D01*
Y511730D01*
X875842D01*
Y511737D01*
X875827D01*
Y511745D01*
X875812D01*
Y511753D01*
X875805D01*
Y511760D01*
X875790D01*
Y511767D01*
X875774D01*
Y511775D01*
X875767D01*
Y511783D01*
X875752D01*
Y511790D01*
X875737D01*
Y511798D01*
X875722D01*
Y511805D01*
X875714D01*
Y511813D01*
X875699D01*
Y511820D01*
X875684D01*
Y511828D01*
X875669D01*
Y511835D01*
X875662D01*
Y511843D01*
X875647D01*
Y511850D01*
X875632D01*
Y511858D01*
X875624D01*
Y511865D01*
X875609D01*
Y511873D01*
X875594D01*
Y511880D01*
X875579D01*
Y511888D01*
X875571D01*
Y511895D01*
X875556D01*
Y511903D01*
X875541D01*
Y511910D01*
X875534D01*
Y511918D01*
X875519D01*
Y511926D01*
X875504D01*
Y511933D01*
X875489D01*
Y511941D01*
X875481D01*
Y511948D01*
X875466D01*
Y511956D01*
X875451D01*
Y511963D01*
X875436D01*
Y511971D01*
X875428D01*
Y511978D01*
X875413D01*
Y511986D01*
X875398D01*
Y511993D01*
X875391D01*
Y512001D01*
X875376D01*
Y512008D01*
X875361D01*
Y512016D01*
X875346D01*
Y512023D01*
X875338D01*
Y512031D01*
X875323D01*
Y512038D01*
X875308D01*
Y512046D01*
X875301D01*
Y512053D01*
X875285D01*
Y512061D01*
X875270D01*
Y512069D01*
X875255D01*
Y512076D01*
X875248D01*
Y512084D01*
X875233D01*
Y512091D01*
X875218D01*
Y512099D01*
X875210D01*
Y512106D01*
X875195D01*
Y512114D01*
X875180D01*
Y512121D01*
X875165D01*
Y512129D01*
X875158D01*
Y512136D01*
X875150D01*
Y513250D01*
X876399D01*
Y512580D01*
D02*
G37*
G36*
X890200Y506711D02*
X875150D01*
Y511113D01*
X875639D01*
Y509751D01*
Y509743D01*
Y507223D01*
X875647D01*
Y507215D01*
X889703D01*
Y507223D01*
X889711D01*
Y511113D01*
X890200D01*
Y506711D01*
D02*
G37*
D10*
X853432Y544094D02*
G03*
X853432Y544094I-492J0D01*
G01*
X836566Y567381D02*
G03*
X836566Y567381I-492J0D01*
G01*
X851373Y494151D02*
G03*
X851373Y494151I-492J0D01*
G01*
X888670Y535630D02*
G03*
X888670Y535630I-492J0D01*
G01*
X804989Y578555D02*
G03*
X804989Y578555I-492J0D01*
G01*
X866270Y514582D02*
G03*
X866270Y514582I-492J0D01*
G01*
X845952Y599811D02*
G03*
X845952Y599811I-492J0D01*
G01*
X804989Y617688D02*
G03*
X804989Y617688I-492J0D01*
G01*
X911380Y478009D02*
G03*
X911380Y478009I-492J0D01*
G01*
X836969Y466955D02*
G03*
X836969Y466955I-492J0D01*
G01*
X805166Y497694D02*
G03*
X805166Y497694I-492J0D01*
G01*
X804989Y536700D02*
G03*
X804989Y536700I-492J0D01*
G01*
D11*
X858845Y552362D02*
G03*
X858845Y552362I-1181J0D01*
G01*
X860724Y490805D02*
G03*
X860724Y490805I-1181J0D01*
G01*
D12*
X853727Y548425D02*
X865932D01*
X853727Y562992D02*
X865932D01*
X853727Y548425D02*
Y562992D01*
X865932Y548425D02*
Y562992D01*
X867731Y531791D02*
Y583287D01*
Y531791D02*
X877732D01*
Y583287D01*
X867731D02*
X877732D01*
X835100Y547509D02*
Y561309D01*
X809490Y547509D02*
X835100D01*
X809490D02*
Y561309D01*
X835100D01*
X855606Y458521D02*
Y494742D01*
X891826Y458521D02*
Y494742D01*
X855606D02*
X891826D01*
X855606Y458521D02*
X891826D01*
X788480Y640573D02*
Y649628D01*
X770173Y631320D02*
X779228D01*
X760920Y640573D02*
Y649628D01*
X770173Y658880D02*
X779228D01*
X864080Y641472D02*
Y650528D01*
X845772Y632221D02*
X854828D01*
X836520Y641472D02*
Y650528D01*
X845772Y659780D02*
X854828D01*
X842921Y621752D02*
X846059D01*
X842921Y614248D02*
X846059D01*
X886862Y638197D02*
Y647449D01*
X932334D02*
X943948D01*
X886862D02*
X902413D01*
X886862Y612016D02*
Y625992D01*
Y612016D02*
X902413D01*
X932334D02*
X943948D01*
Y647449D01*
X937528Y530216D02*
Y581200D01*
X904339Y530216D02*
X937528D01*
X904339D02*
Y581200D01*
X937528D01*
X755815Y553555D02*
Y583555D01*
X789004D01*
Y553555D02*
Y583555D01*
X755815Y553555D02*
X789004D01*
X833219Y509681D02*
X863219D01*
X833219Y519484D02*
X863219D01*
Y509681D02*
Y519484D01*
X833219Y509681D02*
Y519484D01*
X848609Y610441D02*
X869869D01*
X848609Y606898D02*
Y610441D01*
X869869Y606898D02*
Y610441D01*
X848609Y589181D02*
X869869D01*
X848609D02*
Y592725D01*
X869869Y589181D02*
Y592725D01*
X858219Y442013D02*
X863229D01*
X858219Y447328D02*
X863229D01*
X839232Y496316D02*
X847154D01*
X839232Y503009D02*
X847154D01*
X755815Y592688D02*
X789004D01*
Y622688D01*
X755815D02*
X789004D01*
X755815Y592688D02*
Y622688D01*
X828190Y474828D02*
Y520300D01*
X809096Y474828D02*
Y520300D01*
X824549D02*
X828190D01*
X809096D02*
X812737D01*
X809096Y474828D02*
X812737D01*
X824549D02*
X828190D01*
X893141Y441280D02*
X901063D01*
X893141Y447973D02*
X901063D01*
X899983Y496072D02*
Y503993D01*
X906676Y496072D02*
Y503993D01*
X911872Y471001D02*
X933309D01*
X911872Y514545D02*
X933309D01*
X911872Y509604D02*
Y514545D01*
Y471001D02*
Y475942D01*
X869242Y441969D02*
X874252D01*
X869242Y447284D02*
X874252D01*
X843193Y467237D02*
Y472247D01*
X837878Y467237D02*
Y472247D01*
X855825Y500504D02*
Y505514D01*
X850510Y500504D02*
Y505514D01*
X896099Y450400D02*
X901108D01*
X896099Y455715D02*
X901108D01*
X839507Y491824D02*
X844517D01*
X839507Y486509D02*
X844517D01*
X820597Y443333D02*
X841097D01*
X820597D02*
Y463648D01*
X841097D01*
Y443333D02*
Y463648D01*
X755323Y452123D02*
Y503108D01*
X788512D01*
Y452123D02*
Y503108D01*
X755323Y452123D02*
X788512D01*
X755815Y511700D02*
Y541700D01*
X789004D01*
Y511700D02*
Y541700D01*
X755815Y511700D02*
X789004D01*
X815662Y596342D02*
Y607217D01*
X808527Y596342D02*
Y607217D01*
X834801Y581075D02*
X837938D01*
X834801Y588580D02*
X837938D01*
X913053Y585080D02*
Y593742D01*
X922108Y592561D02*
Y593742D01*
X903998D02*
X922108D01*
X903998Y592561D02*
Y593742D01*
Y585080D02*
Y586262D01*
Y585080D02*
X922108D01*
Y586262D01*
X880440Y604821D02*
X878341D01*
Y603247D01*
X879390Y603771D01*
X879915D01*
X880440Y603247D01*
Y602197D01*
X879915Y601672D01*
X878865D01*
X878341Y602197D01*
X881489Y604821D02*
Y602722D01*
X882539Y601672D01*
X883588Y602722D01*
Y604821D01*
X884638Y604296D02*
X885163Y604821D01*
X886212D01*
X886737Y604296D01*
Y602197D01*
X886212Y601672D01*
X885163D01*
X884638Y602197D01*
Y604296D01*
X879690Y578685D02*
X880215Y579210D01*
X881264D01*
X881789Y578685D01*
Y578160D01*
X881264Y577635D01*
X880739D01*
X881264D01*
X881789Y577110D01*
Y576586D01*
X881264Y576061D01*
X880215D01*
X879690Y576586D01*
X882838Y579210D02*
Y577110D01*
X883888Y576061D01*
X884937Y577110D01*
Y579210D01*
X885987Y578685D02*
X886512Y579210D01*
X887561D01*
X888086Y578685D01*
Y578160D01*
X887561Y577635D01*
X887037D01*
X887561D01*
X888086Y577110D01*
Y576586D01*
X887561Y576061D01*
X886512D01*
X885987Y576586D01*
X879690Y568309D02*
Y565160D01*
X881264D01*
X881789Y565685D01*
Y567784D01*
X881264Y568309D01*
X879690D01*
X882838D02*
X883888D01*
X883363D01*
Y565160D01*
X882838D01*
X883888D01*
X887037Y568309D02*
X885987D01*
X885462Y567784D01*
Y565685D01*
X885987Y565160D01*
X887037D01*
X887561Y565685D01*
Y567784D01*
X887037Y568309D01*
X881789Y558514D02*
X881264Y559039D01*
X880215D01*
X879690Y558514D01*
Y556415D01*
X880215Y555890D01*
X881264D01*
X881789Y556415D01*
X882838Y559039D02*
Y555890D01*
X884937D01*
X885987Y559039D02*
Y555890D01*
Y556940D01*
X888086Y559039D01*
X886512Y557465D01*
X888086Y555890D01*
X879690Y545916D02*
Y549065D01*
X881264D01*
X881789Y548540D01*
Y547491D01*
X881264Y546966D01*
X879690D01*
X880739D02*
X881789Y545916D01*
X884937Y548540D02*
X884413Y549065D01*
X883363D01*
X882838Y548540D01*
Y548015D01*
X883363Y547491D01*
X884413D01*
X884937Y546966D01*
Y546441D01*
X884413Y545916D01*
X883363D01*
X882838Y546441D01*
X885987Y549065D02*
X888086D01*
X887037D01*
Y545916D01*
X881504Y540111D02*
X880979Y540636D01*
X879930D01*
X879405Y540111D01*
Y538012D01*
X879930Y537487D01*
X880979D01*
X881504Y538012D01*
Y539062D01*
X880454D01*
X882553Y537487D02*
Y540636D01*
X884652Y537487D01*
Y540636D01*
X885702D02*
Y537487D01*
X887276D01*
X887801Y538012D01*
Y540111D01*
X887276Y540636D01*
X885702D01*
X801480Y640932D02*
Y638964D01*
X800496D01*
X800168Y639292D01*
Y639948D01*
X800496Y640276D01*
X801480D01*
X800824D02*
X800168Y640932D01*
X799512Y638964D02*
Y640932D01*
X798528D01*
X798200Y640604D01*
Y640276D01*
Y639948D01*
X798528Y639620D01*
X799512D01*
X797216Y640932D02*
X796560D01*
X796232Y640604D01*
Y639948D01*
X796560Y639620D01*
X797216D01*
X797544Y639948D01*
Y640604D01*
X797216Y640932D01*
X795248Y639292D02*
Y639620D01*
X795576D01*
X794920D01*
X795248D01*
Y640604D01*
X794920Y640932D01*
X942899Y519484D02*
Y517910D01*
X943686D01*
X943948Y518172D01*
Y519222D01*
X943686Y519484D01*
X942899D01*
X944473Y517910D02*
X944998D01*
X944735D01*
Y519484D01*
X944473Y519222D01*
X904289Y483718D02*
Y485686D01*
X905273D01*
X905601Y485358D01*
Y484702D01*
X905273Y484374D01*
X904289D01*
X904945D02*
X905601Y483718D01*
X906257D02*
X906913D01*
X906585D01*
Y485686D01*
X906257Y485358D01*
D13*
X827018Y620209D02*
X832530D01*
X827018Y614697D02*
X828199D01*
X827018D02*
Y625721D01*
X828199D01*
X831348D02*
X832530D01*
Y614697D02*
Y625721D01*
X831348Y614697D02*
X832530D01*
X838708Y569736D02*
X839889D01*
X838708Y558712D02*
Y569736D01*
Y558712D02*
X839889D01*
X843038D02*
X844219D01*
Y569736D01*
X843038D02*
X844219D01*
X838708Y564224D02*
X844219D01*
X837338Y544094D02*
X842850D01*
X841669Y549606D02*
X842850D01*
Y538582D02*
Y549606D01*
X841669Y538582D02*
X842850D01*
X837338D02*
X838519D01*
X837338D02*
Y549606D01*
X838519D01*
X816819Y616469D02*
Y617650D01*
X805795D02*
X816819D01*
X805795Y616469D02*
Y617650D01*
Y612138D02*
Y613319D01*
Y612138D02*
X816819D01*
Y613319D01*
X811307Y612138D02*
Y617650D01*
X846247Y564224D02*
X851759D01*
X850578Y569736D02*
X851759D01*
Y558712D02*
Y569736D01*
X850578Y558712D02*
X851759D01*
X846247D02*
X847428D01*
X846247D02*
Y569736D01*
X847428D01*
X918053Y448639D02*
Y449395D01*
X908053D02*
X918053D01*
X908053Y448639D02*
Y449395D01*
Y443883D02*
Y444639D01*
Y443883D02*
X918053D01*
Y444639D01*
X913053Y443883D02*
Y449395D01*
X914358Y465396D02*
X915114D01*
X914358Y453490D02*
Y465396D01*
Y453896D02*
X916114D01*
X918114D02*
X919870D01*
Y453490D02*
Y465396D01*
X919114D02*
X919870D01*
X914358Y453396D02*
Y453896D01*
Y453396D02*
X916114D01*
Y453896D01*
X919870Y453396D02*
Y453896D01*
X918114Y453396D02*
X919870D01*
X918114D02*
Y453896D01*
X914358Y459396D02*
X915736D01*
X918492D02*
X919870D01*
X911045D02*
X912423D01*
X906911D02*
X908289D01*
X906911Y465396D02*
X907667D01*
X906911Y453490D02*
Y465396D01*
Y453896D02*
X908667D01*
X910667D02*
X912423D01*
Y453490D02*
Y465396D01*
X911667D02*
X912423D01*
X906911Y453396D02*
Y453896D01*
Y453396D02*
X908667D01*
Y453896D01*
X912423Y453396D02*
Y453896D01*
X910667Y453396D02*
X912423D01*
X910667D02*
Y453896D01*
X925265Y459396D02*
X926643D01*
X921131D02*
X922509D01*
X921131Y465396D02*
X921887D01*
X921131Y453490D02*
Y465396D01*
Y453896D02*
X922887D01*
X924887D02*
X926643D01*
Y453490D02*
Y465396D01*
X925887D02*
X926643D01*
X921131Y453396D02*
Y453896D01*
Y453396D02*
X922887D01*
Y453896D01*
X926643Y453396D02*
Y453896D01*
X924887Y453396D02*
X926643D01*
X924887D02*
Y453896D01*
X855892Y520926D02*
Y526438D01*
X850893Y525681D02*
Y526438D01*
X860892D01*
Y525681D02*
Y526438D01*
Y520926D02*
Y521681D01*
X850893Y520926D02*
X860892D01*
X850893D02*
Y521681D01*
X830555Y521944D02*
Y522700D01*
Y521944D02*
X840555D01*
Y522700D01*
Y526700D02*
Y527456D01*
X830555D02*
X840555D01*
X830555Y526700D02*
Y527456D01*
X835555Y521944D02*
Y527456D01*
X817606Y576239D02*
Y581751D01*
X822606Y576239D02*
Y576995D01*
X812606Y576239D02*
X822606D01*
X812606D02*
Y576995D01*
Y580995D02*
Y581751D01*
X822606D01*
Y580995D02*
Y581751D01*
X812291Y583942D02*
Y589454D01*
X807291Y588698D02*
Y589454D01*
X817291D01*
Y588698D02*
Y589454D01*
Y583942D02*
Y584698D01*
X807291Y583942D02*
X817291D01*
X807291D02*
Y584698D01*
X830765Y483915D02*
X836277D01*
X835096Y489427D02*
X836277D01*
Y478403D02*
Y489427D01*
X835096Y478403D02*
X836277D01*
X830765D02*
X831946D01*
X830765D02*
Y489427D01*
X831946D01*
X934367Y456640D02*
Y462152D01*
X939367Y456640D02*
Y457396D01*
X929368Y456640D02*
X939367D01*
X929368D02*
Y457396D01*
Y461396D02*
Y462152D01*
X939367D01*
Y461396D02*
Y462152D01*
X918887Y515941D02*
Y516697D01*
Y515941D02*
X928887D01*
Y516697D01*
Y520697D02*
Y521453D01*
X918887D02*
X928887D01*
X918887Y520697D02*
Y521453D01*
X923887Y515941D02*
Y521453D01*
X935966Y515941D02*
Y517319D01*
Y520075D02*
Y521453D01*
X929966Y517697D02*
X930466D01*
X929966Y515941D02*
Y517697D01*
Y515941D02*
X930466D01*
X929966Y519697D02*
X930466D01*
X929966D02*
Y521453D01*
X930466D01*
X941966Y515941D02*
Y516697D01*
X930061Y515941D02*
X941966D01*
X930466D02*
Y517697D01*
Y519697D02*
Y521453D01*
X930061D02*
X941966D01*
Y520697D02*
Y521453D01*
X935608Y447469D02*
Y448224D01*
X925608D02*
X935608D01*
X925608Y447469D02*
Y448224D01*
Y442713D02*
Y443469D01*
Y442713D02*
X935608D01*
Y443469D01*
X930608Y442713D02*
Y448224D01*
X830661Y500221D02*
X836173D01*
X830661Y494710D02*
X831842D01*
X830661D02*
Y505733D01*
X831842D01*
X834991D02*
X836173D01*
Y494710D02*
Y505733D01*
X834991Y494710D02*
X836173D01*
X934052Y449560D02*
Y455072D01*
X939052Y449560D02*
Y450316D01*
X929053Y449560D02*
X939052D01*
X929053D02*
Y450316D01*
Y454316D02*
Y455072D01*
X939052D01*
Y454316D02*
Y455072D01*
X870110Y617606D02*
Y618787D01*
X859087D02*
X870110D01*
X859087Y617606D02*
Y618787D01*
Y613276D02*
Y614457D01*
Y613276D02*
X870110D01*
Y614457D01*
X864599Y613276D02*
Y618787D01*
X934367Y464033D02*
Y469545D01*
X929368Y468789D02*
Y469545D01*
X939367D01*
Y468789D02*
Y469545D01*
Y464033D02*
Y464789D01*
X929368Y464033D02*
X939367D01*
X929368D02*
Y464789D01*
X809437Y530002D02*
Y531184D01*
Y530002D02*
X820461D01*
Y531184D01*
Y534333D02*
Y535514D01*
X809437D02*
X820461D01*
X809437Y534333D02*
Y535514D01*
X814949Y530002D02*
Y535514D01*
X811302Y624996D02*
Y629720D01*
X805397D02*
X817208D01*
Y628965D02*
Y629720D01*
X805397Y628965D02*
Y629720D01*
Y624996D02*
Y625752D01*
Y624996D02*
X817208D01*
Y625752D01*
X795838Y630654D02*
X800562D01*
Y624749D02*
Y636560D01*
X799806Y624749D02*
X800562D01*
X799806Y636560D02*
X800562D01*
X795838D02*
X796594D01*
X795838Y624749D02*
Y636560D01*
Y624749D02*
X796594D01*
X866254Y536628D02*
Y537384D01*
X856254D02*
X866254D01*
X856254Y536628D02*
Y537384D01*
Y531873D02*
Y532628D01*
Y531873D02*
X866254D01*
Y532628D01*
X861254Y531873D02*
Y537384D01*
X902779Y476750D02*
X908291D01*
X902779Y471749D02*
X903535D01*
X902779D02*
Y481749D01*
X903535D01*
X907535D02*
X908291D01*
Y471749D02*
Y481749D01*
X907535Y471749D02*
X908291D01*
X904650Y511081D02*
X910161D01*
X909405Y516081D02*
X910161D01*
Y506080D02*
Y516081D01*
X909405Y506080D02*
X910161D01*
X904650D02*
X905405D01*
X904650D02*
Y516081D01*
X905405D01*
X827707Y571744D02*
Y572925D01*
Y571744D02*
X838731D01*
Y572925D01*
Y576075D02*
Y577256D01*
X827707D02*
X838731D01*
X827707Y576075D02*
Y577256D01*
X833219Y571744D02*
Y577256D01*
X817508Y612252D02*
X818689D01*
X817508Y601229D02*
Y612252D01*
Y601229D02*
X818689D01*
X821839D02*
X823020D01*
Y612252D01*
X821839D02*
X823020D01*
X817508Y606740D02*
X823020D01*
X819850Y625721D02*
X821031D01*
X819850Y614697D02*
Y625721D01*
Y614697D02*
X821031D01*
X824181D02*
X825362D01*
Y625721D01*
X824181D02*
X825362D01*
X819850Y620209D02*
X825362D01*
X939702Y591411D02*
Y592167D01*
X927797D02*
X939702D01*
X928202Y590411D02*
Y592167D01*
Y586655D02*
Y588411D01*
X927797Y586655D02*
X939702D01*
Y587411D01*
X927702Y592167D02*
X928202D01*
X927702Y590411D02*
Y592167D01*
Y590411D02*
X928202D01*
X927702Y586655D02*
X928202D01*
X927702D02*
Y588411D01*
X928202D01*
X933702Y590789D02*
Y592167D01*
Y586655D02*
Y588033D01*
X914588Y468757D02*
Y466789D01*
X915572D01*
X915900Y467117D01*
Y468429D01*
X915572Y468757D01*
X914588D01*
X917868D02*
X916556D01*
Y467773D01*
X917212Y468101D01*
X917540D01*
X917868Y467773D01*
Y467117D01*
X917540Y466789D01*
X916884D01*
X916556Y467117D01*
X907141Y468757D02*
Y466789D01*
X908125D01*
X908453Y467117D01*
Y468429D01*
X908125Y468757D01*
X907141D01*
X910093Y466789D02*
Y468757D01*
X909109Y467773D01*
X910421D01*
X921247Y468757D02*
Y466789D01*
X922231D01*
X922559Y467117D01*
Y468429D01*
X922231Y468757D01*
X921247D01*
X923215Y468429D02*
X923543Y468757D01*
X924199D01*
X924527Y468429D01*
Y468101D01*
X924199Y467773D01*
X923871D01*
X924199D01*
X924527Y467445D01*
Y467117D01*
X924199Y466789D01*
X923543D01*
X923215Y467117D01*
X871092Y478206D02*
Y475582D01*
X871617Y475057D01*
X872666D01*
X873191Y475582D01*
Y478206D01*
X874241Y477681D02*
X874765Y478206D01*
X875815D01*
X876340Y477681D01*
Y477156D01*
X875815Y476631D01*
X875290D01*
X875815D01*
X876340Y476107D01*
Y475582D01*
X875815Y475057D01*
X874765D01*
X874241Y475582D01*
X841053Y494941D02*
X840726Y495268D01*
X840069D01*
X839742Y494941D01*
Y493629D01*
X840069Y493301D01*
X840726D01*
X841053Y493629D01*
X841709Y495268D02*
X843021D01*
Y494941D01*
X841709Y493629D01*
Y493301D01*
X827797Y467970D02*
X827010D01*
X827403D01*
Y466002D01*
X827010Y465609D01*
X826616D01*
X826222Y466002D01*
X828584Y467576D02*
X828977Y467970D01*
X829765D01*
X830158Y467576D01*
Y467183D01*
X829765Y466789D01*
X830158Y466396D01*
Y466002D01*
X829765Y465609D01*
X828977D01*
X828584Y466002D01*
Y466396D01*
X828977Y466789D01*
X828584Y467183D01*
Y467576D01*
X828977Y466789D02*
X829765D01*
X806025Y533283D02*
X805763Y533546D01*
X805238D01*
X804976Y533283D01*
Y532234D01*
X805238Y531971D01*
X805763D01*
X806025Y532234D01*
X806550Y533283D02*
X806812Y533546D01*
X807337D01*
X807599Y533283D01*
Y533021D01*
X807337Y532759D01*
X807075D01*
X807337D01*
X807599Y532496D01*
Y532234D01*
X807337Y531971D01*
X806812D01*
X806550Y532234D01*
X940868Y450543D02*
Y452511D01*
X941852D01*
X942180Y452183D01*
Y451527D01*
X941852Y451199D01*
X940868D01*
X941524D02*
X942180Y450543D01*
X942836Y452183D02*
X943164Y452511D01*
X943820D01*
X944148Y452183D01*
Y451855D01*
X943820Y451527D01*
X944148Y451199D01*
Y450871D01*
X943820Y450543D01*
X943164D01*
X942836Y450871D01*
Y451199D01*
X943164Y451527D01*
X942836Y451855D01*
Y452183D01*
X943164Y451527D02*
X943820D01*
X853965Y443523D02*
X853637Y443195D01*
Y442539D01*
X853965Y442211D01*
X855277D01*
X855605Y442539D01*
Y443195D01*
X855277Y443523D01*
X855605Y444178D02*
Y444834D01*
Y444507D01*
X853637D01*
X853965Y444178D01*
Y445818D02*
X853637Y446146D01*
Y446802D01*
X853965Y447130D01*
X854293D01*
X854621Y446802D01*
Y446474D01*
Y446802D01*
X854949Y447130D01*
X855277D01*
X855605Y446802D01*
Y446146D01*
X855277Y445818D01*
X878452Y445775D02*
X878780Y446103D01*
Y446759D01*
X878452Y447087D01*
X877140D01*
X876812Y446759D01*
Y446103D01*
X877140Y445775D01*
X876812Y445119D02*
Y444463D01*
Y444791D01*
X878780D01*
X878452Y445119D01*
X876812Y442167D02*
Y443479D01*
X878124Y442167D01*
X878452D01*
X878780Y442495D01*
Y443151D01*
X878452Y443479D01*
X842547Y505455D02*
X842219Y505783D01*
X841563D01*
X841235Y505455D01*
Y504143D01*
X841563Y503815D01*
X842219D01*
X842547Y504143D01*
X843203Y505455D02*
X843531Y505783D01*
X844187D01*
X844515Y505455D01*
Y505127D01*
X844187Y504799D01*
X844515Y504471D01*
Y504143D01*
X844187Y503815D01*
X843531D01*
X843203Y504143D01*
Y504471D01*
X843531Y504799D01*
X843203Y505127D01*
Y505455D01*
X843531Y504799D02*
X844187D01*
X834009Y470267D02*
X833747Y470529D01*
X833222D01*
X832960Y470267D01*
Y469217D01*
X833222Y468955D01*
X833747D01*
X834009Y469217D01*
X834534Y468955D02*
X835059D01*
X834796D01*
Y470529D01*
X834534Y470267D01*
X835846D02*
X836108Y470529D01*
X836633D01*
X836895Y470267D01*
Y469217D01*
X836633Y468955D01*
X836108D01*
X835846Y469217D01*
Y470267D01*
X848143Y507997D02*
X847815Y508325D01*
X847159D01*
X846831Y507997D01*
Y506685D01*
X847159Y506357D01*
X847815D01*
X848143Y506685D01*
X848799D02*
X849127Y506357D01*
X849783D01*
X850111Y506685D01*
Y507997D01*
X849783Y508325D01*
X849127D01*
X848799Y507997D01*
Y507669D01*
X849127Y507341D01*
X850111D01*
X831296Y477060D02*
X830968Y477388D01*
X830312D01*
X829984Y477060D01*
Y475748D01*
X830312Y475421D01*
X830968D01*
X831296Y475748D01*
X831952Y475421D02*
X832608D01*
X832280D01*
Y477388D01*
X831952Y477060D01*
X834904Y477388D02*
X833592D01*
Y476404D01*
X834248Y476732D01*
X834576D01*
X834904Y476404D01*
Y475748D01*
X834576Y475421D01*
X833920D01*
X833592Y475748D01*
X832269Y492751D02*
X831941Y493079D01*
X831285D01*
X830957Y492751D01*
Y491439D01*
X831285Y491111D01*
X831941D01*
X832269Y491439D01*
X832925Y491111D02*
X833581D01*
X833253D01*
Y493079D01*
X832925Y492751D01*
X835548Y491111D02*
Y493079D01*
X834565Y492095D01*
X835876D01*
X937151Y444485D02*
Y446453D01*
X938135D01*
X938463Y446125D01*
Y445469D01*
X938135Y445141D01*
X937151D01*
X937807D02*
X938463Y444485D01*
X939119D02*
X939775D01*
X939447D01*
Y446453D01*
X939119Y446125D01*
X940759D02*
X941087Y446453D01*
X941743D01*
X942071Y446125D01*
Y444813D01*
X941743Y444485D01*
X941087D01*
X940759Y444813D01*
Y446125D01*
X919768Y445444D02*
Y447412D01*
X920752D01*
X921080Y447084D01*
Y446428D01*
X920752Y446100D01*
X919768D01*
X920424D02*
X921080Y445444D01*
X921736Y445772D02*
X922064Y445444D01*
X922720D01*
X923048Y445772D01*
Y447084D01*
X922720Y447412D01*
X922064D01*
X921736Y447084D01*
Y446756D01*
X922064Y446428D01*
X923048D01*
D14*
X917114Y458707D02*
X918098Y460085D01*
X917114D02*
X918098D01*
X917114Y458707D02*
X918000D01*
X916228D02*
X917114D01*
X916130Y460085D02*
X917114D01*
X916130D02*
X917114Y458707D01*
X908683Y460085D02*
X909667Y458707D01*
X908683Y460085D02*
X909667D01*
X908781Y458707D02*
X909667D01*
X910553D01*
X909667Y460085D02*
X910651D01*
X909667Y458707D02*
X910651Y460085D01*
X922902D02*
X923887Y458707D01*
X922902Y460085D02*
X923887D01*
X923001Y458707D02*
X923887D01*
X924772D01*
X923887Y460085D02*
X924871D01*
X923887Y458707D02*
X924871Y460085D01*
X935277Y518697D02*
X936655Y519681D01*
Y518697D02*
Y519681D01*
X935277Y518697D02*
Y519583D01*
Y517811D02*
Y518697D01*
X936655Y517713D02*
Y518697D01*
X935277D02*
X936655Y517713D01*
X933014Y589411D02*
X934391Y588427D01*
Y589411D01*
X933014Y588525D02*
Y589411D01*
Y590297D01*
X934391Y589411D02*
Y590395D01*
X933014Y589411D02*
X934391Y590395D01*
X829118Y629787D02*
X828790Y629459D01*
Y628803D01*
X829118Y628475D01*
X830429D01*
X830758Y628803D01*
Y629459D01*
X830429Y629787D01*
X830758Y630443D02*
Y631099D01*
Y630771D01*
X829446D01*
Y630443D01*
X830758Y632083D02*
X829446D01*
Y633067D01*
X829774Y633395D01*
X830758D01*
X829446Y634051D02*
X830758Y635362D01*
X830102Y634706D01*
X829446Y635362D01*
X830758Y634051D01*
Y637330D02*
Y636018D01*
X829446Y637330D01*
X829118D01*
X828790Y637002D01*
Y636346D01*
X829118Y636018D01*
X875113Y585413D02*
Y587381D01*
X876097D01*
X876425Y587053D01*
Y586397D01*
X876097Y586069D01*
X875113D01*
X878393Y585413D02*
X877081D01*
X878393Y586725D01*
Y587053D01*
X878065Y587381D01*
X877409D01*
X877081Y587053D01*
X771027Y626300D02*
Y629055D01*
X771945Y628136D01*
X772863Y629055D01*
Y626300D01*
X773782D02*
Y629055D01*
X775159D01*
X775618Y628595D01*
Y627677D01*
X775159Y627218D01*
X773782D01*
X778373Y626300D02*
X776537D01*
X778373Y628136D01*
Y628595D01*
X777914Y629055D01*
X776996D01*
X776537Y628595D01*
X860776Y576074D02*
Y573451D01*
X861301Y572926D01*
X862350D01*
X862875Y573451D01*
Y576074D01*
X865499Y572926D02*
Y576074D01*
X863925Y574500D01*
X866024D01*
X849804Y533645D02*
Y535612D01*
X850788D01*
X851116Y535285D01*
Y534628D01*
X850788Y534301D01*
X849804D01*
X850460D02*
X851116Y533645D01*
X851772D02*
X852428D01*
X852100D01*
Y535612D01*
X851772Y535285D01*
X854724Y533645D02*
X853412D01*
X854724Y534957D01*
Y535285D01*
X854396Y535612D01*
X853740D01*
X853412Y535285D01*
X845733Y608869D02*
Y606901D01*
X846126Y606508D01*
X846914D01*
X847307Y606901D01*
Y608869D01*
X849669Y606508D02*
X848094D01*
X849669Y608082D01*
Y608475D01*
X849275Y608869D01*
X848488D01*
X848094Y608475D01*
X807796Y572008D02*
X805828D01*
Y572992D01*
X806156Y573320D01*
X806812D01*
X807140Y572992D01*
Y572008D01*
Y572664D02*
X807796Y573320D01*
X806484Y573976D02*
X807796D01*
X807140D01*
X806812Y574304D01*
X806484Y574632D01*
Y574960D01*
X807796Y576928D02*
Y576272D01*
X807468Y575944D01*
X806812D01*
X806484Y576272D01*
Y576928D01*
X806812Y577256D01*
X807140D01*
Y575944D01*
X807796Y577912D02*
Y578896D01*
X807468Y579224D01*
X807140Y578896D01*
Y578240D01*
X806812Y577912D01*
X806484Y578240D01*
Y579224D01*
X807796Y580864D02*
Y580208D01*
X807468Y579880D01*
X806812D01*
X806484Y580208D01*
Y580864D01*
X806812Y581192D01*
X807140D01*
Y579880D01*
X806156Y582176D02*
X806484D01*
Y581848D01*
Y582504D01*
Y582176D01*
X807468D01*
X807796Y582504D01*
X808590Y590710D02*
Y592678D01*
X809574D01*
X809902Y592350D01*
Y591694D01*
X809574Y591366D01*
X808590D01*
X809246D02*
X809902Y590710D01*
X810886D02*
Y592350D01*
Y591694D01*
X810558D01*
X811214D01*
X810886D01*
Y592350D01*
X811214Y592678D01*
X812198D02*
Y590710D01*
X813181D01*
X813509Y591038D01*
Y591366D01*
Y591694D01*
X813181Y592022D01*
X812198D01*
X814493Y592350D02*
Y592022D01*
X814165D01*
X814821D01*
X814493D01*
Y591038D01*
X814821Y590710D01*
X815805D02*
X816461D01*
X816133D01*
Y592678D01*
X815805Y592350D01*
X806812Y597160D02*
X804844D01*
Y598144D01*
X805172Y598472D01*
X805828D01*
X806156Y598144D01*
Y597160D01*
Y597816D02*
X806812Y598472D01*
Y599456D02*
X805172D01*
X805828D01*
Y599128D01*
Y599784D01*
Y599456D01*
X805172D01*
X804844Y599784D01*
Y600768D02*
X806812D01*
Y601752D01*
X806484Y602080D01*
X806156D01*
X805828D01*
X805500Y601752D01*
Y600768D01*
X804844Y602736D02*
X806812D01*
Y603720D01*
X806484Y604048D01*
X806156D01*
X805828D01*
X805500Y603720D01*
Y602736D01*
X806812Y604704D02*
Y605360D01*
Y605032D01*
X804844D01*
X805172Y604704D01*
X873987Y589411D02*
X876742D01*
Y591248D01*
Y592166D02*
Y593085D01*
Y592625D01*
X873987D01*
X874446Y592166D01*
X819439Y592243D02*
X819111Y591915D01*
Y591259D01*
X819439Y590931D01*
X820751D01*
X821079Y591259D01*
Y591915D01*
X820751Y592243D01*
X819767Y592899D02*
X821079Y593555D01*
X819767Y594211D01*
Y596179D02*
Y595195D01*
X820095Y594867D01*
X820751D01*
X821079Y595195D01*
Y596179D01*
X819767Y598147D02*
Y597163D01*
X820095Y596835D01*
X820751D01*
X821079Y597163D01*
Y598147D01*
Y598803D02*
Y599459D01*
Y599131D01*
X819111D01*
X819439Y598803D01*
X867907Y620002D02*
X868235Y619674D01*
X868891D01*
X869219Y620002D01*
Y621313D01*
X868891Y621641D01*
X868235D01*
X867907Y621313D01*
X866923Y621641D02*
X866267D01*
X865939Y621313D01*
Y620658D01*
X866267Y620330D01*
X866923D01*
X867251Y620658D01*
Y621313D01*
X866923Y621641D01*
X865283Y620330D02*
Y621313D01*
X864955Y621641D01*
X863971D01*
Y620330D01*
X862987Y620002D02*
Y620330D01*
X863315D01*
X862659D01*
X862987D01*
Y621313D01*
X862659Y621641D01*
X861675D02*
X861019D01*
X861347D01*
Y619674D01*
X861675Y620002D01*
X816866Y573582D02*
X816538Y573910D01*
X815882D01*
X815554Y573582D01*
Y572270D01*
X815882Y571942D01*
X816538D01*
X816866Y572270D01*
X817522Y571942D02*
X818178D01*
X817850D01*
Y573254D01*
X817522D01*
X819162Y571942D02*
Y573254D01*
X820146D01*
X820473Y572926D01*
Y571942D01*
X821130Y573254D02*
X822441Y571942D01*
X821785Y572598D01*
X822441Y573254D01*
X821130Y571942D01*
X823097D02*
X823753D01*
X823425D01*
Y573910D01*
X823097Y573582D01*
X857204Y619018D02*
X856876Y618690D01*
Y618034D01*
X857204Y617706D01*
X858516D01*
X858844Y618034D01*
Y618690D01*
X858516Y619018D01*
X858844Y619674D02*
Y620330D01*
Y620002D01*
X857532D01*
Y619674D01*
X858844Y621314D02*
X857532D01*
Y622298D01*
X857860Y622626D01*
X858844D01*
Y624593D02*
Y623281D01*
X857532Y624593D01*
X857204D01*
X856876Y624265D01*
Y623609D01*
X857204Y623281D01*
X848974Y580024D02*
X848646Y579696D01*
Y579040D01*
X848974Y578712D01*
X850286D01*
X850614Y579040D01*
Y579696D01*
X850286Y580024D01*
X850614Y580680D02*
Y581336D01*
Y581008D01*
X849302D01*
Y580680D01*
X850614Y582320D02*
X849302D01*
Y583304D01*
X849630Y583632D01*
X850614D01*
Y584288D02*
Y584943D01*
Y584616D01*
X848646D01*
X848974Y584288D01*
X821950Y629269D02*
X821622Y628941D01*
Y628285D01*
X821950Y627957D01*
X823262D01*
X823590Y628285D01*
Y628941D01*
X823262Y629269D01*
X821622Y629925D02*
X823590D01*
Y630909D01*
X823262Y631237D01*
X822934D01*
X822606D01*
X822278Y630909D01*
Y629925D01*
X823590Y632221D02*
Y632877D01*
X823262Y633205D01*
X822606D01*
X822278Y632877D01*
Y632221D01*
X822606Y631893D01*
X823262D01*
X823590Y632221D01*
Y634189D02*
Y634845D01*
X823262Y635173D01*
X822606D01*
X822278Y634845D01*
Y634189D01*
X822606Y633861D01*
X823262D01*
X823590Y634189D01*
X821950Y636157D02*
X822278D01*
Y635829D01*
Y636485D01*
Y636157D01*
X823262D01*
X823590Y636485D01*
Y637469D02*
Y638125D01*
Y637797D01*
X821622D01*
X821950Y637469D01*
X807036Y621932D02*
X806708Y622260D01*
X806052D01*
X805724Y621932D01*
Y620620D01*
X806052Y620292D01*
X806708D01*
X807036Y620620D01*
X807692Y622260D02*
Y620292D01*
X808675D01*
X809004Y620620D01*
Y620948D01*
Y621276D01*
X808675Y621604D01*
X807692D01*
X809659Y620292D02*
X810315D01*
X809987D01*
Y621604D01*
X809659D01*
X811627D02*
X812283D01*
X812611Y621276D01*
Y620292D01*
X811627D01*
X811299Y620620D01*
X811627Y620948D01*
X812611D01*
X813267Y620292D02*
X814251D01*
X814579Y620620D01*
X814251Y620948D01*
X813595D01*
X813267Y621276D01*
X813595Y621604D01*
X814579D01*
X815235Y620292D02*
X815891D01*
X815563D01*
Y622260D01*
X815235Y621932D01*
X804976Y570523D02*
Y568883D01*
X805303Y568555D01*
X805960D01*
X806287Y568883D01*
Y570523D01*
X806943Y568555D02*
X807599D01*
X807271D01*
Y570523D01*
X806943Y570195D01*
X915216Y518107D02*
Y519287D01*
X915806D01*
X916003Y519091D01*
Y518697D01*
X915806Y518500D01*
X915216D01*
X915609D02*
X916003Y518107D01*
X916396Y519091D02*
X916593Y519287D01*
X916987D01*
X917183Y519091D01*
Y518894D01*
X916987Y518697D01*
X916790D01*
X916987D01*
X917183Y518500D01*
Y518303D01*
X916987Y518107D01*
X916593D01*
X916396Y518303D01*
X752972Y626784D02*
X752316D01*
X752644D01*
Y625144D01*
X752316Y624816D01*
X751988D01*
X751660Y625144D01*
X753628Y626456D02*
X753956Y626784D01*
X754612D01*
X754940Y626456D01*
Y626128D01*
X754612Y625800D01*
X754284D01*
X754612D01*
X754940Y625472D01*
Y625144D01*
X754612Y624816D01*
X753956D01*
X753628Y625144D01*
X841656Y572163D02*
X841327Y572491D01*
X840672D01*
X840344Y572163D01*
Y570851D01*
X840672Y570524D01*
X841327D01*
X841656Y570851D01*
X842311Y570524D02*
X842967D01*
X842639D01*
Y572491D01*
X842311Y572163D01*
X840750Y553084D02*
X841078Y553411D01*
Y554067D01*
X840750Y554395D01*
X839438D01*
X839110Y554067D01*
Y553411D01*
X839438Y553084D01*
X839110Y551444D02*
X841078D01*
X840094Y552428D01*
Y551116D01*
X848582Y572114D02*
X848319Y572376D01*
X847794D01*
X847532Y572114D01*
Y571065D01*
X847794Y570802D01*
X848319D01*
X848582Y571065D01*
X850156Y570802D02*
X849106D01*
X850156Y571852D01*
Y572114D01*
X849893Y572376D01*
X849369D01*
X849106Y572114D01*
X842093Y523716D02*
Y525684D01*
X843077D01*
X843405Y525356D01*
Y524700D01*
X843077Y524372D01*
X842093D01*
X842749D02*
X843405Y523716D01*
X845373Y525684D02*
X844717Y525356D01*
X844061Y524700D01*
Y524044D01*
X844389Y523716D01*
X845045D01*
X845373Y524044D01*
Y524372D01*
X845045Y524700D01*
X844061D01*
X858190Y527562D02*
Y529529D01*
X859174D01*
X859502Y529201D01*
Y528546D01*
X859174Y528218D01*
X858190D01*
X858846D02*
X859502Y527562D01*
X861469Y529529D02*
X860157D01*
Y528546D01*
X860814Y528873D01*
X861141D01*
X861469Y528546D01*
Y527889D01*
X861141Y527562D01*
X860485D01*
X860157Y527889D01*
D15*
X809911Y449466D02*
X809255Y450122D01*
X807943D01*
X807288Y449466D01*
Y446842D01*
X807943Y446186D01*
X809255D01*
X809911Y446842D01*
Y448154D01*
X808599D01*
X811223Y446186D02*
Y450122D01*
X813847Y446186D01*
Y450122D01*
X815159D02*
Y446186D01*
X817127D01*
X817783Y446842D01*
Y449466D01*
X817127Y450122D01*
X815159D01*
X845645Y457174D02*
X843021D01*
Y455207D01*
X844333Y455863D01*
X844989D01*
X845645Y455207D01*
Y453895D01*
X844989Y453239D01*
X843677D01*
X843021Y453895D01*
X846957Y457174D02*
Y454551D01*
X848269Y453239D01*
X849580Y454551D01*
Y457174D01*
X843021Y450968D02*
Y447688D01*
X843677Y447032D01*
X844989D01*
X845645Y447688D01*
Y450968D01*
X849580Y447032D02*
X846957D01*
X849580Y449656D01*
Y450312D01*
X848925Y450968D01*
X847613D01*
X846957Y450312D01*
X850892Y447032D02*
Y450968D01*
X852860D01*
X853516Y450312D01*
Y449000D01*
X852860Y448344D01*
X850892D01*
X852204D02*
X853516Y447032D01*
X807288Y460394D02*
Y457115D01*
X807943Y456459D01*
X809255D01*
X809911Y457115D01*
Y460394D01*
X813847Y456459D02*
X811223D01*
X813847Y459083D01*
Y459738D01*
X813191Y460394D01*
X811879D01*
X811223Y459738D01*
X815159Y460394D02*
X817783D01*
X816471D01*
Y456459D01*
X750120Y634624D02*
X749464Y633968D01*
Y632656D01*
X750120Y632000D01*
X750776D01*
X751432Y632656D01*
Y633968D01*
X752088Y634624D01*
X752744D01*
X753400Y633968D01*
Y632656D01*
X752744Y632000D01*
X750120Y638560D02*
X749464Y637904D01*
Y636592D01*
X750120Y635936D01*
X752744D01*
X753400Y636592D01*
Y637904D01*
X752744Y638560D01*
X749464Y641839D02*
Y640527D01*
X750120Y639872D01*
X752744D01*
X753400Y640527D01*
Y641839D01*
X752744Y642495D01*
X750120D01*
X749464Y641839D01*
Y643807D02*
X752744D01*
X753400Y644463D01*
Y645775D01*
X752744Y646431D01*
X749464D01*
Y647743D02*
Y650367D01*
Y649055D01*
X753400D01*
X749464Y655615D02*
X752088D01*
X753400Y656926D01*
X752088Y658238D01*
X749464D01*
X753400Y659550D02*
Y660862D01*
Y660206D01*
X749464D01*
X750120Y659550D01*
X826362Y535463D02*
X827018Y536119D01*
X828330D01*
X828986Y535463D01*
Y534807D01*
X828330Y534152D01*
X827674D01*
X828330D01*
X828986Y533496D01*
Y532840D01*
X828330Y532184D01*
X827018D01*
X826362Y532840D01*
X830298Y536119D02*
Y533496D01*
X831610Y532184D01*
X832922Y533496D01*
Y536119D01*
X834234Y535463D02*
X834890Y536119D01*
X836202D01*
X836858Y535463D01*
Y534807D01*
X836202Y534152D01*
X835546D01*
X836202D01*
X836858Y533496D01*
Y532840D01*
X836202Y532184D01*
X834890D01*
X834234Y532840D01*
X770186Y600103D02*
X769352Y600936D01*
X767686D01*
X766853Y600103D01*
Y596771D01*
X767686Y595938D01*
X769352D01*
X770186Y596771D01*
Y598437D01*
X768519D01*
X771852Y595938D02*
Y600936D01*
X775184Y595938D01*
Y600936D01*
X776850D02*
Y595938D01*
X779349D01*
X780182Y596771D01*
Y600103D01*
X779349Y600936D01*
X776850D01*
X768822Y604852D02*
Y609850D01*
X771321D01*
X772154Y609017D01*
Y607351D01*
X771321Y606518D01*
X768822D01*
X770488D02*
X772154Y604852D01*
X773820Y609850D02*
X777152Y604852D01*
Y609850D02*
X773820Y604852D01*
X768366Y619112D02*
X771698D01*
X770032D01*
Y614114D01*
X773364Y619112D02*
X776697Y614114D01*
Y619112D02*
X773364Y614114D01*
X769864Y561603D02*
X769031Y562436D01*
X767365D01*
X766532Y561603D01*
Y558270D01*
X767365Y557437D01*
X769031D01*
X769864Y558270D01*
Y559937D01*
X768198D01*
X771530Y557437D02*
Y562436D01*
X774862Y557437D01*
Y562436D01*
X776528D02*
Y557437D01*
X779028D01*
X779861Y558270D01*
Y561603D01*
X779028Y562436D01*
X776528D01*
X768500Y566352D02*
Y571350D01*
X770999D01*
X771832Y570517D01*
Y568851D01*
X770999Y568018D01*
X768500D01*
X770166D02*
X771832Y566352D01*
X773498Y571350D02*
X776831Y566352D01*
Y571350D02*
X773498Y566352D01*
X768044Y580612D02*
X771377D01*
X769710D01*
Y575613D01*
X773043Y580612D02*
X776375Y575613D01*
Y580612D02*
X773043Y575613D01*
X770013Y538757D02*
X773345D01*
X771679D01*
Y533758D01*
X775011Y538757D02*
X778343Y533758D01*
Y538757D02*
X775011Y533758D01*
X770469Y524497D02*
Y529495D01*
X772968D01*
X773801Y528662D01*
Y526996D01*
X772968Y526163D01*
X770469D01*
X772135D02*
X773801Y524497D01*
X775467Y529495D02*
X778799Y524497D01*
Y529495D02*
X775467Y524497D01*
X771832Y519748D02*
X770999Y520581D01*
X769333D01*
X768500Y519748D01*
Y516416D01*
X769333Y515583D01*
X770999D01*
X771832Y516416D01*
Y518082D01*
X770166D01*
X773498Y515583D02*
Y520581D01*
X776831Y515583D01*
Y520581D01*
X778497D02*
Y515583D01*
X780996D01*
X781829Y516416D01*
Y519748D01*
X780996Y520581D01*
X778497D01*
X915611Y567565D02*
X918943D01*
X917277D01*
Y562566D01*
X920609Y567565D02*
X923942Y562566D01*
Y567565D02*
X920609Y562566D01*
X918943Y578504D02*
X915611D01*
Y576005D01*
X917277Y576838D01*
X918110D01*
X918943Y576005D01*
Y574339D01*
X918110Y573506D01*
X916444D01*
X915611Y574339D01*
X920609Y578504D02*
Y575172D01*
X922275Y573506D01*
X923942Y575172D01*
Y578504D01*
X916736Y553362D02*
Y558360D01*
X919235D01*
X920068Y557527D01*
Y555861D01*
X919235Y555028D01*
X916736D01*
X918402D02*
X920068Y553362D01*
X921735Y558360D02*
X925067Y553362D01*
Y558360D02*
X921735Y553362D01*
X917768Y547389D02*
X916936Y548222D01*
X915269D01*
X914436Y547389D01*
Y544057D01*
X915269Y543224D01*
X916936D01*
X917768Y544057D01*
Y545723D01*
X916102D01*
X919435Y543224D02*
Y548222D01*
X922767Y543224D01*
Y548222D01*
X924433D02*
Y543224D01*
X926932D01*
X927765Y544057D01*
Y547389D01*
X926932Y548222D01*
X924433D01*
X916612Y534152D02*
Y539150D01*
X919944Y534152D01*
Y539150D01*
X924942Y538317D02*
X924109Y539150D01*
X922443D01*
X921610Y538317D01*
Y534985D01*
X922443Y534152D01*
X924109D01*
X924942Y534985D01*
X768500Y493226D02*
Y498224D01*
X771832Y493226D01*
Y498224D01*
X776831Y497391D02*
X775998Y498224D01*
X774332D01*
X773498Y497391D01*
Y494059D01*
X774332Y493226D01*
X775998D01*
X776831Y494059D01*
X769032Y488365D02*
X768199Y489198D01*
X766533D01*
X765700Y488365D01*
Y485033D01*
X766533Y484200D01*
X768199D01*
X769032Y485033D01*
Y486699D01*
X767366D01*
X770698Y484200D02*
Y489198D01*
X774031Y484200D01*
Y489198D01*
X775697D02*
Y484200D01*
X778196D01*
X779029Y485033D01*
Y488365D01*
X778196Y489198D01*
X775697D01*
X767500Y474513D02*
Y479511D01*
X769999D01*
X770832Y478678D01*
Y477012D01*
X769999Y476179D01*
X767500D01*
X769166D02*
X770832Y474513D01*
X772498Y479511D02*
X775831Y474513D01*
Y479511D02*
X772498Y474513D01*
X770832Y459826D02*
X767500D01*
Y457327D01*
X769166Y458160D01*
X769999D01*
X770832Y457327D01*
Y455661D01*
X769999Y454828D01*
X768333D01*
X767500Y455661D01*
X772498Y459826D02*
Y456494D01*
X774165Y454828D01*
X775831Y456494D01*
Y459826D01*
X767500Y469835D02*
X770832D01*
X769166D01*
Y464836D01*
X772498Y469835D02*
X775831Y464836D01*
Y469835D02*
X772498Y464836D01*
X869732Y528865D02*
X868899Y529698D01*
X867233D01*
X866400Y528865D01*
Y528032D01*
X867233Y527199D01*
X868899D01*
X869732Y526366D01*
Y525533D01*
X868899Y524700D01*
X867233D01*
X866400Y525533D01*
X871398Y529698D02*
Y524700D01*
X873065Y526366D01*
X874731Y524700D01*
Y529698D01*
X876397D02*
Y524700D01*
X878896D01*
X879729Y525533D01*
Y528865D01*
X878896Y529698D01*
X876397D01*
X897813Y528062D02*
Y523064D01*
X901145D01*
X902812D02*
X904478D01*
X903645D01*
Y526396D01*
X902812D01*
X906977Y528062D02*
Y523064D01*
X909476D01*
X910309Y523897D01*
Y527229D01*
X909476Y528062D01*
X906977D01*
X911975Y523064D02*
Y526396D01*
X913641Y528062D01*
X915308Y526396D01*
Y523064D01*
Y525563D01*
X911975D01*
X916974Y523064D02*
Y528062D01*
X919473D01*
X920306Y527229D01*
Y525563D01*
X919473Y524730D01*
X916974D01*
X918640D02*
X920306Y523064D01*
X928636D02*
X926970Y524730D01*
Y526396D01*
X928636Y528062D01*
X931136D02*
Y523897D01*
X931969Y523064D01*
X933635D01*
X934468Y523897D01*
Y528062D01*
X936134Y527229D02*
X936967Y528062D01*
X938633D01*
X939466Y527229D01*
Y526396D01*
X938633Y525563D01*
X937800D01*
X938633D01*
X939466Y524730D01*
Y523897D01*
X938633Y523064D01*
X936967D01*
X936134Y523897D01*
X941133Y523064D02*
X942799Y524730D01*
Y526396D01*
X941133Y528062D01*
X754500Y448598D02*
Y443600D01*
X757832D01*
X759498D02*
X761165D01*
X760331D01*
Y446932D01*
X759498D01*
X763664Y448598D02*
Y443600D01*
X766163D01*
X766996Y444433D01*
Y447765D01*
X766163Y448598D01*
X763664D01*
X768662Y443600D02*
Y446932D01*
X770328Y448598D01*
X771994Y446932D01*
Y443600D01*
Y446099D01*
X768662D01*
X773661Y443600D02*
Y448598D01*
X776160D01*
X776993Y447765D01*
Y446099D01*
X776160Y445266D01*
X773661D01*
X775327D02*
X776993Y443600D01*
X785323D02*
X783657Y445266D01*
Y446932D01*
X785323Y448598D01*
X787823D02*
Y444433D01*
X788656Y443600D01*
X790322D01*
X791155Y444433D01*
Y448598D01*
X795320Y443600D02*
Y448598D01*
X792821Y446099D01*
X796153D01*
X797819Y443600D02*
X799485Y445266D01*
Y446932D01*
X797819Y448598D01*
X761920Y590826D02*
Y586661D01*
X762754Y585828D01*
X764420D01*
X765253Y586661D01*
Y590826D01*
X766919Y585828D02*
Y589160D01*
X768585Y590826D01*
X770251Y589160D01*
Y585828D01*
Y588327D01*
X766919D01*
X771917Y585828D02*
Y590826D01*
X774416D01*
X775249Y589993D01*
Y588327D01*
X774416Y587494D01*
X771917D01*
X773583D02*
X775249Y585828D01*
X776916Y590826D02*
X780248D01*
X778582D01*
Y585828D01*
X785246Y590826D02*
X781914D01*
Y588327D01*
X783580Y589160D01*
X784413D01*
X785246Y588327D01*
Y586661D01*
X784413Y585828D01*
X782747D01*
X781914Y586661D01*
X763162Y550435D02*
X759830D01*
Y547936D01*
X761496D01*
X759830D01*
Y545437D01*
X768160Y549602D02*
X767327Y550435D01*
X765661D01*
X764828Y549602D01*
Y546270D01*
X765661Y545437D01*
X767327D01*
X768160Y546270D01*
X776491Y545437D02*
X774825Y547103D01*
Y548769D01*
X776491Y550435D01*
X778990D02*
Y546270D01*
X779823Y545437D01*
X781490D01*
X782323Y546270D01*
Y550435D01*
X783989Y545437D02*
X785655D01*
X784822D01*
Y550435D01*
X783989Y549602D01*
X788154Y545437D02*
X789820Y547103D01*
Y548769D01*
X788154Y550435D01*
X758043Y505500D02*
Y510498D01*
X760542D01*
X761375Y509665D01*
Y507999D01*
X760542Y507166D01*
X758043D01*
X759709D02*
X761375Y505500D01*
X766373Y509665D02*
X765540Y510498D01*
X763874D01*
X763041Y509665D01*
Y506333D01*
X763874Y505500D01*
X765540D01*
X766373Y506333D01*
X774704Y505500D02*
X773038Y507166D01*
Y508832D01*
X774704Y510498D01*
X777203D02*
Y506333D01*
X778036Y505500D01*
X779702D01*
X780535Y506333D01*
Y510498D01*
X785534D02*
X783868Y509665D01*
X782201Y507999D01*
Y506333D01*
X783035Y505500D01*
X784701D01*
X785534Y506333D01*
Y507166D01*
X784701Y507999D01*
X782201D01*
X787200Y505500D02*
X788866Y507166D01*
Y508832D01*
X787200Y510498D01*
X797589Y649432D02*
X796756Y648599D01*
Y646933D01*
X797589Y646100D01*
X800921D01*
X801754Y646933D01*
Y648599D01*
X800921Y649432D01*
X799255D01*
Y647766D01*
X801754Y651098D02*
X796756D01*
X801754Y654431D01*
X796756D01*
Y656097D02*
X801754D01*
Y658596D01*
X800921Y659429D01*
X797589D01*
X796756Y658596D01*
Y656097D01*
X823928Y642473D02*
X827260D01*
X828926Y644139D01*
X827260Y645805D01*
X823928D01*
Y647471D02*
X828926D01*
Y649970D01*
X828093Y650803D01*
X827260D01*
X826427Y649970D01*
Y647471D01*
Y649970D01*
X825594Y650803D01*
X824761D01*
X823928Y649970D01*
Y647471D01*
X825594Y653302D02*
Y654968D01*
X826427Y655801D01*
X828926D01*
Y653302D01*
X828093Y652469D01*
X827260Y653302D01*
Y655801D01*
X824761Y658301D02*
X825594D01*
Y657468D01*
Y659134D01*
Y658301D01*
X828093D01*
X828926Y659134D01*
X824761Y662466D02*
X825594D01*
Y661633D01*
Y663299D01*
Y662466D01*
X828093D01*
X828926Y663299D01*
X942507Y460800D02*
X944475D01*
Y459816D01*
X944147Y459488D01*
X943491D01*
X943163Y459816D01*
Y460800D01*
Y460144D02*
X942507Y459488D01*
Y458832D02*
Y458176D01*
Y458504D01*
X944475D01*
X944147Y458832D01*
X942507Y457192D02*
Y456536D01*
Y456864D01*
X944475D01*
X944147Y457192D01*
X799413Y550918D02*
X798626D01*
X799019D01*
Y548950D01*
X798626Y548557D01*
X798232D01*
X797838Y548950D01*
X800200Y550918D02*
X801774D01*
Y550524D01*
X800200Y548950D01*
Y548557D01*
X797786Y509972D02*
X796999D01*
X797393D01*
Y508004D01*
X796999Y507610D01*
X796606D01*
X796212Y508004D01*
X800148Y509972D02*
X799361Y509578D01*
X798573Y508791D01*
Y508004D01*
X798967Y507610D01*
X799754D01*
X800148Y508004D01*
Y508397D01*
X799754Y508791D01*
X798573D01*
X806806Y454369D02*
X806019D01*
X806413D01*
Y452401D01*
X806019Y452008D01*
X805626D01*
X805232Y452401D01*
X809168Y454369D02*
X807594D01*
Y453188D01*
X808381Y453582D01*
X808774D01*
X809168Y453188D01*
Y452401D01*
X808774Y452008D01*
X807987D01*
X807594Y452401D01*
X936822Y606853D02*
X935903D01*
X936363D01*
Y604557D01*
X935903Y604098D01*
X935444D01*
X934985Y604557D01*
X939118Y604098D02*
Y606853D01*
X937740Y605476D01*
X939577D01*
X808481Y631607D02*
Y633575D01*
X809465D01*
X809793Y633247D01*
Y632591D01*
X809465Y632263D01*
X808481D01*
X809137D02*
X809793Y631607D01*
X810777Y633247D02*
Y632919D01*
X810449D01*
X811105D01*
X810777D01*
Y631935D01*
X811105Y631607D01*
X812417D02*
X813073D01*
X813401Y631935D01*
Y632591D01*
X813073Y632919D01*
X812417D01*
X812089Y632591D01*
Y631935D01*
X812417Y631607D01*
X814057Y630951D02*
Y632919D01*
X815041D01*
X815369Y632591D01*
Y631935D01*
X815041Y631607D01*
X814057D01*
X897734Y585278D02*
Y587246D01*
X898718D01*
X899046Y586918D01*
Y586262D01*
X898718Y585934D01*
X897734D01*
X898390D02*
X899046Y585278D01*
X900686D02*
Y587246D01*
X899702Y586262D01*
X901014D01*
X941007Y590789D02*
Y588034D01*
X942384D01*
X942843Y588493D01*
Y590330D01*
X942384Y590789D01*
X941007D01*
X945598Y588034D02*
X943762D01*
X945598Y589870D01*
Y590330D01*
X945139Y590789D01*
X944221D01*
X943762Y590330D01*
X865252Y517116D02*
Y519477D01*
X866432D01*
X866826Y519084D01*
Y518296D01*
X866432Y517903D01*
X865252D01*
X867613Y517116D02*
X868400D01*
X868007D01*
Y519477D01*
X867613Y519084D01*
X846967Y634258D02*
Y637013D01*
X847885Y636095D01*
X848803Y637013D01*
Y634258D01*
X849722D02*
Y637013D01*
X851099D01*
X851558Y636554D01*
Y635635D01*
X851099Y635176D01*
X849722D01*
X852477Y634258D02*
X853395D01*
X852936D01*
Y637013D01*
X852477Y636554D01*
X892876Y586533D02*
X891827D01*
X892351D01*
Y583910D01*
X891827Y583385D01*
X891302D01*
X890777Y583910D01*
X896025Y583385D02*
X893926D01*
X896025Y585484D01*
Y586009D01*
X895500Y586533D01*
X894450D01*
X893926Y586009D01*
X808369Y469850D02*
Y469456D01*
X809156Y468669D01*
X809943Y469456D01*
Y469850D01*
X809156Y468669D02*
Y467488D01*
X810730D02*
X811517D01*
X811124D01*
Y469850D01*
X810730Y469456D01*
X897078Y511573D02*
Y514328D01*
X898456D01*
X898915Y513869D01*
Y512951D01*
X898456Y512491D01*
X897078D01*
X897996D02*
X898915Y511573D01*
X901670D02*
X899833D01*
X901670Y513410D01*
Y513869D01*
X901210Y514328D01*
X900292D01*
X899833Y513869D01*
X899655Y508226D02*
X899327Y508554D01*
X898671D01*
X898343Y508226D01*
Y506914D01*
X898671Y506586D01*
X899327D01*
X899655Y506914D01*
X901622Y508554D02*
X900966Y508226D01*
X900311Y507570D01*
Y506914D01*
X900639Y506586D01*
X901295D01*
X901622Y506914D01*
Y507242D01*
X901295Y507570D01*
X900311D01*
X942207Y467687D02*
X944174D01*
Y466703D01*
X943847Y466375D01*
X943190D01*
X942863Y466703D01*
Y467687D01*
Y467031D02*
X942207Y466375D01*
X944174Y465719D02*
Y464407D01*
X943847D01*
X942535Y465719D01*
X942207D01*
X901891Y458938D02*
X901563Y459266D01*
X900907D01*
X900579Y458938D01*
Y457626D01*
X900907Y457298D01*
X901563D01*
X901891Y457626D01*
X902547Y457298D02*
X903203D01*
X902875D01*
Y459266D01*
X902547Y458938D01*
X904187Y457298D02*
X904843D01*
X904515D01*
Y459266D01*
X904187Y458938D01*
D16*
X903518Y442257D02*
X903321Y442454D01*
X902928D01*
X902731Y442257D01*
Y441470D01*
X902928Y441274D01*
X903321D01*
X903518Y441470D01*
X904699Y442454D02*
X903912D01*
Y441864D01*
X904305Y442061D01*
X904502D01*
X904699Y441864D01*
Y441470D01*
X904502Y441274D01*
X904108D01*
X903912Y441470D01*
D17*
X857831Y549708D02*
X861163D01*
X861830Y550375D01*
Y551708D01*
X861163Y552374D01*
X857831D01*
X861830Y555706D02*
X857831D01*
X859830Y553707D01*
Y556373D01*
M02*
