G04*
G04 #@! TF.GenerationSoftware,Altium Limited,Altium Designer,24.0.1 (36)*
G04*
G04 Layer_Physical_Order=1*
G04 Layer_Color=255*
%FSLAX25Y25*%
%MOIN*%
G70*
G04*
G04 #@! TF.SameCoordinates,4AE72286-74C0-4861-BAE4-8600210459B3*
G04*
G04*
G04 #@! TF.FilePolarity,Positive*
G04*
G01*
G75*
%ADD12C,0.00787*%
%ADD17C,0.00700*%
%ADD19R,0.03434X0.03954*%
G04:AMPARAMS|DCode=20|XSize=39.54mil|YSize=34.34mil|CornerRadius=17.17mil|HoleSize=0mil|Usage=FLASHONLY|Rotation=270.000|XOffset=0mil|YOffset=0mil|HoleType=Round|Shape=RoundedRectangle|*
%AMROUNDEDRECTD20*
21,1,0.03954,0.00000,0,0,270.0*
21,1,0.00520,0.03434,0,0,270.0*
1,1,0.03434,0.00000,-0.00260*
1,1,0.03434,0.00000,0.00260*
1,1,0.03434,0.00000,0.00260*
1,1,0.03434,0.00000,-0.00260*
%
%ADD20ROUNDEDRECTD20*%
G04:AMPARAMS|DCode=21|XSize=39.54mil|YSize=125.28mil|CornerRadius=17.2mil|HoleSize=0mil|Usage=FLASHONLY|Rotation=270.000|XOffset=0mil|YOffset=0mil|HoleType=Round|Shape=RoundedRectangle|*
%AMROUNDEDRECTD21*
21,1,0.03954,0.09088,0,0,270.0*
21,1,0.00514,0.12528,0,0,270.0*
1,1,0.03440,-0.04544,-0.00257*
1,1,0.03440,-0.04544,0.00257*
1,1,0.03440,0.04544,0.00257*
1,1,0.03440,0.04544,-0.00257*
%
%ADD21ROUNDEDRECTD21*%
%ADD25R,0.06121X0.07505*%
%ADD32R,0.02029X0.01860*%
%ADD33R,0.02985X0.03197*%
%ADD37R,0.03937X0.01181*%
%ADD39R,0.03985X0.04560*%
%ADD41R,0.01860X0.02029*%
%ADD42R,0.03248X0.00984*%
%ADD44R,0.02657X0.00984*%
%ADD45R,0.00984X0.03248*%
%ADD46R,0.03197X0.02985*%
%ADD48R,0.01575X0.04232*%
%ADD49R,0.11713X0.01378*%
%ADD50C,0.03543*%
%ADD61C,0.06181*%
%ADD62R,0.06181X0.06181*%
%ADD64C,0.05984*%
G04:AMPARAMS|DCode=65|XSize=43.31mil|YSize=80.71mil|CornerRadius=21.65mil|HoleSize=0mil|Usage=FLASHONLY|Rotation=90.000|XOffset=0mil|YOffset=0mil|HoleType=Round|Shape=RoundedRectangle|*
%AMROUNDEDRECTD65*
21,1,0.04331,0.03740,0,0,90.0*
21,1,0.00000,0.08071,0,0,90.0*
1,1,0.04331,0.01870,0.00000*
1,1,0.04331,0.01870,0.00000*
1,1,0.04331,-0.01870,0.00000*
1,1,0.04331,-0.01870,0.00000*
%
%ADD65ROUNDEDRECTD65*%
%ADD66R,0.05984X0.05984*%
G04:AMPARAMS|DCode=68|XSize=17.72mil|YSize=55.12mil|CornerRadius=1.95mil|HoleSize=0mil|Usage=FLASHONLY|Rotation=180.000|XOffset=0mil|YOffset=0mil|HoleType=Round|Shape=RoundedRectangle|*
%AMROUNDEDRECTD68*
21,1,0.01772,0.05122,0,0,180.0*
21,1,0.01382,0.05512,0,0,180.0*
1,1,0.00390,-0.00691,0.02561*
1,1,0.00390,0.00691,0.02561*
1,1,0.00390,0.00691,-0.02561*
1,1,0.00390,-0.00691,-0.02561*
%
%ADD68ROUNDEDRECTD68*%
%ADD69O,0.01181X0.06299*%
%ADD70O,0.06299X0.01181*%
%ADD71R,0.03937X0.03543*%
%ADD72R,0.27559X0.15748*%
%ADD73R,0.15748X0.09843*%
%ADD74R,0.03543X0.03937*%
%ADD75R,0.07480X0.11024*%
%ADD76R,0.03347X0.03740*%
%ADD77R,0.03150X0.03150*%
%ADD78R,0.03150X0.03543*%
%ADD79R,0.03543X0.03150*%
%ADD80R,0.07874X0.21654*%
%ADD81R,0.04724X0.06496*%
%ADD82R,0.03740X0.03347*%
%ADD83R,0.00984X0.00984*%
%ADD84R,0.03150X0.03150*%
%ADD85C,0.06102*%
%ADD86R,0.06102X0.06102*%
%ADD87C,0.12598*%
%ADD88C,0.07087*%
%ADD89R,0.06102X0.06102*%
%ADD90C,0.02362*%
G36*
X829395Y648018D02*
X812587Y631210D01*
X801267D01*
X800775Y631229D01*
X800775Y631710D01*
Y633501D01*
X798200D01*
X795625D01*
X795625Y631229D01*
X795133Y631210D01*
X793730D01*
X793673Y631235D01*
X793331Y631705D01*
X793554Y632826D01*
Y633045D01*
X786755D01*
Y626246D01*
X786974D01*
X788384Y626526D01*
X789713Y627076D01*
X790908Y627875D01*
X791925Y628892D01*
X792724Y630088D01*
X792842Y630373D01*
X793342Y630273D01*
Y625434D01*
X791043Y623135D01*
X790898Y623195D01*
X790272D01*
X789693Y622955D01*
X789250Y622512D01*
X789010Y621933D01*
Y621307D01*
X789250Y620728D01*
X789693Y620285D01*
X790272Y620045D01*
X790898D01*
X791477Y620285D01*
X791920Y620728D01*
X792160Y621307D01*
Y621933D01*
X792146Y621967D01*
X792977Y622798D01*
X793342Y623082D01*
Y623082D01*
X793342Y623082D01*
X802754D01*
X802757Y621671D01*
X802258Y621173D01*
X795786D01*
Y614204D01*
X802754Y614204D01*
X802775Y613713D01*
X802784Y609571D01*
X802284Y609436D01*
X802058Y609828D01*
X801410Y610476D01*
X800615Y610935D01*
X799729Y611173D01*
X798811D01*
X797925Y610935D01*
X797131Y610476D01*
X796482Y609828D01*
X796023Y609033D01*
X795786Y608147D01*
Y607230D01*
X796023Y606343D01*
X796482Y605549D01*
X797131Y604900D01*
X797925Y604441D01*
X798811Y604204D01*
X799729D01*
X800615Y604441D01*
X801410Y604900D01*
X802058Y605549D01*
X802292Y605954D01*
X802792Y605820D01*
X802804Y600647D01*
X802304Y600439D01*
X801782Y600962D01*
X800849Y601500D01*
X799809Y601779D01*
X799770D01*
Y597688D01*
Y593598D01*
X799809D01*
X800849Y593877D01*
X801782Y594415D01*
X802316Y594949D01*
X802817Y594743D01*
X802844Y582502D01*
X802345Y582039D01*
X795786D01*
Y575071D01*
X802754Y575071D01*
X802861Y574615D01*
X802871Y570287D01*
X802371Y570153D01*
X802058Y570694D01*
X801410Y571343D01*
X800615Y571802D01*
X799729Y572039D01*
X798811D01*
X797925Y571802D01*
X797131Y571343D01*
X796482Y570694D01*
X796023Y569900D01*
X795786Y569014D01*
Y568096D01*
X796023Y567210D01*
X796482Y566416D01*
X797131Y565767D01*
X797925Y565308D01*
X798811Y565071D01*
X799729D01*
X800615Y565308D01*
X801410Y565767D01*
X802058Y566416D01*
X802378Y566969D01*
X802878Y566836D01*
X802890Y561427D01*
X802390Y561219D01*
X801782Y561828D01*
X800849Y562367D01*
X799809Y562645D01*
X799770D01*
Y558555D01*
Y554464D01*
X799809D01*
X800849Y554743D01*
X801782Y555282D01*
X802402Y555902D01*
X802903Y555704D01*
X802936Y540609D01*
X802437Y540184D01*
X795786D01*
Y533216D01*
X802452D01*
X802754Y533216D01*
X802953Y532798D01*
X802963Y528222D01*
X802862Y528182D01*
X802464Y528137D01*
X802058Y528839D01*
X801410Y529488D01*
X800615Y529947D01*
X799729Y530184D01*
X798811D01*
X797925Y529947D01*
X797131Y529488D01*
X796482Y528839D01*
X796023Y528045D01*
X795786Y527159D01*
Y526241D01*
X796023Y525355D01*
X796482Y524561D01*
X797131Y523912D01*
X797925Y523453D01*
X798811Y523216D01*
X799729D01*
X800615Y523453D01*
X801410Y523912D01*
X802058Y524561D01*
X802470Y525274D01*
X802764Y525263D01*
X802970Y525187D01*
X802983Y519358D01*
X802483Y519272D01*
X801782Y519973D01*
X800849Y520512D01*
X799809Y520791D01*
X799770D01*
Y516700D01*
Y512609D01*
X799809D01*
X800849Y512888D01*
X801782Y513427D01*
X802494Y514139D01*
X802977Y514073D01*
X802995Y514068D01*
X803022Y501493D01*
X802523Y501100D01*
X795796D01*
Y494131D01*
X802538D01*
X802764Y494131D01*
X803039Y493745D01*
X803047Y490238D01*
X802664Y490135D01*
X802547Y490133D01*
X801792Y490889D01*
X800859Y491427D01*
X799819Y491706D01*
X799780D01*
Y487616D01*
Y483525D01*
X799819D01*
X800859Y483804D01*
X801792Y484342D01*
X802553Y485104D01*
X802575Y485143D01*
X803059Y485014D01*
X803072Y478857D01*
X802572Y478791D01*
X802527Y478961D01*
X802068Y479755D01*
X801419Y480404D01*
X800625Y480863D01*
X799739Y481100D01*
X798821D01*
X797935Y480863D01*
X797141Y480404D01*
X796492Y479755D01*
X796033Y478961D01*
X795796Y478074D01*
Y477157D01*
X796033Y476271D01*
X796492Y475476D01*
X797141Y474827D01*
X797935Y474369D01*
X798821Y474131D01*
X799739D01*
X800625Y474369D01*
X801111Y474649D01*
X803086Y472675D01*
X803094Y468774D01*
X802594Y468708D01*
X802527Y468961D01*
X802068Y469755D01*
X801419Y470404D01*
X800625Y470862D01*
X799739Y471100D01*
X798821D01*
X797935Y470862D01*
X797141Y470404D01*
X796492Y469755D01*
X796033Y468961D01*
X795796Y468074D01*
Y467157D01*
X796033Y466271D01*
X796492Y465476D01*
X797141Y464827D01*
X797935Y464369D01*
X798821Y464131D01*
X799739D01*
X800625Y464369D01*
X801111Y464649D01*
X802492Y463269D01*
X802492Y463268D01*
X802752Y463094D01*
X803059Y463033D01*
X803766D01*
X809404Y457396D01*
X822635D01*
X822692Y457183D01*
X823138Y456411D01*
X823768Y455781D01*
X824540Y455335D01*
X825401Y455104D01*
X826293D01*
X827154Y455335D01*
X827926Y455781D01*
X828556Y456411D01*
X829002Y457183D01*
X829059Y457396D01*
X832461D01*
Y455104D01*
X839233D01*
Y457396D01*
X851373D01*
Y454600D01*
X841154D01*
X840846Y454538D01*
X840586Y454364D01*
X837606Y451384D01*
X837154Y451645D01*
X836293Y451876D01*
X835401D01*
X834540Y451645D01*
X833768Y451199D01*
X833138Y450569D01*
X832692Y449797D01*
X832461Y448936D01*
Y448044D01*
X832692Y447183D01*
X833138Y446411D01*
X833768Y445781D01*
X834540Y445335D01*
X835401Y445104D01*
X836293D01*
X837154Y445335D01*
X837926Y445781D01*
X838556Y446411D01*
X839002Y447183D01*
X839233Y448044D01*
Y448936D01*
X839002Y449797D01*
X838741Y450249D01*
X841486Y452994D01*
X851373D01*
Y448841D01*
X843632Y441100D01*
X748066D01*
X748000Y441166D01*
Y664493D01*
X748358Y664642D01*
X829395D01*
Y648018D01*
D02*
G37*
G36*
X933702Y624459D02*
Y622588D01*
X933202Y622424D01*
X932586Y623040D01*
X931688Y623559D01*
X930687Y623827D01*
X929650D01*
X928649Y623559D01*
X927751Y623040D01*
X927018Y622307D01*
X926500Y621410D01*
X926232Y620408D01*
Y619372D01*
X926500Y618370D01*
X927018Y617473D01*
X927751Y616740D01*
X928649Y616221D01*
X929650Y615953D01*
X930687D01*
X931688Y616221D01*
X932586Y616740D01*
X933202Y617356D01*
X933702Y617191D01*
Y594398D01*
X913840D01*
X912490Y593047D01*
Y583405D01*
X938801D01*
X944736Y577471D01*
Y526634D01*
X912307D01*
X901336Y515663D01*
X895837D01*
X887301Y524199D01*
Y555604D01*
X881600Y561305D01*
Y579054D01*
X897700Y595154D01*
Y624749D01*
X933349Y624812D01*
X933702Y624459D01*
D02*
G37*
G36*
X895300Y637234D02*
Y596395D01*
X889300Y590395D01*
X870763D01*
X856781Y576414D01*
Y571183D01*
X856682Y571102D01*
X856491D01*
Y567322D01*
X855991D01*
Y566822D01*
X854082D01*
Y566586D01*
X853333D01*
Y582174D01*
X861555Y590395D01*
Y611118D01*
X864023Y613585D01*
X864484Y613394D01*
Y613063D01*
X866756D01*
Y616032D01*
X867256D01*
Y616532D01*
X870028D01*
Y619000D01*
X870028D01*
X869855Y619418D01*
X871837Y621400D01*
Y637234D01*
X873233Y640871D01*
X893865D01*
X895300Y637234D01*
D02*
G37*
G36*
X863176Y626300D02*
Y619000D01*
X862441D01*
Y616032D01*
X861941D01*
Y615532D01*
X859169D01*
Y614161D01*
X854360D01*
Y617500D01*
X850300D01*
Y618000D01*
X849800D01*
Y622752D01*
X847208D01*
Y625976D01*
X847562Y626329D01*
X863176Y626300D01*
D02*
G37*
G36*
X849003Y636610D02*
Y633518D01*
Y630923D01*
X846485Y628405D01*
X844847Y626768D01*
Y613380D01*
X842585Y611118D01*
X837554D01*
Y608490D01*
X836767D01*
Y605374D01*
X835767D01*
Y608490D01*
X835355D01*
Y609313D01*
X830350Y614318D01*
X830541Y614780D01*
X832742D01*
Y617052D01*
X829774D01*
Y618052D01*
X832742D01*
Y619000D01*
X833671D01*
Y626330D01*
X830066Y629935D01*
Y638760D01*
X835252Y643431D01*
X842183D01*
X849003Y636610D01*
D02*
G37*
G36*
X826621Y607292D02*
Y603354D01*
X826424Y603158D01*
X824652D01*
X824456Y603354D01*
Y605913D01*
X824652Y606110D01*
X825637D01*
X825834Y606307D01*
Y607292D01*
X826030Y607488D01*
X826424D01*
X826621Y607292D01*
D02*
G37*
G36*
X843819Y602952D02*
X843627Y602761D01*
X838293D01*
Y610047D01*
X843819D01*
Y602952D01*
D02*
G37*
G36*
X826621Y596268D02*
Y592331D01*
X826424Y592134D01*
X826030D01*
X825834Y592331D01*
Y593315D01*
X825637Y593512D01*
X824652D01*
X824456Y593709D01*
Y596268D01*
X824652Y596465D01*
X826424D01*
X826621Y596268D01*
D02*
G37*
G36*
X856447Y592091D02*
X845001D01*
Y598729D01*
X844749D01*
Y599311D01*
X837893D01*
Y600311D01*
X844749D01*
Y600757D01*
X845001D01*
Y607688D01*
X856447D01*
Y592091D01*
D02*
G37*
G36*
X834479Y594748D02*
X836267D01*
Y594248D01*
X836767D01*
Y591132D01*
X836927D01*
Y590352D01*
X835493Y589036D01*
Y580245D01*
X834975Y579727D01*
X834620Y580078D01*
X834620Y580574D01*
Y584328D01*
X831059D01*
Y580075D01*
X834120D01*
X834617Y580075D01*
X834968Y579720D01*
X833219Y577970D01*
Y577468D01*
X831061D01*
Y574500D01*
X830561D01*
Y574000D01*
X827790D01*
Y572630D01*
X825530D01*
Y577504D01*
Y580124D01*
X825757Y580670D01*
Y581296D01*
X825530Y581843D01*
Y590549D01*
X826362Y591380D01*
X830542D01*
Y591132D01*
X831534D01*
Y593756D01*
X832034D01*
Y594256D01*
X833526D01*
Y594898D01*
X834479D01*
Y594748D01*
D02*
G37*
G36*
X843634Y596578D02*
X843913Y596576D01*
Y591727D01*
X845092Y590549D01*
X850338D01*
X852743Y588144D01*
Y564224D01*
X851971D01*
Y566381D01*
X846034D01*
Y564224D01*
X844432D01*
Y566381D01*
X838495D01*
Y564224D01*
X835493D01*
X834261Y562992D01*
X828190D01*
X827707Y563531D01*
Y564957D01*
X827707Y570310D01*
X828944Y571547D01*
X833105Y571547D01*
Y571531D01*
X835376D01*
Y574500D01*
Y577468D01*
X834562D01*
X834355Y577969D01*
X836369Y579983D01*
Y589032D01*
X839216Y591879D01*
X839216Y596252D01*
X839416Y596451D01*
Y596465D01*
X839613Y596662D01*
X843550D01*
X843634Y596578D01*
D02*
G37*
G36*
X816762Y571589D02*
X818394Y569958D01*
Y563857D01*
X820942Y561309D01*
X835236Y561309D01*
X837188Y563261D01*
X838495Y563244D01*
Y562066D01*
X844432D01*
Y562811D01*
X844788Y563162D01*
X846034Y563146D01*
Y562066D01*
X851971D01*
Y562713D01*
X852327Y563064D01*
X857861Y562992D01*
Y563543D01*
X858050D01*
Y567322D01*
X859050D01*
Y563543D01*
X859087D01*
Y562992D01*
Y551312D01*
X858814D01*
X858235Y551072D01*
X857792Y550629D01*
X857695Y550393D01*
X814475D01*
X809096Y555772D01*
X809096Y569715D01*
X810970Y571589D01*
X816762Y571589D01*
D02*
G37*
G36*
X861609Y563543D02*
X861800D01*
X861927Y563439D01*
Y562992D01*
X864857Y562992D01*
X865932Y561566D01*
X865932Y551442D01*
X864883Y550393D01*
X860946Y550393D01*
X860075Y551264D01*
X860075Y563262D01*
X860418Y563543D01*
X860609D01*
Y567322D01*
X861609D01*
Y563543D01*
D02*
G37*
G36*
X833980Y544094D02*
X837125D01*
Y541937D01*
X843062D01*
Y544094D01*
X846240D01*
X846967Y543439D01*
Y530755D01*
X846017Y529806D01*
X820378Y529806D01*
Y532259D01*
X817606D01*
Y532759D01*
X817106D01*
Y535727D01*
X814835D01*
Y535415D01*
X814457Y535121D01*
X813279D01*
Y545345D01*
X813898Y545964D01*
X832110Y545964D01*
X833980Y544094D01*
D02*
G37*
G36*
X917777Y512734D02*
X918122Y512734D01*
X918778Y512519D01*
X919335Y512111D01*
X919737Y511550D01*
X919945Y510892D01*
X919938Y510202D01*
X919717Y509548D01*
X919304Y508995D01*
X919021Y508797D01*
X914368Y508797D01*
X914085Y508995D01*
X913672Y509548D01*
X913451Y510202D01*
X913444Y510892D01*
X913652Y511550D01*
X914054Y512111D01*
X914611Y512519D01*
X915267Y512734D01*
X915612Y512734D01*
X917777Y512734D01*
X917777Y512734D01*
D02*
G37*
G36*
X919304Y476551D02*
X919717Y475998D01*
X919938Y475345D01*
X919945Y474654D01*
X919737Y473996D01*
X919335Y473435D01*
X918778Y473028D01*
X918122Y472813D01*
X917777Y472813D01*
X917777Y472813D01*
X915612D01*
X915267Y472813D01*
X914611Y473028D01*
X914054Y473435D01*
X913652Y473996D01*
X913444Y474654D01*
X913451Y475345D01*
X913672Y475998D01*
X914085Y476551D01*
X914368Y476750D01*
Y476750D01*
X919021D01*
X919304Y476551D01*
D02*
G37*
%LPC*%
G36*
X786974Y663954D02*
X786755D01*
Y657155D01*
X793554D01*
Y657374D01*
X793274Y658784D01*
X792724Y660113D01*
X791925Y661308D01*
X790908Y662325D01*
X789713Y663124D01*
X788384Y663674D01*
X786974Y663954D01*
D02*
G37*
G36*
X785755D02*
X785536D01*
X784126Y663674D01*
X782798Y663124D01*
X781602Y662325D01*
X780585Y661308D01*
X779787Y660113D01*
X779237Y658784D01*
X778956Y657374D01*
Y657155D01*
X785755D01*
Y663954D01*
D02*
G37*
G36*
X763864D02*
X763645D01*
Y657155D01*
X770444D01*
Y657374D01*
X770164Y658784D01*
X769613Y660113D01*
X768815Y661308D01*
X767798Y662325D01*
X766602Y663124D01*
X765274Y663674D01*
X763864Y663954D01*
D02*
G37*
G36*
X762645D02*
X762426D01*
X761016Y663674D01*
X759688Y663124D01*
X758492Y662325D01*
X757475Y661308D01*
X756676Y660113D01*
X756126Y658784D01*
X755846Y657374D01*
Y657155D01*
X762645D01*
Y663954D01*
D02*
G37*
G36*
X793554Y656155D02*
X786755D01*
Y649356D01*
X786974D01*
X788384Y649637D01*
X789713Y650187D01*
X790908Y650985D01*
X791925Y652002D01*
X792724Y653198D01*
X793274Y654526D01*
X793554Y655936D01*
Y656155D01*
D02*
G37*
G36*
X785755D02*
X778956D01*
Y655936D01*
X779237Y654526D01*
X779787Y653198D01*
X780585Y652002D01*
X781602Y650985D01*
X782798Y650187D01*
X784126Y649637D01*
X785536Y649356D01*
X785755D01*
Y656155D01*
D02*
G37*
G36*
X770444D02*
X763645D01*
Y649356D01*
X763864D01*
X765274Y649637D01*
X766602Y650187D01*
X767798Y650985D01*
X768815Y652002D01*
X769613Y653198D01*
X770164Y654526D01*
X770444Y655936D01*
Y656155D01*
D02*
G37*
G36*
X762645D02*
X755846D01*
Y655936D01*
X756126Y654526D01*
X756676Y653198D01*
X757475Y652002D01*
X758492Y650985D01*
X759688Y650187D01*
X761016Y649637D01*
X762426Y649356D01*
X762645D01*
Y656155D01*
D02*
G37*
G36*
X775359Y651793D02*
X774041D01*
X772748Y651536D01*
X771530Y651031D01*
X770434Y650299D01*
X769501Y649367D01*
X768769Y648270D01*
X768264Y647052D01*
X768007Y645759D01*
Y644441D01*
X768264Y643148D01*
X768769Y641930D01*
X769501Y640834D01*
X770434Y639901D01*
X771530Y639169D01*
X772748Y638664D01*
X774041Y638407D01*
X775359D01*
X776652Y638664D01*
X777870Y639169D01*
X778967Y639901D01*
X779899Y640834D01*
X780631Y641930D01*
X781136Y643148D01*
X781393Y644441D01*
Y645759D01*
X781136Y647052D01*
X780631Y648270D01*
X779899Y649367D01*
X778967Y650299D01*
X777870Y651031D01*
X776652Y651536D01*
X775359Y651793D01*
D02*
G37*
G36*
X800775Y636772D02*
X798700D01*
Y634501D01*
X800775D01*
Y636772D01*
D02*
G37*
G36*
X797700D02*
X795625D01*
Y634501D01*
X797700D01*
Y636772D01*
D02*
G37*
G36*
X786974Y640844D02*
X786755D01*
Y634045D01*
X793554D01*
Y634264D01*
X793274Y635674D01*
X792724Y637002D01*
X791925Y638198D01*
X790908Y639215D01*
X789713Y640013D01*
X788384Y640564D01*
X786974Y640844D01*
D02*
G37*
G36*
X785755D02*
X785536D01*
X784126Y640564D01*
X782798Y640013D01*
X781602Y639215D01*
X780585Y638198D01*
X779787Y637002D01*
X779237Y635674D01*
X778956Y634264D01*
Y634045D01*
X785755D01*
Y640844D01*
D02*
G37*
G36*
X763864D02*
X763645D01*
Y634045D01*
X770444D01*
Y634264D01*
X770164Y635674D01*
X769613Y637002D01*
X768815Y638198D01*
X767798Y639215D01*
X766602Y640013D01*
X765274Y640564D01*
X763864Y640844D01*
D02*
G37*
G36*
X762645D02*
X762426D01*
X761016Y640564D01*
X759688Y640013D01*
X758492Y639215D01*
X757475Y638198D01*
X756676Y637002D01*
X756126Y635674D01*
X755846Y634264D01*
Y634045D01*
X762645D01*
Y640844D01*
D02*
G37*
G36*
X785755Y633045D02*
X778956D01*
Y632826D01*
X779237Y631416D01*
X779787Y630088D01*
X780585Y628892D01*
X781602Y627875D01*
X782798Y627076D01*
X784126Y626526D01*
X785536Y626246D01*
X785755D01*
Y633045D01*
D02*
G37*
G36*
X770444D02*
X763645D01*
Y626246D01*
X763864D01*
X765274Y626526D01*
X766602Y627076D01*
X767798Y627875D01*
X768815Y628892D01*
X769613Y630088D01*
X770164Y631416D01*
X770444Y632826D01*
Y633045D01*
D02*
G37*
G36*
X762645D02*
X755846D01*
Y632826D01*
X756126Y631416D01*
X756676Y630088D01*
X757475Y628892D01*
X758492Y627875D01*
X759688Y627076D01*
X761016Y626526D01*
X762426Y626246D01*
X762645D01*
Y633045D01*
D02*
G37*
G36*
X798770Y601779D02*
X798732D01*
X797691Y601500D01*
X796759Y600962D01*
X795997Y600200D01*
X795458Y599267D01*
X795180Y598227D01*
Y598188D01*
X798770D01*
Y601779D01*
D02*
G37*
G36*
Y597188D02*
X795180D01*
Y597150D01*
X795458Y596109D01*
X795997Y595177D01*
X796759Y594415D01*
X797691Y593877D01*
X798732Y593598D01*
X798770D01*
Y597188D01*
D02*
G37*
G36*
Y562645D02*
X798732D01*
X797691Y562367D01*
X796759Y561828D01*
X795997Y561067D01*
X795458Y560134D01*
X795180Y559094D01*
Y559055D01*
X798770D01*
Y562645D01*
D02*
G37*
G36*
Y558055D02*
X795180D01*
Y558016D01*
X795458Y556976D01*
X795997Y556043D01*
X796759Y555282D01*
X797691Y554743D01*
X798732Y554464D01*
X798770D01*
Y558055D01*
D02*
G37*
G36*
X798770Y520791D02*
X798732D01*
X797691Y520512D01*
X796759Y519973D01*
X795997Y519212D01*
X795458Y518279D01*
X795180Y517239D01*
Y517200D01*
X798770D01*
Y520791D01*
D02*
G37*
G36*
Y516200D02*
X795180D01*
Y516161D01*
X795458Y515121D01*
X795997Y514188D01*
X796759Y513427D01*
X797691Y512888D01*
X798732Y512609D01*
X798770D01*
Y516200D01*
D02*
G37*
G36*
X798780Y491706D02*
X798741D01*
X797701Y491427D01*
X796768Y490889D01*
X796007Y490127D01*
X795468Y489194D01*
X795189Y488154D01*
Y488116D01*
X798780D01*
Y491706D01*
D02*
G37*
G36*
Y487116D02*
X795189D01*
Y487077D01*
X795468Y486037D01*
X796007Y485104D01*
X796768Y484342D01*
X797701Y483804D01*
X798741Y483525D01*
X798780D01*
Y487116D01*
D02*
G37*
G36*
X799739Y461100D02*
X798821D01*
X797935Y460862D01*
X797141Y460404D01*
X796492Y459755D01*
X796033Y458960D01*
X795796Y458074D01*
Y457157D01*
X796033Y456271D01*
X796492Y455476D01*
X797141Y454827D01*
X797935Y454369D01*
X798821Y454131D01*
X799739D01*
X800625Y454369D01*
X801419Y454827D01*
X802068Y455476D01*
X802527Y456271D01*
X802764Y457157D01*
Y458074D01*
X802527Y458960D01*
X802068Y459755D01*
X801419Y460404D01*
X800625Y460862D01*
X799739Y461100D01*
D02*
G37*
G36*
X826373Y452482D02*
X826347D01*
Y448990D01*
X829839D01*
Y449016D01*
X829567Y450031D01*
X829042Y450941D01*
X828298Y451685D01*
X827388Y452210D01*
X826373Y452482D01*
D02*
G37*
G36*
X825347D02*
X825321D01*
X824306Y452210D01*
X823396Y451685D01*
X822653Y450941D01*
X822127Y450031D01*
X821855Y449016D01*
Y448990D01*
X825347D01*
Y452482D01*
D02*
G37*
G36*
X829839Y447990D02*
X826347D01*
Y444498D01*
X826373D01*
X827388Y444770D01*
X828298Y445296D01*
X829042Y446039D01*
X829567Y446949D01*
X829839Y447965D01*
Y447990D01*
D02*
G37*
G36*
X825347D02*
X821855D01*
Y447965D01*
X822127Y446949D01*
X822653Y446039D01*
X823396Y445296D01*
X824306Y444770D01*
X825321Y444498D01*
X825347D01*
Y447990D01*
D02*
G37*
G36*
X932153Y613016D02*
X917873D01*
Y604642D01*
X932153D01*
Y613016D01*
D02*
G37*
G36*
X916873D02*
X902594D01*
Y604642D01*
X916873D01*
Y613016D01*
D02*
G37*
G36*
X932153Y603642D02*
X917873D01*
Y595268D01*
X932153D01*
Y603642D01*
D02*
G37*
G36*
X916873D02*
X902594D01*
Y595268D01*
X916873D01*
Y603642D01*
D02*
G37*
G36*
X910903Y593659D02*
X908041D01*
Y589911D01*
X910903D01*
Y593659D01*
D02*
G37*
G36*
X907041D02*
X904179D01*
Y589911D01*
X907041D01*
Y593659D01*
D02*
G37*
G36*
X910903Y588911D02*
X908041D01*
Y585163D01*
X910903D01*
Y588911D01*
D02*
G37*
G36*
X907041D02*
X904179D01*
Y585163D01*
X907041D01*
Y588911D01*
D02*
G37*
G36*
X894030Y579193D02*
X893113D01*
X892227Y578955D01*
X891432Y578496D01*
X890784Y577848D01*
X890325Y577053D01*
X890088Y576167D01*
Y575250D01*
X890325Y574363D01*
X890784Y573569D01*
X891432Y572920D01*
X892227Y572462D01*
X893113Y572224D01*
X894030D01*
X894917Y572462D01*
X895711Y572920D01*
X896360Y573569D01*
X896819Y574363D01*
X897056Y575250D01*
Y576167D01*
X896819Y577053D01*
X896360Y577848D01*
X895711Y578496D01*
X894917Y578955D01*
X894030Y579193D01*
D02*
G37*
G36*
Y569193D02*
X893113D01*
X892227Y568955D01*
X891432Y568496D01*
X890784Y567848D01*
X890325Y567053D01*
X890088Y566167D01*
Y565250D01*
X890325Y564363D01*
X890784Y563569D01*
X891432Y562920D01*
X892227Y562462D01*
X893113Y562224D01*
X894030D01*
X894917Y562462D01*
X895711Y562920D01*
X896360Y563569D01*
X896819Y564363D01*
X897056Y565250D01*
Y566167D01*
X896819Y567053D01*
X896360Y567848D01*
X895711Y568496D01*
X894917Y568955D01*
X894030Y569193D01*
D02*
G37*
G36*
Y559193D02*
X893113D01*
X892227Y558955D01*
X891432Y558496D01*
X890784Y557848D01*
X890325Y557053D01*
X890088Y556167D01*
Y555250D01*
X890325Y554363D01*
X890784Y553569D01*
X891432Y552920D01*
X892227Y552461D01*
X893113Y552224D01*
X894030D01*
X894917Y552461D01*
X895711Y552920D01*
X896360Y553569D01*
X896819Y554363D01*
X897056Y555250D01*
Y556167D01*
X896819Y557053D01*
X896360Y557848D01*
X895711Y558496D01*
X894917Y558955D01*
X894030Y559193D01*
D02*
G37*
G36*
X894110Y549799D02*
X894072D01*
Y546208D01*
X897662D01*
Y546247D01*
X897383Y547287D01*
X896845Y548220D01*
X896083Y548982D01*
X895151Y549520D01*
X894110Y549799D01*
D02*
G37*
G36*
X893072D02*
X893033D01*
X891993Y549520D01*
X891060Y548982D01*
X890298Y548220D01*
X889760Y547287D01*
X889481Y546247D01*
Y546208D01*
X893072D01*
Y549799D01*
D02*
G37*
G36*
X897662Y545208D02*
X894072D01*
Y541618D01*
X894110D01*
X895151Y541896D01*
X896083Y542435D01*
X896845Y543197D01*
X897383Y544129D01*
X897662Y545170D01*
Y545208D01*
D02*
G37*
G36*
X893072D02*
X889481D01*
Y545170D01*
X889760Y544129D01*
X890298Y543197D01*
X891060Y542435D01*
X891993Y541896D01*
X893033Y541618D01*
X893072D01*
Y545208D01*
D02*
G37*
G36*
X897056Y539193D02*
X890088D01*
Y532224D01*
X897056D01*
Y539193D01*
D02*
G37*
G36*
X891798Y638016D02*
X883424D01*
Y632595D01*
X891798D01*
Y638016D01*
D02*
G37*
G36*
X882425D02*
X874050D01*
Y632595D01*
X882425D01*
Y638016D01*
D02*
G37*
G36*
X891798Y631595D02*
X883424D01*
Y626173D01*
X891798D01*
Y631595D01*
D02*
G37*
G36*
X882425D02*
X874050D01*
Y626173D01*
X882425D01*
Y631595D01*
D02*
G37*
G36*
X870028Y615532D02*
X867756D01*
Y613063D01*
X870028D01*
Y615532D01*
D02*
G37*
G36*
X872050Y606323D02*
X867810D01*
Y600311D01*
X872050D01*
Y606323D01*
D02*
G37*
G36*
X866810D02*
X862570D01*
Y600311D01*
X866810D01*
Y606323D01*
D02*
G37*
G36*
X872050Y599311D02*
X867810D01*
Y593299D01*
X872050D01*
Y599311D01*
D02*
G37*
G36*
X866810D02*
X862570D01*
Y593299D01*
X866810D01*
Y599311D01*
D02*
G37*
G36*
X855491Y571102D02*
X855300D01*
X854834Y571009D01*
X854439Y570745D01*
X854175Y570350D01*
X854082Y569883D01*
Y567823D01*
X855491D01*
Y571102D01*
D02*
G37*
G36*
X854360Y622752D02*
X850800D01*
Y618500D01*
X854360D01*
Y622752D01*
D02*
G37*
G36*
X861441Y619000D02*
X859169D01*
Y616532D01*
X861441D01*
Y619000D01*
D02*
G37*
G36*
X839464Y641744D02*
X839245D01*
Y634945D01*
X846044D01*
Y635164D01*
X845764Y636574D01*
X845213Y637902D01*
X844415Y639098D01*
X843398Y640115D01*
X842202Y640913D01*
X840874Y641464D01*
X839464Y641744D01*
D02*
G37*
G36*
X838245D02*
X838026D01*
X836616Y641464D01*
X835287Y640913D01*
X834092Y640115D01*
X833075Y639098D01*
X832276Y637902D01*
X831726Y636574D01*
X831446Y635164D01*
Y634945D01*
X838245D01*
Y641744D01*
D02*
G37*
G36*
X846044Y633945D02*
X839245D01*
Y627146D01*
X839464D01*
X840874Y627426D01*
X842202Y627977D01*
X843398Y628775D01*
X844415Y629792D01*
X845213Y630988D01*
X845764Y632316D01*
X846044Y633726D01*
Y633945D01*
D02*
G37*
G36*
X838245D02*
X831446D01*
Y633726D01*
X831726Y632316D01*
X832276Y630988D01*
X833075Y629792D01*
X834092Y628775D01*
X835287Y627977D01*
X836616Y627426D01*
X838026Y627146D01*
X838245D01*
Y633945D01*
D02*
G37*
G36*
X842740Y622752D02*
X839180D01*
Y618500D01*
X842740D01*
Y622752D01*
D02*
G37*
G36*
X838180D02*
X834619D01*
Y618500D01*
X838180D01*
Y622752D01*
D02*
G37*
G36*
X842740Y617500D02*
X839180D01*
Y613248D01*
X842740D01*
Y617500D01*
D02*
G37*
G36*
X838180D02*
X834619D01*
Y613248D01*
X838180D01*
Y617500D01*
D02*
G37*
G36*
X843074Y606717D02*
X842369D01*
Y606307D01*
X842566Y606110D01*
X843074D01*
Y606717D01*
D02*
G37*
G36*
X855908Y606323D02*
X851668D01*
Y600311D01*
X855908D01*
Y606323D01*
D02*
G37*
G36*
X850668D02*
X846428D01*
Y600311D01*
X850668D01*
Y606323D01*
D02*
G37*
G36*
X855908Y599311D02*
X851668D01*
Y593299D01*
X855908D01*
Y599311D01*
D02*
G37*
G36*
X850668D02*
X846428D01*
Y593299D01*
X850668D01*
Y599311D01*
D02*
G37*
G36*
X835767Y593748D02*
X834479D01*
Y591132D01*
X835767D01*
Y593748D01*
D02*
G37*
G36*
X833526Y593256D02*
X832534D01*
Y591132D01*
X833526D01*
Y593256D01*
D02*
G37*
G36*
X834620Y589580D02*
X831059D01*
Y585328D01*
X834620D01*
Y589580D01*
D02*
G37*
G36*
X830059D02*
X826499D01*
Y585328D01*
X830059D01*
Y589580D01*
D02*
G37*
G36*
Y584328D02*
X826499D01*
Y580075D01*
X830059D01*
Y584328D01*
D02*
G37*
G36*
X830061Y577468D02*
X827790D01*
Y575000D01*
X830061D01*
Y577468D01*
D02*
G37*
G36*
X843074Y593512D02*
X842566D01*
X842369Y593315D01*
Y592906D01*
X843074D01*
Y593512D01*
D02*
G37*
G36*
X846240Y589580D02*
X842680D01*
Y585328D01*
X846240D01*
Y589580D01*
D02*
G37*
G36*
X841680D02*
X838119D01*
Y585328D01*
X841680D01*
Y589580D01*
D02*
G37*
G36*
X846240Y584328D02*
X842680D01*
Y580075D01*
X846240D01*
Y584328D01*
D02*
G37*
G36*
X841680D02*
X838119D01*
Y580075D01*
X841680D01*
Y584328D01*
D02*
G37*
G36*
X838648Y577468D02*
X836376D01*
Y575000D01*
X838648D01*
Y577468D01*
D02*
G37*
G36*
Y574000D02*
X836376D01*
Y571531D01*
X838648D01*
Y574000D01*
D02*
G37*
G36*
X834027Y570359D02*
X831810D01*
Y567881D01*
X834027D01*
Y570359D01*
D02*
G37*
G36*
X830810D02*
X828594D01*
Y567881D01*
X830810D01*
Y570359D01*
D02*
G37*
G36*
X851971Y569653D02*
X849503D01*
Y567381D01*
X851971D01*
Y569653D01*
D02*
G37*
G36*
X848503D02*
X846034D01*
Y567381D01*
X848503D01*
Y569653D01*
D02*
G37*
G36*
X844432D02*
X841963D01*
Y567381D01*
X844432D01*
Y569653D01*
D02*
G37*
G36*
X840963D02*
X838495D01*
Y567381D01*
X840963D01*
Y569653D01*
D02*
G37*
G36*
X834027Y566882D02*
X831810D01*
Y564405D01*
X834027D01*
Y566882D01*
D02*
G37*
G36*
X830810D02*
X828594D01*
Y564405D01*
X830810D01*
Y566882D01*
D02*
G37*
G36*
X813779Y570316D02*
Y567881D01*
X815987D01*
X815926Y568351D01*
X815652Y569012D01*
X815217Y569579D01*
X814649Y570015D01*
X813988Y570289D01*
X813779Y570316D01*
D02*
G37*
G36*
X812779Y570316D02*
X812570Y570289D01*
X811909Y570015D01*
X811341Y569579D01*
X810906Y569012D01*
X810632Y568351D01*
X810570Y567881D01*
X812779D01*
Y570316D01*
D02*
G37*
G36*
X815987Y566882D02*
X813779D01*
Y564447D01*
X813988Y564474D01*
X814649Y564748D01*
X815217Y565184D01*
X815652Y565751D01*
X815926Y566412D01*
X815987Y566882D01*
D02*
G37*
G36*
X812779D02*
X810570D01*
X810632Y566412D01*
X810906Y565751D01*
X811341Y565184D01*
X811909Y564748D01*
X812570Y564474D01*
X812779Y564447D01*
Y566882D01*
D02*
G37*
G36*
X851971Y561066D02*
X849503D01*
Y558795D01*
X851971D01*
Y561066D01*
D02*
G37*
G36*
X848503D02*
X846034D01*
Y558795D01*
X848503D01*
Y561066D01*
D02*
G37*
G36*
X844432D02*
X841963D01*
Y558795D01*
X844432D01*
Y561066D01*
D02*
G37*
G36*
X840963D02*
X838495D01*
Y558795D01*
X840963D01*
Y561066D01*
D02*
G37*
G36*
X826839Y544437D02*
X822795D01*
Y541937D01*
X829550D01*
X829489Y542404D01*
X829215Y543065D01*
X828779Y543634D01*
X828210Y544069D01*
X827549Y544344D01*
X826839Y544437D01*
D02*
G37*
G36*
X821795D02*
X817750D01*
X817041Y544344D01*
X816379Y544069D01*
X815811Y543634D01*
X815375Y543065D01*
X815101Y542404D01*
X815039Y541937D01*
X821795D01*
Y544437D01*
D02*
G37*
G36*
X843062Y540937D02*
X840594D01*
Y538665D01*
X843062D01*
Y540937D01*
D02*
G37*
G36*
X839594D02*
X837125D01*
Y538665D01*
X839594D01*
Y540937D01*
D02*
G37*
G36*
X829550Y540937D02*
X822795D01*
Y538436D01*
X826839D01*
X827549Y538530D01*
X828210Y538804D01*
X828779Y539240D01*
X829215Y539808D01*
X829489Y540470D01*
X829550Y540937D01*
D02*
G37*
G36*
X821795D02*
X815039D01*
X815101Y540470D01*
X815375Y539808D01*
X815811Y539240D01*
X816379Y538804D01*
X817041Y538530D01*
X817750Y538436D01*
X821795D01*
Y540937D01*
D02*
G37*
G36*
X820378Y535727D02*
X818106D01*
Y533258D01*
X820378D01*
Y535727D01*
D02*
G37*
%LPD*%
D12*
X799280Y467616D02*
X803059Y463836D01*
X811091Y465805D02*
X850881D01*
X799280Y477616D02*
X811091Y465805D01*
X815736Y586698D02*
Y594693D01*
X812201Y598229D02*
Y598729D01*
X918157Y446639D02*
X920913Y443883D01*
X915612Y446639D02*
X918157D01*
X896550Y485490D02*
X901022D01*
X903715Y488182D01*
Y488197D01*
X909276Y493757D01*
X915120D01*
X910691Y495923D02*
X910789Y495824D01*
X915021D02*
X915120Y495726D01*
X910789Y495824D02*
X915021D01*
X910691Y491592D02*
X914923D01*
X902620Y483521D02*
X910691Y491592D01*
X896550Y483521D02*
X902620D01*
X914923Y491592D02*
X915120Y491789D01*
X910553Y488403D02*
X911970Y489820D01*
X915120D01*
X910553Y488182D02*
Y488403D01*
X915120Y509031D02*
X916695Y510606D01*
Y510765D01*
X915120Y507537D02*
Y509031D01*
Y505568D02*
Y507537D01*
X862156Y574000D02*
X863668Y572487D01*
Y567322D02*
Y572487D01*
X805992Y553094D02*
X814649Y544437D01*
X805992Y553094D02*
Y570714D01*
X809278Y574000D01*
X815936D01*
X822295Y567642D01*
Y567381D02*
Y567642D01*
X853524Y531965D02*
X854712Y533152D01*
X853485Y532004D02*
Y541194D01*
X847927Y546752D02*
X853485Y541194D01*
X840094Y546752D02*
X847927D01*
X834877Y627358D02*
X835434Y627915D01*
X838745Y631249D02*
Y634445D01*
X835434Y627938D02*
X838745Y631249D01*
X835434Y627915D02*
Y627938D01*
X814649Y627358D02*
X834877D01*
X798200Y627308D02*
X807906D01*
X807956Y627358D01*
X790532Y621489D02*
X794974Y625930D01*
X797019D01*
X798200Y627111D02*
Y627308D01*
X797019Y625930D02*
X798200Y627111D01*
X786255Y633545D02*
X797744D01*
X798200Y634001D01*
X859075Y549606D02*
X861109Y547572D01*
Y544094D02*
Y547572D01*
X854712Y533152D02*
X857416D01*
X858695Y534432D01*
Y534628D01*
X858550Y534774D02*
X858695Y534628D01*
X858550Y534774D02*
Y544094D01*
X863668Y534774D02*
X863813Y534628D01*
X863668Y534774D02*
Y544094D01*
X872731Y567539D02*
X884595Y555675D01*
Y525158D02*
Y555675D01*
Y525158D02*
X891357Y518396D01*
X876423Y525158D02*
X880606Y520975D01*
Y499466D02*
Y520975D01*
X872731Y557539D02*
X882627Y547644D01*
Y523916D02*
Y547644D01*
Y523916D02*
X888480Y518063D01*
X809732Y586698D02*
Y589487D01*
X813002Y592756D01*
X878637Y499466D02*
Y519583D01*
X870763Y499466D02*
Y523916D01*
X868795Y499466D02*
Y521453D01*
X810629Y537570D02*
X812291Y535908D01*
X810629Y537570D02*
Y537581D01*
X812291Y532759D02*
Y535908D01*
X913635Y518697D02*
X921328D01*
X913635D02*
X916695Y515637D01*
X913504Y518828D02*
X913635Y518697D01*
X916695Y510765D02*
Y515637D01*
X907602Y513640D02*
X912490Y518527D01*
X907405Y513640D02*
X907602D01*
X896635Y508260D02*
X912253Y523878D01*
X933737D01*
X938919Y518697D01*
X926446D02*
X933014D01*
X850881Y479584D02*
X870763D01*
X880606Y489427D01*
X909732Y502175D02*
X910275Y501631D01*
X909732Y502175D02*
Y502827D01*
X910504Y503600D01*
X910275Y501631D02*
X915120D01*
X910504Y503600D02*
X915120D01*
X907667Y500351D02*
X910127Y497891D01*
X907667Y500351D02*
Y508260D01*
X910127Y497891D02*
X914923D01*
X909831Y483521D02*
X910225D01*
X909540D02*
X909831D01*
X926840Y469742D02*
X934171D01*
X936926Y466789D02*
Y466986D01*
X934171Y469742D02*
X936926Y466986D01*
X906126Y474781D02*
X916695D01*
X905535Y474190D02*
X906126Y474781D01*
X910559Y480044D02*
Y480109D01*
Y479753D02*
Y480044D01*
X915054D01*
X910559Y479753D02*
X912106Y478206D01*
X914923D02*
X915120Y478009D01*
X912106Y478206D02*
X914923D01*
X910203Y480109D02*
X910559D01*
X915054Y480044D02*
X915120Y479978D01*
X911306Y481946D02*
X915120D01*
X910150Y483102D02*
Y483446D01*
X910225Y483521D01*
X909831D02*
X910225Y483915D01*
X915120D01*
X910150Y483102D02*
X911306Y481946D01*
X908031Y485883D02*
X915120D01*
X905535Y479309D02*
Y483388D01*
X908031Y485883D01*
X809732Y580683D02*
X811420Y578995D01*
X915021Y604142D02*
X917373D01*
X907541Y589411D02*
Y596662D01*
X915021Y604142D01*
X918565Y589411D02*
X930750D01*
X932790Y627586D02*
X936655Y623721D01*
X894025Y627586D02*
X932790D01*
X936655Y589411D02*
Y623721D01*
X827949Y524700D02*
X832996D01*
X844714Y530888D02*
X850444Y525158D01*
X852054D02*
X853333Y523878D01*
X850444Y525158D02*
X852054D01*
X853333Y523681D02*
Y523878D01*
X815343Y618138D02*
X816381Y619177D01*
X813965Y614894D02*
X815343Y616272D01*
Y618138D01*
X812201Y598229D02*
X815736Y594693D01*
X820165Y588927D02*
X825538Y594299D01*
X820165Y578995D02*
Y588927D01*
X823899Y597744D02*
X825684D01*
X822665Y596510D02*
X823899Y597744D01*
X825684D02*
X825782Y597843D01*
X822239Y596510D02*
X822665D01*
X829395Y597810D02*
X829427Y597777D01*
X829211Y597810D02*
X829395D01*
X825782Y597843D02*
X825815Y597810D01*
X822540Y597406D02*
X824946Y599811D01*
X826078D01*
X828097Y596447D02*
X829335Y597685D01*
X838202Y597777D02*
X839375Y596604D01*
X829427Y597777D02*
X838202D01*
X828097Y593756D02*
Y596447D01*
X811291Y605008D02*
X811658Y605374D01*
X808989Y605008D02*
X811291D01*
X808527Y614772D02*
X808650Y614894D01*
X808527Y605469D02*
Y614772D01*
Y605469D02*
X808989Y605008D01*
X811658Y605374D02*
X812094Y604937D01*
X812949Y604083D01*
X820264D01*
X809732Y580683D02*
Y586698D01*
X811420Y578995D02*
X815047D01*
X812201Y598729D02*
X821079D01*
X824130Y601780D01*
X825782D01*
X821642Y608020D02*
X822841D01*
X820264Y609398D02*
X821642Y608020D01*
X822841D02*
X825538Y605323D01*
X828097Y605866D02*
Y607587D01*
X820790Y614894D02*
X828097Y607587D01*
X813965Y614894D02*
X820790D01*
X830066Y605866D02*
X832034D01*
X824181Y614778D02*
X830066Y608893D01*
Y605866D02*
Y608893D01*
X822803Y617552D02*
X824181Y616174D01*
X822606Y617552D02*
X822803D01*
X824181Y614778D02*
Y616174D01*
X826306Y614894D02*
Y620653D01*
X825471Y621489D02*
X826306Y620653D01*
X823984Y621489D02*
X825471D01*
X822606Y622866D02*
X823984Y621489D01*
X826306Y614894D02*
X833314Y607886D01*
Y600106D02*
Y607886D01*
Y600106D02*
X833453Y599967D01*
X834005D01*
X834161Y599811D01*
X837893D01*
X830066Y593756D02*
Y596955D01*
X826078Y599811D02*
X827209D01*
X858452Y514815D02*
Y523681D01*
X858219Y514582D02*
X858452Y514815D01*
X837976Y523681D02*
X838219Y523439D01*
Y514582D02*
Y523439D01*
X853167Y504500D02*
X858446D01*
X860921Y502025D01*
Y499466D02*
Y502025D01*
X840725Y499663D02*
Y499769D01*
X845455Y504500D01*
X853167D01*
X840522Y499460D02*
X840725Y499663D01*
X840522Y489166D02*
Y499460D01*
X840384Y489029D02*
X840522Y489166D01*
X845662Y499769D02*
X847411Y501519D01*
X853167D01*
X845662Y499663D02*
Y499769D01*
Y499557D02*
Y499663D01*
X843502Y489166D02*
Y497397D01*
X845662Y499557D01*
X843502Y489166D02*
X843587D01*
X845815Y491395D02*
X850881D01*
X843587Y489166D02*
X845815Y491395D01*
X853167Y501435D02*
X855136Y499466D01*
X858952D01*
X853167Y501435D02*
Y501519D01*
X848219Y514582D02*
X853382Y509419D01*
X862680D01*
X866826Y505273D01*
Y499466D02*
Y505273D01*
X888480Y499466D02*
Y518063D01*
X884543Y499466D02*
Y512426D01*
X882574Y499466D02*
Y515521D01*
X891357Y490093D02*
Y518396D01*
X839066Y483521D02*
X850881D01*
X836369Y486218D02*
Y500123D01*
X833417Y502879D02*
X833613D01*
X836369Y500123D01*
Y486218D02*
X839066Y483521D01*
X907405Y508522D02*
X907667Y508260D01*
X891357Y490093D02*
X893991Y487458D01*
X896550D01*
X845558Y473679D02*
X850881D01*
X843480Y475757D02*
X845558Y473679D01*
X844743Y471710D02*
X850881D01*
X839902Y476551D02*
X844743Y471710D01*
X839551Y476551D02*
X839902D01*
X844348Y478600D02*
X845332Y477616D01*
X850881D01*
X840247Y471521D02*
X840536Y471232D01*
X834709Y471809D02*
X834997Y471521D01*
X840247D01*
X840536Y471232D02*
X843550D01*
X845041Y469742D02*
X850881D01*
X843550Y471232D02*
X845041Y469742D01*
X834709Y468382D02*
X840405D01*
X840536Y468252D01*
X834578Y468512D02*
X834709Y468382D01*
X840939Y467848D02*
X850806D01*
X850881Y467773D01*
X840536Y468252D02*
X840939Y467848D01*
X803059Y463836D02*
X850881D01*
X833417Y486677D02*
Y497564D01*
Y486677D02*
X833521Y486572D01*
X914923Y497891D02*
X915120Y497694D01*
X896550Y495829D02*
X903223Y502501D01*
X903329D01*
X896550Y491395D02*
Y495829D01*
X903223Y497564D02*
X903329D01*
X896550Y489427D02*
X899109D01*
X902124Y492441D01*
Y496465D01*
X903223Y497564D01*
X830267Y505832D02*
X833220Y502879D01*
X818643Y509375D02*
Y516265D01*
Y509375D02*
X822186Y505832D01*
X830267D01*
X833220Y502879D02*
X833417D01*
X833521Y481257D02*
X847920D01*
X848216Y481553D01*
X850881D01*
X830930Y478863D02*
X833324Y481257D01*
X833521D01*
X818643Y478863D02*
X830930D01*
X840133Y462270D02*
X840536Y461868D01*
X825847Y458490D02*
X829627Y462270D01*
X840536Y461868D02*
X850881D01*
X829627Y462270D02*
X840133D01*
X835847Y448490D02*
X841154Y453797D01*
X858952D01*
X852221Y444780D02*
X852276Y444725D01*
X859179D02*
X859233Y444670D01*
X852276Y444725D02*
X859179D01*
X862214Y444670D02*
X862236Y444649D01*
X870235D01*
X870257Y444627D01*
X862214Y450456D02*
X862889Y451131D01*
Y453797D01*
X862214Y444670D02*
Y450456D01*
X859233Y446977D02*
X860921Y448665D01*
X859233Y444670D02*
Y446977D01*
X860921Y448665D02*
Y453797D01*
X903881Y448717D02*
X904182Y448416D01*
X903881Y448114D02*
X904182Y448416D01*
X873238Y444627D02*
X880094D01*
X899473Y452521D02*
X900009Y453057D01*
X899448Y451245D02*
Y452412D01*
X900009Y453057D02*
X900094D01*
X899473Y452436D02*
Y452521D01*
X899448Y452412D02*
X899473Y452436D01*
X889240Y448509D02*
X896713D01*
X899448Y451245D01*
X886511Y451238D02*
Y453797D01*
Y451238D02*
X889240Y448509D01*
X899570Y444733D02*
X902952Y448114D01*
X903881D01*
X899570Y444627D02*
Y444733D01*
X903881Y448717D02*
Y449355D01*
X900094Y453057D02*
X900178D01*
X903881Y449355D01*
X887301Y447183D02*
X887301D01*
X893708Y445552D02*
X894633Y444627D01*
X888932Y445552D02*
X893708D01*
X887301Y447183D02*
X888932Y445552D01*
X884543Y449942D02*
Y453797D01*
Y449942D02*
X887301Y447183D01*
X888480Y453239D02*
X888661Y453057D01*
X897113D01*
X888480Y453239D02*
Y453797D01*
X901537Y471809D02*
X903801Y469545D01*
X900449Y479584D02*
X901537Y478496D01*
Y471809D02*
Y478496D01*
X896550Y479584D02*
X900449D01*
X901537Y469742D02*
X903329Y467950D01*
X901502Y467773D02*
X902507Y466769D01*
X896550Y467773D02*
X901502D01*
X902507Y466769D02*
X915450D01*
X896550Y469742D02*
X901537D01*
X899109Y465805D02*
X902566Y462349D01*
X909667D01*
X896550Y465805D02*
X899109D01*
X915450Y466769D02*
X917114Y465104D01*
Y462349D02*
Y465104D01*
X903329Y467950D02*
X918285D01*
X923887Y462349D01*
X923249Y469545D02*
X926005Y466789D01*
X903801Y469545D02*
X923249D01*
X926005Y466789D02*
X931808D01*
X931808Y466789D01*
Y459396D02*
Y466789D01*
X942508Y454316D02*
Y457224D01*
X936926Y459396D02*
X940337D01*
X942508Y457224D01*
X940508Y452316D02*
X942508Y454316D01*
X936612Y452316D02*
X940508D01*
X942508Y448421D02*
Y454316D01*
X933167Y445469D02*
X939555D01*
X942508Y448421D01*
X930459Y453057D02*
X931347Y452169D01*
X924348Y453057D02*
X930459D01*
X923887Y453518D02*
Y456443D01*
Y453518D02*
X924348Y453057D01*
X924521Y445469D02*
X928049D01*
X917114Y452876D02*
X924521Y445469D01*
X917114Y452876D02*
Y456443D01*
X909667D02*
X910494Y455616D01*
Y446639D02*
Y455616D01*
X867256Y616032D02*
X867601Y616377D01*
X928039Y445478D02*
X928049Y445469D01*
D17*
X857831Y549708D02*
X861163D01*
X861830Y550375D01*
Y551708D01*
X861163Y552374D01*
X857831D01*
X861830Y555706D02*
X857831D01*
X859830Y553707D01*
Y556373D01*
D19*
X831310Y567381D02*
D03*
D20*
X822295D02*
D03*
X813279D02*
D03*
D21*
X822295Y541437D02*
D03*
D25*
X838680Y618000D02*
D03*
X850300D02*
D03*
X842180Y584828D02*
D03*
X830559D02*
D03*
D32*
X862214Y444670D02*
D03*
X859233D02*
D03*
X900094Y453057D02*
D03*
X873238Y444627D02*
D03*
X840522Y489166D02*
D03*
X897113Y453057D02*
D03*
X870257Y444627D02*
D03*
X843502Y489166D02*
D03*
D33*
X845662Y499663D02*
D03*
X840725D02*
D03*
X894633Y444627D02*
D03*
X899570D02*
D03*
D37*
X915120Y495726D02*
D03*
Y491789D02*
D03*
Y507537D02*
D03*
Y505568D02*
D03*
Y479978D02*
D03*
Y478009D02*
D03*
Y493757D02*
D03*
Y489820D02*
D03*
Y487852D02*
D03*
Y499663D02*
D03*
Y501631D02*
D03*
Y483915D02*
D03*
Y503600D02*
D03*
Y481946D02*
D03*
Y485883D02*
D03*
Y497694D02*
D03*
D39*
X812094Y604937D02*
D03*
Y598622D02*
D03*
D41*
X853167Y504500D02*
D03*
X840536Y471232D02*
D03*
X853167Y501519D02*
D03*
X840536Y468252D02*
D03*
D42*
X826078Y599811D02*
D03*
D44*
X825782Y597843D02*
D03*
Y601780D02*
D03*
D45*
X830066Y593756D02*
D03*
X828097D02*
D03*
Y605866D02*
D03*
X832034Y593756D02*
D03*
X830066Y605866D02*
D03*
X832034D02*
D03*
D46*
X903329Y497564D02*
D03*
Y502501D02*
D03*
D48*
X836267Y594248D02*
D03*
Y605374D02*
D03*
D49*
X837893Y599811D02*
D03*
D50*
X916695Y510765D02*
D03*
Y474781D02*
D03*
D61*
X893572Y555708D02*
D03*
Y545708D02*
D03*
Y565708D02*
D03*
Y575708D02*
D03*
X799270Y558555D02*
D03*
Y568555D02*
D03*
Y607688D02*
D03*
Y597688D02*
D03*
X799280Y477616D02*
D03*
X799270Y526700D02*
D03*
X799280Y487616D02*
D03*
X799270Y516700D02*
D03*
X799280Y467616D02*
D03*
Y457616D02*
D03*
D62*
X893572Y535708D02*
D03*
X799270Y578555D02*
D03*
Y617688D02*
D03*
Y536700D02*
D03*
X799280Y497616D02*
D03*
D64*
X835847Y448490D02*
D03*
X825847Y458490D02*
D03*
Y448490D02*
D03*
D65*
X928506Y510568D02*
D03*
Y474978D02*
D03*
D66*
X835847Y458490D02*
D03*
D68*
X855991Y544094D02*
D03*
X863668D02*
D03*
X861109Y567322D02*
D03*
Y544094D02*
D03*
X855991Y567322D02*
D03*
X858550D02*
D03*
Y544094D02*
D03*
X863668Y567322D02*
D03*
D69*
X882574Y499466D02*
D03*
X884543Y453797D02*
D03*
X858952D02*
D03*
X886511D02*
D03*
X860921Y499466D02*
D03*
Y453797D02*
D03*
X884543Y499466D02*
D03*
X868795D02*
D03*
X878637D02*
D03*
X888480D02*
D03*
Y453797D02*
D03*
X862889D02*
D03*
X858952Y499466D02*
D03*
X866826D02*
D03*
X870763D02*
D03*
X880606D02*
D03*
X864857Y453797D02*
D03*
X866826D02*
D03*
X868795D02*
D03*
X870763D02*
D03*
X872731D02*
D03*
X874700D02*
D03*
X876668D02*
D03*
X878637D02*
D03*
X880606D02*
D03*
X882574D02*
D03*
X886511Y499466D02*
D03*
X876668D02*
D03*
X874700D02*
D03*
X872731D02*
D03*
X864857D02*
D03*
X862889D02*
D03*
D70*
X896550Y487458D02*
D03*
X850881Y477616D02*
D03*
X896550Y473679D02*
D03*
X850881Y483521D02*
D03*
X896550D02*
D03*
X850881Y463836D02*
D03*
Y473679D02*
D03*
Y461868D02*
D03*
X896550Y489427D02*
D03*
X850881Y469742D02*
D03*
X896550Y475647D02*
D03*
X850881Y479584D02*
D03*
Y481553D02*
D03*
X896550Y485490D02*
D03*
X850881Y465805D02*
D03*
X896550Y491395D02*
D03*
X850881D02*
D03*
Y467773D02*
D03*
X896550Y477616D02*
D03*
Y479584D02*
D03*
X850881Y471710D02*
D03*
Y489427D02*
D03*
Y487458D02*
D03*
Y485490D02*
D03*
Y475647D02*
D03*
X896550Y461868D02*
D03*
Y463836D02*
D03*
Y465805D02*
D03*
Y467773D02*
D03*
Y469742D02*
D03*
Y471710D02*
D03*
Y481553D02*
D03*
D71*
X829774Y617552D02*
D03*
Y622866D02*
D03*
X841463Y561566D02*
D03*
Y566881D02*
D03*
X840094Y541437D02*
D03*
Y546752D02*
D03*
X849003Y561566D02*
D03*
Y566881D02*
D03*
X833417Y502879D02*
D03*
X820264Y604083D02*
D03*
X833417Y497564D02*
D03*
X833521Y486572D02*
D03*
Y481257D02*
D03*
X820264Y609398D02*
D03*
X822606Y617552D02*
D03*
Y622866D02*
D03*
D72*
X917373Y604142D02*
D03*
Y655323D02*
D03*
D73*
X882924Y632095D02*
D03*
D74*
X813965Y614894D02*
D03*
X808650D02*
D03*
X861941Y616032D02*
D03*
X835876Y574500D02*
D03*
X812291Y532759D02*
D03*
X817606D02*
D03*
X867256Y616032D02*
D03*
X830561Y574500D02*
D03*
D75*
X851168Y599811D02*
D03*
X867310D02*
D03*
D76*
X910494Y446639D02*
D03*
X915612D02*
D03*
X858452Y523681D02*
D03*
X853333D02*
D03*
X838114Y524700D02*
D03*
X832996D02*
D03*
X936926Y459396D02*
D03*
X858695Y534628D02*
D03*
X921328Y518697D02*
D03*
X933167Y445469D02*
D03*
X936612Y452316D02*
D03*
X931808Y459396D02*
D03*
X931808Y466789D02*
D03*
X820165Y578995D02*
D03*
X815047D02*
D03*
X814850Y586698D02*
D03*
X809732D02*
D03*
X926446Y518697D02*
D03*
X928049Y445469D02*
D03*
X931493Y452316D02*
D03*
X936926Y466789D02*
D03*
X863813Y534628D02*
D03*
D77*
X917114Y462349D02*
D03*
Y456443D02*
D03*
X909667Y462349D02*
D03*
Y456443D02*
D03*
X923887Y462349D02*
D03*
Y456443D02*
D03*
D78*
X798200Y627308D02*
D03*
Y634001D02*
D03*
D79*
X807956Y627358D02*
D03*
X814649D02*
D03*
D80*
X818643Y516265D02*
D03*
Y478863D02*
D03*
D81*
X907541Y589411D02*
D03*
X918565D02*
D03*
D82*
X907405Y513640D02*
D03*
X905535Y474190D02*
D03*
X907405Y508522D02*
D03*
X905535Y479309D02*
D03*
D83*
X841582Y605225D02*
D03*
Y594398D02*
D03*
X825538Y594299D02*
D03*
Y605323D02*
D03*
D84*
X938919Y518697D02*
D03*
X936655Y589411D02*
D03*
X933014Y518697D02*
D03*
X930750Y589411D02*
D03*
D85*
X872731Y577539D02*
D03*
Y567539D02*
D03*
Y557539D02*
D03*
Y547539D02*
D03*
X848219Y514582D02*
D03*
X838219D02*
D03*
D86*
X872731Y537539D02*
D03*
D87*
X774700Y645100D02*
D03*
X763145Y633545D02*
D03*
Y656655D02*
D03*
X786255Y633545D02*
D03*
Y656655D02*
D03*
X838745Y657555D02*
D03*
X861855D02*
D03*
X838745Y634445D02*
D03*
X861855D02*
D03*
X850300Y646000D02*
D03*
D88*
X930169Y639575D02*
D03*
Y619890D02*
D03*
D89*
X858219Y514582D02*
D03*
D90*
X942508Y454316D02*
D03*
X824182Y580983D02*
D03*
X808847Y522829D02*
D03*
X835494Y545866D02*
D03*
X937008Y653544D02*
D03*
X940945Y645670D02*
D03*
X937008Y637796D02*
D03*
X940945Y629922D02*
D03*
Y614174D02*
D03*
Y598425D02*
D03*
X937008Y574803D02*
D03*
X940945Y566929D02*
D03*
X937008Y559055D02*
D03*
X940945Y551181D02*
D03*
X937008Y543307D02*
D03*
X940945Y535433D02*
D03*
X937008Y511811D02*
D03*
X940945Y503937D02*
D03*
Y488189D02*
D03*
Y472441D02*
D03*
Y456693D02*
D03*
X933071Y645670D02*
D03*
Y629922D02*
D03*
X929134Y574803D02*
D03*
X933071Y566929D02*
D03*
X929134Y559055D02*
D03*
X933071Y551181D02*
D03*
X929134Y543307D02*
D03*
X933071Y535433D02*
D03*
X925197Y645670D02*
D03*
X921260Y637796D02*
D03*
X925197Y629922D02*
D03*
X921260Y622048D02*
D03*
Y574803D02*
D03*
X925197Y566929D02*
D03*
X921260Y559055D02*
D03*
X925197Y551181D02*
D03*
X921260Y543307D02*
D03*
X925197Y535433D02*
D03*
X917323Y645670D02*
D03*
X913386Y637796D02*
D03*
X917323Y629922D02*
D03*
X913386Y622048D02*
D03*
X917323Y614174D02*
D03*
X913386Y574803D02*
D03*
X917323Y566929D02*
D03*
X913386Y559055D02*
D03*
X917323Y551181D02*
D03*
X913386Y543307D02*
D03*
X917323Y535433D02*
D03*
Y519685D02*
D03*
X913386Y464567D02*
D03*
X909449Y645670D02*
D03*
X905512Y637796D02*
D03*
X909449Y629922D02*
D03*
X905512Y622048D02*
D03*
X909449Y582678D02*
D03*
X905512Y574803D02*
D03*
X909449Y566929D02*
D03*
X905512Y559055D02*
D03*
X909449Y551181D02*
D03*
X905512Y543307D02*
D03*
X909449Y535433D02*
D03*
X905512Y464567D02*
D03*
X897638Y653544D02*
D03*
X901575Y645670D02*
D03*
X897638Y637796D02*
D03*
X901575Y629922D02*
D03*
Y614174D02*
D03*
Y566929D02*
D03*
X897638Y559055D02*
D03*
X901575Y551181D02*
D03*
Y535433D02*
D03*
X889764Y653544D02*
D03*
X893701Y645670D02*
D03*
X889764Y559055D02*
D03*
X885827Y645670D02*
D03*
Y566929D02*
D03*
X877953D02*
D03*
X842520Y448819D02*
D03*
X818898D02*
D03*
X811024Y653544D02*
D03*
X814961Y645670D02*
D03*
X811024Y637796D02*
D03*
Y622048D02*
D03*
Y448819D02*
D03*
X803150Y653544D02*
D03*
X807087Y645670D02*
D03*
X803150Y637796D02*
D03*
X807087Y582678D02*
D03*
X803150Y448819D02*
D03*
X795276Y653544D02*
D03*
X799213Y645670D02*
D03*
X795276Y590552D02*
D03*
Y448819D02*
D03*
X791339Y645670D02*
D03*
X787402Y622048D02*
D03*
Y606299D02*
D03*
Y590552D02*
D03*
Y574803D02*
D03*
Y559055D02*
D03*
Y448819D02*
D03*
X783465Y645670D02*
D03*
X779528Y622048D02*
D03*
X783465Y614174D02*
D03*
X779528Y606299D02*
D03*
X783465Y598425D02*
D03*
X779528Y590552D02*
D03*
X783465Y582678D02*
D03*
X779528Y574803D02*
D03*
X783465Y566929D02*
D03*
X779528Y559055D02*
D03*
X783465Y551181D02*
D03*
X779528Y543307D02*
D03*
X783465Y535433D02*
D03*
X779528Y527559D02*
D03*
X783465Y519685D02*
D03*
X779528Y511811D02*
D03*
X783465Y503937D02*
D03*
X779528Y496063D02*
D03*
X783465Y488189D02*
D03*
X779528Y480315D02*
D03*
X783465Y472441D02*
D03*
X779528Y464567D02*
D03*
X783465Y456693D02*
D03*
X779528Y448819D02*
D03*
X771654Y653544D02*
D03*
Y637796D02*
D03*
X775591Y629922D02*
D03*
X771654Y622048D02*
D03*
X775591Y614174D02*
D03*
X771654Y606299D02*
D03*
X775591Y598425D02*
D03*
X771654Y590552D02*
D03*
X775591Y582678D02*
D03*
X771654Y574803D02*
D03*
X775591Y566929D02*
D03*
X771654Y559055D02*
D03*
X775591Y551181D02*
D03*
X771654Y543307D02*
D03*
X775591Y535433D02*
D03*
X771654Y527559D02*
D03*
X775591Y519685D02*
D03*
X771654Y511811D02*
D03*
X775591Y503937D02*
D03*
X771654Y496063D02*
D03*
X775591Y488189D02*
D03*
X771654Y480315D02*
D03*
X775591Y472441D02*
D03*
X771654Y464567D02*
D03*
X775591Y456693D02*
D03*
X771654Y448819D02*
D03*
X763780Y622048D02*
D03*
X767717Y614174D02*
D03*
X763780Y606299D02*
D03*
X767717Y598425D02*
D03*
X763780Y590552D02*
D03*
X767717Y582678D02*
D03*
X763780Y574803D02*
D03*
X767717Y566929D02*
D03*
X763780Y559055D02*
D03*
X767717Y551181D02*
D03*
X763780Y543307D02*
D03*
X767717Y535433D02*
D03*
X763780Y527559D02*
D03*
X767717Y519685D02*
D03*
X763780Y511811D02*
D03*
X767717Y503937D02*
D03*
X763780Y496063D02*
D03*
X767717Y488189D02*
D03*
X763780Y480315D02*
D03*
X767717Y472441D02*
D03*
X763780Y464567D02*
D03*
X767717Y456693D02*
D03*
X763780Y448819D02*
D03*
X759843Y645670D02*
D03*
X755906Y622048D02*
D03*
X759843Y614174D02*
D03*
X755906Y606299D02*
D03*
X759843Y598425D02*
D03*
X755906Y590552D02*
D03*
X759843Y582678D02*
D03*
X755906Y574803D02*
D03*
X759843Y566929D02*
D03*
X755906Y559055D02*
D03*
X759843Y551181D02*
D03*
X755906Y543307D02*
D03*
X759843Y535433D02*
D03*
X755906Y527559D02*
D03*
X759843Y519685D02*
D03*
X755906Y511811D02*
D03*
X759843Y503937D02*
D03*
X755906Y496063D02*
D03*
X759843Y488189D02*
D03*
X755906Y480315D02*
D03*
X759843Y472441D02*
D03*
X755906Y464567D02*
D03*
X759843Y456693D02*
D03*
X755906Y448819D02*
D03*
X790585Y621620D02*
D03*
X892940Y453188D02*
D03*
X920965Y444014D02*
D03*
X903715Y488182D02*
D03*
X910691Y495923D02*
D03*
X910494Y491395D02*
D03*
X910553Y488182D02*
D03*
X862208Y574131D02*
D03*
X856270Y618131D02*
D03*
X860829Y623984D02*
D03*
X856447D02*
D03*
X829826Y622998D02*
D03*
X820218Y589058D02*
D03*
X859127Y549737D02*
D03*
X853485Y532004D02*
D03*
X876423Y525158D02*
D03*
X813002Y592756D02*
D03*
X878637Y519583D02*
D03*
X870763Y523916D02*
D03*
X868795Y521453D02*
D03*
X810629Y537581D02*
D03*
X863098Y552572D02*
D03*
X827760Y554672D02*
D03*
Y559345D02*
D03*
X821506Y554540D02*
D03*
X821453Y559214D02*
D03*
X816161Y554540D02*
D03*
X816108Y559262D02*
D03*
X913504Y518828D02*
D03*
X896688Y508392D02*
D03*
X880606Y489427D02*
D03*
X909784Y502306D02*
D03*
X926892Y469873D02*
D03*
X910203Y474912D02*
D03*
Y480109D02*
D03*
X909540Y483521D02*
D03*
X862994Y556824D02*
D03*
X862942Y560910D02*
D03*
X864799Y611360D02*
D03*
X925809Y601911D02*
D03*
Y608017D02*
D03*
X917426Y602892D02*
D03*
Y608149D02*
D03*
X910214Y602951D02*
D03*
Y608017D02*
D03*
X828001Y524831D02*
D03*
X837660Y531675D02*
D03*
X837607Y535421D02*
D03*
X832162Y535252D02*
D03*
X831999Y531675D02*
D03*
X826136Y531807D02*
D03*
X826083Y535252D02*
D03*
X816462Y619254D02*
D03*
X822239Y596510D02*
D03*
X829427Y597777D02*
D03*
X808580Y609317D02*
D03*
X842369Y573535D02*
D03*
X847600D02*
D03*
Y576502D02*
D03*
X842298D02*
D03*
X830612Y584959D02*
D03*
X831895Y578686D02*
D03*
X826815D02*
D03*
X840142Y604856D02*
D03*
X839941Y608622D02*
D03*
X840574Y494445D02*
D03*
X843555Y494282D02*
D03*
X884595Y512558D02*
D03*
X882627Y515652D02*
D03*
X843480Y475757D02*
D03*
X839551Y476551D02*
D03*
X844401Y478731D02*
D03*
X834709Y471809D02*
D03*
X833469Y492226D02*
D03*
X902177Y492573D02*
D03*
X898045Y497402D02*
D03*
X834578Y468512D02*
D03*
X852221Y444780D02*
D03*
X866288D02*
D03*
X880147Y444758D02*
D03*
X904182Y448416D02*
D03*
M02*
