G04*
G04 #@! TF.GenerationSoftware,Altium Limited,Altium Designer,24.0.1 (36)*
G04*
G04 Layer_Color=8421504*
%FSLAX25Y25*%
%MOIN*%
G70*
G04*
G04 #@! TF.SameCoordinates,4AE72286-74C0-4861-BAE4-8600210459B3*
G04*
G04*
G04 #@! TF.FilePolarity,Positive*
G04*
G01*
G75*
%ADD17C,0.00700*%
G04:AMPARAMS|DCode=18|XSize=37.72mil|YSize=75.12mil|CornerRadius=11.95mil|HoleSize=0mil|Usage=FLASHONLY|Rotation=180.000|XOffset=0mil|YOffset=0mil|HoleType=Round|Shape=RoundedRectangle|*
%AMROUNDEDRECTD18*
21,1,0.03772,0.05122,0,0,180.0*
21,1,0.01382,0.07512,0,0,180.0*
1,1,0.02390,-0.00691,0.02561*
1,1,0.02390,0.00691,0.02561*
1,1,0.02390,0.00691,-0.02561*
1,1,0.02390,-0.00691,-0.02561*
%
%ADD18ROUNDEDRECTD18*%
%ADD19R,0.03434X0.03954*%
G04:AMPARAMS|DCode=20|XSize=39.54mil|YSize=34.34mil|CornerRadius=17.17mil|HoleSize=0mil|Usage=FLASHONLY|Rotation=270.000|XOffset=0mil|YOffset=0mil|HoleType=Round|Shape=RoundedRectangle|*
%AMROUNDEDRECTD20*
21,1,0.03954,0.00000,0,0,270.0*
21,1,0.00520,0.03434,0,0,270.0*
1,1,0.03434,0.00000,-0.00260*
1,1,0.03434,0.00000,0.00260*
1,1,0.03434,0.00000,0.00260*
1,1,0.03434,0.00000,-0.00260*
%
%ADD20ROUNDEDRECTD20*%
G04:AMPARAMS|DCode=21|XSize=39.54mil|YSize=125.28mil|CornerRadius=17.2mil|HoleSize=0mil|Usage=FLASHONLY|Rotation=270.000|XOffset=0mil|YOffset=0mil|HoleType=Round|Shape=RoundedRectangle|*
%AMROUNDEDRECTD21*
21,1,0.03954,0.09088,0,0,270.0*
21,1,0.00514,0.12528,0,0,270.0*
1,1,0.03440,-0.04544,-0.00257*
1,1,0.03440,-0.04544,0.00257*
1,1,0.03440,0.04544,0.00257*
1,1,0.03440,0.04544,-0.00257*
%
%ADD21ROUNDEDRECTD21*%
%ADD22O,0.03181X0.08299*%
%ADD23O,0.08299X0.03181*%
%ADD24R,0.05937X0.05543*%
%ADD25R,0.06121X0.07505*%
%ADD26R,0.29559X0.17748*%
%ADD27R,0.17748X0.11843*%
%ADD28R,0.05543X0.05937*%
%ADD29R,0.09480X0.13024*%
%ADD30R,0.05347X0.05740*%
%ADD31R,0.05150X0.05150*%
%ADD32R,0.02029X0.01860*%
%ADD33R,0.02985X0.03197*%
%ADD34R,0.05150X0.05543*%
%ADD35R,0.05543X0.05150*%
%ADD36R,0.09874X0.23654*%
%ADD37R,0.03937X0.01181*%
%ADD38R,0.06724X0.08496*%
%ADD39R,0.03985X0.04560*%
%ADD40R,0.05740X0.05347*%
%ADD41R,0.01860X0.02029*%
%ADD42R,0.03248X0.00984*%
%ADD43R,0.00100X0.00100*%
%ADD44R,0.02657X0.00984*%
%ADD45R,0.00984X0.03248*%
%ADD46R,0.03197X0.02985*%
%ADD47R,0.05150X0.05150*%
%ADD48R,0.01575X0.04232*%
%ADD49R,0.11713X0.01378*%
G36*
X788035Y662523D02*
X789146Y662063D01*
X790145Y661395D01*
X790995Y660545D01*
X791663Y659546D01*
X792123Y658435D01*
X792357Y657256D01*
Y656655D01*
Y656054D01*
X792123Y654875D01*
X791663Y653765D01*
X790995Y652765D01*
X790145Y651915D01*
X789146Y651247D01*
X788035Y650787D01*
X786856Y650553D01*
X785654D01*
X784475Y650787D01*
X783365Y651247D01*
X782365Y651915D01*
X781515Y652765D01*
X780847Y653765D01*
X780387Y654875D01*
X780153Y656054D01*
Y656655D01*
Y657256D01*
X780387Y658435D01*
X780847Y659546D01*
X781515Y660545D01*
X782365Y661395D01*
X783365Y662063D01*
X784475Y662523D01*
X785654Y662757D01*
X786856D01*
X788035Y662523D01*
D02*
G37*
G36*
X764925D02*
X766036Y662063D01*
X767035Y661395D01*
X767885Y660545D01*
X768553Y659546D01*
X769013Y658435D01*
X769247Y657256D01*
Y656655D01*
Y656054D01*
X769013Y654875D01*
X768553Y653765D01*
X767885Y652765D01*
X767035Y651915D01*
X766036Y651247D01*
X764925Y650787D01*
X763746Y650553D01*
X762544D01*
X761365Y650787D01*
X760254Y651247D01*
X759255Y651915D01*
X758405Y652765D01*
X757737Y653765D01*
X757277Y654875D01*
X757043Y656054D01*
Y656655D01*
Y657256D01*
X757277Y658435D01*
X757737Y659546D01*
X758405Y660545D01*
X759255Y661395D01*
X760254Y662063D01*
X761365Y662523D01*
X762544Y662757D01*
X763746D01*
X764925Y662523D01*
D02*
G37*
G36*
X788035Y639413D02*
X789146Y638953D01*
X790145Y638285D01*
X790995Y637435D01*
X791663Y636436D01*
X792123Y635325D01*
X792357Y634146D01*
Y633545D01*
Y632944D01*
X792123Y631765D01*
X791663Y630654D01*
X790995Y629655D01*
X790145Y628805D01*
X789146Y628137D01*
X788035Y627677D01*
X786856Y627443D01*
X785654D01*
X784475Y627677D01*
X783365Y628137D01*
X782365Y628805D01*
X781515Y629655D01*
X780847Y630654D01*
X780387Y631765D01*
X780153Y632944D01*
Y633545D01*
Y634146D01*
X780387Y635325D01*
X780847Y636436D01*
X781515Y637435D01*
X782365Y638285D01*
X783365Y638953D01*
X784475Y639413D01*
X785654Y639647D01*
X786856D01*
X788035Y639413D01*
D02*
G37*
G36*
X764925D02*
X766036Y638953D01*
X767035Y638285D01*
X767885Y637435D01*
X768553Y636436D01*
X769013Y635325D01*
X769247Y634146D01*
Y633545D01*
Y632944D01*
X769013Y631765D01*
X768553Y630654D01*
X767885Y629655D01*
X767035Y628805D01*
X766036Y628137D01*
X764925Y627677D01*
X763746Y627443D01*
X762544D01*
X761365Y627677D01*
X760254Y628137D01*
X759255Y628805D01*
X758405Y629655D01*
X757737Y630654D01*
X757277Y631765D01*
X757043Y632944D01*
Y633545D01*
Y634146D01*
X757277Y635325D01*
X757737Y636436D01*
X758405Y637435D01*
X759255Y638285D01*
X760254Y638953D01*
X761365Y639413D01*
X762544Y639647D01*
X763746D01*
X764925Y639413D01*
D02*
G37*
G36*
X826621Y607291D02*
Y603354D01*
X826424Y603158D01*
X824849D01*
X824652Y603354D01*
Y605795D01*
X824849Y605992D01*
X825637D01*
X825834Y606189D01*
Y607291D01*
X826030Y607488D01*
X826424D01*
X826621Y607291D01*
D02*
G37*
G36*
Y596268D02*
Y592331D01*
X826424Y592134D01*
X826030D01*
X825834Y592331D01*
Y593433D01*
X825637Y593630D01*
X824849D01*
X824652Y593827D01*
Y596268D01*
X824849Y596465D01*
X826424D01*
X826621Y596268D01*
D02*
G37*
G36*
X863635Y663423D02*
X864746Y662963D01*
X865745Y662295D01*
X866595Y661445D01*
X867263Y660446D01*
X867723Y659335D01*
X867957Y658156D01*
Y657555D01*
Y656954D01*
X867723Y655775D01*
X867263Y654665D01*
X866595Y653665D01*
X865745Y652815D01*
X864746Y652147D01*
X863635Y651687D01*
X862456Y651453D01*
X861254D01*
X860075Y651687D01*
X858965Y652147D01*
X857965Y652815D01*
X857115Y653665D01*
X856447Y654665D01*
X855987Y655775D01*
X855753Y656954D01*
Y657555D01*
Y658156D01*
X855987Y659335D01*
X856447Y660446D01*
X857115Y661445D01*
X857965Y662295D01*
X858965Y662963D01*
X860075Y663423D01*
X861254Y663658D01*
X862456D01*
X863635Y663423D01*
D02*
G37*
G36*
X840525D02*
X841636Y662963D01*
X842635Y662295D01*
X843485Y661445D01*
X844153Y660446D01*
X844613Y659335D01*
X844847Y658156D01*
Y657555D01*
Y656954D01*
X844613Y655775D01*
X844153Y654665D01*
X843485Y653665D01*
X842635Y652815D01*
X841636Y652147D01*
X840525Y651687D01*
X839346Y651453D01*
X838144D01*
X836965Y651687D01*
X835854Y652147D01*
X834855Y652815D01*
X834005Y653665D01*
X833337Y654665D01*
X832877Y655775D01*
X832643Y656954D01*
Y657555D01*
Y658156D01*
X832877Y659335D01*
X833337Y660446D01*
X834005Y661445D01*
X834855Y662295D01*
X835854Y662963D01*
X836965Y663423D01*
X838144Y663658D01*
X839346D01*
X840525Y663423D01*
D02*
G37*
G36*
X863635Y640313D02*
X864746Y639853D01*
X865745Y639185D01*
X866595Y638335D01*
X867263Y637335D01*
X867723Y636225D01*
X867957Y635046D01*
Y634445D01*
Y633844D01*
X867723Y632665D01*
X867263Y631554D01*
X866595Y630555D01*
X865745Y629705D01*
X864746Y629037D01*
X863635Y628577D01*
X862456Y628343D01*
X861254D01*
X860075Y628577D01*
X858965Y629037D01*
X857965Y629705D01*
X857115Y630555D01*
X856447Y631554D01*
X855987Y632665D01*
X855753Y633844D01*
Y634445D01*
Y635046D01*
X855987Y636225D01*
X856447Y637335D01*
X857115Y638335D01*
X857965Y639185D01*
X858965Y639853D01*
X860075Y640313D01*
X861254Y640547D01*
X862456D01*
X863635Y640313D01*
D02*
G37*
G36*
X840525D02*
X841636Y639853D01*
X842635Y639185D01*
X843485Y638335D01*
X844153Y637335D01*
X844613Y636225D01*
X844847Y635046D01*
Y634445D01*
Y633844D01*
X844613Y632665D01*
X844153Y631554D01*
X843485Y630555D01*
X842635Y629705D01*
X841636Y629037D01*
X840525Y628577D01*
X839346Y628343D01*
X838144D01*
X836965Y628577D01*
X835854Y629037D01*
X834855Y629705D01*
X834005Y630555D01*
X833337Y631554D01*
X832877Y632665D01*
X832643Y633844D01*
Y634445D01*
Y635046D01*
X832877Y636225D01*
X833337Y637335D01*
X834005Y638335D01*
X834855Y639185D01*
X835854Y639853D01*
X836965Y640313D01*
X838144Y640547D01*
X839346D01*
X840525Y640313D01*
D02*
G37*
G36*
X842133Y606858D02*
Y606071D01*
X842330Y605874D01*
X843314D01*
X843511Y605677D01*
Y603158D01*
X843314Y602961D01*
X839613D01*
X839416Y603158D01*
Y606858D01*
X839613Y607055D01*
X841936D01*
X842133Y606858D01*
D02*
G37*
G36*
X843511Y596465D02*
Y593945D01*
X843314Y593748D01*
X842330D01*
X842133Y593551D01*
Y592764D01*
X841936Y592567D01*
X839613D01*
X839416Y592764D01*
Y596465D01*
X839613Y596662D01*
X843314D01*
X843511Y596465D01*
D02*
G37*
D17*
X857831Y549708D02*
X861163D01*
X861830Y550375D01*
Y551708D01*
X861163Y552374D01*
X857831D01*
X861830Y555706D02*
X857831D01*
X859830Y553707D01*
Y556373D01*
D18*
X855991Y544094D02*
D03*
X863668D02*
D03*
X861109Y567322D02*
D03*
Y544094D02*
D03*
X855991Y567322D02*
D03*
X858550D02*
D03*
Y544094D02*
D03*
X863668Y567322D02*
D03*
D19*
X831310Y567381D02*
D03*
D20*
X822295D02*
D03*
X813279D02*
D03*
D21*
X822295Y541437D02*
D03*
D22*
X882574Y499466D02*
D03*
X884543Y453797D02*
D03*
X858952D02*
D03*
X886511D02*
D03*
X860921Y499466D02*
D03*
Y453797D02*
D03*
X884543Y499466D02*
D03*
X868795D02*
D03*
X878637D02*
D03*
X888480D02*
D03*
Y453797D02*
D03*
X862889D02*
D03*
X858952Y499466D02*
D03*
X866826D02*
D03*
X870763D02*
D03*
X880606D02*
D03*
X864857Y453797D02*
D03*
X866826D02*
D03*
X868795D02*
D03*
X870763D02*
D03*
X872731D02*
D03*
X874700D02*
D03*
X876668D02*
D03*
X878637D02*
D03*
X880606D02*
D03*
X882574D02*
D03*
X886511Y499466D02*
D03*
X876668D02*
D03*
X874700D02*
D03*
X872731D02*
D03*
X864857D02*
D03*
X862889D02*
D03*
D23*
X896550Y487458D02*
D03*
X850881Y477616D02*
D03*
X896550Y473679D02*
D03*
X850881Y483521D02*
D03*
X896550D02*
D03*
X850881Y463836D02*
D03*
Y473679D02*
D03*
Y461868D02*
D03*
X896550Y489427D02*
D03*
X850881Y469742D02*
D03*
X896550Y475647D02*
D03*
X850881Y479584D02*
D03*
Y481553D02*
D03*
X896550Y485490D02*
D03*
X850881Y465805D02*
D03*
X896550Y491395D02*
D03*
X850881D02*
D03*
Y467773D02*
D03*
X896550Y477616D02*
D03*
Y479584D02*
D03*
X850881Y471710D02*
D03*
Y489427D02*
D03*
Y487458D02*
D03*
Y485490D02*
D03*
Y475647D02*
D03*
X896550Y461868D02*
D03*
Y463836D02*
D03*
Y465805D02*
D03*
Y467773D02*
D03*
Y469742D02*
D03*
Y471710D02*
D03*
Y481553D02*
D03*
D24*
X829774Y617552D02*
D03*
Y622866D02*
D03*
X841463Y561566D02*
D03*
Y566881D02*
D03*
X840094Y541437D02*
D03*
Y546752D02*
D03*
X849003Y561566D02*
D03*
Y566881D02*
D03*
X833417Y502879D02*
D03*
X820264Y604083D02*
D03*
X833417Y497564D02*
D03*
X833521Y486572D02*
D03*
Y481257D02*
D03*
X820264Y609398D02*
D03*
X822606Y617552D02*
D03*
Y622866D02*
D03*
D25*
X838680Y618000D02*
D03*
X850300D02*
D03*
X842180Y584828D02*
D03*
X830559D02*
D03*
D26*
X917373Y604142D02*
D03*
Y655323D02*
D03*
D27*
X882924Y632095D02*
D03*
D28*
X813965Y614894D02*
D03*
X808650D02*
D03*
X861941Y616032D02*
D03*
X835876Y574500D02*
D03*
X812291Y532759D02*
D03*
X817606D02*
D03*
X867256Y616032D02*
D03*
X830561Y574500D02*
D03*
D29*
X851168Y599811D02*
D03*
X867310D02*
D03*
D30*
X910494Y446639D02*
D03*
X915612D02*
D03*
X858452Y523681D02*
D03*
X853333D02*
D03*
X838114Y524700D02*
D03*
X832996D02*
D03*
X936926Y459396D02*
D03*
X858695Y534628D02*
D03*
X921328Y518697D02*
D03*
X933167Y445469D02*
D03*
X936612Y452316D02*
D03*
X931808Y459396D02*
D03*
X931808Y466789D02*
D03*
X820165Y578995D02*
D03*
X815047D02*
D03*
X814850Y586698D02*
D03*
X809732D02*
D03*
X926446Y518697D02*
D03*
X928049Y445469D02*
D03*
X931493Y452316D02*
D03*
X936926Y466789D02*
D03*
X863813Y534628D02*
D03*
D31*
X917114Y462349D02*
D03*
Y456443D02*
D03*
X909667Y462349D02*
D03*
Y456443D02*
D03*
X923887Y462349D02*
D03*
Y456443D02*
D03*
D32*
X862214Y444670D02*
D03*
X859233D02*
D03*
X900094Y453057D02*
D03*
X873238Y444627D02*
D03*
X840522Y489166D02*
D03*
X897113Y453057D02*
D03*
X870257Y444627D02*
D03*
X843502Y489166D02*
D03*
D33*
X845662Y499663D02*
D03*
X840725D02*
D03*
X894633Y444627D02*
D03*
X899570D02*
D03*
D34*
X798200Y627308D02*
D03*
Y634001D02*
D03*
D35*
X807956Y627358D02*
D03*
X814649D02*
D03*
D36*
X818643Y516265D02*
D03*
Y478863D02*
D03*
D37*
X915120Y495726D02*
D03*
Y491789D02*
D03*
Y507537D02*
D03*
Y505568D02*
D03*
Y479978D02*
D03*
Y478009D02*
D03*
Y493757D02*
D03*
Y489820D02*
D03*
Y487852D02*
D03*
Y499663D02*
D03*
Y501631D02*
D03*
Y483915D02*
D03*
Y503600D02*
D03*
Y481946D02*
D03*
Y485883D02*
D03*
Y497694D02*
D03*
D38*
X907541Y589411D02*
D03*
X918565D02*
D03*
D39*
X812094Y604937D02*
D03*
Y598622D02*
D03*
D40*
X907405Y513640D02*
D03*
X905535Y474190D02*
D03*
X907405Y508522D02*
D03*
X905535Y479309D02*
D03*
D41*
X853167Y504500D02*
D03*
X840536Y471232D02*
D03*
X853167Y501519D02*
D03*
X840536Y468252D02*
D03*
D42*
X826078Y599811D02*
D03*
D43*
X841582Y605225D02*
D03*
Y594398D02*
D03*
X825538Y594299D02*
D03*
Y605323D02*
D03*
D44*
X825782Y597843D02*
D03*
Y601780D02*
D03*
D45*
X830066Y593756D02*
D03*
X828097D02*
D03*
Y605866D02*
D03*
X832034Y593756D02*
D03*
X830066Y605866D02*
D03*
X832034D02*
D03*
D46*
X903329Y497564D02*
D03*
Y502501D02*
D03*
D47*
X938919Y518697D02*
D03*
X936655Y589411D02*
D03*
X933014Y518697D02*
D03*
X930750Y589411D02*
D03*
D48*
X836267Y594248D02*
D03*
Y605374D02*
D03*
D49*
X837893Y599811D02*
D03*
M02*
