G04*
G04 #@! TF.GenerationSoftware,Altium Limited,Altium Designer,24.0.1 (36)*
G04*
G04 Layer_Physical_Order=2*
G04 Layer_Color=36540*
%FSLAX25Y25*%
%MOIN*%
G70*
G04*
G04 #@! TF.SameCoordinates,4AE72286-74C0-4861-BAE4-8600210459B3*
G04*
G04*
G04 #@! TF.FilePolarity,Positive*
G04*
G01*
G75*
%ADD17C,0.00700*%
%ADD61C,0.06181*%
%ADD64C,0.05984*%
G04:AMPARAMS|DCode=65|XSize=43.31mil|YSize=80.71mil|CornerRadius=21.65mil|HoleSize=0mil|Usage=FLASHONLY|Rotation=90.000|XOffset=0mil|YOffset=0mil|HoleType=Round|Shape=RoundedRectangle|*
%AMROUNDEDRECTD65*
21,1,0.04331,0.03740,0,0,90.0*
21,1,0.00000,0.08071,0,0,90.0*
1,1,0.04331,0.01870,0.00000*
1,1,0.04331,0.01870,0.00000*
1,1,0.04331,-0.01870,0.00000*
1,1,0.04331,-0.01870,0.00000*
%
%ADD65ROUNDEDRECTD65*%
%ADD86R,0.06102X0.06102*%
%ADD87C,0.12598*%
%ADD90C,0.02362*%
G36*
X943031Y441969D02*
X749700D01*
Y662484D01*
X749313Y662870D01*
Y663657D01*
X759966D01*
X760043Y663271D01*
X759688Y663124D01*
X758492Y662325D01*
X757475Y661308D01*
X756676Y660113D01*
X756126Y658784D01*
X755846Y657374D01*
Y657155D01*
X770444D01*
Y657374D01*
X770164Y658784D01*
X769613Y660113D01*
X768815Y661308D01*
X767798Y662325D01*
X766602Y663124D01*
X766247Y663271D01*
X766324Y663657D01*
X783076D01*
X783153Y663271D01*
X782798Y663124D01*
X781602Y662325D01*
X780585Y661308D01*
X779787Y660113D01*
X779237Y658784D01*
X778956Y657374D01*
Y657155D01*
X793554D01*
Y657374D01*
X793274Y658784D01*
X792724Y660113D01*
X791925Y661308D01*
X790908Y662325D01*
X789713Y663124D01*
X789358Y663271D01*
X789434Y663657D01*
X835121D01*
X835241Y663263D01*
X834478Y662754D01*
X833546Y661822D01*
X832814Y660725D01*
X832309Y659507D01*
X832052Y658214D01*
Y656896D01*
X832309Y655603D01*
X832814Y654385D01*
X833546Y653289D01*
X834478Y652356D01*
X835575Y651624D01*
X836793Y651120D01*
X838086Y650862D01*
X839404D01*
X840697Y651120D01*
X841915Y651624D01*
X843011Y652356D01*
X843944Y653289D01*
X844676Y654385D01*
X845181Y655603D01*
X845438Y656896D01*
Y658214D01*
X845181Y659507D01*
X844676Y660725D01*
X843944Y661822D01*
X843011Y662754D01*
X842249Y663263D01*
X842369Y663657D01*
X858231D01*
X858351Y663263D01*
X857589Y662754D01*
X856656Y661822D01*
X855924Y660725D01*
X855420Y659507D01*
X855162Y658214D01*
Y656896D01*
X855420Y655603D01*
X855924Y654385D01*
X856656Y653289D01*
X857589Y652356D01*
X858685Y651624D01*
X859903Y651120D01*
X861196Y650862D01*
X862514D01*
X863807Y651120D01*
X865025Y651624D01*
X866122Y652356D01*
X867054Y653289D01*
X867786Y654385D01*
X868291Y655603D01*
X868548Y656896D01*
Y658214D01*
X868291Y659507D01*
X867786Y660725D01*
X867054Y661822D01*
X866122Y662754D01*
X865359Y663263D01*
X865479Y663657D01*
X943031D01*
Y441969D01*
D02*
G37*
%LPC*%
G36*
X793554Y656155D02*
X786755D01*
Y649356D01*
X786974D01*
X788384Y649637D01*
X789713Y650187D01*
X790908Y650985D01*
X791925Y652002D01*
X792724Y653198D01*
X793274Y654526D01*
X793554Y655936D01*
Y656155D01*
D02*
G37*
G36*
X785755D02*
X778956D01*
Y655936D01*
X779237Y654526D01*
X779787Y653198D01*
X780585Y652002D01*
X781602Y650985D01*
X782798Y650187D01*
X784126Y649637D01*
X785536Y649356D01*
X785755D01*
Y656155D01*
D02*
G37*
G36*
X770444D02*
X763645D01*
Y649356D01*
X763864D01*
X765274Y649637D01*
X766602Y650187D01*
X767798Y650985D01*
X768815Y652002D01*
X769613Y653198D01*
X770164Y654526D01*
X770444Y655936D01*
Y656155D01*
D02*
G37*
G36*
X762645D02*
X755846D01*
Y655936D01*
X756126Y654526D01*
X756676Y653198D01*
X757475Y652002D01*
X758492Y650985D01*
X759688Y650187D01*
X761016Y649637D01*
X762426Y649356D01*
X762645D01*
Y656155D01*
D02*
G37*
G36*
X850959Y652693D02*
X849641D01*
X848348Y652436D01*
X847130Y651931D01*
X846034Y651199D01*
X845101Y650267D01*
X844369Y649170D01*
X843864Y647952D01*
X843607Y646659D01*
Y645341D01*
X843864Y644048D01*
X844369Y642830D01*
X845101Y641734D01*
X846034Y640801D01*
X847130Y640069D01*
X848348Y639564D01*
X849641Y639307D01*
X850959D01*
X852252Y639564D01*
X853470Y640069D01*
X854566Y640801D01*
X855499Y641734D01*
X856231Y642830D01*
X856736Y644048D01*
X856993Y645341D01*
Y646659D01*
X856736Y647952D01*
X856231Y649170D01*
X855499Y650267D01*
X854566Y651199D01*
X853470Y651931D01*
X852252Y652436D01*
X850959Y652693D01*
D02*
G37*
G36*
X775359Y651793D02*
X774041D01*
X772748Y651536D01*
X771530Y651031D01*
X770434Y650299D01*
X769501Y649367D01*
X768769Y648270D01*
X768264Y647052D01*
X768007Y645759D01*
Y644441D01*
X768264Y643148D01*
X768769Y641930D01*
X769501Y640834D01*
X770434Y639901D01*
X771530Y639169D01*
X772748Y638664D01*
X774041Y638407D01*
X775359D01*
X776652Y638664D01*
X777870Y639169D01*
X778967Y639901D01*
X779899Y640834D01*
X780631Y641930D01*
X781136Y643148D01*
X781393Y644441D01*
Y645759D01*
X781136Y647052D01*
X780631Y648270D01*
X779899Y649367D01*
X778967Y650299D01*
X777870Y651031D01*
X776652Y651536D01*
X775359Y651793D01*
D02*
G37*
G36*
X930687Y643512D02*
X929650D01*
X928649Y643244D01*
X927751Y642725D01*
X927018Y641992D01*
X926500Y641094D01*
X926232Y640093D01*
Y639057D01*
X926500Y638055D01*
X927018Y637157D01*
X927751Y636424D01*
X928649Y635906D01*
X929650Y635638D01*
X930687D01*
X931688Y635906D01*
X932586Y636424D01*
X933319Y637157D01*
X933837Y638055D01*
X934106Y639057D01*
Y640093D01*
X933837Y641094D01*
X933319Y641992D01*
X932586Y642725D01*
X931688Y643244D01*
X930687Y643512D01*
D02*
G37*
G36*
X786974Y640844D02*
X786755D01*
Y634045D01*
X793554D01*
Y634264D01*
X793274Y635674D01*
X792724Y637002D01*
X791925Y638198D01*
X790908Y639215D01*
X789713Y640013D01*
X788384Y640564D01*
X786974Y640844D01*
D02*
G37*
G36*
X785755D02*
X785536D01*
X784126Y640564D01*
X782798Y640013D01*
X781602Y639215D01*
X780585Y638198D01*
X779787Y637002D01*
X779237Y635674D01*
X778956Y634264D01*
Y634045D01*
X785755D01*
Y640844D01*
D02*
G37*
G36*
X763864D02*
X763645D01*
Y634045D01*
X770444D01*
Y634264D01*
X770164Y635674D01*
X769613Y637002D01*
X768815Y638198D01*
X767798Y639215D01*
X766602Y640013D01*
X765274Y640564D01*
X763864Y640844D01*
D02*
G37*
G36*
X762645D02*
X762426D01*
X761016Y640564D01*
X759688Y640013D01*
X758492Y639215D01*
X757475Y638198D01*
X756676Y637002D01*
X756126Y635674D01*
X755846Y634264D01*
Y634045D01*
X762645D01*
Y640844D01*
D02*
G37*
G36*
X862514Y641138D02*
X861196D01*
X859903Y640881D01*
X858685Y640376D01*
X857589Y639644D01*
X856656Y638711D01*
X855924Y637615D01*
X855420Y636397D01*
X855162Y635104D01*
Y633786D01*
X855420Y632493D01*
X855924Y631275D01*
X856656Y630178D01*
X857589Y629246D01*
X858685Y628514D01*
X859903Y628009D01*
X861196Y627752D01*
X862514D01*
X863807Y628009D01*
X865025Y628514D01*
X866122Y629246D01*
X867054Y630178D01*
X867786Y631275D01*
X868291Y632493D01*
X868548Y633786D01*
Y635104D01*
X868291Y636397D01*
X867786Y637615D01*
X867054Y638711D01*
X866122Y639644D01*
X865025Y640376D01*
X863807Y640881D01*
X862514Y641138D01*
D02*
G37*
G36*
X839404D02*
X838086D01*
X836793Y640881D01*
X835575Y640376D01*
X834478Y639644D01*
X833546Y638711D01*
X832814Y637615D01*
X832309Y636397D01*
X832052Y635104D01*
Y633786D01*
X832309Y632493D01*
X832814Y631275D01*
X833546Y630178D01*
X834478Y629246D01*
X835575Y628514D01*
X836793Y628009D01*
X838086Y627752D01*
X839404D01*
X840697Y628009D01*
X841915Y628514D01*
X843011Y629246D01*
X843944Y630178D01*
X844676Y631275D01*
X845181Y632493D01*
X845438Y633786D01*
Y635104D01*
X845181Y636397D01*
X844676Y637615D01*
X843944Y638711D01*
X843011Y639644D01*
X841915Y640376D01*
X840697Y640881D01*
X839404Y641138D01*
D02*
G37*
G36*
X793554Y633045D02*
X786755D01*
Y626246D01*
X786974D01*
X788384Y626526D01*
X789713Y627076D01*
X790908Y627875D01*
X791925Y628892D01*
X792724Y630088D01*
X793274Y631416D01*
X793554Y632826D01*
Y633045D01*
D02*
G37*
G36*
X785755D02*
X778956D01*
Y632826D01*
X779237Y631416D01*
X779787Y630088D01*
X780585Y628892D01*
X781602Y627875D01*
X782798Y627076D01*
X784126Y626526D01*
X785536Y626246D01*
X785755D01*
Y633045D01*
D02*
G37*
G36*
X770444D02*
X763645D01*
Y626246D01*
X763864D01*
X765274Y626526D01*
X766602Y627076D01*
X767798Y627875D01*
X768815Y628892D01*
X769613Y630088D01*
X770164Y631416D01*
X770444Y632826D01*
Y633045D01*
D02*
G37*
G36*
X762645D02*
X755846D01*
Y632826D01*
X756126Y631416D01*
X756676Y630088D01*
X757475Y628892D01*
X758492Y627875D01*
X759688Y627076D01*
X761016Y626526D01*
X762426Y626246D01*
X762645D01*
Y633045D01*
D02*
G37*
G36*
X790898Y623195D02*
X790272D01*
X789693Y622955D01*
X789250Y622512D01*
X789010Y621933D01*
Y621307D01*
X789250Y620728D01*
X789693Y620285D01*
X790272Y620045D01*
X790898D01*
X791477Y620285D01*
X791920Y620728D01*
X792160Y621307D01*
Y621933D01*
X791920Y622512D01*
X791477Y622955D01*
X790898Y623195D01*
D02*
G37*
G36*
X816775Y620829D02*
X816149D01*
X815570Y620590D01*
X815127Y620147D01*
X814887Y619568D01*
Y618941D01*
X815127Y618363D01*
X815570Y617919D01*
X816149Y617680D01*
X816775D01*
X817354Y617919D01*
X817797Y618363D01*
X818037Y618941D01*
Y619568D01*
X817797Y620147D01*
X817354Y620590D01*
X816775Y620829D01*
D02*
G37*
G36*
X930687Y623827D02*
X929650D01*
X928649Y623559D01*
X927751Y623040D01*
X927018Y622307D01*
X926500Y621410D01*
X926232Y620408D01*
Y619372D01*
X926500Y618370D01*
X927018Y617473D01*
X927751Y616740D01*
X928649Y616221D01*
X929650Y615953D01*
X930687D01*
X931688Y616221D01*
X932586Y616740D01*
X933319Y617473D01*
X933837Y618370D01*
X934106Y619372D01*
Y620408D01*
X933837Y621410D01*
X933319Y622307D01*
X932586Y623040D01*
X931688Y623559D01*
X930687Y623827D01*
D02*
G37*
G36*
X802754Y621173D02*
X795786D01*
Y614204D01*
X802754D01*
Y621173D01*
D02*
G37*
G36*
X865112Y612935D02*
X864485D01*
X863906Y612695D01*
X863463Y612252D01*
X863224Y611673D01*
Y611047D01*
X863463Y610468D01*
X863906Y610025D01*
X864485Y609785D01*
X865112D01*
X865691Y610025D01*
X866133Y610468D01*
X866373Y611047D01*
Y611673D01*
X866133Y612252D01*
X865691Y612695D01*
X865112Y612935D01*
D02*
G37*
G36*
X799729Y611173D02*
X798811D01*
X797925Y610935D01*
X797131Y610476D01*
X796482Y609828D01*
X796023Y609033D01*
X795786Y608147D01*
Y607230D01*
X796023Y606343D01*
X796482Y605549D01*
X797131Y604900D01*
X797925Y604441D01*
X798811Y604204D01*
X799729D01*
X800615Y604441D01*
X801410Y604900D01*
X802058Y605549D01*
X802517Y606343D01*
X802754Y607230D01*
Y608147D01*
X802517Y609033D01*
X802058Y609828D01*
X801410Y610476D01*
X800615Y610935D01*
X799729Y611173D01*
D02*
G37*
G36*
X799809Y601779D02*
X799770D01*
Y598188D01*
X803361D01*
Y598227D01*
X803082Y599267D01*
X802543Y600200D01*
X801782Y600962D01*
X800849Y601500D01*
X799809Y601779D01*
D02*
G37*
G36*
X798770D02*
X798732D01*
X797691Y601500D01*
X796759Y600962D01*
X795997Y600200D01*
X795458Y599267D01*
X795180Y598227D01*
Y598188D01*
X798770D01*
Y601779D01*
D02*
G37*
G36*
X803361Y597188D02*
X799770D01*
Y593598D01*
X799809D01*
X800849Y593877D01*
X801782Y594415D01*
X802543Y595177D01*
X803082Y596109D01*
X803361Y597150D01*
Y597188D01*
D02*
G37*
G36*
X798770D02*
X795180D01*
Y597150D01*
X795458Y596109D01*
X795997Y595177D01*
X796759Y594415D01*
X797691Y593877D01*
X798732Y593598D01*
X798770D01*
Y597188D01*
D02*
G37*
G36*
X813315Y594331D02*
X812688D01*
X812109Y594091D01*
X811666Y593648D01*
X811427Y593070D01*
Y592443D01*
X811666Y591864D01*
X812109Y591421D01*
X812688Y591182D01*
X813315D01*
X813894Y591421D01*
X814337Y591864D01*
X814576Y592443D01*
Y593070D01*
X814337Y593648D01*
X813894Y594091D01*
X813315Y594331D01*
D02*
G37*
G36*
X820531Y590633D02*
X819905D01*
X819326Y590393D01*
X818883Y589950D01*
X818643Y589371D01*
Y588745D01*
X818883Y588166D01*
X819326Y587723D01*
X819905Y587483D01*
X820531D01*
X821110Y587723D01*
X821553Y588166D01*
X821793Y588745D01*
Y589371D01*
X821553Y589950D01*
X821110Y590393D01*
X820531Y590633D01*
D02*
G37*
G36*
X830925Y586534D02*
X830299D01*
X829720Y586294D01*
X829277Y585851D01*
X829037Y585272D01*
Y584646D01*
X829277Y584067D01*
X829720Y583624D01*
X830299Y583384D01*
X830925D01*
X831504Y583624D01*
X831947Y584067D01*
X832187Y584646D01*
Y585272D01*
X831947Y585851D01*
X831504Y586294D01*
X830925Y586534D01*
D02*
G37*
G36*
X832208Y580261D02*
X831581D01*
X831003Y580021D01*
X830560Y579578D01*
X830320Y579000D01*
Y578373D01*
X830560Y577794D01*
X831003Y577351D01*
X831581Y577111D01*
X832208D01*
X832787Y577351D01*
X833230Y577794D01*
X833469Y578373D01*
Y579000D01*
X833230Y579578D01*
X832787Y580021D01*
X832208Y580261D01*
D02*
G37*
G36*
X827128D02*
X826502D01*
X825923Y580021D01*
X825480Y579578D01*
X825240Y579000D01*
Y578373D01*
X825480Y577794D01*
X825923Y577351D01*
X826502Y577111D01*
X827128D01*
X827707Y577351D01*
X828150Y577794D01*
X828390Y578373D01*
Y579000D01*
X828150Y579578D01*
X827707Y580021D01*
X827128Y580261D01*
D02*
G37*
G36*
X802754Y582039D02*
X795786D01*
Y575071D01*
X802754D01*
Y582039D01*
D02*
G37*
G36*
X873185Y580984D02*
X872278D01*
X871402Y580749D01*
X870616Y580296D01*
X869975Y579654D01*
X869521Y578869D01*
X869287Y577993D01*
Y577085D01*
X869521Y576209D01*
X869975Y575424D01*
X870616Y574782D01*
X871402Y574329D01*
X872278Y574094D01*
X873185D01*
X874061Y574329D01*
X874847Y574782D01*
X875488Y575424D01*
X875942Y576209D01*
X876176Y577085D01*
Y577993D01*
X875942Y578869D01*
X875488Y579654D01*
X874847Y580296D01*
X874061Y580749D01*
X873185Y580984D01*
D02*
G37*
G36*
X894030Y579193D02*
X893113D01*
X892227Y578955D01*
X891432Y578496D01*
X890784Y577848D01*
X890325Y577053D01*
X890088Y576167D01*
Y575250D01*
X890325Y574363D01*
X890784Y573569D01*
X891432Y572920D01*
X892227Y572462D01*
X893113Y572224D01*
X894030D01*
X894917Y572462D01*
X895711Y572920D01*
X896360Y573569D01*
X896819Y574363D01*
X897056Y575250D01*
Y576167D01*
X896819Y577053D01*
X896360Y577848D01*
X895711Y578496D01*
X894917Y578955D01*
X894030Y579193D01*
D02*
G37*
G36*
X799729Y572039D02*
X798811D01*
X797925Y571802D01*
X797131Y571343D01*
X796482Y570694D01*
X796023Y569900D01*
X795786Y569014D01*
Y568096D01*
X796023Y567210D01*
X796482Y566416D01*
X797131Y565767D01*
X797925Y565308D01*
X798811Y565071D01*
X799729D01*
X800615Y565308D01*
X801410Y565767D01*
X802058Y566416D01*
X802517Y567210D01*
X802754Y568096D01*
Y569014D01*
X802517Y569900D01*
X802058Y570694D01*
X801410Y571343D01*
X800615Y571802D01*
X799729Y572039D01*
D02*
G37*
G36*
X873185Y570984D02*
X872278D01*
X871402Y570749D01*
X870616Y570296D01*
X869975Y569654D01*
X869521Y568869D01*
X869287Y567993D01*
Y567086D01*
X869521Y566209D01*
X869975Y565424D01*
X870616Y564782D01*
X871402Y564329D01*
X872278Y564094D01*
X873185D01*
X874061Y564329D01*
X874847Y564782D01*
X875488Y565424D01*
X875942Y566209D01*
X876176Y567086D01*
Y567993D01*
X875942Y568869D01*
X875488Y569654D01*
X874847Y570296D01*
X874061Y570749D01*
X873185Y570984D01*
D02*
G37*
G36*
X894030Y569193D02*
X893113D01*
X892227Y568955D01*
X891432Y568496D01*
X890784Y567848D01*
X890325Y567053D01*
X890088Y566167D01*
Y565250D01*
X890325Y564363D01*
X890784Y563569D01*
X891432Y562920D01*
X892227Y562462D01*
X893113Y562224D01*
X894030D01*
X894917Y562462D01*
X895711Y562920D01*
X896360Y563569D01*
X896819Y564363D01*
X897056Y565250D01*
Y566167D01*
X896819Y567053D01*
X896360Y567848D01*
X895711Y568496D01*
X894917Y568955D01*
X894030Y569193D01*
D02*
G37*
G36*
X863255Y562485D02*
X862628D01*
X862050Y562245D01*
X861607Y561802D01*
X861367Y561224D01*
Y560597D01*
X861607Y560018D01*
X862050Y559575D01*
X862628Y559336D01*
X863255D01*
X863834Y559575D01*
X864277Y560018D01*
X864517Y560597D01*
Y561224D01*
X864277Y561802D01*
X863834Y562245D01*
X863255Y562485D01*
D02*
G37*
G36*
X799809Y562645D02*
X799770D01*
Y559055D01*
X803361D01*
Y559094D01*
X803082Y560134D01*
X802543Y561067D01*
X801782Y561828D01*
X800849Y562367D01*
X799809Y562645D01*
D02*
G37*
G36*
X798770D02*
X798732D01*
X797691Y562367D01*
X796759Y561828D01*
X795997Y561067D01*
X795458Y560134D01*
X795180Y559094D01*
Y559055D01*
X798770D01*
Y562645D01*
D02*
G37*
G36*
X828073Y560920D02*
X827446D01*
X826868Y560680D01*
X826425Y560237D01*
X826185Y559659D01*
Y559032D01*
X826425Y558453D01*
X826868Y558010D01*
X827446Y557771D01*
X828073D01*
X828652Y558010D01*
X829095Y558453D01*
X829335Y559032D01*
Y559659D01*
X829095Y560237D01*
X828652Y560680D01*
X828073Y560920D01*
D02*
G37*
G36*
X816421Y560837D02*
X815795D01*
X815216Y560597D01*
X814773Y560154D01*
X814533Y559576D01*
Y558949D01*
X814773Y558370D01*
X815216Y557927D01*
X815795Y557688D01*
X816421D01*
X817000Y557927D01*
X817443Y558370D01*
X817683Y558949D01*
Y559576D01*
X817443Y560154D01*
X817000Y560597D01*
X816421Y560837D01*
D02*
G37*
G36*
X821767Y560789D02*
X821140D01*
X820561Y560549D01*
X820118Y560106D01*
X819878Y559527D01*
Y558901D01*
X820118Y558322D01*
X820561Y557879D01*
X821140Y557639D01*
X821767D01*
X822345Y557879D01*
X822788Y558322D01*
X823028Y558901D01*
Y559527D01*
X822788Y560106D01*
X822345Y560549D01*
X821767Y560789D01*
D02*
G37*
G36*
X863308Y558399D02*
X862681D01*
X862103Y558159D01*
X861660Y557716D01*
X861420Y557137D01*
Y556511D01*
X861660Y555932D01*
X862103Y555489D01*
X862681Y555249D01*
X863308D01*
X863887Y555489D01*
X864330Y555932D01*
X864569Y556511D01*
Y557137D01*
X864330Y557716D01*
X863887Y558159D01*
X863308Y558399D01*
D02*
G37*
G36*
X803361Y558055D02*
X799770D01*
Y554464D01*
X799809D01*
X800849Y554743D01*
X801782Y555282D01*
X802543Y556043D01*
X803082Y556976D01*
X803361Y558016D01*
Y558055D01*
D02*
G37*
G36*
X798770D02*
X795180D01*
Y558016D01*
X795458Y556976D01*
X795997Y556043D01*
X796759Y555282D01*
X797691Y554743D01*
X798732Y554464D01*
X798770D01*
Y558055D01*
D02*
G37*
G36*
X873185Y560984D02*
X872278D01*
X871402Y560749D01*
X870616Y560296D01*
X869975Y559654D01*
X869521Y558869D01*
X869287Y557993D01*
Y557086D01*
X869521Y556209D01*
X869975Y555424D01*
X870616Y554782D01*
X871402Y554329D01*
X872278Y554094D01*
X873185D01*
X874061Y554329D01*
X874847Y554782D01*
X875488Y555424D01*
X875942Y556209D01*
X876176Y557086D01*
Y557993D01*
X875942Y558869D01*
X875488Y559654D01*
X874847Y560296D01*
X874061Y560749D01*
X873185Y560984D01*
D02*
G37*
G36*
X828073Y556247D02*
X827446D01*
X826868Y556007D01*
X826425Y555564D01*
X826185Y554985D01*
Y554359D01*
X826425Y553780D01*
X826868Y553337D01*
X827446Y553097D01*
X828073D01*
X828652Y553337D01*
X829095Y553780D01*
X829335Y554359D01*
Y554985D01*
X829095Y555564D01*
X828652Y556007D01*
X828073Y556247D01*
D02*
G37*
G36*
X816474Y556115D02*
X815848D01*
X815269Y555876D01*
X814826Y555433D01*
X814586Y554854D01*
Y554227D01*
X814826Y553648D01*
X815269Y553205D01*
X815848Y552966D01*
X816474D01*
X817053Y553205D01*
X817496Y553648D01*
X817736Y554227D01*
Y554854D01*
X817496Y555433D01*
X817053Y555876D01*
X816474Y556115D01*
D02*
G37*
G36*
X821819Y556115D02*
X821193D01*
X820614Y555875D01*
X820171Y555433D01*
X819931Y554854D01*
Y554227D01*
X820171Y553648D01*
X820614Y553205D01*
X821193Y552966D01*
X821819D01*
X822398Y553205D01*
X822841Y553648D01*
X823081Y554227D01*
Y554854D01*
X822841Y555433D01*
X822398Y555875D01*
X821819Y556115D01*
D02*
G37*
G36*
X894030Y559193D02*
X893113D01*
X892227Y558955D01*
X891432Y558496D01*
X890784Y557848D01*
X890325Y557053D01*
X890088Y556167D01*
Y555250D01*
X890325Y554363D01*
X890784Y553569D01*
X891432Y552920D01*
X892227Y552461D01*
X893113Y552224D01*
X894030D01*
X894917Y552461D01*
X895711Y552920D01*
X896360Y553569D01*
X896819Y554363D01*
X897056Y555250D01*
Y556167D01*
X896819Y557053D01*
X896360Y557848D01*
X895711Y558496D01*
X894917Y558955D01*
X894030Y559193D01*
D02*
G37*
G36*
X863412Y554147D02*
X862785D01*
X862206Y553907D01*
X861763Y553464D01*
X861524Y552885D01*
Y552259D01*
X861763Y551680D01*
X862206Y551237D01*
X862785Y550997D01*
X863412D01*
X863990Y551237D01*
X864433Y551680D01*
X864673Y552259D01*
Y552885D01*
X864433Y553464D01*
X863990Y553907D01*
X863412Y554147D01*
D02*
G37*
G36*
X859441Y551312D02*
X858814D01*
X858235Y551072D01*
X857792Y550629D01*
X857553Y550051D01*
Y549424D01*
X857792Y548845D01*
X858235Y548402D01*
X858814Y548163D01*
X859441D01*
X860019Y548402D01*
X860462Y548845D01*
X860702Y549424D01*
Y550051D01*
X860462Y550629D01*
X860019Y551072D01*
X859441Y551312D01*
D02*
G37*
G36*
X894110Y549799D02*
X894072D01*
Y546208D01*
X897662D01*
Y546247D01*
X897383Y547287D01*
X896845Y548220D01*
X896083Y548982D01*
X895151Y549520D01*
X894110Y549799D01*
D02*
G37*
G36*
X893072D02*
X893033D01*
X891993Y549520D01*
X891060Y548982D01*
X890298Y548220D01*
X889760Y547287D01*
X889481Y546247D01*
Y546208D01*
X893072D01*
Y549799D01*
D02*
G37*
G36*
X873185Y550984D02*
X872278D01*
X871402Y550749D01*
X870616Y550296D01*
X869975Y549654D01*
X869521Y548869D01*
X869287Y547993D01*
Y547086D01*
X869521Y546209D01*
X869975Y545424D01*
X870616Y544782D01*
X871402Y544329D01*
X872278Y544094D01*
X873185D01*
X874061Y544329D01*
X874847Y544782D01*
X875488Y545424D01*
X875942Y546209D01*
X876176Y547086D01*
Y547993D01*
X875942Y548869D01*
X875488Y549654D01*
X874847Y550296D01*
X874061Y550749D01*
X873185Y550984D01*
D02*
G37*
G36*
X897662Y545208D02*
X894072D01*
Y541618D01*
X894110D01*
X895151Y541896D01*
X896083Y542435D01*
X896845Y543197D01*
X897383Y544129D01*
X897662Y545170D01*
Y545208D01*
D02*
G37*
G36*
X893072D02*
X889481D01*
Y545170D01*
X889760Y544129D01*
X890298Y543197D01*
X891060Y542435D01*
X891993Y541896D01*
X893033Y541618D01*
X893072D01*
Y545208D01*
D02*
G37*
G36*
X876783Y541590D02*
X873232D01*
Y538039D01*
X876783D01*
Y541590D01*
D02*
G37*
G36*
X872231D02*
X868680D01*
Y538039D01*
X872231D01*
Y541590D01*
D02*
G37*
G36*
X837920Y536995D02*
X837294D01*
X836715Y536756D01*
X836272Y536312D01*
X836032Y535734D01*
Y535107D01*
X836272Y534528D01*
X836715Y534085D01*
X837294Y533846D01*
X837920D01*
X838499Y534085D01*
X838942Y534528D01*
X839182Y535107D01*
Y535734D01*
X838942Y536312D01*
X838499Y536756D01*
X837920Y536995D01*
D02*
G37*
G36*
X832476Y536827D02*
X831849D01*
X831271Y536587D01*
X830828Y536144D01*
X830588Y535565D01*
Y534939D01*
X830828Y534360D01*
X831271Y533917D01*
X831849Y533677D01*
X832476D01*
X833055Y533917D01*
X833498Y534360D01*
X833737Y534939D01*
Y535565D01*
X833498Y536144D01*
X833055Y536587D01*
X832476Y536827D01*
D02*
G37*
G36*
X876783Y537039D02*
X873232D01*
Y533488D01*
X876783D01*
Y537039D01*
D02*
G37*
G36*
X872231D02*
X868680D01*
Y533488D01*
X872231D01*
Y537039D01*
D02*
G37*
G36*
X802754Y540184D02*
X795786D01*
Y533216D01*
X802754D01*
Y540184D01*
D02*
G37*
G36*
X897056Y539193D02*
X890088D01*
Y532224D01*
X897056D01*
Y539193D01*
D02*
G37*
G36*
X826396Y536827D02*
X825770D01*
X825191Y536587D01*
X824748Y536144D01*
X824508Y535565D01*
Y534939D01*
X824748Y534360D01*
X825191Y533917D01*
X825638Y533732D01*
X825657Y533314D01*
X825244Y533142D01*
X824801Y532699D01*
X824561Y532120D01*
Y531494D01*
X824801Y530915D01*
X825244Y530472D01*
X825823Y530232D01*
X826449D01*
X827028Y530472D01*
X827471Y530915D01*
X827711Y531494D01*
Y532120D01*
X827471Y532699D01*
X827028Y533142D01*
X826581Y533327D01*
X826562Y533746D01*
X826975Y533917D01*
X827418Y534360D01*
X827658Y534939D01*
Y535565D01*
X827418Y536144D01*
X826975Y536587D01*
X826396Y536827D01*
D02*
G37*
G36*
X837973Y533250D02*
X837347D01*
X836768Y533010D01*
X836325Y532567D01*
X836085Y531988D01*
Y531361D01*
X836325Y530783D01*
X836768Y530340D01*
X837347Y530100D01*
X837973D01*
X838552Y530340D01*
X838995Y530783D01*
X839235Y531361D01*
Y531988D01*
X838995Y532567D01*
X838552Y533010D01*
X837973Y533250D01*
D02*
G37*
G36*
X832312D02*
X831686D01*
X831107Y533010D01*
X830664Y532567D01*
X830424Y531988D01*
Y531361D01*
X830664Y530783D01*
X831107Y530340D01*
X831686Y530100D01*
X832312D01*
X832891Y530340D01*
X833334Y530783D01*
X833574Y531361D01*
Y531988D01*
X833334Y532567D01*
X832891Y533010D01*
X832312Y533250D01*
D02*
G37*
G36*
X876736Y526733D02*
X876109D01*
X875531Y526493D01*
X875088Y526050D01*
X874848Y525471D01*
Y524845D01*
X875088Y524266D01*
X875531Y523823D01*
X876109Y523583D01*
X876736D01*
X877315Y523823D01*
X877758Y524266D01*
X877997Y524845D01*
Y525471D01*
X877758Y526050D01*
X877315Y526493D01*
X876736Y526733D01*
D02*
G37*
G36*
X799729Y530184D02*
X798811D01*
X797925Y529947D01*
X797131Y529488D01*
X796482Y528839D01*
X796023Y528045D01*
X795786Y527159D01*
Y526241D01*
X796023Y525355D01*
X796482Y524561D01*
X797131Y523912D01*
X797925Y523453D01*
X798811Y523216D01*
X799729D01*
X800615Y523453D01*
X801410Y523912D01*
X802058Y524561D01*
X802517Y525355D01*
X802754Y526241D01*
Y527159D01*
X802517Y528045D01*
X802058Y528839D01*
X801410Y529488D01*
X800615Y529947D01*
X799729Y530184D01*
D02*
G37*
G36*
X871076Y525491D02*
X870450D01*
X869871Y525251D01*
X869428Y524808D01*
X869188Y524229D01*
Y523602D01*
X869279Y523383D01*
X869223Y523266D01*
X869000Y523028D01*
X868481D01*
X867902Y522788D01*
X867459Y522345D01*
X867220Y521766D01*
Y521140D01*
X867459Y520561D01*
X867902Y520118D01*
X868481Y519878D01*
X869108D01*
X869687Y520118D01*
X870130Y520561D01*
X870369Y521140D01*
Y521766D01*
X870278Y521986D01*
X870335Y522103D01*
X870557Y522341D01*
X871076D01*
X871655Y522581D01*
X872098Y523024D01*
X872338Y523602D01*
Y524229D01*
X872098Y524808D01*
X871655Y525251D01*
X871076Y525491D01*
D02*
G37*
G36*
X878950Y521158D02*
X878324D01*
X877745Y520918D01*
X877302Y520475D01*
X877062Y519896D01*
Y519270D01*
X877302Y518691D01*
X877745Y518248D01*
X878324Y518008D01*
X878950D01*
X879529Y518248D01*
X879972Y518691D01*
X880212Y519270D01*
Y519896D01*
X879972Y520475D01*
X879529Y520918D01*
X878950Y521158D01*
D02*
G37*
G36*
X799809Y520791D02*
X799770D01*
Y517200D01*
X803361D01*
Y517239D01*
X803082Y518279D01*
X802543Y519212D01*
X801782Y519973D01*
X800849Y520512D01*
X799809Y520791D01*
D02*
G37*
G36*
X798770D02*
X798732D01*
X797691Y520512D01*
X796759Y519973D01*
X795997Y519212D01*
X795458Y518279D01*
X795180Y517239D01*
Y517200D01*
X798770D01*
Y520791D01*
D02*
G37*
G36*
X882940Y517227D02*
X882314D01*
X881735Y516987D01*
X881292Y516544D01*
X881052Y515965D01*
Y515339D01*
X881292Y514760D01*
X881735Y514317D01*
X882314Y514077D01*
X882940D01*
X883519Y514317D01*
X883962Y514760D01*
X884202Y515339D01*
Y515965D01*
X883962Y516544D01*
X883519Y516987D01*
X882940Y517227D01*
D02*
G37*
G36*
X803361Y516200D02*
X799770D01*
Y512609D01*
X799809D01*
X800849Y512888D01*
X801782Y513427D01*
X802543Y514188D01*
X803082Y515121D01*
X803361Y516161D01*
Y516200D01*
D02*
G37*
G36*
X798770D02*
X795180D01*
Y516161D01*
X795458Y515121D01*
X795997Y514188D01*
X796759Y513427D01*
X797691Y512888D01*
X798732Y512609D01*
X798770D01*
Y516200D01*
D02*
G37*
G36*
X861664Y518027D02*
X854774D01*
Y511138D01*
X861664D01*
Y518027D01*
D02*
G37*
G36*
X848672D02*
X847765D01*
X846889Y517793D01*
X846104Y517339D01*
X845462Y516698D01*
X845009Y515912D01*
X844774Y515036D01*
Y514129D01*
X845009Y513253D01*
X845462Y512467D01*
X846104Y511826D01*
X846889Y511372D01*
X847765Y511138D01*
X848672D01*
X849549Y511372D01*
X850334Y511826D01*
X850975Y512467D01*
X851429Y513253D01*
X851664Y514129D01*
Y515036D01*
X851429Y515912D01*
X850975Y516698D01*
X850334Y517339D01*
X849549Y517793D01*
X848672Y518027D01*
D02*
G37*
G36*
X838672D02*
X837765D01*
X836889Y517793D01*
X836104Y517339D01*
X835462Y516698D01*
X835009Y515912D01*
X834774Y515036D01*
Y514129D01*
X835009Y513253D01*
X835462Y512467D01*
X836104Y511826D01*
X836889Y511372D01*
X837765Y511138D01*
X838672D01*
X839548Y511372D01*
X840334Y511826D01*
X840975Y512467D01*
X841429Y513253D01*
X841664Y514129D01*
Y515036D01*
X841429Y515912D01*
X840975Y516698D01*
X840334Y517339D01*
X839548Y517793D01*
X838672Y518027D01*
D02*
G37*
G36*
X930376Y513761D02*
X929006D01*
Y511068D01*
X933502D01*
X933459Y511395D01*
X933141Y512165D01*
X932633Y512826D01*
X931972Y513333D01*
X931202Y513652D01*
X930376Y513761D01*
D02*
G37*
G36*
X928006D02*
X926635D01*
X925809Y513652D01*
X925039Y513333D01*
X924378Y512826D01*
X923871Y512165D01*
X923552Y511395D01*
X923509Y511068D01*
X928006D01*
Y513761D01*
D02*
G37*
G36*
X884909Y514132D02*
X884282D01*
X883703Y513893D01*
X883260Y513450D01*
X883020Y512871D01*
Y512244D01*
X883260Y511666D01*
X883703Y511223D01*
X884282Y510983D01*
X884909D01*
X885487Y511223D01*
X885930Y511666D01*
X886170Y512244D01*
Y512871D01*
X885930Y513450D01*
X885487Y513893D01*
X884909Y514132D01*
D02*
G37*
G36*
X897001Y509966D02*
X896374D01*
X895796Y509726D01*
X895352Y509283D01*
X895113Y508705D01*
Y508078D01*
X895352Y507499D01*
X895796Y507056D01*
X896374Y506817D01*
X897001D01*
X897580Y507056D01*
X898023Y507499D01*
X898262Y508078D01*
Y508705D01*
X898023Y509283D01*
X897580Y509726D01*
X897001Y509966D01*
D02*
G37*
G36*
X910098Y503881D02*
X909471D01*
X908892Y503641D01*
X908449Y503198D01*
X908210Y502619D01*
Y501993D01*
X908449Y501414D01*
X908892Y500971D01*
X909471Y500731D01*
X910098D01*
X910676Y500971D01*
X911119Y501414D01*
X911359Y501993D01*
Y502619D01*
X911119Y503198D01*
X910676Y503641D01*
X910098Y503881D01*
D02*
G37*
G36*
X898358Y498977D02*
X897732D01*
X897153Y498737D01*
X896710Y498294D01*
X896470Y497715D01*
Y497088D01*
X896710Y496510D01*
X897153Y496067D01*
X897732Y495827D01*
X898358D01*
X898937Y496067D01*
X899380Y496510D01*
X899620Y497088D01*
Y497715D01*
X899380Y498294D01*
X898937Y498737D01*
X898358Y498977D01*
D02*
G37*
G36*
X911004Y497498D02*
X910377D01*
X909799Y497258D01*
X909356Y496815D01*
X909116Y496236D01*
Y495610D01*
X909356Y495031D01*
X909799Y494588D01*
X910377Y494348D01*
X911004D01*
X911583Y494588D01*
X912026Y495031D01*
X912265Y495610D01*
Y496236D01*
X912026Y496815D01*
X911583Y497258D01*
X911004Y497498D01*
D02*
G37*
G36*
X802764Y501100D02*
X795796D01*
Y494131D01*
X802764D01*
Y501100D01*
D02*
G37*
G36*
X843868Y495857D02*
X843242D01*
X842663Y495617D01*
X842220Y495175D01*
X841980Y494596D01*
Y493969D01*
X842220Y493390D01*
X842663Y492947D01*
X843242Y492708D01*
X843868D01*
X844447Y492947D01*
X844890Y493390D01*
X845130Y493969D01*
Y494596D01*
X844890Y495175D01*
X844447Y495617D01*
X843868Y495857D01*
D02*
G37*
G36*
X799819Y491706D02*
X799780D01*
Y488116D01*
X803370D01*
Y488154D01*
X803092Y489194D01*
X802553Y490127D01*
X801792Y490889D01*
X800859Y491427D01*
X799819Y491706D01*
D02*
G37*
G36*
X798780D02*
X798741D01*
X797701Y491427D01*
X796768Y490889D01*
X796007Y490127D01*
X795468Y489194D01*
X795189Y488154D01*
Y488116D01*
X798780D01*
Y491706D01*
D02*
G37*
G36*
X880919Y491002D02*
X880292D01*
X879714Y490762D01*
X879270Y490319D01*
X879031Y489740D01*
Y489113D01*
X879270Y488535D01*
X879714Y488092D01*
X880292Y487852D01*
X880919D01*
X881498Y488092D01*
X881941Y488535D01*
X882180Y489113D01*
Y489740D01*
X881941Y490319D01*
X881498Y490762D01*
X880919Y491002D01*
D02*
G37*
G36*
X910807Y492970D02*
X910180D01*
X909602Y492730D01*
X909159Y492287D01*
X908919Y491708D01*
Y491082D01*
X909159Y490503D01*
X909602Y490060D01*
X909772Y489990D01*
Y489564D01*
X909661Y489517D01*
X909217Y489074D01*
X908978Y488495D01*
Y487869D01*
X909217Y487290D01*
X909661Y486847D01*
X910239Y486607D01*
X910866D01*
X911445Y486847D01*
X911888Y487290D01*
X912127Y487869D01*
Y488495D01*
X911888Y489074D01*
X911445Y489517D01*
X911274Y489588D01*
Y490014D01*
X911386Y490060D01*
X911829Y490503D01*
X912069Y491082D01*
Y491708D01*
X911829Y492287D01*
X911386Y492730D01*
X910807Y492970D01*
D02*
G37*
G36*
X904028Y489757D02*
X903401D01*
X902823Y489517D01*
X902380Y489074D01*
X902140Y488495D01*
Y487869D01*
X902380Y487290D01*
X902823Y486847D01*
X903401Y486607D01*
X904028D01*
X904607Y486847D01*
X905050Y487290D01*
X905290Y487869D01*
Y488495D01*
X905050Y489074D01*
X904607Y489517D01*
X904028Y489757D01*
D02*
G37*
G36*
X803370Y487116D02*
X799780D01*
Y483525D01*
X799819D01*
X800859Y483804D01*
X801792Y484342D01*
X802553Y485104D01*
X803092Y486037D01*
X803370Y487077D01*
Y487116D01*
D02*
G37*
G36*
X798780D02*
X795189D01*
Y487077D01*
X795468Y486037D01*
X796007Y485104D01*
X796768Y484342D01*
X797701Y483804D01*
X798741Y483525D01*
X798780D01*
Y487116D01*
D02*
G37*
G36*
X909853Y485096D02*
X909227D01*
X908648Y484856D01*
X908205Y484413D01*
X907965Y483834D01*
Y483208D01*
X908205Y482629D01*
X908648Y482186D01*
X909227Y481946D01*
X909853D01*
X910432Y482186D01*
X910875Y482629D01*
X911115Y483208D01*
Y483834D01*
X910875Y484413D01*
X910432Y484856D01*
X909853Y485096D01*
D02*
G37*
G36*
X933502Y510068D02*
X928506D01*
X923509D01*
X923552Y509742D01*
X923871Y508972D01*
X924378Y508311D01*
X924574Y508161D01*
X924440Y507767D01*
X918249D01*
X917947Y507642D01*
X917823Y507341D01*
Y478207D01*
X917947Y477906D01*
X918249Y477781D01*
X924442D01*
X924576Y477387D01*
X924378Y477235D01*
X923871Y476574D01*
X923552Y475804D01*
X923509Y475478D01*
X928506D01*
X933502D01*
X933459Y475804D01*
X933141Y476574D01*
X932633Y477235D01*
X932435Y477387D01*
X932569Y477781D01*
X935965D01*
X936267Y477906D01*
X936392Y478207D01*
Y507341D01*
X936267Y507642D01*
X935965Y507767D01*
X932571D01*
X932438Y508161D01*
X932633Y508311D01*
X933141Y508972D01*
X933459Y509742D01*
X933502Y510068D01*
D02*
G37*
G36*
X839865Y478126D02*
X839238D01*
X838659Y477886D01*
X838216Y477443D01*
X837976Y476864D01*
Y476238D01*
X838216Y475659D01*
X838659Y475216D01*
X839238Y474976D01*
X839865D01*
X840443Y475216D01*
X840886Y475659D01*
X841126Y476238D01*
Y476864D01*
X840886Y477443D01*
X840443Y477886D01*
X839865Y478126D01*
D02*
G37*
G36*
X844714Y480306D02*
X844087D01*
X843508Y480066D01*
X843065Y479623D01*
X842826Y479044D01*
Y478418D01*
X843065Y477839D01*
X843179Y477725D01*
X843175Y477603D01*
X843060Y477288D01*
X842588Y477092D01*
X842145Y476649D01*
X841905Y476070D01*
Y475444D01*
X842145Y474865D01*
X842588Y474422D01*
X843167Y474182D01*
X843793D01*
X844372Y474422D01*
X844815Y474865D01*
X845055Y475444D01*
Y476070D01*
X844815Y476649D01*
X844701Y476763D01*
X844705Y476885D01*
X844820Y477201D01*
X845292Y477396D01*
X845735Y477839D01*
X845975Y478418D01*
Y479044D01*
X845735Y479623D01*
X845292Y480066D01*
X844714Y480306D01*
D02*
G37*
G36*
X799739Y481100D02*
X798821D01*
X797935Y480863D01*
X797141Y480404D01*
X796492Y479755D01*
X796033Y478961D01*
X795796Y478074D01*
Y477157D01*
X796033Y476271D01*
X796492Y475476D01*
X797141Y474827D01*
X797935Y474369D01*
X798821Y474131D01*
X799739D01*
X800625Y474369D01*
X801419Y474827D01*
X802068Y475476D01*
X802527Y476271D01*
X802764Y477157D01*
Y478074D01*
X802527Y478961D01*
X802068Y479755D01*
X801419Y480404D01*
X800625Y480863D01*
X799739Y481100D01*
D02*
G37*
G36*
X933502Y474478D02*
X929006D01*
Y471785D01*
X930376D01*
X931202Y471894D01*
X931972Y472213D01*
X932633Y472720D01*
X933141Y473382D01*
X933459Y474152D01*
X933502Y474478D01*
D02*
G37*
G36*
X928006D02*
X923509D01*
X923552Y474152D01*
X923871Y473382D01*
X924378Y472720D01*
X925039Y472213D01*
X925809Y471894D01*
X926433Y471812D01*
X926483Y471408D01*
X926000Y471208D01*
X925557Y470765D01*
X925317Y470187D01*
Y469560D01*
X925557Y468981D01*
X926000Y468538D01*
X926579Y468298D01*
X927205D01*
X927784Y468538D01*
X928227Y468981D01*
X928467Y469560D01*
Y470187D01*
X928227Y470765D01*
X927784Y471208D01*
X927342Y471391D01*
X927421Y471785D01*
X928006D01*
Y474478D01*
D02*
G37*
G36*
X834892Y470087D02*
X834265D01*
X833686Y469847D01*
X833243Y469405D01*
X833003Y468826D01*
Y468199D01*
X833243Y467620D01*
X833686Y467177D01*
X834265Y466938D01*
X834892D01*
X835470Y467177D01*
X835913Y467620D01*
X836153Y468199D01*
Y468826D01*
X835913Y469405D01*
X835470Y469847D01*
X834892Y470087D01*
D02*
G37*
G36*
X799739Y471100D02*
X798821D01*
X797935Y470862D01*
X797141Y470404D01*
X796492Y469755D01*
X796033Y468961D01*
X795796Y468074D01*
Y467157D01*
X796033Y466271D01*
X796492Y465476D01*
X797141Y464827D01*
X797935Y464369D01*
X798821Y464131D01*
X799739D01*
X800625Y464369D01*
X801419Y464827D01*
X802068Y465476D01*
X802527Y466271D01*
X802764Y467157D01*
Y468074D01*
X802527Y468961D01*
X802068Y469755D01*
X801419Y470404D01*
X800625Y470862D01*
X799739Y471100D01*
D02*
G37*
G36*
X839233Y461876D02*
X832461D01*
Y455104D01*
X839233D01*
Y461876D01*
D02*
G37*
G36*
X826293D02*
X825401D01*
X824540Y461645D01*
X823768Y461200D01*
X823138Y460569D01*
X822692Y459797D01*
X822461Y458936D01*
Y458044D01*
X822692Y457183D01*
X823138Y456411D01*
X823768Y455781D01*
X824540Y455335D01*
X825401Y455104D01*
X826293D01*
X827154Y455335D01*
X827926Y455781D01*
X828556Y456411D01*
X829002Y457183D01*
X829233Y458044D01*
Y458936D01*
X829002Y459797D01*
X828556Y460569D01*
X827926Y461200D01*
X827154Y461645D01*
X826293Y461876D01*
D02*
G37*
G36*
X799739Y461100D02*
X798821D01*
X797935Y460862D01*
X797141Y460404D01*
X796492Y459755D01*
X796033Y458960D01*
X795796Y458074D01*
Y457157D01*
X796033Y456271D01*
X796492Y455476D01*
X797141Y454827D01*
X797935Y454369D01*
X798821Y454131D01*
X799739D01*
X800625Y454369D01*
X801419Y454827D01*
X802068Y455476D01*
X802527Y456271D01*
X802764Y457157D01*
Y458074D01*
X802527Y458960D01*
X802068Y459755D01*
X801419Y460404D01*
X800625Y460862D01*
X799739Y461100D01*
D02*
G37*
G36*
X893253Y454763D02*
X892627D01*
X892048Y454524D01*
X891605Y454080D01*
X891365Y453502D01*
Y452875D01*
X891605Y452296D01*
X892048Y451853D01*
X892627Y451614D01*
X893253D01*
X893832Y451853D01*
X894275Y452296D01*
X894515Y452875D01*
Y453502D01*
X894275Y454080D01*
X893832Y454524D01*
X893253Y454763D01*
D02*
G37*
G36*
X826373Y452482D02*
X826347D01*
Y448990D01*
X829839D01*
Y449016D01*
X829567Y450031D01*
X829042Y450941D01*
X828298Y451685D01*
X827388Y452210D01*
X826373Y452482D01*
D02*
G37*
G36*
X825347D02*
X825321D01*
X824306Y452210D01*
X823396Y451685D01*
X822653Y450941D01*
X822127Y450031D01*
X821855Y449016D01*
Y448990D01*
X825347D01*
Y452482D01*
D02*
G37*
G36*
X836293Y451876D02*
X835401D01*
X834540Y451645D01*
X833768Y451199D01*
X833138Y450569D01*
X832692Y449797D01*
X832461Y448936D01*
Y448044D01*
X832692Y447183D01*
X833138Y446411D01*
X833768Y445781D01*
X834540Y445335D01*
X835401Y445104D01*
X836293D01*
X837154Y445335D01*
X837926Y445781D01*
X838556Y446411D01*
X839002Y447183D01*
X839233Y448044D01*
Y448936D01*
X839002Y449797D01*
X838556Y450569D01*
X837926Y451199D01*
X837154Y451645D01*
X836293Y451876D01*
D02*
G37*
G36*
X829839Y447990D02*
X826347D01*
Y444498D01*
X826373D01*
X827388Y444770D01*
X828298Y445296D01*
X829042Y446039D01*
X829567Y446949D01*
X829839Y447965D01*
Y447990D01*
D02*
G37*
G36*
X825347D02*
X821855D01*
Y447965D01*
X822127Y446949D01*
X822653Y446039D01*
X823396Y445296D01*
X824306Y444770D01*
X825321Y444498D01*
X825347D01*
Y447990D01*
D02*
G37*
G36*
X866601Y446355D02*
X865975D01*
X865396Y446115D01*
X864953Y445672D01*
X864713Y445093D01*
Y444467D01*
X864953Y443888D01*
X865396Y443445D01*
X865975Y443205D01*
X866601D01*
X867180Y443445D01*
X867623Y443888D01*
X867863Y444467D01*
Y445093D01*
X867623Y445672D01*
X867180Y446115D01*
X866601Y446355D01*
D02*
G37*
%LPD*%
D17*
X857831Y549708D02*
X861163D01*
X861830Y550375D01*
Y551708D01*
X861163Y552374D01*
X857831D01*
X861830Y555706D02*
X857831D01*
X859830Y553707D01*
Y556373D01*
D61*
X893572Y545708D02*
D03*
X799270Y558555D02*
D03*
Y597688D02*
D03*
X799280Y487616D02*
D03*
X799270Y516700D02*
D03*
D64*
X825847Y448490D02*
D03*
D65*
X928506Y510568D02*
D03*
Y474978D02*
D03*
D86*
X872731Y537539D02*
D03*
D87*
X763145Y633545D02*
D03*
Y656655D02*
D03*
X786255Y633545D02*
D03*
Y656655D02*
D03*
D90*
X942508Y454316D02*
D03*
X824182Y580983D02*
D03*
X808847Y522829D02*
D03*
X835494Y545866D02*
D03*
X937008Y653544D02*
D03*
X940945Y645670D02*
D03*
X937008Y637796D02*
D03*
X940945Y629922D02*
D03*
Y614174D02*
D03*
Y598425D02*
D03*
X937008Y574803D02*
D03*
X940945Y566929D02*
D03*
X937008Y559055D02*
D03*
X940945Y551181D02*
D03*
X937008Y543307D02*
D03*
X940945Y535433D02*
D03*
X937008Y511811D02*
D03*
X940945Y503937D02*
D03*
Y488189D02*
D03*
Y472441D02*
D03*
Y456693D02*
D03*
X933071Y645670D02*
D03*
Y629922D02*
D03*
X929134Y574803D02*
D03*
X933071Y566929D02*
D03*
X929134Y559055D02*
D03*
X933071Y551181D02*
D03*
X929134Y543307D02*
D03*
X933071Y535433D02*
D03*
X925197Y645670D02*
D03*
X921260Y637796D02*
D03*
X925197Y629922D02*
D03*
X921260Y622048D02*
D03*
Y574803D02*
D03*
X925197Y566929D02*
D03*
X921260Y559055D02*
D03*
X925197Y551181D02*
D03*
X921260Y543307D02*
D03*
X925197Y535433D02*
D03*
X917323Y645670D02*
D03*
X913386Y637796D02*
D03*
X917323Y629922D02*
D03*
X913386Y622048D02*
D03*
X917323Y614174D02*
D03*
X913386Y574803D02*
D03*
X917323Y566929D02*
D03*
X913386Y559055D02*
D03*
X917323Y551181D02*
D03*
X913386Y543307D02*
D03*
X917323Y535433D02*
D03*
Y519685D02*
D03*
X913386Y464567D02*
D03*
X909449Y645670D02*
D03*
X905512Y637796D02*
D03*
X909449Y629922D02*
D03*
X905512Y622048D02*
D03*
X909449Y582678D02*
D03*
X905512Y574803D02*
D03*
X909449Y566929D02*
D03*
X905512Y559055D02*
D03*
X909449Y551181D02*
D03*
X905512Y543307D02*
D03*
X909449Y535433D02*
D03*
X905512Y464567D02*
D03*
X897638Y653544D02*
D03*
X901575Y645670D02*
D03*
X897638Y637796D02*
D03*
X901575Y629922D02*
D03*
Y614174D02*
D03*
Y566929D02*
D03*
X897638Y559055D02*
D03*
X901575Y551181D02*
D03*
Y535433D02*
D03*
X889764Y653544D02*
D03*
X893701Y645670D02*
D03*
X889764Y559055D02*
D03*
X885827Y645670D02*
D03*
Y566929D02*
D03*
X877953D02*
D03*
X842520Y448819D02*
D03*
X818898D02*
D03*
X811024Y653544D02*
D03*
X814961Y645670D02*
D03*
X811024Y637796D02*
D03*
Y622048D02*
D03*
Y448819D02*
D03*
X803150Y653544D02*
D03*
X807087Y645670D02*
D03*
X803150Y637796D02*
D03*
X807087Y582678D02*
D03*
X803150Y448819D02*
D03*
X795276Y653544D02*
D03*
X799213Y645670D02*
D03*
X795276Y590552D02*
D03*
Y448819D02*
D03*
X791339Y645670D02*
D03*
X787402Y622048D02*
D03*
Y606299D02*
D03*
Y590552D02*
D03*
Y574803D02*
D03*
Y559055D02*
D03*
Y448819D02*
D03*
X783465Y645670D02*
D03*
X779528Y622048D02*
D03*
X783465Y614174D02*
D03*
X779528Y606299D02*
D03*
X783465Y598425D02*
D03*
X779528Y590552D02*
D03*
X783465Y582678D02*
D03*
X779528Y574803D02*
D03*
X783465Y566929D02*
D03*
X779528Y559055D02*
D03*
X783465Y551181D02*
D03*
X779528Y543307D02*
D03*
X783465Y535433D02*
D03*
X779528Y527559D02*
D03*
X783465Y519685D02*
D03*
X779528Y511811D02*
D03*
X783465Y503937D02*
D03*
X779528Y496063D02*
D03*
X783465Y488189D02*
D03*
X779528Y480315D02*
D03*
X783465Y472441D02*
D03*
X779528Y464567D02*
D03*
X783465Y456693D02*
D03*
X779528Y448819D02*
D03*
X771654Y653544D02*
D03*
Y637796D02*
D03*
X775591Y629922D02*
D03*
X771654Y622048D02*
D03*
X775591Y614174D02*
D03*
X771654Y606299D02*
D03*
X775591Y598425D02*
D03*
X771654Y590552D02*
D03*
X775591Y582678D02*
D03*
X771654Y574803D02*
D03*
X775591Y566929D02*
D03*
X771654Y559055D02*
D03*
X775591Y551181D02*
D03*
X771654Y543307D02*
D03*
X775591Y535433D02*
D03*
X771654Y527559D02*
D03*
X775591Y519685D02*
D03*
X771654Y511811D02*
D03*
X775591Y503937D02*
D03*
X771654Y496063D02*
D03*
X775591Y488189D02*
D03*
X771654Y480315D02*
D03*
X775591Y472441D02*
D03*
X771654Y464567D02*
D03*
X775591Y456693D02*
D03*
X771654Y448819D02*
D03*
X763780Y622048D02*
D03*
X767717Y614174D02*
D03*
X763780Y606299D02*
D03*
X767717Y598425D02*
D03*
X763780Y590552D02*
D03*
X767717Y582678D02*
D03*
X763780Y574803D02*
D03*
X767717Y566929D02*
D03*
X763780Y559055D02*
D03*
X767717Y551181D02*
D03*
X763780Y543307D02*
D03*
X767717Y535433D02*
D03*
X763780Y527559D02*
D03*
X767717Y519685D02*
D03*
X763780Y511811D02*
D03*
X767717Y503937D02*
D03*
X763780Y496063D02*
D03*
X767717Y488189D02*
D03*
X763780Y480315D02*
D03*
X767717Y472441D02*
D03*
X763780Y464567D02*
D03*
X767717Y456693D02*
D03*
X763780Y448819D02*
D03*
X759843Y645670D02*
D03*
X755906Y622048D02*
D03*
X759843Y614174D02*
D03*
X755906Y606299D02*
D03*
X759843Y598425D02*
D03*
X755906Y590552D02*
D03*
X759843Y582678D02*
D03*
X755906Y574803D02*
D03*
X759843Y566929D02*
D03*
X755906Y559055D02*
D03*
X759843Y551181D02*
D03*
X755906Y543307D02*
D03*
X759843Y535433D02*
D03*
X755906Y527559D02*
D03*
X759843Y519685D02*
D03*
X755906Y511811D02*
D03*
X759843Y503937D02*
D03*
X755906Y496063D02*
D03*
X759843Y488189D02*
D03*
X755906Y480315D02*
D03*
X759843Y472441D02*
D03*
X755906Y464567D02*
D03*
X759843Y456693D02*
D03*
X755906Y448819D02*
D03*
X920965Y444014D02*
D03*
X862208Y574131D02*
D03*
X856270Y618131D02*
D03*
X860829Y623984D02*
D03*
X856447D02*
D03*
X829826Y622998D02*
D03*
X853485Y532004D02*
D03*
X810629Y537581D02*
D03*
X913504Y518828D02*
D03*
X910203Y474912D02*
D03*
Y480109D02*
D03*
X925809Y601911D02*
D03*
Y608017D02*
D03*
X917426Y602892D02*
D03*
Y608149D02*
D03*
X910214Y602951D02*
D03*
Y608017D02*
D03*
X828001Y524831D02*
D03*
X822239Y596510D02*
D03*
X829427Y597777D02*
D03*
X808580Y609317D02*
D03*
X842369Y573535D02*
D03*
X847600D02*
D03*
Y576502D02*
D03*
X842298D02*
D03*
X840142Y604856D02*
D03*
X839941Y608622D02*
D03*
X840574Y494445D02*
D03*
X834709Y471809D02*
D03*
X833469Y492226D02*
D03*
X902177Y492573D02*
D03*
X852221Y444780D02*
D03*
X880147Y444758D02*
D03*
X904182Y448416D02*
D03*
M02*
