G04*
G04 #@! TF.GenerationSoftware,Altium Limited,Altium Designer,24.0.1 (36)*
G04*
G04 Layer_Color=255*
%FSLAX25Y25*%
%MOIN*%
G70*
G04*
G04 #@! TF.SameCoordinates,4AE72286-74C0-4861-BAE4-8600210459B3*
G04*
G04*
G04 #@! TF.FilePolarity,Positive*
G04*
G01*
G75*
%ADD17C,0.00700*%
%ADD61C,0.06181*%
%ADD62R,0.06181X0.06181*%
%ADD64C,0.05984*%
G04:AMPARAMS|DCode=65|XSize=43.31mil|YSize=80.71mil|CornerRadius=21.65mil|HoleSize=0mil|Usage=FLASHONLY|Rotation=90.000|XOffset=0mil|YOffset=0mil|HoleType=Round|Shape=RoundedRectangle|*
%AMROUNDEDRECTD65*
21,1,0.04331,0.03740,0,0,90.0*
21,1,0.00000,0.08071,0,0,90.0*
1,1,0.04331,0.01870,0.00000*
1,1,0.04331,0.01870,0.00000*
1,1,0.04331,-0.01870,0.00000*
1,1,0.04331,-0.01870,0.00000*
%
%ADD65ROUNDEDRECTD65*%
%ADD66R,0.05984X0.05984*%
%ADD85C,0.06102*%
%ADD86R,0.06102X0.06102*%
%ADD87C,0.12598*%
%ADD88C,0.07087*%
%ADD89R,0.06102X0.06102*%
G04:AMPARAMS|DCode=91|XSize=43.31mil|YSize=64.96mil|CornerRadius=21.65mil|HoleSize=0mil|Usage=FLASHONLY|Rotation=90.000|XOffset=0mil|YOffset=0mil|HoleType=Round|Shape=RoundedRectangle|*
%AMROUNDEDRECTD91*
21,1,0.04331,0.02165,0,0,90.0*
21,1,0.00000,0.06496,0,0,90.0*
1,1,0.04331,0.01083,0.00000*
1,1,0.04331,0.01083,0.00000*
1,1,0.04331,-0.01083,0.00000*
1,1,0.04331,-0.01083,0.00000*
%
%ADD91ROUNDEDRECTD91*%
D17*
X857831Y549708D02*
X861163D01*
X861830Y550375D01*
Y551708D01*
X861163Y552374D01*
X857831D01*
X861830Y555706D02*
X857831D01*
X859830Y553707D01*
Y556373D01*
D61*
X893572Y555708D02*
D03*
Y545708D02*
D03*
Y565708D02*
D03*
Y575708D02*
D03*
X799270Y558555D02*
D03*
Y568555D02*
D03*
Y607688D02*
D03*
Y597688D02*
D03*
X799280Y477616D02*
D03*
X799270Y526700D02*
D03*
X799280Y487616D02*
D03*
X799270Y516700D02*
D03*
X799280Y467616D02*
D03*
Y457616D02*
D03*
D62*
X893572Y535708D02*
D03*
X799270Y578555D02*
D03*
Y617688D02*
D03*
Y536700D02*
D03*
X799280Y497616D02*
D03*
D64*
X835847Y448490D02*
D03*
X825847Y458490D02*
D03*
Y448490D02*
D03*
D65*
X928506Y510568D02*
D03*
Y474978D02*
D03*
D66*
X835847Y458490D02*
D03*
D85*
X872731Y577539D02*
D03*
Y567539D02*
D03*
Y557539D02*
D03*
Y547539D02*
D03*
X848219Y514582D02*
D03*
X838219D02*
D03*
D86*
X872731Y537539D02*
D03*
D87*
X774700Y645100D02*
D03*
X763145Y633545D02*
D03*
Y656655D02*
D03*
X786255Y633545D02*
D03*
Y656655D02*
D03*
X838745Y657555D02*
D03*
X861855D02*
D03*
X838745Y634445D02*
D03*
X861855D02*
D03*
X850300Y646000D02*
D03*
D88*
X930169Y639575D02*
D03*
Y619890D02*
D03*
D89*
X858219Y514582D02*
D03*
D91*
X916695Y510568D02*
D03*
Y474978D02*
D03*
M02*
