%FSTAX23Y23*%
%MOIN*%
%SFA1B1*%

%IPPOS*%
%AMD19*
4,1,8,0.017200,-0.002600,0.017200,0.002600,0.000000,0.019800,0.000000,0.019800,-0.017200,0.002600,-0.017200,-0.002600,0.000000,-0.019800,0.000000,-0.019800,0.017200,-0.002600,0.0*
1,1,0.034340,0.000000,-0.002600*
1,1,0.034340,0.000000,0.002600*
1,1,0.034340,0.000000,0.002600*
1,1,0.034340,0.000000,-0.002600*
%
%AMD20*
4,1,8,0.062600,-0.002600,0.062600,0.002600,0.045400,0.019800,-0.045400,0.019800,-0.062600,0.002600,-0.062600,-0.002600,-0.045400,-0.019800,0.045400,-0.019800,0.062600,-0.002600,0.0*
1,1,0.034400,0.045400,-0.002600*
1,1,0.034400,0.045400,0.002600*
1,1,0.034400,-0.045400,0.002600*
1,1,0.034400,-0.045400,-0.002600*
%
%AMD64*
4,1,8,-0.040400,0.000000,-0.040400,0.000000,-0.018700,-0.021700,0.018700,-0.021700,0.040400,0.000000,0.040400,0.000000,0.018700,0.021700,-0.018700,0.021700,-0.040400,0.000000,0.0*
1,1,0.043300,-0.018700,0.000000*
1,1,0.043300,-0.018700,0.000000*
1,1,0.043300,0.018700,0.000000*
1,1,0.043300,0.018700,0.000000*
%
%AMD66*
4,1,8,-0.006900,-0.027600,0.006900,-0.027600,0.008900,-0.025600,0.008900,0.025600,0.006900,0.027600,-0.006900,0.027600,-0.008900,0.025600,-0.008900,-0.025600,-0.006900,-0.027600,0.0*
1,1,0.003900,-0.006900,-0.025600*
1,1,0.003900,0.006900,-0.025600*
1,1,0.003900,0.006900,0.025600*
1,1,0.003900,-0.006900,0.025600*
%
%ADD18R,0.034340X0.039540*%
G04~CAMADD=19~8~0.0~0.0~395.4~343.4~171.7~0.0~15~0.0~0.0~0.0~0.0~0~0.0~0.0~0.0~0.0~0~0.0~0.0~0.0~270.0~344.0~395.0*
%ADD19D19*%
G04~CAMADD=20~8~0.0~0.0~395.4~1252.8~172.0~0.0~15~0.0~0.0~0.0~0.0~0~0.0~0.0~0.0~0.0~0~0.0~0.0~0.0~270.0~1254.0~395.0*
%ADD20D20*%
%ADD24R,0.061210X0.075050*%
%ADD31R,0.020290X0.018600*%
%ADD32R,0.029850X0.031970*%
%ADD36R,0.039370X0.011810*%
%ADD38R,0.039850X0.045600*%
%ADD40R,0.018600X0.020290*%
%ADD41R,0.032480X0.009840*%
%ADD43R,0.026570X0.009840*%
%ADD44R,0.009840X0.032480*%
%ADD45R,0.031970X0.029850*%
%ADD47R,0.015750X0.042320*%
%ADD48R,0.117130X0.013780*%
%ADD49C,0.035430*%
%ADD60C,0.061810*%
%ADD61R,0.061810X0.061810*%
%ADD63C,0.059840*%
G04~CAMADD=64~8~0.0~0.0~433.1~807.1~216.5~0.0~15~0.0~0.0~0.0~0.0~0~0.0~0.0~0.0~0.0~0~0.0~0.0~0.0~90.0~808.0~434.0*
%ADD64D64*%
%ADD65R,0.059840X0.059840*%
G04~CAMADD=66~8~0.0~0.0~177.2~551.2~19.5~0.0~15~0.0~0.0~0.0~0.0~0~0.0~0.0~0.0~0.0~0~0.0~0.0~0.0~180.0~178.0~552.0*
%ADD66D66*%
%ADD67O,0.011810X0.062990*%
%ADD68O,0.062990X0.011810*%
%ADD69R,0.039370X0.035430*%
%ADD70R,0.275590X0.157480*%
%ADD71R,0.157480X0.098430*%
%ADD72R,0.035430X0.039370*%
%ADD73R,0.074800X0.110240*%
%ADD74R,0.033470X0.037400*%
%ADD75R,0.031500X0.031500*%
%ADD76R,0.031500X0.035430*%
%ADD77R,0.035430X0.031500*%
%ADD78R,0.078740X0.216540*%
%ADD79R,0.047240X0.064960*%
%ADD80R,0.037400X0.033470*%
%ADD81R,0.009840X0.009840*%
%ADD82R,0.031500X0.031500*%
%ADD83C,0.061020*%
%ADD84R,0.061020X0.061020*%
%ADD85C,0.125980*%
%ADD86C,0.070870*%
%ADD87R,0.061020X0.061020*%
%LNpcb1-1*%
%LPD*%
G54D18*
X00849Y01246D03*
G54D19*
X00758Y01246D03*
X00668D03*
G54D20*
X00758Y00987D03*
G54D24*
X00922Y01753D03*
X01039D03*
X00957Y01421D03*
X00841D03*
G54D31*
X01158Y00019D03*
X01128D03*
X01536Y00103D03*
X01268Y00019D03*
X00941Y00464D03*
X01507Y00103D03*
X01238Y00019D03*
X00971Y00464D03*
G54D32*
X00992Y00569D03*
X00943D03*
X01482Y00019D03*
X01531D03*
G54D36*
X01687Y0053D03*
Y0049D03*
Y00648D03*
Y00628D03*
Y00372D03*
Y00353D03*
Y0051D03*
Y00471D03*
Y00451D03*
Y00569D03*
Y00589D03*
Y00412D03*
Y00609D03*
Y00392D03*
Y00431D03*
Y00549D03*
G54D38*
X00656Y01622D03*
Y01559D03*
G54D40*
X01067Y00618D03*
X00941Y00285D03*
X01067Y00588D03*
X00941Y00255D03*
G54D41*
X00796Y01571D03*
G54D43*
X00793Y01551D03*
Y0159D03*
G54D44*
X00836Y0151D03*
X00816D03*
Y01631D03*
X00856Y0151D03*
X00836Y01631D03*
X00856D03*
G54D45*
X01569Y00548D03*
Y00598D03*
G54D47*
X00898Y01515D03*
Y01626D03*
G54D48*
X00914Y01571D03*
G54D49*
X01702Y0068D03*
Y0032D03*
G54D60*
X01471Y0113D03*
Y0103D03*
Y0123D03*
Y0133D03*
X00528Y01158D03*
Y01258D03*
Y01649D03*
Y01549D03*
X00528Y00349D03*
X00528Y0084D03*
X00528Y00449D03*
X00528Y0074D03*
X00528Y00249D03*
Y00149D03*
G54D61*
X01471Y0093D03*
X00528Y01358D03*
Y01749D03*
Y0094D03*
X00528Y00549D03*
G54D63*
X00894Y00057D03*
X00794Y00157D03*
Y00057D03*
G54D64*
X01821Y00678D03*
Y00322D03*
G54D65*
X00894Y00157D03*
G54D66*
X01095Y01013D03*
X01172D03*
X01147Y01246D03*
Y01013D03*
X01095Y01246D03*
X01121D03*
Y01013D03*
X01172Y01246D03*
G54D67*
X01361Y00567D03*
X01381Y0011D03*
X01125D03*
X01401D03*
X01145Y00567D03*
Y0011D03*
X01381Y00567D03*
X01223D03*
X01322D03*
X0142D03*
Y0011D03*
X01164D03*
X01125Y00567D03*
X01204D03*
X01243D03*
X01342D03*
X01184Y0011D03*
X01204D03*
X01223D03*
X01243D03*
X01263D03*
X01283D03*
X01302D03*
X01322D03*
X01342D03*
X01361D03*
X01401Y00567D03*
X01302D03*
X01283D03*
X01263D03*
X01184D03*
X01164D03*
G54D68*
X01501Y00447D03*
X01044Y00349D03*
X01501Y00309D03*
X01044Y00408D03*
X01501D03*
X01044Y00211D03*
Y00309D03*
Y00191D03*
X01501Y00467D03*
X01044Y0027D03*
X01501Y00329D03*
X01044Y00368D03*
Y00388D03*
X01501Y00427D03*
X01044Y00231D03*
X01501Y00486D03*
X01044D03*
Y0025D03*
X01501Y00349D03*
Y00368D03*
X01044Y0029D03*
Y00467D03*
Y00447D03*
Y00427D03*
Y00329D03*
X01501Y00191D03*
Y00211D03*
Y00231D03*
Y0025D03*
Y0027D03*
Y0029D03*
Y00388D03*
G54D69*
X00833Y01748D03*
Y01801D03*
X0095Y01188D03*
Y01241D03*
X00936Y00987D03*
Y0104D03*
X01026Y01188D03*
Y01241D03*
X0087Y00601D03*
X00738Y01613D03*
X0087Y00548D03*
X00871Y00438D03*
Y00385D03*
X00738Y01666D03*
X00762Y01748D03*
Y01801D03*
G54D70*
X01709Y01614D03*
Y02126D03*
G54D71*
X01365Y01893D03*
G54D72*
X00675Y01721D03*
X00622D03*
X01155Y01733D03*
X00894Y01318D03*
X00658Y009D03*
X00712D03*
X01208Y01733D03*
X00841Y01318D03*
G54D73*
X01047Y01571D03*
X01209D03*
G54D74*
X0164Y00039D03*
X01692D03*
X0112Y00809D03*
X01069D03*
X00917Y0082D03*
X00865D03*
X01905Y00166D03*
X01122Y00919D03*
X01749Y00759D03*
X01867Y00027D03*
X01902Y00096D03*
X01854Y00166D03*
Y0024D03*
X00737Y01362D03*
X00686D03*
X00684Y01439D03*
X00633D03*
X018Y00759D03*
X01816Y00027D03*
X0185Y00096D03*
X01905Y0024D03*
X01174Y00919D03*
G54D75*
X01707Y00196D03*
Y00137D03*
X01632Y00196D03*
Y00137D03*
X01774Y00196D03*
Y00137D03*
G54D76*
X00518Y01846D03*
Y01913D03*
G54D77*
X00615Y01846D03*
X00682D03*
G54D78*
X00722Y00735D03*
Y00361D03*
G54D79*
X01611Y01467D03*
X01721D03*
G54D80*
X0161Y00709D03*
X01591Y00314D03*
X0161Y00658D03*
X01591Y00366D03*
G54D81*
X00951Y01625D03*
Y01516D03*
X00791Y01515D03*
Y01626D03*
G54D82*
X01925Y00759D03*
X01902Y01467D03*
X01866Y00759D03*
X01843Y01467D03*
G54D83*
X01263Y01348D03*
Y01248D03*
Y01148D03*
Y01048D03*
X01018Y00718D03*
X00918D03*
G54D84*
X01263Y00948D03*
G54D85*
X00283Y02024D03*
X00167Y01908D03*
Y02139D03*
X00398Y01908D03*
Y02139D03*
X00923Y02148D03*
X01154D03*
X00923Y01917D03*
X01154D03*
X01039Y02033D03*
G54D86*
X01837Y01968D03*
Y01771D03*
G54D87*
X01118Y00718D03*
M02*