%FSTAX23Y23*%
%MOIN*%
%SFA1B1*%

%IPPOS*%
%AMD17*
4,1,8,-0.006900,-0.037600,0.006900,-0.037600,0.018900,-0.025600,0.018900,0.025600,0.006900,0.037600,-0.006900,0.037600,-0.018900,0.025600,-0.018900,-0.025600,-0.006900,-0.037600,0.0*
1,1,0.023900,-0.006900,-0.025600*
1,1,0.023900,0.006900,-0.025600*
1,1,0.023900,0.006900,0.025600*
1,1,0.023900,-0.006900,0.025600*
%
%AMD19*
4,1,8,0.017200,-0.002600,0.017200,0.002600,0.000000,0.019800,0.000000,0.019800,-0.017200,0.002600,-0.017200,-0.002600,0.000000,-0.019800,0.000000,-0.019800,0.017200,-0.002600,0.0*
1,1,0.034340,0.000000,-0.002600*
1,1,0.034340,0.000000,0.002600*
1,1,0.034340,0.000000,0.002600*
1,1,0.034340,0.000000,-0.002600*
%
%AMD20*
4,1,8,0.062600,-0.002600,0.062600,0.002600,0.045400,0.019800,-0.045400,0.019800,-0.062600,0.002600,-0.062600,-0.002600,-0.045400,-0.019800,0.045400,-0.019800,0.062600,-0.002600,0.0*
1,1,0.034400,0.045400,-0.002600*
1,1,0.034400,0.045400,0.002600*
1,1,0.034400,-0.045400,0.002600*
1,1,0.034400,-0.045400,-0.002600*
%
G04~CAMADD=17~8~0.0~0.0~377.2~751.2~119.5~0.0~15~0.0~0.0~0.0~0.0~0~0.0~0.0~0.0~0.0~0~0.0~0.0~0.0~180.0~378.0~752.0*
%ADD17D17*%
%ADD18R,0.034340X0.039540*%
G04~CAMADD=19~8~0.0~0.0~395.4~343.4~171.7~0.0~15~0.0~0.0~0.0~0.0~0~0.0~0.0~0.0~0.0~0~0.0~0.0~0.0~270.0~344.0~395.0*
%ADD19D19*%
G04~CAMADD=20~8~0.0~0.0~395.4~1252.8~172.0~0.0~15~0.0~0.0~0.0~0.0~0~0.0~0.0~0.0~0.0~0~0.0~0.0~0.0~270.0~1254.0~395.0*
%ADD20D20*%
%ADD21O,0.031810X0.082990*%
%ADD22O,0.082990X0.031810*%
%ADD23R,0.059370X0.055430*%
%ADD24R,0.061210X0.075050*%
%ADD25R,0.295590X0.177480*%
%ADD26R,0.177480X0.118430*%
%ADD27R,0.055430X0.059370*%
%ADD28R,0.094800X0.130240*%
%ADD29R,0.053470X0.057400*%
%ADD30R,0.051500X0.051500*%
%ADD31R,0.020290X0.018600*%
%ADD32R,0.029850X0.031970*%
%ADD33R,0.051500X0.055430*%
%ADD34R,0.055430X0.051500*%
%ADD35R,0.098740X0.236540*%
%ADD36R,0.039370X0.011810*%
%ADD37R,0.067240X0.084960*%
%ADD38R,0.039850X0.045600*%
%ADD39R,0.057400X0.053470*%
%ADD40R,0.018600X0.020290*%
%ADD41R,0.032480X0.009840*%
%ADD42R,0.001000X0.001000*%
%ADD43R,0.026570X0.009840*%
%ADD44R,0.009840X0.032480*%
%ADD45R,0.031970X0.029850*%
%ADD46R,0.051500X0.051500*%
%ADD47R,0.015750X0.042320*%
%ADD48R,0.117130X0.013780*%
%LNpcb1-1*%
%LPD*%
G36*
X00416Y02198D02*
X00427Y02193D01*
X00437Y02186*
X00445Y02178*
X00452Y02168*
X00457Y02157*
X00459Y02145*
Y02139*
Y02133*
X00457Y02121*
X00452Y0211*
X00445Y021*
X00437Y02092*
X00427Y02085*
X00416Y0208*
X00404Y02078*
X00392*
X0038Y0208*
X00369Y02085*
X00359Y02092*
X00351Y021*
X00344Y0211*
X00339Y02121*
X00337Y02133*
Y02139*
Y02145*
X00339Y02157*
X00344Y02168*
X00351Y02178*
X00359Y02186*
X00369Y02193*
X0038Y02198*
X00392Y022*
X00404*
X00416Y02198*
G37*
G36*
X00185D02*
X00196Y02193D01*
X00206Y02186*
X00214Y02178*
X00221Y02168*
X00226Y02157*
X00228Y02145*
Y02139*
Y02133*
X00226Y02121*
X00221Y0211*
X00214Y021*
X00206Y02092*
X00196Y02085*
X00185Y0208*
X00173Y02078*
X00161*
X00149Y0208*
X00138Y02085*
X00128Y02092*
X0012Y021*
X00113Y0211*
X00108Y02121*
X00106Y02133*
Y02139*
Y02145*
X00108Y02157*
X00113Y02168*
X0012Y02178*
X00128Y02186*
X00138Y02193*
X00149Y02198*
X00161Y022*
X00173*
X00185Y02198*
G37*
G36*
X00416Y01967D02*
X00427Y01962D01*
X00437Y01955*
X00445Y01947*
X00452Y01937*
X00457Y01926*
X00459Y01914*
Y01908*
Y01902*
X00457Y0189*
X00452Y01879*
X00445Y01869*
X00437Y01861*
X00427Y01854*
X00416Y01849*
X00404Y01847*
X00392*
X0038Y01849*
X00369Y01854*
X00359Y01861*
X00351Y01869*
X00344Y01879*
X00339Y0189*
X00337Y01902*
Y01908*
Y01914*
X00339Y01926*
X00344Y01937*
X00351Y01947*
X00359Y01955*
X00369Y01962*
X0038Y01967*
X00392Y01969*
X00404*
X00416Y01967*
G37*
G36*
X00185D02*
X00196Y01962D01*
X00206Y01955*
X00214Y01947*
X00221Y01937*
X00226Y01926*
X00228Y01914*
Y01908*
Y01902*
X00226Y0189*
X00221Y01879*
X00214Y01869*
X00206Y01861*
X00196Y01854*
X00185Y01849*
X00173Y01847*
X00161*
X00149Y01849*
X00138Y01854*
X00128Y01861*
X0012Y01869*
X00113Y01879*
X00108Y0189*
X00106Y01902*
Y01908*
Y01914*
X00108Y01926*
X00113Y01937*
X0012Y01947*
X00128Y01955*
X00138Y01962*
X00149Y01967*
X00161Y01969*
X00173*
X00185Y01967*
G37*
G36*
X00802Y01645D02*
Y01606D01*
X008Y01604*
X00784*
X00782Y01606*
Y0163*
X00784Y01632*
X00792*
X00794Y01634*
Y01645*
X00796Y01647*
X008*
X00802Y01645*
G37*
G36*
Y01535D02*
Y01496D01*
X008Y01494*
X00796*
X00794Y01496*
Y01507*
X00792Y01509*
X00784*
X00782Y01511*
Y01535*
X00784Y01537*
X008*
X00802Y01535*
G37*
G36*
X01172Y02207D02*
X01183Y02202D01*
X01193Y02195*
X01201Y02187*
X01208Y02177*
X01213Y02166*
X01215Y02154*
Y02148*
Y02142*
X01213Y0213*
X01208Y02119*
X01201Y02109*
X01193Y02101*
X01183Y02094*
X01172Y02089*
X0116Y02087*
X01148*
X01136Y02089*
X01125Y02094*
X01115Y02101*
X01107Y02109*
X011Y02119*
X01095Y0213*
X01093Y02142*
Y02148*
Y02154*
X01095Y02166*
X011Y02177*
X01107Y02187*
X01115Y02195*
X01125Y02202*
X01136Y02207*
X01148Y02209*
X0116*
X01172Y02207*
G37*
G36*
X00941D02*
X00952Y02202D01*
X00962Y02195*
X0097Y02187*
X00977Y02177*
X00982Y02166*
X00984Y02154*
Y02148*
Y02142*
X00982Y0213*
X00977Y02119*
X0097Y02109*
X00962Y02101*
X00952Y02094*
X00941Y02089*
X00929Y02087*
X00917*
X00905Y02089*
X00894Y02094*
X00884Y02101*
X00876Y02109*
X00869Y02119*
X00864Y0213*
X00862Y02142*
Y02148*
Y02154*
X00864Y02166*
X00869Y02177*
X00876Y02187*
X00884Y02195*
X00894Y02202*
X00905Y02207*
X00917Y02209*
X00929*
X00941Y02207*
G37*
G36*
X01172Y01976D02*
X01183Y01971D01*
X01193Y01964*
X01201Y01956*
X01208Y01946*
X01213Y01935*
X01215Y01923*
Y01917*
Y01911*
X01213Y01899*
X01208Y01888*
X01201Y01878*
X01193Y0187*
X01183Y01863*
X01172Y01858*
X0116Y01856*
X01148*
X01136Y01858*
X01125Y01863*
X01115Y0187*
X01107Y01878*
X011Y01888*
X01095Y01899*
X01093Y01911*
Y01917*
Y01923*
X01095Y01935*
X011Y01946*
X01107Y01956*
X01115Y01964*
X01125Y01971*
X01136Y01976*
X01148Y01978*
X0116*
X01172Y01976*
G37*
G36*
X00941D02*
X00952Y01971D01*
X00962Y01964*
X0097Y01956*
X00977Y01946*
X00982Y01935*
X00984Y01923*
Y01917*
Y01911*
X00982Y01899*
X00977Y01888*
X0097Y01878*
X00962Y0187*
X00952Y01863*
X00941Y01858*
X00929Y01856*
X00917*
X00905Y01858*
X00894Y01863*
X00884Y0187*
X00876Y01878*
X00869Y01888*
X00864Y01899*
X00862Y01911*
Y01917*
Y01923*
X00864Y01935*
X00869Y01946*
X00876Y01956*
X00884Y01964*
X00894Y01971*
X00905Y01976*
X00917Y01978*
X00929*
X00941Y01976*
G37*
G36*
X00957Y01641D02*
Y01633D01*
X00959Y01631*
X00969*
X00971Y01629*
Y01604*
X00969Y01602*
X00932*
X0093Y01604*
Y01641*
X00932Y01643*
X00955*
X00957Y01641*
G37*
G36*
X00971Y01537D02*
Y01512D01*
X00969Y0151*
X00959*
X00957Y01508*
Y015*
X00955Y01498*
X00932*
X0093Y015*
Y01537*
X00932Y01539*
X00969*
X00971Y01537*
G37*
G54D17*
X01095Y01013D03*
X01172D03*
X01147Y01246D03*
Y01013D03*
X01095Y01246D03*
X01121D03*
Y01013D03*
X01172Y01246D03*
G54D18*
X00849Y01246D03*
G54D19*
X00758Y01246D03*
X00668D03*
G54D20*
X00758Y00987D03*
G54D21*
X01361Y00567D03*
X01381Y0011D03*
X01125D03*
X01401D03*
X01145Y00567D03*
Y0011D03*
X01381Y00567D03*
X01223D03*
X01322D03*
X0142D03*
Y0011D03*
X01164D03*
X01125Y00567D03*
X01204D03*
X01243D03*
X01342D03*
X01184Y0011D03*
X01204D03*
X01223D03*
X01243D03*
X01263D03*
X01283D03*
X01302D03*
X01322D03*
X01342D03*
X01361D03*
X01401Y00567D03*
X01302D03*
X01283D03*
X01263D03*
X01184D03*
X01164D03*
G54D22*
X01501Y00447D03*
X01044Y00349D03*
X01501Y00309D03*
X01044Y00408D03*
X01501D03*
X01044Y00211D03*
Y00309D03*
Y00191D03*
X01501Y00467D03*
X01044Y0027D03*
X01501Y00329D03*
X01044Y00368D03*
Y00388D03*
X01501Y00427D03*
X01044Y00231D03*
X01501Y00486D03*
X01044D03*
Y0025D03*
X01501Y00349D03*
Y00368D03*
X01044Y0029D03*
Y00467D03*
Y00447D03*
Y00427D03*
Y00329D03*
X01501Y00191D03*
Y00211D03*
Y00231D03*
Y0025D03*
Y0027D03*
Y0029D03*
Y00388D03*
G54D23*
X00833Y01748D03*
Y01801D03*
X0095Y01188D03*
Y01241D03*
X00936Y00987D03*
Y0104D03*
X01026Y01188D03*
Y01241D03*
X0087Y00601D03*
X00738Y01613D03*
X0087Y00548D03*
X00871Y00438D03*
Y00385D03*
X00738Y01666D03*
X00762Y01748D03*
Y01801D03*
G54D24*
X00922Y01753D03*
X01039D03*
X00957Y01421D03*
X00841D03*
G54D25*
X01709Y01614D03*
Y02126D03*
G54D26*
X01365Y01893D03*
G54D27*
X00675Y01721D03*
X00622D03*
X01155Y01733D03*
X00894Y01318D03*
X00658Y009D03*
X00712D03*
X01208Y01733D03*
X00841Y01318D03*
G54D28*
X01047Y01571D03*
X01209D03*
G54D29*
X0164Y00039D03*
X01692D03*
X0112Y00809D03*
X01069D03*
X00917Y0082D03*
X00865D03*
X01905Y00166D03*
X01122Y00919D03*
X01749Y00759D03*
X01867Y00027D03*
X01902Y00096D03*
X01854Y00166D03*
Y0024D03*
X00737Y01362D03*
X00686D03*
X00684Y01439D03*
X00633D03*
X018Y00759D03*
X01816Y00027D03*
X0185Y00096D03*
X01905Y0024D03*
X01174Y00919D03*
G54D30*
X01707Y00196D03*
Y00137D03*
X01632Y00196D03*
Y00137D03*
X01774Y00196D03*
Y00137D03*
G54D31*
X01158Y00019D03*
X01128D03*
X01536Y00103D03*
X01268Y00019D03*
X00941Y00464D03*
X01507Y00103D03*
X01238Y00019D03*
X00971Y00464D03*
G54D32*
X00992Y00569D03*
X00943D03*
X01482Y00019D03*
X01531D03*
G54D33*
X00518Y01846D03*
Y01913D03*
G54D34*
X00615Y01846D03*
X00682D03*
G54D35*
X00722Y00735D03*
Y00361D03*
G54D36*
X01687Y0053D03*
Y0049D03*
Y00648D03*
Y00628D03*
Y00372D03*
Y00353D03*
Y0051D03*
Y00471D03*
Y00451D03*
Y00569D03*
Y00589D03*
Y00412D03*
Y00609D03*
Y00392D03*
Y00431D03*
Y00549D03*
G54D37*
X01611Y01467D03*
X01721D03*
G54D38*
X00656Y01622D03*
Y01559D03*
G54D39*
X0161Y00709D03*
X01591Y00314D03*
X0161Y00658D03*
X01591Y00366D03*
G54D40*
X01067Y00618D03*
X00941Y00285D03*
X01067Y00588D03*
X00941Y00255D03*
G54D41*
X00796Y01571D03*
G54D42*
X00951Y01625D03*
Y01516D03*
X00791Y01515D03*
Y01626D03*
G54D43*
X00793Y01551D03*
Y0159D03*
G54D44*
X00836Y0151D03*
X00816D03*
Y01631D03*
X00856Y0151D03*
X00836Y01631D03*
X00856D03*
G54D45*
X01569Y00548D03*
Y00598D03*
G54D46*
X01925Y00759D03*
X01902Y01467D03*
X01866Y00759D03*
X01843Y01467D03*
G54D47*
X00898Y01515D03*
Y01626D03*
G54D48*
X00914Y01571D03*
M02*