%FSTAX23Y23*%
%MOIN*%
%SFA1B1*%

%IPPOS*%
%AMD64*
4,1,8,-0.040400,0.000000,-0.040400,0.000000,-0.018700,-0.021700,0.018700,-0.021700,0.040400,0.000000,0.040400,0.000000,0.018700,0.021700,-0.018700,0.021700,-0.040400,0.000000,0.0*
1,1,0.043300,-0.018700,0.000000*
1,1,0.043300,-0.018700,0.000000*
1,1,0.043300,0.018700,0.000000*
1,1,0.043300,0.018700,0.000000*
%
%ADD60C,0.061810*%
%ADD61R,0.061810X0.061810*%
G04~CAMADD=64~8~0.0~0.0~433.1~807.1~216.5~0.0~15~0.0~0.0~0.0~0.0~0~0.0~0.0~0.0~0.0~0~0.0~0.0~0.0~90.0~808.0~434.0*
%ADD64D64*%
%ADD65R,0.059840X0.059840*%
%ADD84C,0.061020*%
%ADD86C,0.125980*%
%ADD89C,0.023620*%
%ADD90C,0.019680*%
%LNpcb1-1*%
%LPD*%
G36*
X01336Y01707D02*
X00975Y01346D01*
X00972Y01346*
X00967Y01351*
X00962Y01353*
X00955*
X0095Y01351*
X00945Y01346*
X00943Y01341*
Y01334*
X00945Y01329*
X0095Y01324*
X0095Y01321*
X00946Y01318*
X00819*
X00762Y01375*
Y01522*
X00767Y01524*
X00771Y01529*
X00774Y01534*
Y01541*
X00771Y01547*
X00767Y01551*
X00762Y01553*
Y02219*
X0089*
X00891Y02214*
X00888Y02213*
X00876Y02205*
X00866Y02195*
X00858Y02183*
X00853Y02169*
X0085Y02155*
Y02153*
X00996*
Y02155*
X00993Y02169*
X00988Y02183*
X0098Y02195*
X00969Y02205*
X00958Y02213*
X00955Y02214*
X00956Y02219*
X01121*
X01122Y02214*
X01119Y02213*
X01108Y02205*
X01097Y02195*
X01089Y02183*
X01084Y02169*
X01081Y02155*
Y02153*
X01227*
Y02155*
X01224Y02169*
X01219Y02183*
X01211Y02195*
X01201Y02205*
X01189Y02213*
X01186Y02214*
X01187Y02219*
X01336*
Y01707*
G37*
G36*
X0073Y02203D02*
Y01477D01*
X00729Y01476*
X00724Y01472*
X00722Y01466*
Y0146*
X00724Y01454*
X00729Y0145*
X0073Y01449*
Y01321*
X00563Y01183*
X00561Y01183*
X00553Y01191*
X00544Y01196*
X00534Y01199*
X00533*
Y01158*
X00528*
Y01153*
X00487*
Y01153*
X0049Y01142*
X00495Y01133*
X00496Y01132*
X00496Y01127*
X00395Y01043*
Y0006*
Y-00007*
X00029*
Y02202*
X00122Y02203*
X00124Y02198*
X0012Y02196*
X0011Y02186*
X00102Y02174*
X00097Y0216*
X00094Y02146*
Y02144*
X0024*
Y02146*
X00237Y0216*
X00232Y02174*
X00224Y02186*
X00213Y02196*
X00209Y02199*
X00211Y02203*
X00355Y02204*
X00357Y02199*
X00352Y02196*
X00341Y02186*
X00333Y02174*
X00328Y0216*
X00325Y02146*
Y02144*
X00471*
Y02146*
X00468Y0216*
X00463Y02174*
X00455Y02186*
X00445Y02196*
X00438Y022*
X0044Y02205*
X00727Y02207*
X0073Y02203*
G37*
G36*
X01474Y01484D02*
X01529Y01429D01*
Y01279*
X01419*
Y01394*
X01392Y01421*
X0139Y01422*
X01204*
X00887Y01104*
Y0107*
X00634*
X00594Y0103*
Y00282*
X00666Y00211*
X0095*
Y00019*
X00937Y00006*
X00932Y00011*
X00468*
X00423Y00053*
Y01011*
X00715Y0127*
X00974*
X01Y01297*
X01003Y01295*
X01008Y01292*
X01015*
X0102Y01295*
X01025Y01299*
X01027Y01305*
Y01311*
X01025Y01317*
X01023Y01319*
X01187Y01484*
X01474*
G37*
G36*
X01216Y01181D02*
Y01018D01*
X01247Y00987*
X01245Y00982*
X01228*
Y00913*
X01297*
Y0093*
X01302Y00932*
X01374Y0086*
X0142*
X01537*
X01718Y00679*
Y0065*
X01715Y00649*
X01714Y00646*
Y00355*
X01646*
X01645Y0036*
X01646Y0036*
X01651Y00365*
X01653Y0037*
Y00377*
X01651Y00383*
X01646Y00387*
X01641Y00389*
X01634*
X01629Y00387*
X01624Y00383*
X01622Y00377*
Y0037*
X01624Y00365*
X01629Y0036*
X0163Y0036*
X01629Y00355*
X01577*
Y00439*
X01582Y00441*
X01586Y00445*
X01588Y00451*
Y00457*
X01586Y00463*
X01582Y00468*
X01577Y00469*
Y00657*
X0148Y00754*
X01336*
X01334Y00759*
X01335Y00759*
X01338Y00765*
Y00771*
X01335Y00777*
X01331Y00782*
X01325Y00784*
X01319*
X01313Y00782*
X01309Y00777*
X01307Y00773*
X01302Y00771*
X01259Y00814*
Y00815*
X01256Y00821*
X01252Y00825*
X01246Y00827*
X01245*
X0111Y00963*
Y01058*
X01115Y0106*
X01118Y01057*
X01124Y01054*
X0113*
X01136Y01057*
X0114Y01061*
X01143Y01067*
Y01073*
X0114Y01079*
X01136Y01083*
X0113Y01086*
X01124*
X01118Y01083*
X01115Y0108*
X0111Y01082*
Y01183*
X01145Y01218*
X01179*
X01216Y01181*
G37*
G36*
X01313Y01401D02*
Y01302D01*
X01198*
X01082Y01186*
Y0091*
X01077Y00907*
X01073Y00908*
X01067*
X01061Y00906*
X01057Y00901*
X01055Y00896*
Y00889*
X01057Y00884*
X01061Y00879*
X01067Y00877*
X01073*
X01077Y00878*
X01082Y00875*
Y00857*
X01244Y00695*
X01366*
X01368Y00689*
X01373Y00685*
X01378Y00682*
X01385*
X0139Y00685*
X01395Y00689*
X01397Y00695*
X01503*
X01551Y00647*
Y00513*
X01548Y00512*
X01544Y00507*
X01542Y00501*
Y00495*
X01544Y00489*
X01548Y00485*
X01551Y00484*
Y0002*
X01522Y-00008*
X0106*
X0105Y00001*
X01053Y00005*
X01055Y00005*
X01061*
X01067Y00007*
X01071Y00011*
X01073Y00017*
Y00023*
X01071Y00029*
X01067Y00034*
X01061Y00036*
X01055*
X01049Y00034*
X01044Y00029*
X01042Y00023*
Y00017*
X01043Y00015*
X01039Y00012*
X00998Y00053*
Y00211*
X00968Y00241*
X00717*
X00647Y00311*
X0065Y00935*
X00651Y00935*
X00655Y00939*
X00658Y00945*
Y00951*
X00655Y00957*
X00651Y00962*
X0065Y00962*
X00651Y01013*
X00926*
X00998Y01086*
Y01191*
X01212Y01405*
X01309*
X01313Y01401*
G37*
G36*
X01978Y02208D02*
X01975Y02204D01*
Y-00006*
X01587*
X01582Y-00001*
Y0024*
X01641*
X01748Y00347*
Y0035*
X01778*
X0178Y00345*
X01779Y00345*
X01774Y00338*
X01771Y00331*
X01771Y00327*
X01821*
X01871*
X0187Y00331*
X01867Y00338*
X01862Y00345*
X01861Y00345*
X01863Y0035*
X01895*
X01898Y00352*
X01899Y00355*
Y00646*
X01898Y00649*
X01895Y0065*
X01863*
X01861Y00655*
X01862Y00656*
X01867Y00662*
X0187Y0067*
X01871Y00673*
X01821*
X01771*
X01771Y0067*
X01774Y00662*
X01779Y00656*
X0178Y00655*
X01778Y0065*
X01748*
Y00705*
X01565Y00888*
X01568Y00891*
Y01487*
X0136Y01695*
Y02212*
X01976*
X01978Y02208*
G37*
%LNpcb1-2*%
%LPC*%
G36*
X01227Y02143D02*
X01159D01*
Y02075*
X01161*
X01175Y02078*
X01189Y02083*
X01201Y02091*
X01211Y02102*
X01219Y02113*
X01224Y02127*
X01227Y02141*
Y02143*
G37*
G36*
X01149D02*
X01081D01*
Y02141*
X01084Y02127*
X01089Y02113*
X01097Y02102*
X01108Y02091*
X01119Y02083*
X01133Y02078*
X01147Y02075*
X01149*
Y02143*
G37*
G36*
X00996D02*
X00928D01*
Y02075*
X0093*
X00944Y02078*
X00958Y02083*
X00969Y02091*
X0098Y02102*
X00988Y02113*
X00993Y02127*
X00996Y02141*
Y02143*
G37*
G36*
X00918D02*
X0085D01*
Y02141*
X00853Y02127*
X00858Y02113*
X00866Y02102*
X00876Y02091*
X00888Y02083*
X00902Y02078*
X00916Y02075*
X00918*
Y02143*
G37*
G36*
X01045Y02099D02*
X01032D01*
X01019Y02097*
X01007Y02092*
X00996Y02084*
X00987Y02075*
X00979Y02064*
X00974Y02052*
X00972Y02039*
Y02026*
X00974Y02013*
X00979Y02001*
X00987Y0199*
X00996Y01981*
X01007Y01973*
X01019Y01968*
X01032Y01966*
X01045*
X01058Y01968*
X0107Y01973*
X01081Y01981*
X0109Y0199*
X01098Y02001*
X01103Y02013*
X01105Y02026*
Y02039*
X01103Y02052*
X01098Y02064*
X0109Y02075*
X01081Y02084*
X0107Y02092*
X01058Y02097*
X01045Y02099*
G37*
G36*
X01161Y0199D02*
X01159D01*
Y01922*
X01227*
Y01924*
X01224Y01938*
X01219Y01952*
X01211Y01963*
X01201Y01974*
X01189Y01982*
X01175Y01987*
X01161Y0199*
G37*
G36*
X01149D02*
X01147D01*
X01133Y01987*
X01119Y01982*
X01108Y01974*
X01097Y01963*
X01089Y01952*
X01084Y01938*
X01081Y01924*
Y01922*
X01149*
Y0199*
G37*
G36*
X0093D02*
X00928D01*
Y01922*
X00996*
Y01924*
X00993Y01938*
X00988Y01952*
X0098Y01963*
X00969Y01974*
X00958Y01982*
X00944Y01987*
X0093Y0199*
G37*
G36*
X00918D02*
X00916D01*
X00902Y01987*
X00888Y01982*
X00876Y01974*
X00866Y01963*
X00858Y01952*
X00853Y01938*
X0085Y01924*
Y01922*
X00918*
Y0199*
G37*
G36*
X01227Y01912D02*
X01159D01*
Y01844*
X01161*
X01175Y01847*
X01189Y01852*
X01201Y0186*
X01211Y0187*
X01219Y01882*
X01224Y01896*
X01227Y0191*
Y01912*
G37*
G36*
X01149D02*
X01081D01*
Y0191*
X01084Y01896*
X01089Y01882*
X01097Y0187*
X01108Y0186*
X01119Y01852*
X01133Y01847*
X01147Y01844*
X01149*
Y01912*
G37*
G36*
X00996D02*
X00928D01*
Y01844*
X0093*
X00944Y01847*
X00958Y01852*
X00969Y0186*
X0098Y0187*
X00988Y01882*
X00993Y01896*
X00996Y0191*
Y01912*
G37*
G36*
X00918D02*
X0085D01*
Y0191*
X00853Y01896*
X00858Y01882*
X00866Y0187*
X00876Y0186*
X00888Y01852*
X00902Y01847*
X00916Y01844*
X00918*
Y01912*
G37*
G36*
X01147Y01828D02*
X01141D01*
X01135Y01826*
X0113Y01821*
X01128Y01815*
Y01809*
X0113Y01803*
X01135Y01799*
X01141Y01797*
X01147*
X01153Y01799*
X01157Y01803*
X0116Y01809*
Y01815*
X01157Y01821*
X01153Y01826*
X01147Y01828*
G37*
G36*
X01103D02*
X01097D01*
X01091Y01826*
X01087Y01821*
X01084Y01815*
Y01809*
X01087Y01803*
X01091Y01799*
X01097Y01797*
X01103*
X01109Y01799*
X01113Y01803*
X01116Y01809*
Y01815*
X01113Y01821*
X01109Y01826*
X01103Y01828*
G37*
G36*
X00837Y01818D02*
X00831D01*
X00825Y01816*
X0082Y01811*
X00818Y01806*
Y01799*
X0082Y01794*
X00825Y01789*
X00831Y01787*
X00837*
X00843Y01789*
X00847Y01794*
X0085Y01799*
Y01806*
X00847Y01811*
X00843Y01816*
X00837Y01818*
G37*
G36*
X01101Y0177D02*
X01095D01*
X01089Y01767*
X01085Y01763*
X01082Y01757*
Y01751*
X01085Y01745*
X01089Y0174*
X01095Y01738*
X01101*
X01107Y0174*
X01112Y01745*
X01114Y01751*
Y01757*
X01112Y01763*
X01107Y01767*
X01101Y0177*
G37*
G36*
X01187Y01702D02*
X0118D01*
X01175Y01699*
X0117Y01695*
X01168Y01689*
Y01683*
X0117Y01677*
X01175Y01673*
X0118Y0167*
X01187*
X01192Y01673*
X01197Y01677*
X01199Y01683*
Y01689*
X01197Y01695*
X01192Y01699*
X01187Y01702*
G37*
G36*
X00938Y01674D02*
X00932D01*
X00926Y01672*
X00922Y01668*
X00919Y01662*
Y01656*
X00922Y0165*
X00926Y01645*
X00932Y01643*
X00938*
X00944Y01645*
X00948Y0165*
X00951Y01656*
Y01662*
X00948Y01668*
X00944Y01672*
X00938Y01674*
G37*
G36*
X0094Y01637D02*
X00934D01*
X00928Y01634*
X00924Y0163*
X00921Y01624*
Y01618*
X00924Y01612*
X00928Y01608*
X00934Y01605*
X0094*
X00946Y01608*
X0095Y01612*
X00953Y01618*
Y01624*
X0095Y0163*
X00946Y01634*
X0094Y01637*
G37*
G36*
X00833Y01566D02*
X00827D01*
X00821Y01564*
X00816Y01559*
X00814Y01553*
Y01547*
X00816Y01541*
X00821Y01537*
X00827Y01535*
X00833*
X00839Y01537*
X00843Y01541*
X00846Y01547*
Y01553*
X00843Y01559*
X00839Y01564*
X00833Y01566*
G37*
G36*
X00471Y02134D02*
X00403D01*
Y02066*
X00405*
X00419Y02069*
X00433Y02074*
X00445Y02082*
X00455Y02093*
X00463Y02104*
X00468Y02118*
X00471Y02132*
Y02134*
G37*
G36*
X00393D02*
X00325D01*
Y02132*
X00328Y02118*
X00333Y02104*
X00341Y02093*
X00352Y02082*
X00363Y02074*
X00377Y02069*
X00391Y02066*
X00393*
Y02134*
G37*
G36*
X0024D02*
X00172D01*
Y02066*
X00174*
X00188Y02069*
X00202Y02074*
X00213Y02082*
X00224Y02093*
X00232Y02104*
X00237Y02118*
X0024Y02132*
Y02134*
G37*
G36*
X00162D02*
X00094D01*
Y02132*
X00097Y02118*
X00102Y02104*
X0011Y02093*
X0012Y02082*
X00132Y02074*
X00146Y02069*
X0016Y02066*
X00162*
Y02134*
G37*
G36*
X00289Y0209D02*
X00276D01*
X00263Y02088*
X00251Y02083*
X0024Y02075*
X00231Y02066*
X00223Y02055*
X00218Y02043*
X00216Y0203*
Y02017*
X00218Y02004*
X00223Y01992*
X00231Y01981*
X0024Y01972*
X00251Y01964*
X00263Y01959*
X00276Y01957*
X00289*
X00302Y01959*
X00314Y01964*
X00325Y01972*
X00334Y01981*
X00342Y01992*
X00347Y02004*
X00349Y02017*
Y0203*
X00347Y02043*
X00342Y02055*
X00334Y02066*
X00325Y02075*
X00314Y02083*
X00302Y02088*
X00289Y0209*
G37*
G36*
X00405Y01981D02*
X00403D01*
Y01913*
X00471*
Y01915*
X00468Y01929*
X00463Y01943*
X00455Y01954*
X00445Y01965*
X00433Y01973*
X00419Y01978*
X00405Y01981*
G37*
G36*
X00393D02*
X00391D01*
X00377Y01978*
X00363Y01973*
X00352Y01965*
X00341Y01954*
X00333Y01943*
X00328Y01929*
X00325Y01915*
Y01913*
X00393*
Y01981*
G37*
G36*
X00174D02*
X00172D01*
Y01913*
X0024*
Y01915*
X00237Y01929*
X00232Y01943*
X00224Y01954*
X00213Y01965*
X00202Y01973*
X00188Y01978*
X00174Y01981*
G37*
G36*
X00162D02*
X0016D01*
X00146Y01978*
X00132Y01973*
X0012Y01965*
X0011Y01954*
X00102Y01943*
X00097Y01929*
X00094Y01915*
Y01913*
X00162*
Y01981*
G37*
G36*
X00471Y01903D02*
X00403D01*
Y01835*
X00405*
X00419Y01838*
X00433Y01843*
X00445Y01851*
X00455Y01861*
X00463Y01873*
X00468Y01887*
X00471Y01901*
Y01903*
G37*
G36*
X00393D02*
X00325D01*
Y01901*
X00328Y01887*
X00333Y01873*
X00341Y01861*
X00352Y01851*
X00363Y01843*
X00377Y01838*
X00391Y01835*
X00393*
Y01903*
G37*
G36*
X0024D02*
X00172D01*
Y01835*
X00174*
X00188Y01838*
X00202Y01843*
X00213Y01851*
X00224Y01861*
X00232Y01873*
X00237Y01887*
X0024Y01901*
Y01903*
G37*
G36*
X00162D02*
X00094D01*
Y01901*
X00097Y01887*
X00102Y01873*
X0011Y01861*
X0012Y01851*
X00132Y01843*
X00146Y01838*
X0016Y01835*
X00162*
Y01903*
G37*
G36*
X00703Y01781D02*
X00697D01*
X00691Y01778*
X00687Y01774*
X00684Y01768*
Y01762*
X00687Y01756*
X00691Y01752*
X00697Y01749*
X00703*
X00709Y01752*
X00713Y01756*
X00716Y01762*
Y01768*
X00713Y01774*
X00709Y01778*
X00703Y01781*
G37*
G36*
X00563Y01784D02*
X00493D01*
Y01715*
X00563*
Y01784*
G37*
G36*
X00533Y01684D02*
X00524D01*
X00515Y01682*
X00507Y01677*
X005Y01671*
X00496Y01663*
X00493Y01654*
Y01645*
X00496Y01636*
X005Y01628*
X00507Y01622*
X00515Y01617*
X00524Y01615*
X00533*
X00542Y01617*
X0055Y01622*
X00556Y01628*
X00561Y01636*
X00563Y01645*
Y01654*
X00561Y01663*
X00556Y01671*
X0055Y01677*
X00542Y01682*
X00533Y01684*
G37*
G36*
X00534Y0159D02*
X00533D01*
Y01554*
X00569*
Y01555*
X00566Y01565*
X00561Y01575*
X00553Y01582*
X00544Y01588*
X00534Y0159*
G37*
G36*
X00523D02*
X00523D01*
X00512Y01588*
X00503Y01582*
X00495Y01575*
X0049Y01565*
X00487Y01555*
Y01554*
X00523*
Y0159*
G37*
G36*
X00569Y01544D02*
X00533D01*
Y01508*
X00534*
X00544Y01511*
X00553Y01517*
X00561Y01524*
X00566Y01534*
X00569Y01544*
Y01544*
G37*
G36*
X00523D02*
X00487D01*
Y01544*
X0049Y01534*
X00495Y01524*
X00503Y01517*
X00512Y01511*
X00523Y01508*
X00523*
Y01544*
G37*
G36*
X00669Y01516D02*
X00662D01*
X00657Y01513*
X00652Y01509*
X0065Y01503*
Y01497*
X00652Y01491*
X00657Y01487*
X00662Y01484*
X00669*
X00674Y01487*
X00679Y01491*
X00681Y01497*
Y01503*
X00679Y01509*
X00674Y01513*
X00669Y01516*
G37*
G36*
X00563Y01393D02*
X00493D01*
Y01323*
X00563*
Y01393*
G37*
G36*
X00533Y01293D02*
X00524D01*
X00515Y01291*
X00507Y01286*
X005Y01279*
X00496Y01272*
X00493Y01263*
Y01253*
X00496Y01245*
X005Y01237*
X00507Y0123*
X00515Y01226*
X00524Y01223*
X00533*
X00542Y01226*
X0055Y0123*
X00556Y01237*
X00561Y01245*
X00563Y01253*
Y01263*
X00561Y01272*
X00556Y01279*
X0055Y01286*
X00542Y01291*
X00533Y01293*
G37*
G36*
X00523Y01199D02*
X00523D01*
X00512Y01196*
X00503Y01191*
X00495Y01183*
X0049Y01174*
X00487Y01163*
Y01163*
X00523*
Y01199*
G37*
G36*
X01477Y0137D02*
X01476D01*
Y01335*
X01512*
Y01335*
X01509Y01345*
X01504Y01355*
X01496Y01362*
X01487Y01368*
X01477Y0137*
G37*
G36*
X01466D02*
X01466D01*
X01455Y01368*
X01446Y01362*
X01438Y01355*
X01433Y01345*
X0143Y01335*
Y01335*
X01466*
Y0137*
G37*
G36*
X01512Y01325D02*
X01476D01*
Y01289*
X01477*
X01487Y01291*
X01496Y01297*
X01504Y01304*
X01509Y01314*
X01512Y01324*
Y01325*
G37*
G36*
X01466D02*
X0143D01*
Y01324*
X01433Y01314*
X01438Y01304*
X01446Y01297*
X01455Y01291*
X01466Y01289*
X01466*
Y01325*
G37*
G36*
X00563Y00974D02*
X00493D01*
Y00905*
X00563*
Y00974*
G37*
G36*
X00533Y00874D02*
X00524D01*
X00515Y00872*
X00507Y00867*
X005Y00861*
X00496Y00853*
X00493Y00844*
Y00835*
X00496Y00826*
X005Y00818*
X00507Y00812*
X00515Y00807*
X00524Y00805*
X00533*
X00542Y00807*
X0055Y00812*
X00556Y00818*
X00561Y00826*
X00563Y00835*
Y00844*
X00561Y00853*
X00556Y00861*
X0055Y00867*
X00542Y00872*
X00533Y00874*
G37*
G36*
Y00774D02*
X00524D01*
X00515Y00772*
X00507Y00767*
X005Y00761*
X00496Y00753*
X00493Y00744*
Y00735*
X00496Y00726*
X005Y00718*
X00507Y00712*
X00515Y00707*
X00524Y00705*
X00533*
X00542Y00707*
X0055Y00712*
X00556Y00718*
X00561Y00726*
X00563Y00735*
Y00744*
X00561Y00753*
X00556Y00761*
X0055Y00767*
X00542Y00772*
X00533Y00774*
G37*
G36*
X00565Y00528D02*
X00496D01*
Y00458*
X00565*
Y00528*
G37*
G36*
X00535Y00428D02*
X00526D01*
X00517Y00425*
X00509Y00421*
X00503Y00414*
X00498Y00406*
X00496Y00397*
Y00388*
X00498Y00379*
X00503Y00371*
X00509Y00365*
X00517Y0036*
X00526Y00358*
X00535*
X00544Y0036*
X00552Y00365*
X00558Y00371*
X00563Y00379*
X00565Y00388*
Y00397*
X00563Y00406*
X00558Y00414*
X00552Y00421*
X00544Y00425*
X00535Y00428*
G37*
G36*
Y00328D02*
X00526D01*
X00517Y00325*
X00509Y00321*
X00503Y00314*
X00498Y00306*
X00496Y00297*
Y00288*
X00498Y00279*
X00503Y00271*
X00509Y00265*
X00517Y0026*
X00526Y00258*
X00535*
X00544Y0026*
X00552Y00265*
X00558Y00271*
X00563Y00279*
X00565Y00288*
Y00297*
X00563Y00306*
X00558Y00314*
X00552Y00321*
X00544Y00325*
X00535Y00328*
G37*
G36*
X00934Y00197D02*
X00899D01*
Y00162*
X00934*
Y00197*
G37*
G36*
X00889D02*
X00854D01*
Y00162*
X00889*
Y00197*
G37*
G36*
X00535Y00228D02*
X00526D01*
X00517Y00225*
X00509Y00221*
X00503Y00214*
X00498Y00206*
X00496Y00197*
Y00188*
X00498Y00179*
X00503Y00171*
X00509Y00165*
X00517Y0016*
X00526Y00158*
X00535*
X00544Y0016*
X00552Y00165*
X00558Y00171*
X00563Y00179*
X00565Y00188*
Y00197*
X00563Y00206*
X00558Y00214*
X00552Y00221*
X00544Y00225*
X00535Y00228*
G37*
G36*
X00798Y00191D02*
X0079D01*
X00781Y00189*
X00773Y00184*
X00767Y00178*
X00762Y0017*
X0076Y00162*
Y00153*
X00762Y00144*
X00767Y00137*
X00773Y0013*
X00781Y00126*
X0079Y00124*
X00798*
X00807Y00126*
X00815Y0013*
X00821Y00137*
X00826Y00144*
X00828Y00153*
Y00162*
X00826Y0017*
X00821Y00178*
X00815Y00184*
X00807Y00189*
X00798Y00191*
G37*
G36*
X00934Y00152D02*
X00899D01*
Y00117*
X00934*
Y00152*
G37*
G36*
X00889D02*
X00854D01*
Y00117*
X00889*
Y00152*
G37*
G36*
X00536Y00134D02*
X00536D01*
Y00098*
X00572*
Y00098*
X00569Y00108*
X00563Y00118*
X00556Y00125*
X00546Y00131*
X00536Y00134*
G37*
G36*
X00526D02*
X00525D01*
X00515Y00131*
X00505Y00125*
X00498Y00118*
X00492Y00108*
X0049Y00098*
Y00098*
X00526*
Y00134*
G37*
G36*
X00572Y00088D02*
X00536D01*
Y00052*
X00536*
X00546Y00055*
X00556Y0006*
X00563Y00068*
X00569Y00077*
X00572Y00087*
Y00088*
G37*
G36*
X00526D02*
X0049D01*
Y00087*
X00492Y00077*
X00498Y00068*
X00505Y0006*
X00515Y00055*
X00525Y00052*
X00526*
Y00088*
G37*
G36*
X00898Y00091D02*
X0089D01*
X00881Y00089*
X00873Y00085*
X00867Y00078*
X00862Y0007*
X0086Y00062*
Y00053*
X00862Y00044*
X00867Y00037*
X00873Y0003*
X00881Y00026*
X0089Y00024*
X00898*
X00907Y00026*
X00915Y0003*
X00921Y00037*
X00926Y00044*
X00928Y00053*
Y00062*
X00926Y0007*
X00921Y00078*
X00915Y00085*
X00907Y00089*
X00898Y00091*
G37*
G36*
X00798D02*
X0079D01*
X00781Y00089*
X00773Y00085*
X00767Y00078*
X00762Y0007*
X0076Y00062*
Y00053*
X00762Y00044*
X00767Y00037*
X00773Y0003*
X00781Y00026*
X0079Y00024*
X00798*
X00807Y00026*
X00815Y0003*
X00821Y00037*
X00826Y00044*
X00828Y00053*
Y00062*
X00826Y0007*
X00821Y00078*
X00815Y00085*
X00807Y00089*
X00798Y00091*
G37*
G36*
X01303Y0084D02*
X01297D01*
X01291Y00837*
X01286Y00833*
X01284Y00827*
Y00821*
X01286Y00815*
X01291Y00811*
X01297Y00808*
X01303*
X01309Y00811*
X01313Y00815*
X01315Y00821*
Y00827*
X01313Y00833*
X01309Y00837*
X01303Y0084*
G37*
G36*
X01646Y00547D02*
X01639D01*
X01633Y00545*
X01629Y00541*
X01627Y00535*
Y00529*
X01629Y00523*
X01633Y00518*
X01639Y00516*
X01646*
X01651Y00518*
X01656Y00523*
X01658Y00529*
Y00535*
X01656Y00541*
X01651Y00545*
X01646Y00547*
G37*
G36*
X01644Y00502D02*
X01637D01*
X01632Y005*
X01627Y00495*
X01625Y0049*
Y00483*
X01627Y00478*
X01632Y00473*
X01632Y00473*
X01632Y00468*
X01628Y00463*
X01625Y00457*
Y00451*
X01628Y00445*
X01632Y00441*
X01638Y00439*
X01644*
X0165Y00441*
X01654Y00445*
X01657Y00451*
Y00457*
X01654Y00463*
X0165Y00468*
X0165Y00468*
X01649Y00473*
X01654Y00478*
X01656Y00483*
Y0049*
X01654Y00495*
X01649Y005*
X01644Y00502*
G37*
G36*
X01268Y01388D02*
X01268D01*
Y01353*
X01303*
Y01353*
X01301Y01364*
X01295Y01373*
X01288Y0138*
X01278Y01386*
X01268Y01388*
G37*
G36*
X01258D02*
X01257D01*
X01247Y01386*
X01238Y0138*
X0123Y01373*
X01225Y01364*
X01222Y01353*
Y01353*
X01258*
Y01388*
G37*
G36*
X01303Y01343D02*
X01268D01*
Y01307*
X01268*
X01278Y0131*
X01288Y01315*
X01295Y01323*
X01301Y01332*
X01303Y01343*
Y01343*
G37*
G36*
X01258D02*
X01222D01*
Y01343*
X01225Y01332*
X0123Y01323*
X01238Y01315*
X01247Y0131*
X01257Y01307*
X01258*
Y01343*
G37*
G36*
X01161Y0133D02*
X01154D01*
X01149Y01327*
X01144Y01323*
X01142Y01317*
Y01311*
X01144Y01305*
X01149Y013*
X01154Y01298*
X01161*
X01167Y013*
X01171Y01305*
X01173Y01311*
Y01317*
X01171Y01323*
X01167Y01327*
X01161Y0133*
G37*
G36*
X00819Y00837D02*
X00812D01*
X00807Y00834*
X00802Y0083*
X008Y00824*
Y00818*
X00802Y00812*
X00807Y00807*
X00812Y00805*
X00819*
X00824Y00807*
X00829Y00812*
X00831Y00818*
Y00824*
X00829Y0083*
X00824Y00834*
X00819Y00837*
G37*
G36*
X01152Y00753D02*
X01083D01*
Y00684*
X01152*
Y00753*
G37*
G36*
X01022D02*
X01013D01*
X01004Y0075*
X00997Y00746*
X0099Y00739*
X00986Y00732*
X00983Y00723*
Y00714*
X00986Y00705*
X0099Y00697*
X00997Y00691*
X01004Y00686*
X01013Y00684*
X01022*
X01031Y00686*
X01039Y00691*
X01045Y00697*
X0105Y00705*
X01052Y00714*
Y00723*
X0105Y00732*
X01045Y00739*
X01039Y00746*
X01031Y0075*
X01022Y00753*
G37*
G36*
X00922D02*
X00913D01*
X00904Y0075*
X00897Y00746*
X0089Y00739*
X00886Y00732*
X00883Y00723*
Y00714*
X00886Y00705*
X0089Y00697*
X00897Y00691*
X00904Y00686*
X00913Y00684*
X00922*
X00931Y00686*
X00939Y00691*
X00945Y00697*
X0095Y00705*
X00952Y00714*
Y00723*
X0095Y00732*
X00945Y00739*
X00939Y00746*
X00931Y0075*
X00922Y00753*
G37*
G36*
X00944Y00533D02*
X00938D01*
X00932Y0053*
X00928Y00526*
X00925Y0052*
Y00514*
X00928Y00508*
X00932Y00504*
X00938Y00501*
X00944*
X0095Y00504*
X00955Y00508*
X00957Y00514*
Y0052*
X00955Y00526*
X0095Y0053*
X00944Y00533*
G37*
G36*
X00873Y00511D02*
X00867D01*
X00861Y00508*
X00857Y00504*
X00854Y00498*
Y00492*
X00857Y00486*
X00861Y00481*
X00867Y00479*
X00873*
X00879Y00481*
X00884Y00486*
X00886Y00492*
Y00498*
X00884Y00504*
X00879Y00508*
X00873Y00511*
G37*
G36*
X01345Y00483D02*
X01338D01*
X01333Y0048*
X01328Y00476*
X01326Y0047*
Y00464*
X01328Y00458*
X01333Y00453*
X01338Y00451*
X01345*
X0135Y00453*
X01355Y00458*
X01357Y00464*
Y0047*
X01355Y00476*
X0135Y0048*
X01345Y00483*
G37*
G36*
X00934Y00354D02*
X00928D01*
X00922Y00351*
X00918Y00347*
X00915Y00341*
Y00335*
X00918Y00329*
X00922Y00325*
X00928Y00322*
X00934*
X0094Y00325*
X00944Y00329*
X00947Y00335*
Y00341*
X00944Y00347*
X0094Y00351*
X00934Y00354*
G37*
G36*
X00983Y00376D02*
X00976D01*
X00971Y00373*
X00966Y00369*
X00964Y00363*
Y00357*
X00966Y00351*
X00967Y00351*
X00967Y0035*
X00965Y00345*
X00961Y00343*
X00957Y00339*
X00955Y00333*
Y00327*
X00957Y00321*
X00961Y00317*
X00967Y00314*
X00973*
X00979Y00317*
X00984Y00321*
X00986Y00327*
Y00333*
X00984Y00339*
X00983Y00339*
X00983Y0034*
X00985Y00345*
X00988Y00346*
X00993Y00351*
X00995Y00357*
Y00363*
X00993Y00369*
X00988Y00373*
X00983Y00376*
G37*
G36*
X00886Y00306D02*
X00879D01*
X00874Y00304*
X00869Y003*
X00867Y00294*
Y00287*
X00869Y00282*
X00874Y00277*
X00879Y00275*
X00886*
X00892Y00277*
X00896Y00282*
X00898Y00287*
Y00294*
X00896Y003*
X00892Y00304*
X00886Y00306*
G37*
G36*
X0134Y00036D02*
X01334D01*
X01328Y00033*
X01324Y00029*
X01321Y00023*
Y00017*
X01324Y00011*
X01328Y00007*
X01334Y00004*
X0134*
X01346Y00007*
X0135Y00011*
X01353Y00017*
Y00023*
X0135Y00029*
X01346Y00033*
X0134Y00036*
G37*
G36*
X01842Y02008D02*
X01832D01*
X01822Y02005*
X01813Y02*
X01806Y01992*
X01801Y01983*
X01798Y01973*
Y01963*
X01801Y01953*
X01806Y01944*
X01813Y01937*
X01822Y01932*
X01832Y01929*
X01842*
X01852Y01932*
X01861Y01937*
X01869Y01944*
X01874Y01953*
X01877Y01963*
Y01973*
X01874Y01983*
X01869Y01992*
X01861Y02*
X01852Y02005*
X01842Y02008*
G37*
G36*
Y01811D02*
X01832D01*
X01822Y01808*
X01813Y01803*
X01806Y01796*
X01801Y01787*
X01798Y01777*
Y01766*
X01801Y01756*
X01806Y01747*
X01813Y0174*
X01822Y01735*
X01832Y01732*
X01842*
X01852Y01735*
X01861Y0174*
X01869Y01747*
X01874Y01756*
X01877Y01766*
Y01777*
X01874Y01787*
X01869Y01796*
X01861Y01803*
X01852Y01808*
X01842Y01811*
G37*
G36*
X01839Y0071D02*
X01826D01*
Y00683*
X01871*
X0187Y00686*
X01867Y00694*
X01862Y00701*
X01855Y00706*
X01848Y00709*
X01839Y0071*
G37*
G36*
X01816D02*
X01802D01*
X01794Y00709*
X01786Y00706*
X01779Y00701*
X01774Y00694*
X01771Y00686*
X01771Y00683*
X01816*
Y0071*
G37*
G36*
X01871Y00317D02*
X01826D01*
Y0029*
X01839*
X01848Y00291*
X01855Y00295*
X01862Y003*
X01867Y00306*
X0187Y00314*
X01871Y00317*
G37*
G36*
X01816D02*
X01771D01*
X01771Y00314*
X01774Y00306*
X01779Y003*
X01786Y00295*
X01794Y00291*
X01798Y00291*
X01798Y00286*
X01796Y00285*
X01791Y0028*
X01789Y00274*
Y00268*
X01791Y00262*
X01796Y00258*
X01801Y00255*
X01808*
X01813Y00258*
X01818Y00262*
X0182Y00268*
Y00274*
X01818Y0028*
X01813Y00285*
X01811Y00285*
X01812Y0029*
X01816*
Y00317*
G37*
%LNpcb1-3*%
%LPD*%
G54D60*
X01471Y0133D03*
X00528Y01158D03*
Y01549D03*
X00528Y00349D03*
Y00449D03*
Y00249D03*
Y00149D03*
G54D61*
X00528Y00549D03*
G54D64*
X01821Y00678D03*
Y00322D03*
G54D65*
X00894Y00157D03*
G54D84*
X01263Y01348D03*
G54D86*
X00167Y01908D03*
Y02139D03*
X00398Y01908D03*
Y02139D03*
X00923Y02148D03*
X01154D03*
X00923Y01917D03*
X01154D03*
G54D89*
X00441Y01789D03*
X01465Y00104D03*
X01745Y00013D03*
X01166Y01098D03*
X00813Y01119D03*
Y01166D03*
X00751Y01118D03*
X0075Y01165D03*
X00697Y01118D03*
X00697Y01165D03*
X01502Y00656D03*
X01633Y00596D03*
X01631Y00408D03*
X01165Y01141D03*
X01165Y01182D03*
X01794Y01592D03*
Y01653D03*
X0171Y01601D03*
Y01654D03*
X01638Y01602D03*
Y01653D03*
X00912Y00889D03*
X00912Y00927D03*
X00857Y00925D03*
X00855Y00889D03*
X00797Y00891D03*
X00796Y00925D03*
X00621Y01666D03*
X00842Y01422D03*
X00854Y01359D03*
X00804D03*
X00971Y00515D03*
X01516Y00547D03*
X00881Y00258D03*
X01198Y0002D03*
X01577Y00057D03*
G54D90*
X01961Y00116D03*
M02*