%FSTAX23Y23*%
%MOIN*%
%SFA1B1*%

%IPPOS*%
%ADD10C,0.009840*%
%ADD11C,0.023620*%
%ADD12C,0.007870*%
%ADD13C,0.005910*%
%ADD14C,0.003940*%
%ADD15C,0.010000*%
%ADD16C,0.004720*%
%LNpcb1-1*%
%LPD*%
G36*
X01438Y00747D02*
X01433D01*
Y00786*
X01433*
Y00786*
X01292*
Y00786*
X01292*
Y00747*
X01287*
Y00791*
X01438*
Y00747*
G37*
G36*
X01426Y00743D02*
X01426D01*
Y00743*
X01427*
Y00743*
X01427*
Y00743*
X01427*
Y00743*
X01427*
Y00743*
X01427*
Y00743*
X01427*
Y00743*
X01427*
Y00742*
X01427*
Y00742*
X01428*
Y00742*
X01428*
Y00742*
X01428*
Y00742*
X01428*
Y00742*
X01428*
Y00742*
X01428*
Y00742*
X01428*
Y00742*
X01428*
Y00742*
X01429*
Y00742*
X01429*
Y00742*
X01429*
Y00742*
X01429*
Y00741*
X01429*
Y00741*
X01429*
Y00741*
X01429*
Y00741*
X0143*
Y00741*
X0143*
Y00741*
X0143*
Y00741*
X0143*
Y00741*
X0143*
Y00741*
X0143*
Y00741*
X0143*
Y00741*
X0143*
Y00741*
X01431*
Y00741*
X01431*
Y00741*
X01431*
Y0074*
X01431*
Y0074*
X01431*
Y0074*
X01431*
Y0074*
X01431*
Y0074*
X01431*
Y0074*
X01432*
Y0074*
X01432*
Y0074*
X01432*
Y0074*
X01432*
Y0074*
X01432*
Y0074*
X01432*
Y0074*
X01432*
Y0074*
X01432*
Y00739*
X01433*
Y00739*
X01433*
Y00739*
X01433*
Y00739*
X01433*
Y00739*
X01433*
Y00739*
X01433*
Y00739*
X01433*
Y00739*
X01433*
Y00739*
X01434*
Y00739*
X01434*
Y00739*
X01434*
Y00739*
X01434*
Y00739*
X01434*
Y00738*
X01434*
Y00738*
X01434*
Y00738*
X01434*
Y00738*
X01435*
Y00738*
X01435*
Y00738*
X01435*
Y00738*
X01435*
Y00738*
X01435*
Y00738*
X01435*
Y00738*
X01435*
Y00738*
X01436*
Y00738*
X01436*
Y00738*
X01436*
Y00738*
X01436*
Y00737*
X01436*
Y00737*
X01436*
Y00737*
X01436*
Y00737*
X01436*
Y00737*
X01437*
Y00737*
X01437*
Y00737*
X01437*
Y00737*
X01437*
Y00737*
X01437*
Y00737*
X01437*
Y00737*
X01437*
Y00737*
X01437*
Y00737*
X01438*
Y00725*
X01425*
Y00732*
X01406*
Y00743*
X01426*
Y00743*
G37*
G36*
Y00717D02*
X01426D01*
Y00717*
X01427*
Y00717*
X01427*
Y00716*
X01427*
Y00716*
X01427*
Y00716*
X01427*
Y00716*
X01427*
Y00716*
X01427*
Y00716*
X01427*
Y00716*
X01428*
Y00716*
X01428*
Y00716*
X01428*
Y00716*
X01428*
Y00716*
X01428*
Y00716*
X01428*
Y00716*
X01428*
Y00715*
X01429*
Y00715*
X01429*
Y00715*
X01429*
Y00715*
X01429*
Y00715*
X01429*
Y00715*
X01429*
Y00715*
X01429*
Y00715*
X01429*
Y00715*
X0143*
Y00715*
X0143*
Y00715*
X0143*
Y00715*
X0143*
Y00715*
X0143*
Y00714*
X0143*
Y00714*
X0143*
Y00714*
X01431*
Y00714*
X01431*
Y00714*
X01431*
Y00714*
X01431*
Y00714*
X01431*
Y00714*
X01431*
Y00714*
X01431*
Y00714*
X01431*
Y00714*
X01431*
Y00714*
X01432*
Y00714*
X01432*
Y00714*
X01432*
Y00713*
X01432*
Y00713*
X01432*
Y00713*
X01432*
Y00713*
X01432*
Y00713*
X01433*
Y00713*
X01433*
Y00713*
X01433*
Y00713*
X01433*
Y00713*
X01433*
Y00713*
X01433*
Y00713*
X01433*
Y00713*
X01433*
Y00713*
X01434*
Y00712*
X01434*
Y00712*
X01434*
Y00712*
X01434*
Y00712*
X01434*
Y00712*
X01434*
Y00712*
X01434*
Y00712*
X01434*
Y00712*
X01435*
Y00712*
X01435*
Y00712*
X01435*
Y00712*
X01435*
Y00712*
X01435*
Y00712*
X01435*
Y00711*
X01435*
Y00711*
X01436*
Y00711*
X01436*
Y00711*
X01436*
Y00711*
X01436*
Y00711*
X01436*
Y00711*
X01436*
Y00711*
X01436*
Y00711*
X01436*
Y00711*
X01437*
Y00711*
X01437*
Y00711*
X01437*
Y00711*
X01437*
Y0071*
X01437*
Y0071*
X01437*
Y0071*
X01437*
Y0071*
X01437*
Y0071*
X01438*
Y00699*
Y00694*
X01437*
Y00694*
X01437*
Y00694*
X01437*
Y00694*
X01437*
Y00694*
X01437*
Y00693*
X01437*
Y00693*
X01437*
Y00693*
X01437*
Y00693*
X01436*
Y00693*
X01436*
Y00693*
X01436*
Y00693*
X01436*
Y00693*
X01436*
Y00693*
X01436*
Y00693*
X01436*
Y00693*
X01436*
Y00693*
X01435*
Y00693*
X01435*
Y00693*
X01435*
Y00692*
X01435*
Y00692*
X01435*
Y00692*
X01435*
Y00692*
X01435*
Y00692*
X01434*
Y00692*
X01434*
Y00692*
X01434*
Y00692*
X01434*
Y00692*
X01434*
Y00692*
X01434*
Y00692*
X01434*
Y00692*
X01434*
Y00692*
X01433*
Y00691*
X01433*
Y00691*
X01433*
Y00691*
X01433*
Y00691*
X01433*
Y00691*
X01433*
Y00691*
X01433*
Y00691*
X01433*
Y00691*
X01432*
Y00691*
X01432*
Y00691*
X01432*
Y00691*
X01432*
Y00691*
X01432*
Y00691*
X01432*
Y0069*
X01432*
Y0069*
X01431*
Y0069*
X01431*
Y0069*
X01431*
Y0069*
X01431*
Y0069*
X01431*
Y0069*
X01431*
Y0069*
X01431*
Y0069*
X01431*
Y0069*
X01431*
Y0069*
X0143*
Y0069*
X0143*
Y0069*
X0143*
Y0069*
X0143*
Y00689*
X0143*
Y00689*
X0143*
Y00689*
X0143*
Y00689*
X01429*
Y00689*
X01429*
Y00689*
X01429*
Y00689*
X01429*
Y00689*
X01429*
Y00689*
X01429*
Y00689*
X01429*
Y00689*
X01429*
Y00689*
X01428*
Y00689*
X01428*
Y00688*
X01428*
Y00688*
X01428*
Y00688*
X01428*
Y00688*
X01428*
Y00688*
X01428*
Y00688*
X01427*
Y00688*
X01427*
Y00688*
X01427*
Y00688*
X01427*
Y00688*
X01427*
Y00688*
X01427*
Y00688*
X01427*
Y00688*
X01427*
Y00687*
X01426*
Y00687*
X01426*
Y00687*
X01407*
Y00697*
Y00697*
Y00699*
X01407*
Y00699*
X01425*
Y00705*
X01407*
Y00705*
X01407*
Y00707*
Y00707*
Y00717*
X01426*
Y00717*
G37*
G36*
X01402Y00732D02*
X01383D01*
Y00699*
Y00699*
Y00699*
X01401*
Y00687*
X01382*
Y00687*
X01381*
Y00687*
X01381*
Y00688*
X01381*
Y00688*
X01381*
Y00688*
X01381*
Y00688*
X01381*
Y00688*
X01381*
Y00688*
X01381*
Y00688*
X0138*
Y00688*
X0138*
Y00688*
X0138*
Y00688*
X0138*
Y00688*
X0138*
Y00688*
X0138*
Y00688*
X0138*
Y00689*
X0138*
Y00689*
X01379*
Y00689*
X01379*
Y00689*
X01379*
Y00689*
X01379*
Y00689*
X01379*
Y00689*
X01379*
Y00689*
X01379*
Y00689*
X01379*
Y00689*
X01378*
Y00689*
X01378*
Y00689*
X01378*
Y00689*
X01378*
Y0069*
X01378*
Y0069*
X01378*
Y0069*
X01378*
Y0069*
X01377*
Y0069*
X01377*
Y0069*
X01377*
Y0069*
X01377*
Y0069*
X01377*
Y0069*
X01377*
Y0069*
X01377*
Y0069*
X01377*
Y0069*
X01376*
Y0069*
X01376*
Y0069*
X01376*
Y00691*
X01376*
Y00691*
X01376*
Y00691*
X01376*
Y00691*
X01376*
Y00691*
X01375*
Y00691*
X01375*
Y00691*
X01375*
Y00691*
X01375*
Y00691*
X01375*
Y00691*
X01375*
Y00691*
X01375*
Y00691*
X01375*
Y00691*
X01375*
Y00692*
X01374*
Y00692*
X01374*
Y00692*
X01374*
Y00692*
X01374*
Y00692*
X01374*
Y00692*
X01374*
Y00692*
X01374*
Y00692*
X01373*
Y00692*
X01373*
Y00692*
X01373*
Y00692*
X01373*
Y00692*
X01373*
Y00692*
X01373*
Y00693*
X01373*
Y00693*
X01373*
Y00693*
X01372*
Y00693*
X01372*
Y00693*
X01372*
Y00693*
X01372*
Y00693*
X01372*
Y00693*
X01372*
Y00693*
X01372*
Y00693*
X01372*
Y00693*
X01371*
Y00693*
X01371*
Y00693*
X01371*
Y00693*
X01371*
Y00694*
X01371*
Y00694*
X01371*
Y00694*
X01371*
Y00694*
X0137*
Y00694*
X0137*
Y00694*
X0137*
Y00736*
X0137*
Y00737*
X01371*
Y00737*
X01371*
Y00737*
X01371*
Y00737*
X01371*
Y00737*
X01371*
Y00737*
X01371*
Y00737*
X01371*
Y00737*
X01371*
Y00737*
X01372*
Y00737*
X01372*
Y00737*
X01372*
Y00737*
X01372*
Y00737*
X01372*
Y00738*
X01372*
Y00738*
X01372*
Y00738*
X01372*
Y00738*
X01373*
Y00738*
X01373*
Y00738*
X01373*
Y00738*
X01373*
Y00738*
X01373*
Y00738*
X01373*
Y00738*
X01373*
Y00738*
X01373*
Y00738*
X01374*
Y00738*
X01374*
Y00738*
X01374*
Y00739*
X01374*
Y00739*
X01374*
Y00739*
X01374*
Y00739*
X01374*
Y00739*
X01374*
Y00739*
X01375*
Y00739*
X01375*
Y00739*
X01375*
Y00739*
X01375*
Y00739*
X01375*
Y00739*
X01375*
Y00739*
X01375*
Y00739*
X01375*
Y0074*
X01376*
Y0074*
X01376*
Y0074*
X01376*
Y0074*
X01376*
Y0074*
X01376*
Y0074*
X01376*
Y0074*
X01376*
Y0074*
X01376*
Y0074*
X01377*
Y0074*
X01377*
Y0074*
X01377*
Y0074*
X01377*
Y0074*
X01377*
Y00741*
X01377*
Y00741*
X01377*
Y00741*
X01378*
Y00741*
X01378*
Y00741*
X01378*
Y00741*
X01378*
Y00741*
X01378*
Y00741*
X01378*
Y00741*
X01378*
Y00741*
X01378*
Y00741*
X01379*
Y00741*
X01379*
Y00741*
X01379*
Y00741*
X01379*
Y00742*
X01379*
Y00742*
X01379*
Y00742*
X01379*
Y00742*
X01379*
Y00742*
X0138*
Y00742*
X0138*
Y00742*
X0138*
Y00742*
X0138*
Y00742*
X0138*
Y00742*
X0138*
Y00742*
X0138*
Y00742*
X0138*
Y00742*
X01381*
Y00743*
X01381*
Y00743*
X01381*
Y00743*
X01381*
Y00743*
X01381*
Y00743*
X01381*
Y00743*
X01381*
Y00743*
X01382*
Y00743*
X01382*
Y00743*
X01402*
Y00732*
G37*
G36*
X01354Y00709D02*
Y00709D01*
Y00694*
X01354*
Y00694*
X01354*
Y00694*
X01354*
Y00694*
X01353*
Y00694*
X01353*
Y00694*
X01353*
Y00693*
X01353*
Y00693*
X01353*
Y00693*
X01353*
Y00693*
X01353*
Y00693*
X01353*
Y00693*
X01352*
Y00693*
X01352*
Y00693*
X01352*
Y00693*
X01352*
Y00693*
X01352*
Y00693*
X01352*
Y00693*
X01352*
Y00693*
X01352*
Y00693*
X01351*
Y00692*
X01351*
Y00692*
X01351*
Y00692*
X01351*
Y00692*
X01351*
Y00692*
X01351*
Y00692*
X01351*
Y00692*
X01351*
Y00692*
X0135*
Y00692*
X0135*
Y00692*
X0135*
Y00692*
X0135*
Y00692*
X0135*
Y00692*
X0135*
Y00691*
X0135*
Y00691*
X0135*
Y00691*
X01349*
Y00691*
X01349*
Y00691*
X01349*
Y00691*
X01349*
Y00691*
X01349*
Y00691*
X01349*
Y00691*
X01349*
Y00691*
X01349*
Y00691*
X01348*
Y00691*
X01348*
Y00691*
X01348*
Y0069*
X01348*
Y0069*
X01348*
Y0069*
X01348*
Y0069*
X01348*
Y0069*
X01348*
Y0069*
X01347*
Y0069*
X01347*
Y0069*
X01347*
Y0069*
X01347*
Y0069*
X01347*
Y0069*
X01347*
Y0069*
X01347*
Y0069*
X01347*
Y0069*
X01346*
Y00689*
X01346*
Y00689*
X01346*
Y00689*
X01346*
Y00689*
X01346*
Y00689*
X01346*
Y00689*
X01346*
Y00689*
X01346*
Y00689*
X01345*
Y00689*
X01345*
Y00689*
X01345*
Y00689*
X01345*
Y00689*
X01345*
Y00689*
X01345*
Y00688*
X01345*
Y00688*
X01344*
Y00688*
X01344*
Y00688*
X01344*
Y00688*
X01344*
Y00688*
X01344*
Y00688*
X01344*
Y00688*
X01344*
Y00688*
X01344*
Y00688*
X01344*
Y00688*
X01343*
Y00688*
X01343*
Y00688*
X01343*
Y00687*
X01343*
Y00687*
X01343*
Y00687*
X01323*
Y00698*
X01342*
Y00743*
X01354*
Y00709*
G37*
G36*
X01299Y00698D02*
X01318D01*
Y00698*
X01318*
Y00687*
X01298*
Y00687*
X01298*
Y00687*
X01298*
Y00688*
X01298*
Y00688*
X01298*
Y00688*
X01298*
Y00688*
X01297*
Y00688*
X01297*
Y00688*
X01297*
Y00688*
X01297*
Y00688*
X01297*
Y00688*
X01297*
Y00688*
X01297*
Y00688*
X01296*
Y00688*
X01296*
Y00688*
X01296*
Y00689*
X01296*
Y00689*
X01296*
Y00689*
X01296*
Y00689*
X01296*
Y00689*
X01296*
Y00689*
X01295*
Y00689*
X01295*
Y00689*
X01295*
Y00689*
X01295*
Y00689*
X01295*
Y00689*
X01295*
Y00689*
X01295*
Y00689*
X01295*
Y0069*
X01294*
Y0069*
X01294*
Y0069*
X01294*
Y0069*
X01294*
Y0069*
X01294*
Y0069*
X01294*
Y0069*
X01294*
Y0069*
X01294*
Y0069*
X01293*
Y0069*
X01293*
Y0069*
X01293*
Y0069*
X01293*
Y0069*
X01293*
Y0069*
X01293*
Y00691*
X01293*
Y00691*
X01292*
Y00691*
X01292*
Y00691*
X01292*
Y00691*
X01292*
Y00691*
X01292*
Y00691*
X01292*
Y00691*
X01292*
Y00691*
X01292*
Y00691*
X01291*
Y00691*
X01291*
Y00691*
X01291*
Y00691*
X01291*
Y00692*
X01291*
Y00692*
X01291*
Y00692*
X01291*
Y00692*
X01291*
Y00692*
X0129*
Y00692*
X0129*
Y00692*
X0129*
Y00692*
X0129*
Y00692*
X0129*
Y00692*
X0129*
Y00692*
X0129*
Y00692*
X01289*
Y00692*
X01289*
Y00693*
X01289*
Y00693*
X01289*
Y00693*
X01289*
Y00693*
X01289*
Y00693*
X01289*
Y00693*
X01289*
Y00693*
X01289*
Y00693*
X01288*
Y00693*
X01288*
Y00693*
X01288*
Y00693*
X01288*
Y00693*
X01288*
Y00693*
X01288*
Y00693*
X01288*
Y00694*
X01287*
Y00694*
X01287*
Y00694*
X01287*
Y00694*
X01287*
Y00694*
X01287*
Y00705*
X01299*
Y00698*
G37*
G36*
X01438Y0064D02*
X01287D01*
Y00684*
X01292*
Y0067*
Y0067*
Y00645*
X01292*
Y00645*
X01433*
Y00645*
X01433*
Y00684*
X01438*
Y0064*
G37*
G54D10*
X0107Y01013D02*
D01*
X0107Y01014*
X0107Y01014*
X0107Y01014*
X0107Y01015*
X0107Y01015*
X01069Y01015*
X01069Y01016*
X01069Y01016*
X01069Y01016*
X01069Y01017*
X01068Y01017*
X01068Y01017*
X01068Y01017*
X01068Y01018*
X01067Y01018*
X01067Y01018*
X01067Y01018*
X01066Y01018*
X01066Y01018*
X01066Y01018*
X01065Y01018*
X01065Y01018*
X01065*
X01064Y01018*
X01064Y01018*
X01064Y01018*
X01063Y01018*
X01063Y01018*
X01063Y01018*
X01062Y01018*
X01062Y01018*
X01062Y01017*
X01062Y01017*
X01061Y01017*
X01061Y01017*
X01061Y01016*
X01061Y01016*
X01061Y01016*
X0106Y01015*
X0106Y01015*
X0106Y01015*
X0106Y01014*
X0106Y01014*
X0106Y01014*
X0106Y01013*
X0106Y01013*
X0106Y01013*
X0106Y01012*
X0106Y01012*
X0106Y01012*
X0106Y01011*
X01061Y01011*
X01061Y01011*
X01061Y01011*
X01061Y0101*
X01061Y0101*
X01062Y0101*
X01062Y0101*
X01062Y01009*
X01062Y01009*
X01063Y01009*
X01063Y01009*
X01063Y01009*
X01064Y01009*
X01064Y01009*
X01064Y01009*
X01065Y01009*
X01065*
X01065Y01009*
X01066Y01009*
X01066Y01009*
X01066Y01009*
X01067Y01009*
X01067Y01009*
X01067Y01009*
X01068Y01009*
X01068Y0101*
X01068Y0101*
X01068Y0101*
X01069Y0101*
X01069Y01011*
X01069Y01011*
X01069Y01011*
X01069Y01011*
X0107Y01012*
X0107Y01012*
X0107Y01012*
X0107Y01013*
X0107Y01013*
X0107Y01013*
X00901Y01246D02*
D01*
X00901Y01247*
X00901Y01247*
X00901Y01247*
X00901Y01248*
X00901Y01248*
X00901Y01248*
X00901Y01249*
X009Y01249*
X009Y01249*
X009Y01249*
X009Y0125*
X009Y0125*
X00899Y0125*
X00899Y0125*
X00899Y01251*
X00898Y01251*
X00898Y01251*
X00898Y01251*
X00897Y01251*
X00897Y01251*
X00897Y01251*
X00896Y01251*
X00896*
X00896Y01251*
X00895Y01251*
X00895Y01251*
X00895Y01251*
X00894Y01251*
X00894Y01251*
X00894Y01251*
X00893Y0125*
X00893Y0125*
X00893Y0125*
X00893Y0125*
X00892Y01249*
X00892Y01249*
X00892Y01249*
X00892Y01249*
X00892Y01248*
X00892Y01248*
X00892Y01248*
X00891Y01247*
X00891Y01247*
X00891Y01247*
X00891Y01246*
X00891Y01246*
X00891Y01246*
X00891Y01245*
X00892Y01245*
X00892Y01245*
X00892Y01244*
X00892Y01244*
X00892Y01244*
X00892Y01243*
X00892Y01243*
X00893Y01243*
X00893Y01243*
X00893Y01242*
X00893Y01242*
X00894Y01242*
X00894Y01242*
X00894Y01242*
X00895Y01242*
X00895Y01242*
X00895Y01241*
X00896Y01241*
X00896Y01241*
X00896*
X00897Y01241*
X00897Y01241*
X00897Y01242*
X00898Y01242*
X00898Y01242*
X00898Y01242*
X00899Y01242*
X00899Y01242*
X00899Y01242*
X009Y01243*
X009Y01243*
X009Y01243*
X009Y01243*
X009Y01244*
X00901Y01244*
X00901Y01244*
X00901Y01245*
X00901Y01245*
X00901Y01245*
X00901Y01246*
X00901Y01246*
X00901Y01246*
X01049Y00514D02*
D01*
X01049Y00514*
X01049Y00515*
X01049Y00515*
X01049Y00515*
X01049Y00516*
X01049Y00516*
X01049Y00516*
X01048Y00517*
X01048Y00517*
X01048Y00517*
X01048Y00517*
X01048Y00518*
X01047Y00518*
X01047Y00518*
X01047Y00518*
X01046Y00518*
X01046Y00519*
X01046Y00519*
X01046Y00519*
X01045Y00519*
X01045Y00519*
X01044Y00519*
X01044*
X01044Y00519*
X01043Y00519*
X01043Y00519*
X01043Y00519*
X01042Y00519*
X01042Y00518*
X01042Y00518*
X01042Y00518*
X01041Y00518*
X01041Y00518*
X01041Y00517*
X01041Y00517*
X0104Y00517*
X0104Y00517*
X0104Y00516*
X0104Y00516*
X0104Y00516*
X0104Y00515*
X01039Y00515*
X01039Y00515*
X01039Y00514*
X01039Y00514*
X01039Y00514*
X01039Y00513*
X01039Y00513*
X0104Y00513*
X0104Y00512*
X0104Y00512*
X0104Y00512*
X0104Y00511*
X0104Y00511*
X01041Y00511*
X01041Y00511*
X01041Y0051*
X01041Y0051*
X01042Y0051*
X01042Y0051*
X01042Y0051*
X01042Y00509*
X01043Y00509*
X01043Y00509*
X01043Y00509*
X01044Y00509*
X01044Y00509*
X01044*
X01045Y00509*
X01045Y00509*
X01046Y00509*
X01046Y00509*
X01046Y00509*
X01046Y0051*
X01047Y0051*
X01047Y0051*
X01047Y0051*
X01048Y0051*
X01048Y00511*
X01048Y00511*
X01048Y00511*
X01048Y00511*
X01049Y00512*
X01049Y00512*
X01049Y00512*
X01049Y00513*
X01049Y00513*
X01049Y00513*
X01049Y00514*
X01049Y00514*
X01422Y00929D02*
D01*
X01422Y00929*
X01422Y00929*
X01422Y0093*
X01422Y0093*
X01422Y0093*
X01422Y00931*
X01422Y00931*
X01421Y00931*
X01421Y00932*
X01421Y00932*
X01421Y00932*
X01421Y00932*
X0142Y00933*
X0142Y00933*
X0142Y00933*
X01419Y00933*
X01419Y00933*
X01419Y00933*
X01418Y00934*
X01418Y00934*
X01418Y00934*
X01417Y00934*
X01417*
X01417Y00934*
X01416Y00934*
X01416Y00934*
X01416Y00933*
X01415Y00933*
X01415Y00933*
X01415Y00933*
X01415Y00933*
X01414Y00933*
X01414Y00932*
X01414Y00932*
X01414Y00932*
X01413Y00932*
X01413Y00931*
X01413Y00931*
X01413Y00931*
X01413Y0093*
X01413Y0093*
X01412Y0093*
X01412Y00929*
X01412Y00929*
X01412Y00929*
X01412Y00928*
X01412Y00928*
X01412Y00928*
X01413Y00927*
X01413Y00927*
X01413Y00927*
X01413Y00926*
X01413Y00926*
X01413Y00926*
X01414Y00926*
X01414Y00925*
X01414Y00925*
X01414Y00925*
X01415Y00925*
X01415Y00925*
X01415Y00924*
X01415Y00924*
X01416Y00924*
X01416Y00924*
X01416Y00924*
X01417Y00924*
X01417Y00924*
X01417*
X01418Y00924*
X01418Y00924*
X01418Y00924*
X01419Y00924*
X01419Y00924*
X01419Y00924*
X0142Y00925*
X0142Y00925*
X0142Y00925*
X01421Y00925*
X01421Y00925*
X01421Y00926*
X01421Y00926*
X01421Y00926*
X01422Y00926*
X01422Y00927*
X01422Y00927*
X01422Y00927*
X01422Y00928*
X01422Y00928*
X01422Y00928*
X01422Y00929*
X00585Y01358D02*
D01*
X00585Y01358*
X00585Y01359*
X00585Y01359*
X00585Y01359*
X00585Y0136*
X00585Y0136*
X00585Y0136*
X00585Y01361*
X00584Y01361*
X00584Y01361*
X00584Y01361*
X00584Y01362*
X00583Y01362*
X00583Y01362*
X00583Y01362*
X00583Y01362*
X00582Y01363*
X00582Y01363*
X00582Y01363*
X00581Y01363*
X00581Y01363*
X00581Y01363*
X0058*
X0058Y01363*
X0058Y01363*
X00579Y01363*
X00579Y01363*
X00579Y01363*
X00578Y01362*
X00578Y01362*
X00578Y01362*
X00577Y01362*
X00577Y01362*
X00577Y01361*
X00577Y01361*
X00576Y01361*
X00576Y01361*
X00576Y0136*
X00576Y0136*
X00576Y0136*
X00576Y01359*
X00576Y01359*
X00576Y01359*
X00576Y01358*
X00576Y01358*
X00576Y01358*
X00576Y01357*
X00576Y01357*
X00576Y01357*
X00576Y01356*
X00576Y01356*
X00576Y01356*
X00576Y01355*
X00576Y01355*
X00577Y01355*
X00577Y01355*
X00577Y01354*
X00577Y01354*
X00578Y01354*
X00578Y01354*
X00578Y01354*
X00579Y01353*
X00579Y01353*
X00579Y01353*
X0058Y01353*
X0058Y01353*
X0058Y01353*
X00581*
X00581Y01353*
X00581Y01353*
X00582Y01353*
X00582Y01353*
X00582Y01353*
X00583Y01354*
X00583Y01354*
X00583Y01354*
X00583Y01354*
X00584Y01354*
X00584Y01355*
X00584Y01355*
X00584Y01355*
X00585Y01355*
X00585Y01356*
X00585Y01356*
X00585Y01356*
X00585Y01357*
X00585Y01357*
X00585Y01357*
X00585Y01358*
X00585Y01358*
X01198Y00718D02*
D01*
X01198Y00719*
X01198Y00719*
X01198Y00719*
X01198Y0072*
X01198Y0072*
X01198Y0072*
X01198Y00721*
X01197Y00721*
X01197Y00721*
X01197Y00721*
X01197Y00722*
X01197Y00722*
X01196Y00722*
X01196Y00722*
X01196Y00723*
X01195Y00723*
X01195Y00723*
X01195Y00723*
X01194Y00723*
X01194Y00723*
X01194Y00723*
X01193Y00723*
X01193*
X01193Y00723*
X01192Y00723*
X01192Y00723*
X01192Y00723*
X01191Y00723*
X01191Y00723*
X01191Y00723*
X01191Y00722*
X0119Y00722*
X0119Y00722*
X0119Y00722*
X0119Y00721*
X01189Y00721*
X01189Y00721*
X01189Y00721*
X01189Y0072*
X01189Y0072*
X01189Y0072*
X01188Y00719*
X01188Y00719*
X01188Y00719*
X01188Y00718*
X01188Y00718*
X01188Y00718*
X01188Y00717*
X01189Y00717*
X01189Y00717*
X01189Y00716*
X01189Y00716*
X01189Y00716*
X01189Y00715*
X0119Y00715*
X0119Y00715*
X0119Y00715*
X0119Y00714*
X01191Y00714*
X01191Y00714*
X01191Y00714*
X01191Y00714*
X01192Y00714*
X01192Y00714*
X01192Y00713*
X01193Y00713*
X01193Y00713*
X01193*
X01194Y00713*
X01194Y00713*
X01194Y00714*
X01195Y00714*
X01195Y00714*
X01195Y00714*
X01196Y00714*
X01196Y00714*
X01196Y00714*
X01197Y00715*
X01197Y00715*
X01197Y00715*
X01197Y00715*
X01197Y00716*
X01198Y00716*
X01198Y00716*
X01198Y00717*
X01198Y00717*
X01198Y00717*
X01198Y00718*
X01198Y00718*
X01198Y00718*
X00995Y01571D02*
D01*
X00995Y01571*
X00995Y01571*
X00995Y01572*
X00995Y01572*
X00995Y01572*
X00995Y01573*
X00994Y01573*
X00994Y01573*
X00994Y01574*
X00994Y01574*
X00994Y01574*
X00993Y01574*
X00993Y01574*
X00993Y01575*
X00993Y01575*
X00992Y01575*
X00992Y01575*
X00992Y01575*
X00991Y01575*
X00991Y01575*
X00991Y01576*
X0099Y01576*
X0099*
X0099Y01576*
X00989Y01575*
X00989Y01575*
X00989Y01575*
X00988Y01575*
X00988Y01575*
X00988Y01575*
X00987Y01575*
X00987Y01574*
X00987Y01574*
X00987Y01574*
X00986Y01574*
X00986Y01574*
X00986Y01573*
X00986Y01573*
X00986Y01573*
X00985Y01572*
X00985Y01572*
X00985Y01572*
X00985Y01571*
X00985Y01571*
X00985Y01571*
X00985Y0157*
X00985Y0157*
X00985Y0157*
X00985Y01569*
X00985Y01569*
X00986Y01569*
X00986Y01568*
X00986Y01568*
X00986Y01568*
X00986Y01567*
X00987Y01567*
X00987Y01567*
X00987Y01567*
X00987Y01567*
X00988Y01566*
X00988Y01566*
X00988Y01566*
X00989Y01566*
X00989Y01566*
X00989Y01566*
X0099Y01566*
X0099Y01566*
X0099*
X00991Y01566*
X00991Y01566*
X00991Y01566*
X00992Y01566*
X00992Y01566*
X00992Y01566*
X00993Y01566*
X00993Y01567*
X00993Y01567*
X00993Y01567*
X00994Y01567*
X00994Y01567*
X00994Y01568*
X00994Y01568*
X00994Y01568*
X00995Y01569*
X00995Y01569*
X00995Y01569*
X00995Y0157*
X00995Y0157*
X00995Y0157*
X00995Y01571*
X00585Y01749D02*
D01*
X00585Y0175*
X00585Y0175*
X00585Y0175*
X00585Y01751*
X00585Y01751*
X00585Y01751*
X00585Y01752*
X00585Y01752*
X00584Y01752*
X00584Y01753*
X00584Y01753*
X00584Y01753*
X00583Y01753*
X00583Y01753*
X00583Y01754*
X00583Y01754*
X00582Y01754*
X00582Y01754*
X00582Y01754*
X00581Y01754*
X00581Y01754*
X00581Y01754*
X0058*
X0058Y01754*
X0058Y01754*
X00579Y01754*
X00579Y01754*
X00579Y01754*
X00578Y01754*
X00578Y01754*
X00578Y01753*
X00577Y01753*
X00577Y01753*
X00577Y01753*
X00577Y01753*
X00576Y01752*
X00576Y01752*
X00576Y01752*
X00576Y01751*
X00576Y01751*
X00576Y01751*
X00576Y0175*
X00576Y0175*
X00576Y0175*
X00576Y01749*
X00576Y01749*
X00576Y01749*
X00576Y01748*
X00576Y01748*
X00576Y01748*
X00576Y01747*
X00576Y01747*
X00576Y01747*
X00576Y01746*
X00577Y01746*
X00577Y01746*
X00577Y01746*
X00577Y01746*
X00578Y01745*
X00578Y01745*
X00578Y01745*
X00579Y01745*
X00579Y01745*
X00579Y01745*
X0058Y01745*
X0058Y01744*
X0058Y01744*
X00581*
X00581Y01744*
X00581Y01745*
X00582Y01745*
X00582Y01745*
X00582Y01745*
X00583Y01745*
X00583Y01745*
X00583Y01745*
X00583Y01746*
X00584Y01746*
X00584Y01746*
X00584Y01746*
X00584Y01746*
X00585Y01747*
X00585Y01747*
X00585Y01747*
X00585Y01748*
X00585Y01748*
X00585Y01748*
X00585Y01749*
X00585Y01749*
X00585Y01749*
X01649Y00353D02*
D01*
X01649Y00353*
X01649Y00353*
X01649Y00354*
X01649Y00354*
X01649Y00354*
X01649Y00355*
X01649Y00355*
X01649Y00355*
X01648Y00355*
X01648Y00356*
X01648Y00356*
X01648Y00356*
X01647Y00356*
X01647Y00357*
X01647Y00357*
X01647Y00357*
X01646Y00357*
X01646Y00357*
X01646Y00357*
X01645Y00357*
X01645Y00357*
X01645Y00358*
X01644*
X01644Y00357*
X01644Y00357*
X01643Y00357*
X01643Y00357*
X01643Y00357*
X01642Y00357*
X01642Y00357*
X01642Y00357*
X01641Y00356*
X01641Y00356*
X01641Y00356*
X01641Y00356*
X0164Y00355*
X0164Y00355*
X0164Y00355*
X0164Y00355*
X0164Y00354*
X0164Y00354*
X0164Y00354*
X0164Y00353*
X01639Y00353*
X01639Y00353*
X01639Y00352*
X0164Y00352*
X0164Y00352*
X0164Y00351*
X0164Y00351*
X0164Y00351*
X0164Y0035*
X0164Y0035*
X0164Y0035*
X01641Y00349*
X01641Y00349*
X01641Y00349*
X01641Y00349*
X01642Y00349*
X01642Y00348*
X01642Y00348*
X01643Y00348*
X01643Y00348*
X01643Y00348*
X01644Y00348*
X01644Y00348*
X01644Y00348*
X01645*
X01645Y00348*
X01645Y00348*
X01646Y00348*
X01646Y00348*
X01646Y00348*
X01647Y00348*
X01647Y00348*
X01647Y00349*
X01647Y00349*
X01648Y00349*
X01648Y00349*
X01648Y00349*
X01648Y0035*
X01649Y0035*
X01649Y0035*
X01649Y00351*
X01649Y00351*
X01649Y00351*
X01649Y00352*
X01649Y00352*
X01649Y00352*
X01649Y00353*
X00905Y00242D02*
D01*
X00905Y00242*
X00905Y00243*
X00905Y00243*
X00905Y00243*
X00905Y00244*
X00905Y00244*
X00905Y00244*
X00904Y00245*
X00904Y00245*
X00904Y00245*
X00904Y00245*
X00904Y00246*
X00903Y00246*
X00903Y00246*
X00903Y00246*
X00902Y00246*
X00902Y00247*
X00902Y00247*
X00901Y00247*
X00901Y00247*
X00901Y00247*
X009Y00247*
X009*
X009Y00247*
X00899Y00247*
X00899Y00247*
X00899Y00247*
X00898Y00247*
X00898Y00246*
X00898Y00246*
X00898Y00246*
X00897Y00246*
X00897Y00246*
X00897Y00245*
X00897Y00245*
X00896Y00245*
X00896Y00245*
X00896Y00244*
X00896Y00244*
X00896Y00244*
X00896Y00243*
X00895Y00243*
X00895Y00243*
X00895Y00242*
X00895Y00242*
X00895Y00242*
X00895Y00241*
X00895Y00241*
X00896Y00241*
X00896Y0024*
X00896Y0024*
X00896Y0024*
X00896Y00239*
X00896Y00239*
X00897Y00239*
X00897Y00239*
X00897Y00238*
X00897Y00238*
X00898Y00238*
X00898Y00238*
X00898Y00238*
X00898Y00237*
X00899Y00237*
X00899Y00237*
X00899Y00237*
X009Y00237*
X009Y00237*
X009*
X00901Y00237*
X00901Y00237*
X00901Y00237*
X00902Y00237*
X00902Y00237*
X00902Y00238*
X00903Y00238*
X00903Y00238*
X00903Y00238*
X00904Y00238*
X00904Y00239*
X00904Y00239*
X00904Y00239*
X00904Y00239*
X00905Y0024*
X00905Y0024*
X00905Y0024*
X00905Y00241*
X00905Y00241*
X00905Y00241*
X00905Y00242*
X00905Y00242*
X00587Y00549D02*
D01*
X00587Y0055*
X00587Y0055*
X00587Y0055*
X00587Y00551*
X00587Y00551*
X00587Y00551*
X00587Y00552*
X00586Y00552*
X00586Y00552*
X00586Y00553*
X00586Y00553*
X00586Y00553*
X00585Y00553*
X00585Y00554*
X00585Y00554*
X00584Y00554*
X00584Y00554*
X00584Y00554*
X00583Y00554*
X00583Y00554*
X00583Y00554*
X00582Y00554*
X00582*
X00582Y00554*
X00581Y00554*
X00581Y00554*
X00581Y00554*
X0058Y00554*
X0058Y00554*
X0058Y00554*
X00579Y00554*
X00579Y00553*
X00579Y00553*
X00579Y00553*
X00578Y00553*
X00578Y00552*
X00578Y00552*
X00578Y00552*
X00578Y00551*
X00578Y00551*
X00578Y00551*
X00577Y0055*
X00577Y0055*
X00577Y0055*
X00577Y00549*
X00577Y00549*
X00577Y00549*
X00577Y00548*
X00578Y00548*
X00578Y00548*
X00578Y00547*
X00578Y00547*
X00578Y00547*
X00578Y00547*
X00578Y00546*
X00579Y00546*
X00579Y00546*
X00579Y00546*
X00579Y00545*
X0058Y00545*
X0058Y00545*
X0058Y00545*
X00581Y00545*
X00581Y00545*
X00581Y00545*
X00582Y00545*
X00582Y00545*
X00582*
X00583Y00545*
X00583Y00545*
X00583Y00545*
X00584Y00545*
X00584Y00545*
X00584Y00545*
X00585Y00545*
X00585Y00545*
X00585Y00546*
X00586Y00546*
X00586Y00546*
X00586Y00546*
X00586Y00547*
X00586Y00547*
X00587Y00547*
X00587Y00547*
X00587Y00548*
X00587Y00548*
X00587Y00548*
X00587Y00549*
X00587Y00549*
X00587Y00549*
X00585Y0094D02*
D01*
X00585Y0094*
X00585Y0094*
X00585Y00941*
X00585Y00941*
X00585Y00941*
X00585Y00942*
X00585Y00942*
X00585Y00942*
X00584Y00942*
X00584Y00943*
X00584Y00943*
X00584Y00943*
X00583Y00943*
X00583Y00944*
X00583Y00944*
X00583Y00944*
X00582Y00944*
X00582Y00944*
X00582Y00944*
X00581Y00944*
X00581Y00944*
X00581Y00944*
X0058*
X0058Y00944*
X0058Y00944*
X00579Y00944*
X00579Y00944*
X00579Y00944*
X00578Y00944*
X00578Y00944*
X00578Y00944*
X00577Y00943*
X00577Y00943*
X00577Y00943*
X00577Y00943*
X00576Y00942*
X00576Y00942*
X00576Y00942*
X00576Y00942*
X00576Y00941*
X00576Y00941*
X00576Y00941*
X00576Y0094*
X00576Y0094*
X00576Y0094*
X00576Y00939*
X00576Y00939*
X00576Y00938*
X00576Y00938*
X00576Y00938*
X00576Y00937*
X00576Y00937*
X00576Y00937*
X00576Y00937*
X00577Y00936*
X00577Y00936*
X00577Y00936*
X00577Y00936*
X00578Y00935*
X00578Y00935*
X00578Y00935*
X00579Y00935*
X00579Y00935*
X00579Y00935*
X0058Y00935*
X0058Y00935*
X0058Y00935*
X00581*
X00581Y00935*
X00581Y00935*
X00582Y00935*
X00582Y00935*
X00582Y00935*
X00583Y00935*
X00583Y00935*
X00583Y00935*
X00583Y00936*
X00584Y00936*
X00584Y00936*
X00584Y00936*
X00584Y00937*
X00585Y00937*
X00585Y00937*
X00585Y00937*
X00585Y00938*
X00585Y00938*
X00585Y00938*
X00585Y00939*
X00585Y00939*
X00585Y0094*
G54D11*
X01124Y01096D02*
D01*
X01124Y01097*
X01124Y01098*
X01124Y01099*
X01123Y01099*
X01123Y011*
X01123Y01101*
X01123Y01102*
X01122Y01102*
X01122Y01103*
X01121Y01104*
X01121Y01104*
X0112Y01105*
X01119Y01105*
X01119Y01106*
X01118Y01106*
X01117Y01107*
X01117Y01107*
X01116Y01107*
X01115Y01108*
X01114Y01108*
X01113Y01108*
X01113Y01108*
X01112*
X01111Y01108*
X0111Y01108*
X01109Y01108*
X01108Y01107*
X01108Y01107*
X01107Y01107*
X01106Y01106*
X01106Y01106*
X01105Y01105*
X01104Y01105*
X01104Y01104*
X01103Y01104*
X01103Y01103*
X01102Y01102*
X01102Y01102*
X01101Y01101*
X01101Y011*
X01101Y01099*
X01101Y01099*
X011Y01098*
X011Y01097*
X011Y01096*
X011Y01095*
X011Y01094*
X01101Y01094*
X01101Y01093*
X01101Y01092*
X01101Y01091*
X01102Y01091*
X01102Y0109*
X01103Y01089*
X01103Y01089*
X01104Y01088*
X01104Y01087*
X01105Y01087*
X01106Y01086*
X01106Y01086*
X01107Y01086*
X01108Y01085*
X01108Y01085*
X01109Y01085*
X0111Y01084*
X01111Y01084*
X01112Y01084*
X01113*
X01113Y01084*
X01114Y01084*
X01115Y01085*
X01116Y01085*
X01117Y01085*
X01117Y01086*
X01118Y01086*
X01119Y01086*
X01119Y01087*
X0112Y01087*
X01121Y01088*
X01121Y01089*
X01122Y01089*
X01122Y0109*
X01123Y01091*
X01123Y01091*
X01123Y01092*
X01123Y01093*
X01124Y01094*
X01124Y01094*
X01124Y01095*
X01124Y01096*
X01143Y00481D02*
D01*
X01143Y00481*
X01143Y00482*
X01142Y00483*
X01142Y00484*
X01142Y00485*
X01142Y00485*
X01141Y00486*
X01141Y00487*
X0114Y00487*
X0114Y00488*
X01139Y00489*
X01139Y00489*
X01138Y0049*
X01138Y0049*
X01137Y00491*
X01136Y00491*
X01135Y00492*
X01135Y00492*
X01134Y00492*
X01133Y00492*
X01132Y00492*
X01131Y00492*
X01131*
X0113Y00492*
X01129Y00492*
X01128Y00492*
X01127Y00492*
X01127Y00492*
X01126Y00491*
X01125Y00491*
X01124Y0049*
X01124Y0049*
X01123Y00489*
X01122Y00489*
X01122Y00488*
X01121Y00487*
X01121Y00487*
X01121Y00486*
X0112Y00485*
X0112Y00485*
X0112Y00484*
X01119Y00483*
X01119Y00482*
X01119Y00481*
X01119Y00481*
X01119Y0048*
X01119Y00479*
X01119Y00478*
X0112Y00477*
X0112Y00477*
X0112Y00476*
X01121Y00475*
X01121Y00474*
X01121Y00474*
X01122Y00473*
X01122Y00472*
X01123Y00472*
X01124Y00471*
X01124Y00471*
X01125Y0047*
X01126Y0047*
X01127Y0047*
X01127Y00469*
X01128Y00469*
X01129Y00469*
X0113Y00469*
X01131Y00469*
X01131*
X01132Y00469*
X01133Y00469*
X01134Y00469*
X01135Y00469*
X01135Y0047*
X01136Y0047*
X01137Y0047*
X01138Y00471*
X01138Y00471*
X01139Y00472*
X01139Y00472*
X0114Y00473*
X0114Y00474*
X01141Y00474*
X01141Y00475*
X01142Y00476*
X01142Y00477*
X01142Y00477*
X01142Y00478*
X01143Y00479*
X01143Y0048*
X01143Y00481*
G54D12*
X01073Y01057D02*
X01195D01*
X01073Y01202D02*
X01195D01*
X01073Y01057D02*
Y01202D01*
X01195Y01057D02*
Y01202D01*
X01213Y0089D02*
Y01405D01*
Y0089D02*
X01313D01*
Y01405*
X01213D02*
X01313D01*
X00887Y01048D02*
Y01186D01*
X0063Y01048D02*
X00887D01*
X0063D02*
Y01186D01*
X00887*
X01092Y00158D02*
Y0052D01*
X01454Y00158D02*
Y0052D01*
X01092D02*
X01454D01*
X01092Y00158D02*
X01454D01*
X0042Y01978D02*
Y02069D01*
X00237Y01886D02*
X00328D01*
X00145Y01978D02*
Y02069D01*
X00237Y02161D02*
X00328D01*
X01176Y01987D02*
Y02078D01*
X00993Y01895D02*
X01084D01*
X00901Y01987D02*
Y02078D01*
X00993Y0217D02*
X01084D01*
X00965Y0179D02*
X00996D01*
X00965Y01715D02*
X00996D01*
X01404Y01954D02*
Y02047D01*
X01859D02*
X01975D01*
X01404D02*
X0156D01*
X01404Y01693D02*
Y01832D01*
Y01693D02*
X0156D01*
X01859D02*
X01975D01*
Y02047*
X01911Y00875D02*
Y01385D01*
X01579Y00875D02*
X01911D01*
X01579D02*
Y01385D01*
X01911*
X00094Y01108D02*
Y01408D01*
X00426*
Y01108D02*
Y01408D01*
X00094Y01108D02*
X00426D01*
X00868Y00669D02*
X01168D01*
X00868Y00767D02*
X01168D01*
Y00669D02*
Y00767D01*
X00868Y00669D02*
Y00767D01*
X01022Y01677D02*
X01234D01*
X01022Y01641D02*
Y01677D01*
X01234Y01641D02*
Y01677D01*
X01022Y01464D02*
X01234D01*
X01022D02*
Y015D01*
X01234Y01464D02*
Y015D01*
X01118Y-00006D02*
X01168D01*
X01118Y00046D02*
X01168D01*
X00928Y00536D02*
X01007D01*
X00928Y00603D02*
X01007D01*
X00094Y01499D02*
X00426D01*
Y01799*
X00094D02*
X00426D01*
X00094Y01499D02*
Y01799D01*
X00817Y00321D02*
Y00776D01*
X00626Y00321D02*
Y00776D01*
X00781D02*
X00817D01*
X00626D02*
X00663D01*
X00626Y00321D02*
X00663D01*
X00781D02*
X00817D01*
X01467Y-00014D02*
X01546D01*
X01467Y00052D02*
X01546D01*
X01535Y00533D02*
Y00612D01*
X01602Y00533D02*
Y00612D01*
X01654Y00283D02*
X01869D01*
X01654Y00718D02*
X01869D01*
X01654Y00669D02*
Y00718D01*
Y00283D02*
Y00332D01*
X01228Y-00007D02*
X01278D01*
X01228Y00045D02*
X01278D01*
X00967Y00245D02*
Y00295D01*
X00914Y00245D02*
Y00295D01*
X01094Y00578D02*
Y00628D01*
X01041Y00578D02*
Y00628D01*
X01496Y00077D02*
X01547D01*
X01496Y0013D02*
X01547D01*
X00931Y00491D02*
X00981D01*
X00931Y00438D02*
X00981D01*
X00741Y00006D02*
X00946D01*
X00741D02*
Y00209D01*
X00946*
Y00006D02*
Y00209D01*
X00089Y00094D02*
Y00604D01*
X00421*
Y00094D02*
Y00604D01*
X00089Y00094D02*
X00421D01*
X00094Y0069D02*
Y0099D01*
X00426*
Y0069D02*
Y0099D01*
X00094Y0069D02*
X00426D01*
X00692Y01536D02*
Y01645D01*
X00621Y01536D02*
Y01645D01*
X00884Y01383D02*
X00915D01*
X00884Y01458D02*
X00915D01*
X01666Y01423D02*
Y0151D01*
X01757Y01498D02*
Y0151D01*
X01575D02*
X01757D01*
X01575Y01498D02*
Y0151D01*
Y01423D02*
Y01435D01*
Y01423D02*
X01757D01*
Y01435*
X0134Y01621D02*
X01319D01*
Y01605*
X01329Y0161*
X01335*
X0134Y01605*
Y01594*
X01335Y01589*
X01324*
X01319Y01594*
X0135Y01621D02*
Y016D01*
X01361Y01589*
X01371Y016*
Y01621*
X01382Y01615D02*
X01387Y01621D01*
X01398*
X01403Y01615*
Y01594*
X01398Y01589*
X01387*
X01382Y01594*
Y01615*
X01332Y01359D02*
X01338Y01365D01*
X01348*
X01353Y01359*
Y01354*
X01348Y01349*
X01343*
X01348*
X01353Y01344*
Y01338*
X01348Y01333*
X01338*
X01332Y01338*
X01364Y01365D02*
Y01344D01*
X01374Y01333*
X01385Y01344*
Y01365*
X01395Y01359D02*
X01401Y01365D01*
X01411*
X01416Y01359*
Y01354*
X01411Y01349*
X01406*
X01411*
X01416Y01344*
Y01338*
X01411Y01333*
X01401*
X01395Y01338*
X01332Y01256D02*
Y01224D01*
X01348*
X01353Y01229*
Y0125*
X01348Y01256*
X01332*
X01364D02*
X01374D01*
X01369*
Y01224*
X01364*
X01374*
X01406Y01256D02*
X01395D01*
X0139Y0125*
Y01229*
X01395Y01224*
X01406*
X01411Y01229*
Y0125*
X01406Y01256*
X01353Y01158D02*
X01348Y01163D01*
X01338*
X01332Y01158*
Y01137*
X01338Y01131*
X01348*
X01353Y01137*
X01364Y01163D02*
Y01131D01*
X01385*
X01395Y01163D02*
Y01131D01*
Y01142*
X01416Y01163*
X01401Y01147*
X01416Y01131*
X01332Y01032D02*
Y01063D01*
X01348*
X01353Y01058*
Y01047*
X01348Y01042*
X01332*
X01343D02*
X01353Y01032D01*
X01385Y01058D02*
X0138Y01063D01*
X01369*
X01364Y01058*
Y01053*
X01369Y01047*
X0138*
X01385Y01042*
Y01037*
X0138Y01032*
X01369*
X01364Y01037*
X01395Y01063D02*
X01416D01*
X01406*
Y01032*
X01351Y00974D02*
X01345Y00979D01*
X01335*
X0133Y00974*
Y00953*
X01335Y00947*
X01345*
X01351Y00953*
Y00963*
X0134*
X01361Y00947D02*
Y00979D01*
X01382Y00947*
Y00979*
X01393D02*
Y00947D01*
X01408*
X01414Y00953*
Y00974*
X01408Y00979*
X01393*
X0055Y01982D02*
Y01962D01*
X0054*
X00537Y01965*
Y01972*
X0054Y01975*
X0055*
X00544D02*
X00537Y01982D01*
X00531Y01962D02*
Y01982D01*
X00521*
X00518Y01979*
Y01975*
Y01972*
X00521Y01969*
X00531*
X00508Y01982D02*
X00501D01*
X00498Y01979*
Y01972*
X00501Y01969*
X00508*
X00511Y01972*
Y01979*
X00508Y01982*
X00488Y01965D02*
Y01969D01*
X00491*
X00485*
X00488*
Y01979*
X00485Y01982*
X01964Y00767D02*
Y00752D01*
X01972*
X01975Y00754*
Y00765*
X01972Y00767*
X01964*
X0198Y00752D02*
X01985D01*
X01983*
Y00767*
X0198Y00765*
X01578Y0041D02*
Y00429D01*
X01588*
X01592Y00426*
Y0042*
X01588Y00416*
X01578*
X01585D02*
X01592Y0041D01*
X01598D02*
X01605D01*
X01601*
Y00429*
X01598Y00426*
G54D13*
X00806Y01775D02*
X00861D01*
X00806Y01719D02*
X00817D01*
X00806D02*
Y0183D01*
X00817*
X00849D02*
X00861D01*
Y01719D02*
Y0183D01*
X00849Y01719D02*
X00861D01*
X00923Y0127D02*
X00934D01*
X00923Y0116D02*
Y0127D01*
Y0116D02*
X00934D01*
X00966D02*
X00978D01*
Y0127*
X00966D02*
X00978D01*
X00923Y01215D02*
X00978D01*
X00909Y01013D02*
X00964D01*
X00952Y01069D02*
X00964D01*
Y00958D02*
Y01069D01*
X00952Y00958D02*
X00964D01*
X00909D02*
X00921D01*
X00909D02*
Y01069D01*
X00921*
X00704Y01737D02*
Y01749D01*
X00593D02*
X00704D01*
X00593Y01737D02*
Y01749D01*
Y01694D02*
Y01706D01*
Y01694D02*
X00704D01*
Y01706*
X00649Y01694D02*
Y01749D01*
X00998Y01215D02*
X01053D01*
X01041Y0127D02*
X01053D01*
Y0116D02*
Y0127D01*
X01041Y0116D02*
X01053D01*
X00998D02*
X0101D01*
X00998D02*
Y0127D01*
X0101*
X01716Y00059D02*
Y00066D01*
X01616D02*
X01716D01*
X01616Y00059D02*
Y00066D01*
Y00011D02*
Y00019D01*
Y00011D02*
X01716D01*
Y00019*
X01666Y00011D02*
Y00066D01*
X01679Y00226D02*
X01687D01*
X01679Y00107D02*
Y00226D01*
Y00111D02*
X01697D01*
X01717D02*
X01734D01*
Y00107D02*
Y00226D01*
X01727D02*
X01734D01*
X01679Y00106D02*
Y00111D01*
Y00106D02*
X01697D01*
Y00111*
X01734Y00106D02*
Y00111D01*
X01717Y00106D02*
X01734D01*
X01717D02*
Y00111D01*
X01679Y00166D02*
X01693D01*
X0172D02*
X01734D01*
X01646D02*
X0166D01*
X01605D02*
X01618D01*
X01605Y00226D02*
X01612D01*
X01605Y00107D02*
Y00226D01*
Y00111D02*
X01622D01*
X01642D02*
X0166D01*
Y00107D02*
Y00226D01*
X01652D02*
X0166D01*
X01605Y00106D02*
Y00111D01*
Y00106D02*
X01622D01*
Y00111*
X0166Y00106D02*
Y00111D01*
X01642Y00106D02*
X0166D01*
X01642D02*
Y00111D01*
X01788Y00166D02*
X01802D01*
X01747D02*
X01761D01*
X01747Y00226D02*
X01754D01*
X01747Y00107D02*
Y00226D01*
Y00111D02*
X01764D01*
X01784D02*
X01802D01*
Y00107D02*
Y00226D01*
X01794D02*
X01802D01*
X01747Y00106D02*
Y00111D01*
Y00106D02*
X01764D01*
Y00111*
X01802Y00106D02*
Y00111D01*
X01784Y00106D02*
X01802D01*
X01784D02*
Y00111D01*
X01094Y00782D02*
Y00837D01*
X01044Y00829D02*
Y00837D01*
X01144*
Y00829D02*
Y00837D01*
Y00782D02*
Y00789D01*
X01044Y00782D02*
X01144D01*
X01044D02*
Y00789D01*
X00841Y00792D02*
Y008D01*
Y00792D02*
X00941D01*
Y008*
Y0084D02*
Y00847D01*
X00841D02*
X00941D01*
X00841Y0084D02*
Y00847D01*
X00891Y00792D02*
Y00847D01*
X00712Y01335D02*
Y0139D01*
X00762Y01335D02*
Y01342D01*
X00662Y01335D02*
X00762D01*
X00662D02*
Y01342D01*
Y01382D02*
Y0139D01*
X00762*
Y01382D02*
Y0139D01*
X00658Y01412D02*
Y01467D01*
X00608Y01459D02*
Y01467D01*
X00708*
Y01459D02*
Y01467D01*
Y01412D02*
Y01419D01*
X00608Y01412D02*
X00708D01*
X00608D02*
Y01419D01*
X00843Y00412D02*
X00898D01*
X00886Y00467D02*
X00898D01*
Y00357D02*
Y00467D01*
X00886Y00357D02*
X00898D01*
X00843D02*
X00855D01*
X00843D02*
Y00467D01*
X00855*
X01879Y00139D02*
Y00194D01*
X01929Y00139D02*
Y00146D01*
X01829Y00139D02*
X01929D01*
X01829D02*
Y00146D01*
Y00186D02*
Y00194D01*
X01929*
Y00186D02*
Y00194D01*
X01724Y00732D02*
Y00739D01*
Y00732D02*
X01824D01*
Y00739*
Y00779D02*
Y00787D01*
X01724D02*
X01824D01*
X01724Y00779D02*
Y00787D01*
X01774Y00732D02*
Y00787D01*
X01895Y00732D02*
Y00746D01*
Y00773D02*
Y00787D01*
X01835Y00749D02*
X0184D01*
X01835Y00732D02*
Y00749D01*
Y00732D02*
X0184D01*
X01835Y00769D02*
X0184D01*
X01835D02*
Y00787D01*
X0184*
X01955Y00732D02*
Y00739D01*
X01836Y00732D02*
X01955D01*
X0184D02*
Y00749D01*
Y00769D02*
Y00787D01*
X01836D02*
X01955D01*
Y00779D02*
Y00787D01*
X01892Y00047D02*
Y00055D01*
X01792D02*
X01892D01*
X01792Y00047D02*
Y00055D01*
Y0D02*
Y00007D01*
Y0D02*
X01892D01*
Y00007*
X01842Y0D02*
Y00055D01*
X00842Y00575D02*
X00897D01*
X00842Y0052D02*
X00854D01*
X00842D02*
Y0063D01*
X00854*
X00885D02*
X00897D01*
Y0052D02*
Y0063D01*
X00885Y0052D02*
X00897D01*
X01876Y00068D02*
Y00123D01*
X01926Y00068D02*
Y00076D01*
X01826Y00068D02*
X01926D01*
X01826D02*
Y00076D01*
Y00116D02*
Y00123D01*
X01926*
Y00116D02*
Y00123D01*
X01237Y01749D02*
Y0176D01*
X01126D02*
X01237D01*
X01126Y01749D02*
Y0176D01*
Y01705D02*
Y01717D01*
Y01705D02*
X01237D01*
Y01717*
X01181Y01705D02*
Y0176D01*
X01879Y00213D02*
Y00268D01*
X01829Y0026D02*
Y00268D01*
X01929*
Y0026D02*
Y00268D01*
Y00213D02*
Y0022D01*
X01829Y00213D02*
X01929D01*
X01829D02*
Y0022D01*
X0063Y00873D02*
Y00884D01*
Y00873D02*
X0074D01*
Y00884*
Y00916D02*
Y00928D01*
X0063D02*
X0074D01*
X0063Y00916D02*
Y00928D01*
X00685Y00873D02*
Y00928D01*
X00649Y01822D02*
Y0187D01*
X00589D02*
X00708D01*
Y01862D02*
Y0187D01*
X00589Y01862D02*
Y0187D01*
Y01822D02*
Y0183D01*
Y01822D02*
X00708D01*
Y0183*
X00494Y01879D02*
X00541D01*
Y0182D02*
Y01938D01*
X00534Y0182D02*
X00541D01*
X00534Y01938D02*
X00541D01*
X00494D02*
X00501D01*
X00494Y0182D02*
Y01938D01*
Y0182D02*
X00501D01*
X01198Y00939D02*
Y00946D01*
X01098D02*
X01198D01*
X01098Y00939D02*
Y00946D01*
Y00891D02*
Y00899D01*
Y00891D02*
X01198D01*
Y00899*
X01148Y00891D02*
Y00946D01*
X01563Y0034D02*
X01618D01*
X01563Y0029D02*
X01571D01*
X01563D02*
Y0039D01*
X01571*
X01611D02*
X01618D01*
Y0029D02*
Y0039D01*
X01611Y0029D02*
X01618D01*
X01582Y00683D02*
X01637D01*
X0163Y00733D02*
X01637D01*
Y00633D02*
Y00733D01*
X0163Y00633D02*
X01637D01*
X01582D02*
X0159D01*
X01582D02*
Y00733D01*
X0159*
X00813Y0129D02*
Y01302D01*
Y0129D02*
X00923D01*
Y01302*
Y01333D02*
Y01345D01*
X00813D02*
X00923D01*
X00813Y01333D02*
Y01345D01*
X00868Y0129D02*
Y01345D01*
X00711Y01695D02*
X00722D01*
X00711Y01585D02*
Y01695D01*
Y01585D02*
X00722D01*
X00754D02*
X00766D01*
Y01695*
X00754D02*
X00766D01*
X00711Y0164D02*
X00766D01*
X00734Y0183D02*
X00746D01*
X00734Y01719D02*
Y0183D01*
Y01719D02*
X00746D01*
X00777D02*
X00789D01*
Y0183*
X00777D02*
X00789D01*
X00734Y01775D02*
X00789D01*
X01933Y01487D02*
Y01494D01*
X01813D02*
X01933D01*
X01818Y01477D02*
Y01494D01*
Y01439D02*
Y01457D01*
X01813Y01439D02*
X01933D01*
Y01447*
X01813Y01494D02*
X01818D01*
X01813Y01477D02*
Y01494D01*
Y01477D02*
X01818D01*
X01813Y01439D02*
X01818D01*
X01813D02*
Y01457D01*
X01818*
X01873Y0148D02*
Y01494D01*
Y01439D02*
Y01453D01*
X01681Y0026D02*
Y0024D01*
X01691*
X01695Y00244*
Y00257*
X01691Y0026*
X01681*
X01714D02*
X01701D01*
Y0025*
X01708Y00254*
X01711*
X01714Y0025*
Y00244*
X01711Y0024*
X01704*
X01701Y00244*
X01607Y0026D02*
Y0024D01*
X01617*
X0162Y00244*
Y00257*
X01617Y0026*
X01607*
X01636Y0024D02*
Y0026D01*
X01627Y0025*
X0164*
X01748Y0026D02*
Y0024D01*
X01758*
X01761Y00244*
Y00257*
X01758Y0026*
X01748*
X01768Y00257D02*
X01771Y0026D01*
X01777*
X01781Y00257*
Y00254*
X01777Y0025*
X01774*
X01777*
X01781Y00247*
Y00244*
X01777Y0024*
X01771*
X01768Y00244*
X01246Y00355D02*
Y00328D01*
X01252Y00323*
X01262*
X01267Y00328*
Y00355*
X01278Y00349D02*
X01283Y00355D01*
X01294*
X01299Y00349*
Y00344*
X01294Y00339*
X01288*
X01294*
X01299Y00334*
Y00328*
X01294Y00323*
X01283*
X01278Y00328*
X00946Y00522D02*
X00943Y00525D01*
X00936*
X00933Y00522*
Y00509*
X00936Y00506*
X00943*
X00946Y00509*
X00953Y00525D02*
X00966D01*
Y00522*
X00953Y00509*
Y00506*
X00813Y00252D02*
X00806D01*
X0081*
Y00233*
X00806Y00229*
X00802*
X00798Y00233*
X00821Y00248D02*
X00825Y00252D01*
X00833*
X00837Y00248*
Y00244*
X00833Y0024*
X00837Y00236*
Y00233*
X00833Y00229*
X00825*
X00821Y00233*
Y00236*
X00825Y0024*
X00821Y00244*
Y00248*
X00825Y0024D02*
X00833D01*
X00596Y00905D02*
X00593Y00908D01*
X00588*
X00585Y00905*
Y00895*
X00588Y00892*
X00593*
X00596Y00895*
X00601Y00905D02*
X00604Y00908D01*
X00609*
X00611Y00905*
Y00903*
X00609Y009*
X00606*
X00609*
X00611Y00897*
Y00895*
X00609Y00892*
X00604*
X00601Y00895*
X01944Y00078D02*
Y00098D01*
X01954*
X01957Y00094*
Y00088*
X01954Y00084*
X01944*
X01951D02*
X01957Y00078D01*
X01964Y00094D02*
X01967Y00098D01*
X01974*
X01977Y00094*
Y00091*
X01974Y00088*
X01977Y00084*
Y00081*
X01974Y00078*
X01967*
X01964Y00081*
Y00084*
X01967Y00088*
X01964Y00091*
Y00094*
X01967Y00088D02*
X01974D01*
X01075Y00008D02*
X01072Y00004D01*
Y-00001*
X01075Y-00004*
X01088*
X01092Y-00001*
Y00004*
X01088Y00008*
X01092Y00014D02*
Y00021D01*
Y00018*
X01072*
X01075Y00014*
Y00031D02*
X01072Y00034D01*
Y00041*
X01075Y00044*
X01078*
X01082Y00041*
Y00037*
Y00041*
X01085Y00044*
X01088*
X01092Y00041*
Y00034*
X01088Y00031*
X0132Y0003D02*
X01323Y00034D01*
Y0004*
X0132Y00043*
X01307*
X01304Y0004*
Y00034*
X01307Y0003*
X01304Y00024D02*
Y00017D01*
Y0002*
X01323*
X0132Y00024*
X01304Y-00005D02*
Y00007D01*
X01317Y-00005*
X0132*
X01323Y-00002*
Y00004*
X0132Y00007*
X00961Y00627D02*
X00958Y0063D01*
X00951*
X00948Y00627*
Y00614*
X00951Y00611*
X00958*
X00961Y00614*
X00968Y00627D02*
X00971Y0063D01*
X00977*
X00981Y00627*
Y00624*
X00977Y0062*
X00981Y00617*
Y00614*
X00977Y00611*
X00971*
X00968Y00614*
Y00617*
X00971Y0062*
X00968Y00624*
Y00627*
X00971Y0062D02*
X00977D01*
X00876Y00275D02*
X00873Y00278D01*
X00868*
X00865Y00275*
Y00265*
X00868Y00262*
X00873*
X00876Y00265*
X00881Y00262D02*
X00886D01*
X00883*
Y00278*
X00881Y00275*
X00894D02*
X00897Y00278D01*
X00902*
X00904Y00275*
Y00265*
X00902Y00262*
X00897*
X00894Y00265*
Y00275*
X01017Y00652D02*
X01014Y00656D01*
X01007*
X01004Y00652*
Y00639*
X01007Y00636*
X01014*
X01017Y00639*
X01023D02*
X01027Y00636D01*
X01033*
X01037Y00639*
Y00652*
X01033Y00656*
X01027*
X01023Y00652*
Y00649*
X01027Y00646*
X01037*
X00848Y00343D02*
X00845Y00346D01*
X00839*
X00835Y00343*
Y0033*
X00839Y00327*
X00845*
X00848Y0033*
X00855Y00327D02*
X00862D01*
X00858*
Y00346*
X00855Y00343*
X00885Y00346D02*
X00871D01*
Y00337*
X00878Y0034*
X00881*
X00885Y00337*
Y0033*
X00881Y00327*
X00875*
X00871Y0033*
X00858Y005D02*
X00855Y00503D01*
X00848*
X00845Y005*
Y00487*
X00848Y00484*
X00855*
X00858Y00487*
X00865Y00484D02*
X00871D01*
X00868*
Y00503*
X00865Y005*
X00891Y00484D02*
Y00503D01*
X00881Y00493*
X00894*
X01907Y00017D02*
Y00037D01*
X01917*
X0192Y00034*
Y00027*
X01917Y00024*
X01907*
X01914D02*
X0192Y00017D01*
X01927D02*
X01933D01*
X0193*
Y00037*
X01927Y00034*
X01943D02*
X01946Y00037D01*
X01953*
X01956Y00034*
Y00021*
X01953Y00017*
X01946*
X01943Y00021*
Y00034*
X01733Y00027D02*
Y00047D01*
X01743*
X01746Y00043*
Y00037*
X01743Y00034*
X01733*
X0174D02*
X01746Y00027D01*
X01753Y0003D02*
X01756Y00027D01*
X01763*
X01766Y0003*
Y00043*
X01763Y00047*
X01756*
X01753Y00043*
Y0004*
X01756Y00037*
X01766*
G54D14*
X01707Y0016D02*
X01716Y00173D01*
X01707D02*
X01716D01*
X01707Y0016D02*
X01716D01*
X01698D02*
X01707D01*
X01697Y00173D02*
X01707D01*
X01697D02*
X01707Y0016D01*
X01622Y00173D02*
X01632Y0016D01*
X01622Y00173D02*
X01632D01*
X01623Y0016D02*
X01632D01*
X01641*
X01632Y00173D02*
X01642D01*
X01632Y0016D02*
X01642Y00173D01*
X01765D02*
X01774Y0016D01*
X01765Y00173D02*
X01774D01*
X01766Y0016D02*
X01774D01*
X01783*
X01774Y00173D02*
X01784D01*
X01774Y0016D02*
X01784Y00173D01*
X01888Y00759D02*
X01902Y00769D01*
Y00759D02*
Y00769D01*
X01888Y00759D02*
Y00768D01*
Y00751D02*
Y00759D01*
X01902Y0075D02*
Y00759D01*
X01888D02*
X01902Y0075D01*
X01866Y01467D02*
X01879Y01457D01*
Y01467*
X01866Y01458D02*
Y01467D01*
Y01475*
X01879Y01467D02*
Y01476D01*
X01866Y01467D02*
X01879Y01476D01*
X00827Y0187D02*
X00823Y01867D01*
Y01861*
X00827Y01857*
X0084*
X00843Y01861*
Y01867*
X0084Y0187*
X00843Y01877D02*
Y01883D01*
Y0188*
X0083*
Y01877*
X00843Y01893D02*
X0083D01*
Y01903*
X00833Y01906*
X00843*
X0083Y01913D02*
X00843Y01926D01*
X00837Y0192*
X0083Y01926*
X00843Y01913*
Y01946D02*
Y01933D01*
X0083Y01946*
X00827*
X00823Y01943*
Y01936*
X00827Y01933*
X01287Y01427D02*
Y01446D01*
X01296*
X013Y01443*
Y01436*
X01296Y01433*
X01287*
X01319Y01427D02*
X01306D01*
X01319Y0144*
Y01443*
X01316Y01446*
X0131*
X01306Y01443*
X00246Y01835D02*
Y01863D01*
X00255Y01854*
X00264Y01863*
Y01835*
X00273D02*
Y01863D01*
X00287*
X00292Y01858*
Y01849*
X00287Y01845*
X00273*
X00319Y01835D02*
X00301D01*
X00319Y01854*
Y01858*
X00315Y01863*
X00305*
X00301Y01858*
X01143Y01333D02*
Y01307D01*
X01149Y01302*
X01159*
X01164Y01307*
Y01333*
X0119Y01302D02*
Y01333D01*
X01175Y01318*
X01196*
X01034Y00909D02*
Y00929D01*
X01043*
X01047Y00925*
Y00919*
X01043Y00916*
X01034*
X0104D02*
X01047Y00909D01*
X01053D02*
X0106D01*
X01057*
Y00929*
X01053Y00925*
X01083Y00909D02*
X0107D01*
X01083Y00922*
Y00925*
X01079Y00929*
X01073*
X0107Y00925*
X00993Y01661D02*
Y01642D01*
X00997Y01638*
X01005*
X01009Y01642*
Y01661*
X01032Y01638D02*
X01016D01*
X01032Y01653*
Y01657*
X01028Y01661*
X0102*
X01016Y01657*
X00613Y01293D02*
X00594D01*
Y01302*
X00597Y01306*
X00604*
X00607Y01302*
Y01293*
Y01299D02*
X00613Y01306D01*
X006Y01312D02*
X00613D01*
X00607*
X00604Y01316*
X006Y01319*
Y01322*
X00613Y01342D02*
Y01335D01*
X0061Y01332*
X00604*
X006Y01335*
Y01342*
X00604Y01345*
X00607*
Y01332*
X00613Y01352D02*
Y01361D01*
X0061Y01365*
X00607Y01361*
Y01355*
X00604Y01352*
X006Y01355*
Y01365*
X00613Y01381D02*
Y01375D01*
X0061Y01371*
X00604*
X006Y01375*
Y01381*
X00604Y01384*
X00607*
Y01371*
X00597Y01394D02*
X006D01*
Y01391*
Y01398*
Y01394*
X0061*
X00613Y01398*
X00621Y0148D02*
Y01499D01*
X00631*
X00635Y01496*
Y01489*
X00631Y01486*
X00621*
X00628D02*
X00635Y0148D01*
X00644D02*
Y01496D01*
Y01489*
X00641*
X00648*
X00644*
Y01496*
X00648Y01499*
X00657D02*
Y0148D01*
X00667*
X00671Y01483*
Y01486*
Y01489*
X00667Y01493*
X00657*
X0068Y01496D02*
Y01493D01*
X00677*
X00684*
X0068*
Y01483*
X00684Y0148*
X00694D02*
X007D01*
X00697*
Y01499*
X00694Y01496*
X00604Y01544D02*
X00584D01*
Y01554*
X00587Y01557*
X00594*
X00597Y01554*
Y01544*
Y01551D02*
X00604Y01557D01*
Y01567D02*
X00587D01*
X00594*
Y01564*
Y0157*
Y01567*
X00587*
X00584Y0157*
Y0158D02*
X00604D01*
Y0159*
X006Y01593*
X00597*
X00594*
X00591Y0159*
Y0158*
X00584Y016D02*
X00604D01*
Y0161*
X006Y01613*
X00597*
X00594*
X00591Y0161*
Y016*
X00604Y0162D02*
Y01626D01*
Y01623*
X00584*
X00587Y0162*
X01275Y01467D02*
X01303D01*
Y01485*
Y01494D02*
Y01503D01*
Y01499*
X01275*
X0128Y01494*
X0073Y01495D02*
X00727Y01492D01*
Y01485*
X0073Y01482*
X00743*
X00746Y01485*
Y01492*
X00743Y01495*
X00733Y01501D02*
X00746Y01508D01*
X00733Y01515*
Y01534D02*
Y01524D01*
X00736Y01521*
X00743*
X00746Y01524*
Y01534*
X00733Y01554D02*
Y01544D01*
X00736Y01541*
X00743*
X00746Y01544*
Y01554*
Y01561D02*
Y01567D01*
Y01564*
X00727*
X0073Y01561*
X01215Y01773D02*
X01218Y01769D01*
X01224*
X01228Y01773*
Y01786*
X01224Y01789*
X01218*
X01215Y01786*
X01205Y01789D02*
X01198D01*
X01195Y01786*
Y01779*
X01198Y01776*
X01205*
X01208Y01779*
Y01786*
X01205Y01789*
X01188Y01776D02*
Y01786D01*
X01185Y01789*
X01175*
Y01776*
X01165Y01773D02*
Y01776D01*
X01169*
X01162*
X01165*
Y01786*
X01162Y01789*
X01152D02*
X01146D01*
X01149*
Y01769*
X01152Y01773*
X00704Y01308D02*
X00701Y01312D01*
X00694*
X00691Y01308*
Y01295*
X00694Y01292*
X00701*
X00704Y01295*
X00711Y01292D02*
X00717D01*
X00714*
Y01305*
X00711*
X00727Y01292D02*
Y01305D01*
X00737*
X0074Y01302*
Y01292*
X00747Y01305D02*
X0076Y01292D01*
X00753Y01298*
X0076Y01305*
X00747Y01292*
X00766D02*
X00773D01*
X0077*
Y01312*
X00766Y01308*
X01108Y01763D02*
X01104Y01759D01*
Y01753*
X01108Y0175*
X01121*
X01124Y01753*
Y01759*
X01121Y01763*
X01124Y01769D02*
Y01776D01*
Y01773*
X01111*
Y01769*
X01124Y01786D02*
X01111D01*
Y01795*
X01114Y01799*
X01124*
Y01818D02*
Y01805D01*
X01111Y01818*
X01108*
X01104Y01815*
Y01809*
X01108Y01805*
X01025Y01373D02*
X01022Y01369D01*
Y01363*
X01025Y0136*
X01038*
X01042Y01363*
Y01369*
X01038Y01373*
X01042Y01379D02*
Y01386D01*
Y01383*
X01029*
Y01379*
X01042Y01396D02*
X01029D01*
Y01406*
X01032Y01409*
X01042*
Y01415D02*
Y01422D01*
Y01419*
X01022*
X01025Y01415*
X00755Y01865D02*
X00752Y01862D01*
Y01855*
X00755Y01852*
X00768*
X00771Y01855*
Y01862*
X00768Y01865*
X00752Y01872D02*
X00771D01*
Y01882*
X00768Y01885*
X00765*
X00762*
X00758Y01882*
Y01872*
X00771Y01895D02*
Y01901D01*
X00768Y01905*
X00762*
X00758Y01901*
Y01895*
X00762Y01891*
X00768*
X00771Y01895*
Y01914D02*
Y01921D01*
X00768Y01924*
X00762*
X00758Y01921*
Y01914*
X00762Y01911*
X00768*
X00771Y01914*
X00755Y01934D02*
X00758D01*
Y01931*
Y01937*
Y01934*
X00768*
X00771Y01937*
Y01947D02*
Y01954D01*
Y0195*
X00752*
X00755Y01947*
X00606Y01792D02*
X00603Y01795D01*
X00596*
X00593Y01792*
Y01779*
X00596Y01775*
X00603*
X00606Y01779*
X00612Y01795D02*
Y01775D01*
X00622*
X00626Y01779*
Y01782*
Y01785*
X00622Y01789*
X00612*
X00632Y01775D02*
X00639D01*
X00635*
Y01789*
X00632*
X00652D02*
X00658D01*
X00662Y01785*
Y01775*
X00652*
X00648Y01779*
X00652Y01782*
X00662*
X00668Y01775D02*
X00678D01*
X00681Y01779*
X00678Y01782*
X00671*
X00668Y01785*
X00671Y01789*
X00681*
X00688Y01775D02*
X00694D01*
X00691*
Y01795*
X00688Y01792*
X00585Y01278D02*
Y01261D01*
X00589Y01258*
X00595*
X00598Y01261*
Y01278*
X00605Y01258D02*
X00611D01*
X00608*
Y01278*
X00605Y01274*
X01688Y00754D02*
Y00765D01*
X01694*
X01696Y00763*
Y00759*
X01694Y00758*
X01688*
X01692D02*
X01696Y00754D01*
X01699Y00763D02*
X01701Y00765D01*
X01705*
X01707Y00763*
Y00761*
X01705Y00759*
X01703*
X01705*
X01707Y00758*
Y00756*
X01705Y00754*
X01701*
X01699Y00756*
X00065Y0184D02*
X00059D01*
X00062*
Y01824*
X00059Y01821*
X00055*
X00052Y01824*
X00072Y01837D02*
X00075Y0184D01*
X00082*
X00085Y01837*
Y01834*
X00082Y01831*
X00078*
X00082*
X00085Y01827*
Y01824*
X00082Y01821*
X00075*
X00072Y01824*
X00952Y01294D02*
X00949Y01297D01*
X00942*
X00939Y01294*
Y01281*
X00942Y01278*
X00949*
X00952Y01281*
X00959Y01278D02*
X00965D01*
X00962*
Y01297*
X00959Y01294*
X00943Y01103D02*
X00946Y01107D01*
Y01113*
X00943Y01116*
X0093*
X00927Y01113*
Y01107*
X0093Y01103*
X00927Y01087D02*
X00946D01*
X00936Y01097*
Y01084*
X01021Y01294D02*
X01019Y01296D01*
X01013*
X01011Y01294*
Y01283*
X01013Y01281*
X01019*
X01021Y01283*
X01037Y01281D02*
X01027D01*
X01037Y01291*
Y01294*
X01034Y01296*
X01029*
X01027Y01294*
X00956Y0081D02*
Y00829D01*
X00966*
X0097Y00826*
Y0082*
X00966Y00816*
X00956*
X00963D02*
X0097Y0081D01*
X00989Y00829D02*
X00983Y00826D01*
X00976Y0082*
Y00813*
X00979Y0081*
X00986*
X00989Y00813*
Y00816*
X00986Y0082*
X00976*
X01117Y00848D02*
Y00868D01*
X01127*
X01131Y00865*
Y00858*
X01127Y00855*
X01117*
X01124D02*
X01131Y00848D01*
X0115Y00868D02*
X01137D01*
Y00858*
X01144Y00861*
X01147*
X0115Y00858*
Y00851*
X01147Y00848*
X0114*
X01137Y00851*
G54D15*
X00635Y00067D02*
X00628Y00074D01*
X00615*
X00608Y00067*
Y00041*
X00615Y00034*
X00628*
X00635Y00041*
Y00054*
X00621*
X00648Y00034D02*
Y00074D01*
X00674Y00034*
Y00074*
X00687D02*
Y00034D01*
X00707*
X00713Y00041*
Y00067*
X00707Y00074*
X00687*
X00992Y00144D02*
X00966D01*
Y00125*
X00979Y00131*
X00985*
X00992Y00125*
Y00111*
X00985Y00105*
X00972*
X00966Y00111*
X01005Y00144D02*
Y00118D01*
X01018Y00105*
X01031Y00118*
Y00144*
X00966Y00082D02*
Y00049D01*
X00972Y00043*
X00985*
X00992Y00049*
Y00082*
X01031Y00043D02*
X01005D01*
X01031Y00069*
Y00076*
X01025Y00082*
X01012*
X01005Y00076*
X01044Y00043D02*
Y00082D01*
X01064*
X01071Y00076*
Y00063*
X01064Y00056*
X01044*
X01058D02*
X01071Y00043D01*
X00608Y00176D02*
Y00144D01*
X00615Y00137*
X00628*
X00635Y00144*
Y00176*
X00674Y00137D02*
X00648D01*
X00674Y00163*
Y0017*
X00667Y00176*
X00654*
X00648Y0017*
X00687Y00176D02*
X00713D01*
X007*
Y00137*
X00037Y01919D02*
X0003Y01912D01*
Y01899*
X00037Y01893*
X00043*
X0005Y01899*
Y01912*
X00056Y01919*
X00063*
X0007Y01912*
Y01899*
X00063Y01893*
X00037Y01958D02*
X0003Y01952D01*
Y01938*
X00037Y01932*
X00063*
X0007Y01938*
Y01952*
X00063Y01958*
X0003Y01991D02*
Y01978D01*
X00037Y01971*
X00063*
X0007Y01978*
Y01991*
X00063Y01997*
X00037*
X0003Y01991*
Y02011D02*
X00063D01*
X0007Y02017*
Y0203*
X00063Y02037*
X0003*
Y0205D02*
Y02076D01*
Y02063*
X0007*
X0003Y02129D02*
X00056D01*
X0007Y02142*
X00056Y02155*
X0003*
X0007Y02168D02*
Y02181D01*
Y02175*
X0003*
X00037Y02168*
X00799Y00927D02*
X00806Y00934D01*
X00819*
X00825Y00927*
Y00921*
X00819Y00914*
X00812*
X00819*
X00825Y00907*
Y00901*
X00819Y00894*
X00806*
X00799Y00901*
X00838Y00934D02*
Y00907D01*
X00852Y00894*
X00865Y00907*
Y00934*
X00878Y00927D02*
X00884Y00934D01*
X00898*
X00904Y00927*
Y00921*
X00898Y00914*
X00891*
X00898*
X00904Y00907*
Y00901*
X00898Y00894*
X00884*
X00878Y00901*
X00237Y01574D02*
X00229Y01582D01*
X00212*
X00204Y01574*
Y0154*
X00212Y01532*
X00229*
X00237Y0154*
Y01557*
X00221*
X00254Y01532D02*
Y01582D01*
X00287Y01532*
Y01582*
X00304D02*
Y01532D01*
X00329*
X00337Y0154*
Y01574*
X00329Y01582*
X00304*
X00224Y01621D02*
Y01671D01*
X00249*
X00257Y01663*
Y01646*
X00249Y01638*
X00224*
X0024D02*
X00257Y01621D01*
X00274Y01671D02*
X00307Y01621D01*
Y01671D02*
X00274Y01621D01*
X00219Y01764D02*
X00252D01*
X00236*
Y01714*
X00269Y01764D02*
X00302Y01714D01*
Y01764D02*
X00269Y01714D01*
X00234Y01189D02*
X00226Y01197D01*
X00209*
X00201Y01189*
Y01155*
X00209Y01147*
X00226*
X00234Y01155*
Y01172*
X00217*
X00251Y01147D02*
Y01197D01*
X00284Y01147*
Y01197*
X00301D02*
Y01147D01*
X00326*
X00334Y01155*
Y01189*
X00326Y01197*
X00301*
X00221Y01236D02*
Y01286D01*
X00245*
X00254Y01278*
Y01261*
X00245Y01253*
X00221*
X00237D02*
X00254Y01236D01*
X0027Y01286D02*
X00304Y01236D01*
Y01286D02*
X0027Y01236D01*
X00216Y01379D02*
X00249D01*
X00233*
Y01329*
X00266Y01379D02*
X00299Y01329D01*
Y01379D02*
X00266Y01329D01*
X00236Y0096D02*
X00269D01*
X00252*
Y0091*
X00286Y0096D02*
X00319Y0091D01*
Y0096D02*
X00286Y0091D01*
X0024Y00817D02*
Y00867D01*
X00265*
X00274Y00859*
Y00842*
X00265Y00834*
X0024*
X00257D02*
X00274Y00817D01*
X0029Y00867D02*
X00323Y00817D01*
Y00867D02*
X0029Y00817D01*
X00254Y0077D02*
X00245Y00778D01*
X00229*
X00221Y0077*
Y00737*
X00229Y00728*
X00245*
X00254Y00737*
Y00753*
X00237*
X0027Y00728D02*
Y00778D01*
X00304Y00728*
Y00778*
X0032D02*
Y00728D01*
X00345*
X00354Y00737*
Y0077*
X00345Y00778*
X0032*
X01692Y01248D02*
X01725D01*
X01708*
Y01198*
X01742Y01248D02*
X01775Y01198D01*
Y01248D02*
X01742Y01198D01*
X01725Y01358D02*
X01692D01*
Y01333*
X01708Y01341*
X01717*
X01725Y01333*
Y01316*
X01717Y01308*
X017*
X01692Y01316*
X01742Y01358D02*
Y01324D01*
X01758Y01308*
X01775Y01324*
Y01358*
X01703Y01106D02*
Y01156D01*
X01728*
X01736Y01148*
Y01131*
X01728Y01123*
X01703*
X0172D02*
X01736Y01106D01*
X01753Y01156D02*
X01786Y01106D01*
Y01156D02*
X01753Y01106D01*
X01713Y01046D02*
X01705Y01055D01*
X01688*
X0168Y01046*
Y01013*
X01688Y01005*
X01705*
X01713Y01013*
Y0103*
X01697*
X0173Y01005D02*
Y01055D01*
X01763Y01005*
Y01055*
X0178D02*
Y01005D01*
X01805*
X01813Y01013*
Y01046*
X01805Y01055*
X0178*
X01702Y00914D02*
Y00964D01*
X01735Y00914*
Y00964*
X01785Y00956D02*
X01777Y00964D01*
X0176*
X01752Y00956*
Y00922*
X0176Y00914*
X01777*
X01785Y00922*
X00221Y00505D02*
Y00555D01*
X00254Y00505*
Y00555*
X00304Y00546D02*
X00295Y00555D01*
X00279*
X0027Y00546*
Y00513*
X00279Y00505*
X00295*
X00304Y00513*
X00226Y00456D02*
X00217Y00464D01*
X00201*
X00193Y00456*
Y00423*
X00201Y00415*
X00217*
X00226Y00423*
Y00439*
X00209*
X00242Y00415D02*
Y00464D01*
X00276Y00415*
Y00464*
X00292D02*
Y00415D01*
X00317*
X00326Y00423*
Y00456*
X00317Y00464*
X00292*
X00211Y00318D02*
Y00368D01*
X00235*
X00244Y00359*
Y00343*
X00235Y00334*
X00211*
X00227D02*
X00244Y00318D01*
X0026Y00368D02*
X00294Y00318D01*
Y00368D02*
X0026Y00318D01*
X00244Y00171D02*
X00211D01*
Y00146*
X00227Y00154*
X00235*
X00244Y00146*
Y00129*
X00235Y00121*
X00219*
X00211Y00129*
X0026Y00171D02*
Y00137D01*
X00277Y00121*
X00294Y00137*
Y00171*
X00211Y00271D02*
X00244D01*
X00227*
Y00221*
X0026Y00271D02*
X00294Y00221D01*
Y00271D02*
X0026Y00221D01*
X01233Y00861D02*
X01224Y00869D01*
X01208*
X012Y00861*
Y00853*
X01208Y00844*
X01224*
X01233Y00836*
Y00828*
X01224Y0082*
X01208*
X012Y00828*
X01249Y00869D02*
Y0082D01*
X01266Y00836*
X01283Y0082*
Y00869*
X01299D02*
Y0082D01*
X01324*
X01333Y00828*
Y00861*
X01324Y00869*
X01299*
X01514Y00853D02*
Y00803D01*
X01547*
X01564D02*
X0158D01*
X01572*
Y00836*
X01564*
X01605Y00853D02*
Y00803D01*
X0163*
X01639Y00811*
Y00845*
X0163Y00853*
X01605*
X01655Y00803D02*
Y00836D01*
X01672Y00853*
X01689Y00836*
Y00803*
Y00828*
X01655*
X01705Y00803D02*
Y00853D01*
X0173*
X01739Y00845*
Y00828*
X0173Y0082*
X01705*
X01722D02*
X01739Y00803D01*
X01822D02*
X01805Y0082D01*
Y00836*
X01822Y00853*
X01847D02*
Y00811D01*
X01855Y00803*
X01872*
X0188Y00811*
Y00853*
X01897Y00845D02*
X01905Y00853D01*
X01922*
X0193Y00845*
Y00836*
X01922Y00828*
X01914*
X01922*
X0193Y0082*
Y00811*
X01922Y00803*
X01905*
X01897Y00811*
X01947Y00803D02*
X01963Y0082D01*
Y00836*
X01947Y00853*
X00081Y00058D02*
Y00009D01*
X00114*
X0013D02*
X00147D01*
X00139*
Y00042*
X0013*
X00172Y00058D02*
Y00009D01*
X00197*
X00205Y00017*
Y0005*
X00197Y00058*
X00172*
X00222Y00009D02*
Y00042D01*
X00239Y00058*
X00255Y00042*
Y00009*
Y00033*
X00222*
X00272Y00009D02*
Y00058D01*
X00297*
X00305Y0005*
Y00033*
X00297Y00025*
X00272*
X00289D02*
X00305Y00009D01*
X00389D02*
X00372Y00025D01*
Y00042*
X00389Y00058*
X00414D02*
Y00017D01*
X00422Y00009*
X00439*
X00447Y00017*
Y00058*
X00489Y00009D02*
Y00058D01*
X00464Y00033*
X00497*
X00514Y00009D02*
X0053Y00025D01*
Y00042*
X00514Y00058*
X00155Y01481D02*
Y01439D01*
X00163Y01431*
X0018*
X00188Y01439*
Y01481*
X00205Y01431D02*
Y01464D01*
X00221Y01481*
X00238Y01464*
Y01431*
Y01456*
X00205*
X00255Y01431D02*
Y01481D01*
X0028*
X00288Y01472*
Y01456*
X0028Y01447*
X00255*
X00271D02*
X00288Y01431D01*
X00305Y01481D02*
X00338D01*
X00321*
Y01431*
X00388Y01481D02*
X00355D01*
Y01456*
X00371Y01464*
X0038*
X00388Y01456*
Y01439*
X0038Y01431*
X00363*
X00355Y01439*
X00167Y01077D02*
X00134D01*
Y01052*
X0015*
X00134*
Y01027*
X00217Y01069D02*
X00209Y01077D01*
X00192*
X00184Y01069*
Y01035*
X00192Y01027*
X00209*
X00217Y01035*
X003Y01027D02*
X00284Y01044D01*
Y0106*
X003Y01077*
X00325D02*
Y01035D01*
X00334Y01027*
X0035*
X00359Y01035*
Y01077*
X00375Y01027D02*
X00392D01*
X00384*
Y01077*
X00375Y01069*
X00417Y01027D02*
X00434Y01044D01*
Y0106*
X00417Y01077*
X00116Y00628D02*
Y00677D01*
X00141*
X00149Y00669*
Y00652*
X00141Y00644*
X00116*
X00133D02*
X00149Y00628D01*
X00199Y00669D02*
X00191Y00677D01*
X00174*
X00166Y00669*
Y00636*
X00174Y00628*
X00191*
X00199Y00636*
X00283Y00628D02*
X00266Y00644D01*
Y00661*
X00283Y00677*
X00308D02*
Y00636D01*
X00316Y00628*
X00333*
X00341Y00636*
Y00677*
X00391D02*
X00374Y00669D01*
X00358Y00652*
Y00636*
X00366Y00628*
X00383*
X00391Y00636*
Y00644*
X00383Y00652*
X00358*
X00408Y00628D02*
X00424Y00644D01*
Y00661*
X00408Y00677*
X00511Y02067D02*
X00503Y02058D01*
Y02042*
X00511Y02034*
X00545*
X00553Y02042*
Y02058*
X00545Y02067*
X00528*
Y0205*
X00553Y02083D02*
X00503D01*
X00553Y02117*
X00503*
Y02133D02*
X00553D01*
Y02158*
X00545Y02167*
X00511*
X00503Y02158*
Y02133*
X00775Y01997D02*
X00808D01*
X00825Y02014*
X00808Y02031*
X00775*
Y02047D02*
X00825D01*
Y02072*
X00816Y02081*
X00808*
X008Y02072*
Y02047*
Y02072*
X00791Y02081*
X00783*
X00775Y02072*
Y02047*
X00791Y02106D02*
Y02122D01*
X008Y02131*
X00825*
Y02106*
X00816Y02097*
X00808Y02106*
Y02131*
X00783Y02156D02*
X00791D01*
Y02147*
Y02164*
Y02156*
X00816*
X00825Y02164*
X00783Y02197D02*
X00791D01*
Y02189*
Y02205*
Y02197*
X00816*
X00825Y02205*
X01961Y00181D02*
X0198D01*
Y00171*
X01977Y00167*
X0197*
X01967Y00171*
Y00181*
Y00174D02*
X01961Y00167D01*
Y00161D02*
Y00154D01*
Y00158*
X0198*
X01977Y00161*
X01961Y00144D02*
Y00138D01*
Y00141*
X0198*
X01977Y00144*
X0053Y01082D02*
X00522D01*
X00526*
Y01062*
X00522Y01058*
X00518*
X00514Y01062*
X00538Y01082D02*
X00553D01*
Y01078*
X00538Y01062*
Y01058*
X00513Y00672D02*
X00505D01*
X00509*
Y00653*
X00505Y00649*
X00502*
X00498Y00653*
X00537Y00672D02*
X00529Y00668D01*
X00521Y0066*
Y00653*
X00525Y00649*
X00533*
X00537Y00653*
Y00656*
X00533Y0066*
X00521*
X00604Y00116D02*
X00596D01*
X006*
Y00097*
X00596Y00093*
X00592*
X00588Y00097*
X00627Y00116D02*
X00611D01*
Y00104*
X00619Y00108*
X00623*
X00627Y00104*
Y00097*
X00623Y00093*
X00615*
X00611Y00097*
X01904Y01641D02*
X01895D01*
X01899*
Y01618*
X01895Y01613*
X0189*
X01885Y01618*
X01927Y01613D02*
Y01641D01*
X01913Y01627*
X01931*
X0062Y01889D02*
Y01908D01*
X0063*
X00633Y01905*
Y01898*
X0063Y01895*
X0062*
X00627D02*
X00633Y01889D01*
X00643Y01905D02*
Y01902D01*
X0064*
X00647*
X00643*
Y01892*
X00647Y01889*
X0066D02*
X00666D01*
X0067Y01892*
Y01898*
X00666Y01902*
X0066*
X00656Y01898*
Y01892*
X0066Y01889*
X00676Y01882D02*
Y01902D01*
X00686*
X00689Y01898*
Y01892*
X00686Y01889*
X00676*
X01513Y01425D02*
Y01445D01*
X01523*
X01526Y01442*
Y01435*
X01523Y01432*
X01513*
X01519D02*
X01526Y01425D01*
X01542D02*
Y01445D01*
X01533Y01435*
X01546*
X01946Y0148D02*
Y01453D01*
X01959*
X01964Y01457*
Y01476*
X01959Y0148*
X01946*
X01991Y01453D02*
X01973D01*
X01991Y01471*
Y01476*
X01987Y0148*
X01978*
X01973Y01476*
X01188Y00744D02*
Y00767D01*
X012*
X01204Y00763*
Y00755*
X012Y00752*
X01188*
X01212Y00744D02*
X0122D01*
X01216*
Y00767*
X01212Y00763*
X01005Y01915D02*
Y01943D01*
X01014Y01933*
X01024Y01943*
Y01915*
X01033D02*
Y01943D01*
X01046*
X01051Y01938*
Y01929*
X01046Y01924*
X01033*
X0106Y01915D02*
X01069D01*
X01065*
Y01943*
X0106Y01938*
X01464Y01438D02*
X01454D01*
X01459*
Y01412*
X01454Y01406*
X01449*
X01443Y01412*
X01496Y01406D02*
X01475D01*
X01496Y01427*
Y01433*
X01491Y01438*
X0148*
X01475Y01433*
X00619Y00271D02*
Y00267D01*
X00627Y00259*
X00635Y00267*
Y00271*
X00627Y00259D02*
Y00247D01*
X00643D02*
X00651D01*
X00647*
Y00271*
X00643Y00267*
X01506Y00688D02*
Y00716D01*
X0152*
X01525Y00711*
Y00702*
X0152Y00697*
X01506*
X01515D02*
X01525Y00688D01*
X01552D02*
X01534D01*
X01552Y00707*
Y00711*
X01548Y00716*
X01538*
X01534Y00711*
X01532Y00655D02*
X01529Y00658D01*
X01522*
X01519Y00655*
Y00642*
X01522Y00638*
X01529*
X01532Y00642*
X01552Y00658D02*
X01545Y00655D01*
X01539Y00648*
Y00642*
X01542Y00638*
X01548*
X01552Y00642*
Y00645*
X01548Y00648*
X01539*
X01958Y00249D02*
X01977D01*
Y0024*
X01974Y00236*
X01967*
X01964Y0024*
Y00249*
Y00243D02*
X01958Y00236D01*
X01977Y0023D02*
Y00217D01*
X01974*
X01961Y0023*
X01958*
X01554Y00162D02*
X01551Y00165D01*
X01545*
X01541Y00162*
Y00149*
X01545Y00145*
X01551*
X01554Y00149*
X01561Y00145D02*
X01568D01*
X01564*
Y00165*
X01561Y00162*
X01577Y00145D02*
X01584D01*
X01581*
Y00165*
X01577Y00162*
G54D16*
X01571Y-00004D02*
X01569Y-00002D01*
X01565*
X01563Y-00004*
Y-00012*
X01565Y-00014*
X01569*
X01571Y-00012*
X01582Y-00002D02*
X01575D01*
Y-00008*
X01579Y-00006*
X01581*
X01582Y-00008*
Y-00012*
X01581Y-00014*
X01577*
X01575Y-00012*
M02*