%FSTAX23Y23*%
%MOIN*%
%SFA1B1*%

%IPPOS*%
%AMD64*
4,1,8,-0.040400,0.000000,-0.040400,0.000000,-0.018700,-0.021700,0.018700,-0.021700,0.040400,0.000000,0.040400,0.000000,0.018700,0.021700,-0.018700,0.021700,-0.040400,0.000000,0.0*
1,1,0.043300,-0.018700,0.000000*
1,1,0.043300,-0.018700,0.000000*
1,1,0.043300,0.018700,0.000000*
1,1,0.043300,0.018700,0.000000*
%
%AMD91*
4,1,8,-0.032500,0.000000,-0.032500,0.000000,-0.010800,-0.021700,0.010800,-0.021700,0.032500,0.000000,0.032500,0.000000,0.010800,0.021700,-0.010800,0.021700,-0.032500,0.000000,0.0*
1,1,0.043300,-0.010800,0.000000*
1,1,0.043300,-0.010800,0.000000*
1,1,0.043300,0.010800,0.000000*
1,1,0.043300,0.010800,0.000000*
%
%ADD12C,0.007870*%
%ADD60C,0.061810*%
%ADD61R,0.061810X0.061810*%
%ADD63C,0.059840*%
G04~CAMADD=64~8~0.0~0.0~433.1~807.1~216.5~0.0~15~0.0~0.0~0.0~0.0~0~0.0~0.0~0.0~0.0~0~0.0~0.0~0.0~90.0~808.0~434.0*
%ADD64D64*%
%ADD65R,0.059840X0.059840*%
%ADD84C,0.061020*%
%ADD85R,0.061020X0.061020*%
%ADD86C,0.125980*%
%ADD87C,0.070870*%
%ADD88R,0.061020X0.061020*%
%ADD89C,0.023620*%
%ADD90C,0.019680*%
G04~CAMADD=91~8~0.0~0.0~433.1~649.6~216.5~0.0~15~0.0~0.0~0.0~0.0~0~0.0~0.0~0.0~0.0~0~0.0~0.0~0.0~90.0~650.0~434.0*
%ADD91D91*%
%LNpcb1-1*%
%LPD*%
G54D12*
X00852Y01686D02*
X01183D01*
X00665Y01499D02*
X00852Y01686D01*
X00779D02*
X00852D01*
X01573Y00454D02*
X01641D01*
X01641Y00531D02*
X01642Y00532D01*
X0164Y00486D02*
X01641Y00487D01*
Y00531*
X01362Y0112D02*
X01471Y0123D01*
X01381Y0104D02*
X01471Y0113D01*
X00528Y01649D02*
X00578Y01599D01*
X00526Y01748D02*
X00601Y01673D01*
X00737Y01462D02*
X00835Y01364D01*
Y01351D02*
Y01364D01*
Y01351D02*
X00968Y01218D01*
X00979*
X01127Y0107*
X00601Y01523D02*
Y01673D01*
X00528Y01358D02*
X00697D01*
X00528Y01258D02*
X00761D01*
X01342Y00467D02*
Y00969D01*
X01263Y01048D02*
X01342Y00969D01*
X00601Y01523D02*
X013Y00824D01*
X00578Y01512D02*
Y01599D01*
Y01512D02*
X01322Y00768D01*
X00697Y01358D02*
X01243Y00812D01*
X0122Y0079D02*
Y00799D01*
Y0079D02*
X01223Y00787D01*
X00761Y01258D02*
X0122Y00799D01*
X00441Y01127D02*
Y01787D01*
Y01127D02*
X00593Y00974D01*
Y00905D02*
Y00974D01*
Y00905D02*
X00682Y00816D01*
Y00655D02*
Y00816D01*
Y00655D02*
X00977Y0036D01*
X0098*
X01663Y00271D02*
X01804D01*
X01658Y00276D02*
Y00381D01*
Y00276D02*
X01663Y00271D01*
X01631Y00408D02*
X01658Y00381D01*
X01631Y00408D02*
X01631D01*
X007Y01765D02*
X00779Y01686D01*
X00528Y0094D02*
X00656Y00812D01*
Y00644D02*
Y00812D01*
Y00644D02*
X0097Y0033D01*
X00639Y0063D02*
X00931Y00338D01*
X00639Y0063D02*
Y00729D01*
X00528Y0084D02*
X00639Y00729D01*
X01381Y00698D02*
Y0104D01*
X01362Y00729D02*
Y0112D01*
G54D60*
X01471Y0113D03*
Y0103D03*
Y0123D03*
Y0133D03*
X00528Y01158D03*
Y01258D03*
Y01649D03*
Y01549D03*
X00528Y00349D03*
X00528Y0084D03*
X00528Y00449D03*
X00528Y0074D03*
X00528Y00249D03*
Y00149D03*
G54D61*
X01471Y0093D03*
X00528Y01358D03*
Y01749D03*
Y0094D03*
X00528Y00549D03*
G54D63*
X00894Y00057D03*
X00794Y00157D03*
Y00057D03*
G54D64*
X01821Y00678D03*
Y00322D03*
G54D65*
X00894Y00157D03*
G54D84*
X01263Y01348D03*
Y01248D03*
Y01148D03*
Y01048D03*
X01018Y00718D03*
X00918D03*
G54D85*
X01263Y00948D03*
G54D86*
X00283Y02024D03*
X00167Y01908D03*
Y02139D03*
X00398Y01908D03*
Y02139D03*
X00923Y02148D03*
X01154D03*
X00923Y01917D03*
X01154D03*
X01039Y02033D03*
G54D87*
X01837Y01968D03*
Y01771D03*
G54D88*
X01118Y00718D03*
G54D89*
X00441Y01789D03*
X01465Y00104D03*
X01745Y00013D03*
X01573Y00454D03*
X01642Y00532D03*
X0164Y00486D03*
X01641Y00454D03*
X01158Y01314D03*
X01098Y01754D03*
X01144Y01812D03*
X011D03*
X00834Y01802D03*
X00738Y01463D03*
X01127Y0107D03*
X0107Y00893D03*
X013Y00824D03*
X00666Y015D03*
X01322Y00768D03*
X01243Y00812D03*
X01223Y00787D03*
X00642Y00948D03*
X01166Y01098D03*
X00813Y01119D03*
Y01166D03*
X00751Y01118D03*
X0075Y01165D03*
X00697Y01118D03*
X00697Y01165D03*
X01671Y00761D03*
X01502Y00656D03*
X01342Y00467D03*
X01633Y00596D03*
X01804Y00271D03*
X01638Y00322D03*
Y00374D03*
X01631Y00408D03*
X01165Y01141D03*
X01165Y01182D03*
X01183Y01686D03*
X01794Y01592D03*
Y01653D03*
X0171Y01601D03*
Y01654D03*
X01638Y01602D03*
Y01653D03*
X00816Y00821D03*
X00912Y00889D03*
X00912Y00927D03*
X00857Y00925D03*
X00855Y00889D03*
X00797Y00891D03*
X00796Y00925D03*
X007Y01765D03*
X00758Y01538D03*
X0083Y0155D03*
X00621Y01666D03*
X00959Y01308D03*
X01012D03*
Y01338D03*
X00958D03*
X00842Y01422D03*
X00854Y01359D03*
X00804D03*
X00937Y01621D03*
X00935Y01659D03*
X00941Y00517D03*
X00971Y00515D03*
X01381Y00698D03*
X01362Y00729D03*
X0097Y0033D03*
X00931Y00338D03*
X0098Y0036D03*
X00883Y00291D03*
X0087Y00495D03*
X01557Y00498D03*
X01516Y00547D03*
X00881Y00258D03*
X01058Y0002D03*
X01198D03*
X01337Y0002D03*
X01577Y00057D03*
G54D90*
X01961Y00116D03*
G54D91*
X01702Y00678D03*
Y00322D03*
M02*