%FSTAX23Y23*%
%MOIN*%
%SFA1B1*%

%IPPOS*%
%AMD17*
4,1,8,-0.006900,-0.037600,0.006900,-0.037600,0.018900,-0.025600,0.018900,0.025600,0.006900,0.037600,-0.006900,0.037600,-0.018900,0.025600,-0.018900,-0.025600,-0.006900,-0.037600,0.0*
1,1,0.023900,-0.006900,-0.025600*
1,1,0.023900,0.006900,-0.025600*
1,1,0.023900,0.006900,0.025600*
1,1,0.023900,-0.006900,0.025600*
%
%AMD19*
4,1,8,0.017200,-0.002600,0.017200,0.002600,0.000000,0.019800,0.000000,0.019800,-0.017200,0.002600,-0.017200,-0.002600,0.000000,-0.019800,0.000000,-0.019800,0.017200,-0.002600,0.0*
1,1,0.034340,0.000000,-0.002600*
1,1,0.034340,0.000000,0.002600*
1,1,0.034340,0.000000,0.002600*
1,1,0.034340,0.000000,-0.002600*
%
%AMD20*
4,1,8,0.062600,-0.002600,0.062600,0.002600,0.045400,0.019800,-0.045400,0.019800,-0.062600,0.002600,-0.062600,-0.002600,-0.045400,-0.019800,0.045400,-0.019800,0.062600,-0.002600,0.0*
1,1,0.034400,0.045400,-0.002600*
1,1,0.034400,0.045400,0.002600*
1,1,0.034400,-0.045400,0.002600*
1,1,0.034400,-0.045400,-0.002600*
%
%AMD64*
4,1,8,-0.040400,0.000000,-0.040400,0.000000,-0.018700,-0.021700,0.018700,-0.021700,0.040400,0.000000,0.040400,0.000000,0.018700,0.021700,-0.018700,0.021700,-0.040400,0.000000,0.0*
1,1,0.043300,-0.018700,0.000000*
1,1,0.043300,-0.018700,0.000000*
1,1,0.043300,0.018700,0.000000*
1,1,0.043300,0.018700,0.000000*
%
G04~CAMADD=17~8~0.0~0.0~377.2~751.2~119.5~0.0~15~0.0~0.0~0.0~0.0~0~0.0~0.0~0.0~0.0~0~0.0~0.0~0.0~180.0~378.0~752.0*
%ADD17D17*%
%ADD18R,0.034340X0.039540*%
G04~CAMADD=19~8~0.0~0.0~395.4~343.4~171.7~0.0~15~0.0~0.0~0.0~0.0~0~0.0~0.0~0.0~0.0~0~0.0~0.0~0.0~270.0~344.0~395.0*
%ADD19D19*%
G04~CAMADD=20~8~0.0~0.0~395.4~1252.8~172.0~0.0~15~0.0~0.0~0.0~0.0~0~0.0~0.0~0.0~0.0~0~0.0~0.0~0.0~270.0~1254.0~395.0*
%ADD20D20*%
%ADD21O,0.031810X0.082990*%
%ADD22O,0.082990X0.031810*%
%ADD23R,0.059370X0.055430*%
%ADD24R,0.061210X0.075050*%
%ADD25R,0.295590X0.177480*%
%ADD26R,0.177480X0.118430*%
%ADD27R,0.055430X0.059370*%
%ADD28R,0.094800X0.130240*%
%ADD29R,0.053470X0.057400*%
%ADD30R,0.051500X0.051500*%
%ADD31R,0.020290X0.018600*%
%ADD32R,0.029850X0.031970*%
%ADD33R,0.051500X0.055430*%
%ADD34R,0.055430X0.051500*%
%ADD35R,0.098740X0.236540*%
%ADD36R,0.039370X0.011810*%
%ADD37R,0.067240X0.084960*%
%ADD38R,0.039850X0.045600*%
%ADD39R,0.057400X0.053470*%
%ADD40R,0.018600X0.020290*%
%ADD45R,0.031970X0.029850*%
%ADD46R,0.051500X0.051500*%
%ADD49C,0.035430*%
%ADD50R,0.036480X0.013840*%
%ADD51R,0.013840X0.013840*%
%ADD52R,0.030570X0.013840*%
%ADD53R,0.013840X0.036480*%
%ADD54R,0.019750X0.046320*%
%ADD55R,0.121130X0.017780*%
%ADD56C,0.081020*%
%ADD57R,0.081020X0.081020*%
%ADD58C,0.145980*%
%ADD59C,0.090870*%
%ADD60C,0.061810*%
%ADD61R,0.061810X0.061810*%
%ADD62R,0.081020X0.081020*%
%ADD63C,0.059840*%
G04~CAMADD=64~8~0.0~0.0~433.1~807.1~216.5~0.0~15~0.0~0.0~0.0~0.0~0~0.0~0.0~0.0~0.0~0~0.0~0.0~0.0~90.0~808.0~434.0*
%ADD64D64*%
%ADD65R,0.059840X0.059840*%
%ADD66C,0.039690*%
%LNpcb1-1*%
%LPD*%
G36*
X008Y01649D02*
X00801Y01649D01*
X00801Y01649*
X00801Y01649*
X00803Y01647*
X00803Y01647*
X00804Y01646*
X00804Y01646*
X00804Y01645*
Y01606*
X00804Y01606*
X00804Y01605*
X00803Y01605*
X00803Y01605*
X00801Y01603*
X00801Y01602*
X00801Y01602*
X008Y01602*
X008Y01602*
X00782*
X00782Y01602*
X00781Y01602*
X00781Y01602*
X00781Y01603*
X00779Y01605*
X00778Y01605*
X00778Y01605*
X00778Y01606*
X00778Y01606*
Y01632*
X00778Y01632*
X00778Y01632*
X00778Y01633*
X00779Y01633*
X00781Y01635*
X00781Y01635*
X00781Y01635*
X00782Y01636*
X00782Y01636*
X00791*
X00792Y01636*
Y01645*
X00792Y01646*
X00792Y01646*
X00792Y01647*
X00792Y01647*
X00794Y01649*
X00795Y01649*
X00795Y01649*
X00795Y01649*
X00796Y01649*
X008*
X008Y01649*
G37*
G36*
X00958D02*
X00958Y01649D01*
X00958Y01649*
X00959Y01649*
X00961Y01647*
X00961Y01647*
X00961Y01646*
X00961Y01646*
X00961Y01645*
Y01636*
X00962Y01636*
X00971*
X00971Y01636*
X00972Y01635*
X00972Y01635*
X00972Y01635*
X00974Y01633*
X00975Y01633*
X00975Y01632*
X00975Y01632*
X00975Y01632*
Y01604*
X00975Y01604*
X00975Y01603*
X00975Y01603*
X00974Y01603*
X00972Y01601*
X00972Y016*
X00972Y016*
X00971Y016*
X00971Y016*
X00932*
X00931Y016*
X00931Y016*
X00931Y016*
X0093Y01601*
X00928Y01603*
X00928Y01603*
X00928Y01603*
X00928Y01604*
X00928Y01604*
Y01645*
X00928Y01646*
X00928Y01646*
X00928Y01647*
X00928Y01647*
X0093Y01649*
X00931Y01649*
X00931Y01649*
X00931Y01649*
X00932Y01649*
X00957*
X00958Y01649*
G37*
G36*
X00971Y01541D02*
X00972Y01541D01*
X00972Y01541*
X00972Y01541*
X00974Y01539*
X00975Y01538*
X00975Y01538*
X00975Y01538*
X00975Y01537*
Y0151*
X00975Y01509*
X00975Y01509*
X00975Y01508*
X00974Y01508*
X00972Y01506*
X00972Y01506*
X00972Y01506*
X00971Y01506*
X00971Y01506*
X00962*
X00961Y01505*
Y01496*
X00961Y01495*
X00961Y01495*
X00961Y01495*
X00961Y01494*
X00959Y01492*
X00958Y01492*
X00958Y01492*
X00958Y01492*
X00957Y01492*
X00932*
X00931Y01492*
X00931Y01492*
X00931Y01492*
X0093Y01492*
X00928Y01494*
X00928Y01495*
X00928Y01495*
X00928Y01495*
X00928Y01496*
Y01537*
X00928Y01538*
X00928Y01538*
X00928Y01538*
X00928Y01539*
X0093Y01541*
X00931Y01541*
X00931Y01541*
X00931Y01541*
X00932Y01541*
X00971*
X00971Y01541*
G37*
G36*
X008Y01539D02*
X00801Y01539D01*
X00801Y01539*
X00801Y01539*
X00803Y01537*
X00803Y01536*
X00804Y01536*
X00804Y01536*
X00804Y01535*
Y01496*
X00804Y01495*
X00804Y01495*
X00803Y01495*
X00803Y01494*
X00801Y01492*
X00801Y01492*
X00801Y01492*
X008Y01492*
X008Y01492*
X00796*
X00795Y01492*
X00795Y01492*
X00795Y01492*
X00794Y01492*
X00792Y01494*
X00792Y01495*
X00792Y01495*
X00792Y01495*
X00792Y01496*
Y01505*
X00791Y01506*
X00782*
X00782Y01506*
X00781Y01506*
X00781Y01506*
X00781Y01506*
X00779Y01508*
X00778Y01508*
X00778Y01509*
X00778Y01509*
X00778Y0151*
Y01535*
X00778Y01536*
X00778Y01536*
X00778Y01536*
X00779Y01537*
X00781Y01539*
X00781Y01539*
X00781Y01539*
X00782Y01539*
X00782Y01539*
X008*
X008Y01539*
G37*
G36*
X01713Y007D02*
X01717D01*
X01723Y00698*
X01729Y00694*
X01733Y00688*
X01735Y00681*
X01735Y00675*
X01733Y00668*
X01729Y00662*
X01726Y0066*
X01679*
X01676Y00662*
X01672Y00668*
X0167Y00675*
X0167Y00681*
X01672Y00688*
X01676Y00694*
X01682Y00698*
X01688Y007*
X01692*
X01713*
G37*
G36*
X01729Y00338D02*
X01733Y00332D01*
X01735Y00326*
X01735Y00319*
X01733Y00312*
X01729Y00307*
X01723Y00303*
X01717Y00301*
X01713Y00301*
X01692*
X01688Y00301*
X01682Y00303*
X01676Y00307*
X01672Y00312*
X0167Y00319*
X0167Y00326*
X01672Y00332*
X01676Y00338*
X01679Y0034*
X01726*
X01729Y00338*
G37*
G54D17*
X01095Y01013D03*
X01172D03*
X01147Y01246D03*
Y01013D03*
X01095Y01246D03*
X01121D03*
Y01013D03*
X01172Y01246D03*
G54D18*
X00849Y01246D03*
G54D19*
X00758Y01246D03*
X00668D03*
G54D20*
X00758Y00987D03*
G54D21*
X01361Y00567D03*
X01381Y0011D03*
X01125D03*
X01401D03*
X01145Y00567D03*
Y0011D03*
X01381Y00567D03*
X01223D03*
X01322D03*
X0142D03*
Y0011D03*
X01164D03*
X01125Y00567D03*
X01204D03*
X01243D03*
X01342D03*
X01184Y0011D03*
X01204D03*
X01223D03*
X01243D03*
X01263D03*
X01283D03*
X01302D03*
X01322D03*
X01342D03*
X01361D03*
X01401Y00567D03*
X01302D03*
X01283D03*
X01263D03*
X01184D03*
X01164D03*
G54D22*
X01501Y00447D03*
X01044Y00349D03*
X01501Y00309D03*
X01044Y00408D03*
X01501D03*
X01044Y00211D03*
Y00309D03*
Y00191D03*
X01501Y00467D03*
X01044Y0027D03*
X01501Y00329D03*
X01044Y00368D03*
Y00388D03*
X01501Y00427D03*
X01044Y00231D03*
X01501Y00486D03*
X01044D03*
Y0025D03*
X01501Y00349D03*
Y00368D03*
X01044Y0029D03*
Y00467D03*
Y00447D03*
Y00427D03*
Y00329D03*
X01501Y00191D03*
Y00211D03*
Y00231D03*
Y0025D03*
Y0027D03*
Y0029D03*
Y00388D03*
G54D23*
X00833Y01748D03*
Y01801D03*
X0095Y01188D03*
Y01241D03*
X00936Y00987D03*
Y0104D03*
X01026Y01188D03*
Y01241D03*
X0087Y00601D03*
X00738Y01613D03*
X0087Y00548D03*
X00871Y00438D03*
Y00385D03*
X00738Y01666D03*
X00762Y01748D03*
Y01801D03*
G54D24*
X00922Y01753D03*
X01039D03*
X00957Y01421D03*
X00841D03*
G54D25*
X01709Y01614D03*
Y02126D03*
G54D26*
X01365Y01893D03*
G54D27*
X00675Y01721D03*
X00622D03*
X01155Y01733D03*
X00894Y01318D03*
X00658Y009D03*
X00712D03*
X01208Y01733D03*
X00841Y01318D03*
G54D28*
X01047Y01571D03*
X01209D03*
G54D29*
X0164Y00039D03*
X01692D03*
X0112Y00809D03*
X01069D03*
X00917Y0082D03*
X00865D03*
X01905Y00166D03*
X01122Y00919D03*
X01749Y00759D03*
X01867Y00027D03*
X01902Y00096D03*
X01854Y00166D03*
Y0024D03*
X00737Y01362D03*
X00686D03*
X00684Y01439D03*
X00633D03*
X018Y00759D03*
X01816Y00027D03*
X0185Y00096D03*
X01905Y0024D03*
X01174Y00919D03*
G54D30*
X01707Y00196D03*
Y00137D03*
X01632Y00196D03*
Y00137D03*
X01774Y00196D03*
Y00137D03*
G54D31*
X01158Y00019D03*
X01128D03*
X01536Y00103D03*
X01268Y00019D03*
X00941Y00464D03*
X01507Y00103D03*
X01238Y00019D03*
X00971Y00464D03*
G54D32*
X00992Y00569D03*
X00943D03*
X01482Y00019D03*
X01531D03*
G54D33*
X00518Y01846D03*
Y01913D03*
G54D34*
X00615Y01846D03*
X00682D03*
G54D35*
X00722Y00735D03*
Y00361D03*
G54D36*
X01687Y0053D03*
Y0049D03*
Y00648D03*
Y00628D03*
Y00372D03*
Y00353D03*
Y0051D03*
Y00471D03*
Y00451D03*
Y00569D03*
Y00589D03*
Y00412D03*
Y00609D03*
Y00392D03*
Y00431D03*
Y00549D03*
G54D37*
X01611Y01467D03*
X01721D03*
G54D38*
X00656Y01622D03*
Y01559D03*
G54D39*
X0161Y00709D03*
X01591Y00314D03*
X0161Y00658D03*
X01591Y00366D03*
G54D40*
X01067Y00618D03*
X00941Y00285D03*
X01067Y00588D03*
X00941Y00255D03*
G54D45*
X01569Y00548D03*
Y00598D03*
G54D46*
X01925Y00759D03*
X01902Y01467D03*
X01866Y00759D03*
X01843Y01467D03*
G54D49*
X01702Y0068D03*
Y0032D03*
G54D50*
X00796Y01571D03*
G54D51*
X00951Y01625D03*
Y01516D03*
X00791Y01515D03*
Y01626D03*
G54D52*
X00793Y01551D03*
Y0159D03*
G54D53*
X00836Y0151D03*
X00816D03*
Y01631D03*
X00856Y0151D03*
X00836Y01631D03*
X00856D03*
G54D54*
X00898Y01515D03*
Y01626D03*
G54D55*
X00914Y01571D03*
G54D56*
X01263Y01348D03*
Y01248D03*
Y01148D03*
Y01048D03*
X01018Y00718D03*
X00918D03*
G54D57*
X01263Y00948D03*
G54D58*
X00283Y02024D03*
X00167Y01908D03*
Y02139D03*
X00398Y01908D03*
Y02139D03*
X00923Y02148D03*
X01154D03*
X00923Y01917D03*
X01154D03*
X01039Y02033D03*
G54D59*
X01837Y01968D03*
Y01771D03*
G54D60*
X01471Y0113D03*
Y0103D03*
Y0123D03*
Y0133D03*
X00528Y01158D03*
Y01258D03*
Y01649D03*
Y01549D03*
X00528Y00349D03*
X00528Y0084D03*
X00528Y00449D03*
X00528Y0074D03*
X00528Y00249D03*
Y00149D03*
G54D61*
X01471Y0093D03*
X00528Y01358D03*
Y01749D03*
Y0094D03*
X00528Y00549D03*
G54D62*
X01118Y00718D03*
G54D63*
X00894Y00057D03*
X00794Y00157D03*
Y00057D03*
G54D64*
X01821Y00678D03*
Y00322D03*
G54D65*
X00894Y00157D03*
G54D66*
X01961Y00116D03*
M02*