%FSTAX23Y23*%
%MOIN*%
%SFA1B1*%

%IPPOS*%
%AMD64*
4,1,8,-0.040400,0.000000,-0.040400,0.000000,-0.018700,-0.021700,0.018700,-0.021700,0.040400,0.000000,0.040400,0.000000,0.018700,0.021700,-0.018700,0.021700,-0.040400,0.000000,0.0*
1,1,0.043300,-0.018700,0.000000*
1,1,0.043300,-0.018700,0.000000*
1,1,0.043300,0.018700,0.000000*
1,1,0.043300,0.018700,0.000000*
%
%ADD60C,0.061810*%
%ADD63C,0.059840*%
G04~CAMADD=64~8~0.0~0.0~433.1~807.1~216.5~0.0~15~0.0~0.0~0.0~0.0~0~0.0~0.0~0.0~0.0~0~0.0~0.0~0.0~90.0~808.0~434.0*
%ADD64D64*%
%ADD84R,0.061020X0.061020*%
%ADD85C,0.125980*%
%ADD88C,0.023620*%
%LNpcb1-1*%
%LPD*%
G36*
X01966Y-00007D02*
X00033D01*
Y02197*
X00029Y02201*
Y02209*
X00135*
X00136Y02205*
X00132Y02204*
X0012Y02196*
X0011Y02186*
X00102Y02174*
X00097Y0216*
X00094Y02146*
Y02144*
X0024*
Y02146*
X00237Y0216*
X00232Y02174*
X00224Y02186*
X00213Y02196*
X00202Y02204*
X00198Y02205*
X00199Y02209*
X00366*
X00367Y02205*
X00363Y02204*
X00352Y02196*
X00341Y02186*
X00333Y02174*
X00328Y0216*
X00325Y02146*
Y02144*
X00471*
Y02146*
X00468Y0216*
X00463Y02174*
X00455Y02186*
X00445Y02196*
X00433Y02204*
X00429Y02205*
X0043Y02209*
X00887*
X00888Y02205*
X0088Y022*
X00871Y02191*
X00864Y0218*
X00859Y02168*
X00856Y02155*
Y02141*
X00859Y02129*
X00864Y02116*
X00871Y02105*
X0088Y02096*
X00891Y02089*
X00903Y02084*
X00916Y02081*
X0093*
X00942Y02084*
X00955Y02089*
X00966Y02096*
X00975Y02105*
X00982Y02116*
X00987Y02129*
X0099Y02141*
Y02155*
X00987Y02168*
X00982Y0218*
X00975Y02191*
X00966Y022*
X00958Y02205*
X00959Y02209*
X01118*
X01119Y02205*
X01111Y022*
X01102Y02191*
X01095Y0218*
X0109Y02168*
X01087Y02155*
Y02141*
X0109Y02129*
X01095Y02116*
X01102Y02105*
X01111Y02096*
X01122Y02089*
X01135Y02084*
X01147Y02081*
X01161*
X01174Y02084*
X01186Y02089*
X01197Y02096*
X01206Y02105*
X01213Y02116*
X01218Y02129*
X01221Y02141*
Y02155*
X01218Y02168*
X01213Y0218*
X01206Y02191*
X01197Y022*
X01189Y02205*
X0119Y02209*
X01966*
Y-00007*
G37*
%LNpcb1-2*%
%LPC*%
G36*
X00471Y02134D02*
X00403D01*
Y02066*
X00405*
X00419Y02069*
X00433Y02074*
X00445Y02082*
X00455Y02093*
X00463Y02104*
X00468Y02118*
X00471Y02132*
Y02134*
G37*
G36*
X00393D02*
X00325D01*
Y02132*
X00328Y02118*
X00333Y02104*
X00341Y02093*
X00352Y02082*
X00363Y02074*
X00377Y02069*
X00391Y02066*
X00393*
Y02134*
G37*
G36*
X0024D02*
X00172D01*
Y02066*
X00174*
X00188Y02069*
X00202Y02074*
X00213Y02082*
X00224Y02093*
X00232Y02104*
X00237Y02118*
X0024Y02132*
Y02134*
G37*
G36*
X00162D02*
X00094D01*
Y02132*
X00097Y02118*
X00102Y02104*
X0011Y02093*
X0012Y02082*
X00132Y02074*
X00146Y02069*
X0016Y02066*
X00162*
Y02134*
G37*
G36*
X01045Y02099D02*
X01032D01*
X01019Y02097*
X01007Y02092*
X00996Y02084*
X00987Y02075*
X00979Y02064*
X00974Y02052*
X00972Y02039*
Y02026*
X00974Y02013*
X00979Y02001*
X00987Y0199*
X00996Y01981*
X01007Y01973*
X01019Y01968*
X01032Y01966*
X01045*
X01058Y01968*
X0107Y01973*
X01081Y01981*
X0109Y0199*
X01098Y02001*
X01103Y02013*
X01105Y02026*
Y02039*
X01103Y02052*
X01098Y02064*
X0109Y02075*
X01081Y02084*
X0107Y02092*
X01058Y02097*
X01045Y02099*
G37*
G36*
X00289Y0209D02*
X00276D01*
X00263Y02088*
X00251Y02083*
X0024Y02075*
X00231Y02066*
X00223Y02055*
X00218Y02043*
X00216Y0203*
Y02017*
X00218Y02004*
X00223Y01992*
X00231Y01981*
X0024Y01972*
X00251Y01964*
X00263Y01959*
X00276Y01957*
X00289*
X00302Y01959*
X00314Y01964*
X00325Y01972*
X00334Y01981*
X00342Y01992*
X00347Y02004*
X00349Y02017*
Y0203*
X00347Y02043*
X00342Y02055*
X00334Y02066*
X00325Y02075*
X00314Y02083*
X00302Y02088*
X00289Y0209*
G37*
G36*
X01842Y02008D02*
X01832D01*
X01822Y02005*
X01813Y02*
X01806Y01992*
X01801Y01983*
X01798Y01973*
Y01963*
X01801Y01953*
X01806Y01944*
X01813Y01937*
X01822Y01932*
X01832Y01929*
X01842*
X01852Y01932*
X01861Y01937*
X01869Y01944*
X01874Y01953*
X01877Y01963*
Y01973*
X01874Y01983*
X01869Y01992*
X01861Y02*
X01852Y02005*
X01842Y02008*
G37*
G36*
X00405Y01981D02*
X00403D01*
Y01913*
X00471*
Y01915*
X00468Y01929*
X00463Y01943*
X00455Y01954*
X00445Y01965*
X00433Y01973*
X00419Y01978*
X00405Y01981*
G37*
G36*
X00393D02*
X00391D01*
X00377Y01978*
X00363Y01973*
X00352Y01965*
X00341Y01954*
X00333Y01943*
X00328Y01929*
X00325Y01915*
Y01913*
X00393*
Y01981*
G37*
G36*
X00174D02*
X00172D01*
Y01913*
X0024*
Y01915*
X00237Y01929*
X00232Y01943*
X00224Y01954*
X00213Y01965*
X00202Y01973*
X00188Y01978*
X00174Y01981*
G37*
G36*
X00162D02*
X0016D01*
X00146Y01978*
X00132Y01973*
X0012Y01965*
X0011Y01954*
X00102Y01943*
X00097Y01929*
X00094Y01915*
Y01913*
X00162*
Y01981*
G37*
G36*
X01161Y01984D02*
X01147D01*
X01135Y01981*
X01122Y01976*
X01111Y01969*
X01102Y0196*
X01095Y01949*
X0109Y01936*
X01087Y01924*
Y0191*
X0109Y01897*
X01095Y01885*
X01102Y01874*
X01111Y01865*
X01122Y01858*
X01135Y01853*
X01147Y0185*
X01161*
X01174Y01853*
X01186Y01858*
X01197Y01865*
X01206Y01874*
X01213Y01885*
X01218Y01897*
X01221Y0191*
Y01924*
X01218Y01936*
X01213Y01949*
X01206Y0196*
X01197Y01969*
X01186Y01976*
X01174Y01981*
X01161Y01984*
G37*
G36*
X0093D02*
X00916D01*
X00903Y01981*
X00891Y01976*
X0088Y01969*
X00871Y0196*
X00864Y01949*
X00859Y01936*
X00856Y01924*
Y0191*
X00859Y01897*
X00864Y01885*
X00871Y01874*
X0088Y01865*
X00891Y01858*
X00903Y01853*
X00916Y0185*
X0093*
X00942Y01853*
X00955Y01858*
X00966Y01865*
X00975Y01874*
X00982Y01885*
X00987Y01897*
X0099Y0191*
Y01924*
X00987Y01936*
X00982Y01949*
X00975Y0196*
X00966Y01969*
X00955Y01976*
X00942Y01981*
X0093Y01984*
G37*
G36*
X00471Y01903D02*
X00403D01*
Y01835*
X00405*
X00419Y01838*
X00433Y01843*
X00445Y01851*
X00455Y01861*
X00463Y01873*
X00468Y01887*
X00471Y01901*
Y01903*
G37*
G36*
X00393D02*
X00325D01*
Y01901*
X00328Y01887*
X00333Y01873*
X00341Y01861*
X00352Y01851*
X00363Y01843*
X00377Y01838*
X00391Y01835*
X00393*
Y01903*
G37*
G36*
X0024D02*
X00172D01*
Y01835*
X00174*
X00188Y01838*
X00202Y01843*
X00213Y01851*
X00224Y01861*
X00232Y01873*
X00237Y01887*
X0024Y01901*
Y01903*
G37*
G36*
X00162D02*
X00094D01*
Y01901*
X00097Y01887*
X00102Y01873*
X0011Y01861*
X0012Y01851*
X00132Y01843*
X00146Y01838*
X0016Y01835*
X00162*
Y01903*
G37*
G36*
X00444Y01804D02*
X00438D01*
X00432Y01802*
X00428Y01798*
X00426Y01792*
Y01786*
X00428Y0178*
X00432Y01775*
X00438Y01773*
X00444*
X0045Y01775*
X00455Y0178*
X00457Y01786*
Y01792*
X00455Y01798*
X0045Y01802*
X00444Y01804*
G37*
G36*
X00703Y01781D02*
X00697D01*
X00691Y01778*
X00687Y01774*
X00684Y01768*
Y01762*
X00687Y01756*
X00691Y01752*
X00697Y01749*
X00703*
X00709Y01752*
X00713Y01756*
X00716Y01762*
Y01768*
X00713Y01774*
X00709Y01778*
X00703Y01781*
G37*
G36*
X01842Y01811D02*
X01832D01*
X01822Y01808*
X01813Y01803*
X01806Y01796*
X01801Y01787*
X01798Y01777*
Y01766*
X01801Y01756*
X01806Y01747*
X01813Y0174*
X01822Y01735*
X01832Y01732*
X01842*
X01852Y01735*
X01861Y0174*
X01869Y01747*
X01874Y01756*
X01877Y01766*
Y01777*
X01874Y01787*
X01869Y01796*
X01861Y01803*
X01852Y01808*
X01842Y01811*
G37*
G36*
X00563Y01784D02*
X00493D01*
Y01715*
X00563*
Y01784*
G37*
G36*
X01187Y01702D02*
X0118D01*
X01175Y01699*
X0117Y01695*
X01168Y01689*
Y01683*
X0117Y01677*
X01175Y01673*
X0118Y0167*
X01187*
X01192Y01673*
X01197Y01677*
X01199Y01683*
Y01689*
X01197Y01695*
X01192Y01699*
X01187Y01702*
G37*
G36*
X00533Y01684D02*
X00524D01*
X00515Y01682*
X00507Y01677*
X005Y01671*
X00496Y01663*
X00493Y01654*
Y01645*
X00496Y01636*
X005Y01628*
X00507Y01622*
X00515Y01617*
X00524Y01615*
X00533*
X00542Y01617*
X0055Y01622*
X00556Y01628*
X00561Y01636*
X00563Y01645*
Y01654*
X00561Y01663*
X00556Y01671*
X0055Y01677*
X00542Y01682*
X00533Y01684*
G37*
G36*
X00534Y0159D02*
X00533D01*
Y01554*
X00569*
Y01555*
X00566Y01565*
X00561Y01575*
X00553Y01582*
X00544Y01588*
X00534Y0159*
G37*
G36*
X00523D02*
X00523D01*
X00512Y01588*
X00503Y01582*
X00495Y01575*
X0049Y01565*
X00487Y01555*
Y01554*
X00523*
Y0159*
G37*
G36*
X00569Y01544D02*
X00533D01*
Y01508*
X00534*
X00544Y01511*
X00553Y01517*
X00561Y01524*
X00566Y01534*
X00569Y01544*
Y01544*
G37*
G36*
X00523D02*
X00487D01*
Y01544*
X0049Y01534*
X00495Y01524*
X00503Y01517*
X00512Y01511*
X00523Y01508*
X00523*
Y01544*
G37*
G36*
X00669Y01516D02*
X00662D01*
X00657Y01513*
X00652Y01509*
X0065Y01503*
Y01497*
X00652Y01491*
X00657Y01487*
X00662Y01484*
X00669*
X00674Y01487*
X00679Y01491*
X00681Y01497*
Y01503*
X00679Y01509*
X00674Y01513*
X00669Y01516*
G37*
G36*
X00741Y01479D02*
X00735D01*
X00729Y01476*
X00724Y01472*
X00722Y01466*
Y0146*
X00724Y01454*
X00729Y0145*
X00735Y01447*
X00741*
X00747Y0145*
X00751Y01454*
X00753Y0146*
Y01466*
X00751Y01472*
X00747Y01476*
X00741Y01479*
G37*
G36*
X00845Y01438D02*
X00838D01*
X00833Y01435*
X00828Y01431*
X00826Y01425*
Y01419*
X00828Y01413*
X00833Y01409*
X00838Y01406*
X00845*
X00851Y01409*
X00855Y01413*
X00857Y01419*
Y01425*
X00855Y01431*
X00851Y01435*
X00845Y01438*
G37*
G36*
X00858Y01375D02*
X00851D01*
X00846Y01373*
X00841Y01368*
X00839Y01363*
Y01356*
X00841Y0135*
X00846Y01346*
X00851Y01344*
X00858*
X00863Y01346*
X00868Y0135*
X0087Y01356*
Y01363*
X00868Y01368*
X00863Y01373*
X00858Y01375*
G37*
G36*
X00807D02*
X00801D01*
X00795Y01373*
X0079Y01368*
X00788Y01363*
Y01356*
X0079Y0135*
X00795Y01346*
X00801Y01344*
X00807*
X00813Y01346*
X00817Y0135*
X00819Y01356*
Y01363*
X00817Y01368*
X00813Y01373*
X00807Y01375*
G37*
G36*
X00563Y01393D02*
X00493D01*
Y01323*
X00563*
Y01393*
G37*
G36*
X01267Y01382D02*
X01258D01*
X0125Y0138*
X01242Y01375*
X01235Y01369*
X01231Y01361*
X01228Y01352*
Y01343*
X01231Y01335*
X01235Y01327*
X01242Y0132*
X0125Y01316*
X01258Y01313*
X01267*
X01276Y01316*
X01284Y0132*
X0129Y01327*
X01295Y01335*
X01297Y01343*
Y01352*
X01295Y01361*
X0129Y01369*
X01284Y01375*
X01276Y0138*
X01267Y01382*
G37*
G36*
X01476Y01364D02*
X01467D01*
X01458Y01362*
X0145Y01357*
X01443Y01351*
X01439Y01343*
X01436Y01334*
Y01325*
X01439Y01316*
X01443Y01308*
X0145Y01302*
X01458Y01297*
X01467Y01295*
X01476*
X01485Y01297*
X01493Y01302*
X01499Y01308*
X01504Y01316*
X01506Y01325*
Y01334*
X01504Y01343*
X01499Y01351*
X01493Y01357*
X01485Y01362*
X01476Y01364*
G37*
G36*
X00533Y01293D02*
X00524D01*
X00515Y01291*
X00507Y01286*
X005Y01279*
X00496Y01272*
X00493Y01263*
Y01253*
X00496Y01245*
X005Y01237*
X00507Y0123*
X00515Y01226*
X00524Y01223*
X00533*
X00542Y01226*
X0055Y0123*
X00556Y01237*
X00561Y01245*
X00563Y01253*
Y01263*
X00561Y01272*
X00556Y01279*
X0055Y01286*
X00542Y01291*
X00533Y01293*
G37*
G36*
X01267Y01282D02*
X01258D01*
X0125Y0128*
X01242Y01275*
X01235Y01269*
X01231Y01261*
X01228Y01252*
Y01243*
X01231Y01235*
X01235Y01227*
X01242Y0122*
X0125Y01216*
X01258Y01213*
X01267*
X01276Y01216*
X01284Y0122*
X0129Y01227*
X01295Y01235*
X01297Y01243*
Y01252*
X01295Y01261*
X0129Y01269*
X01284Y01275*
X01276Y0128*
X01267Y01282*
G37*
G36*
X01476Y01264D02*
X01467D01*
X01458Y01262*
X0145Y01257*
X01443Y01251*
X01439Y01243*
X01436Y01234*
Y01225*
X01439Y01216*
X01443Y01208*
X0145Y01202*
X01458Y01197*
X01467Y01195*
X01476*
X01485Y01197*
X01493Y01202*
X01499Y01208*
X01504Y01216*
X01506Y01225*
Y01234*
X01504Y01243*
X01499Y01251*
X01493Y01257*
X01485Y01262*
X01476Y01264*
G37*
G36*
X01168Y01197D02*
X01162D01*
X01156Y01195*
X01152Y01191*
X01149Y01185*
Y01178*
X01152Y01173*
X01156Y01168*
X01162Y01166*
X01168*
X01174Y01168*
X01178Y01173*
X01181Y01178*
Y01185*
X01178Y01191*
X01174Y01195*
X01168Y01197*
G37*
G36*
X00534Y01199D02*
X00533D01*
Y01163*
X00569*
Y01163*
X00566Y01174*
X00561Y01183*
X00553Y01191*
X00544Y01196*
X00534Y01199*
G37*
G36*
X00523D02*
X00523D01*
X00512Y01196*
X00503Y01191*
X00495Y01183*
X0049Y01174*
X00487Y01163*
Y01163*
X00523*
Y01199*
G37*
G36*
X00816Y01182D02*
X0081D01*
X00804Y01179*
X008Y01175*
X00797Y01169*
Y01163*
X008Y01157*
X00804Y01153*
X0081Y0115*
X00816*
X00822Y01153*
X00826Y01157*
X00829Y01163*
Y01169*
X00826Y01175*
X00822Y01179*
X00816Y01182*
G37*
G36*
X007Y01181D02*
X00693D01*
X00688Y01178*
X00683Y01174*
X00681Y01168*
Y01162*
X00683Y01156*
X00688Y01152*
X00693Y01149*
X007*
X00706Y01152*
X0071Y01156*
X00712Y01162*
Y01168*
X0071Y01174*
X00706Y01178*
X007Y01181*
G37*
G36*
X00753Y0118D02*
X00747D01*
X00741Y01178*
X00737Y01174*
X00734Y01168*
Y01162*
X00737Y01156*
X00741Y01151*
X00747Y01149*
X00753*
X00759Y01151*
X00763Y01156*
X00766Y01162*
Y01168*
X00763Y01174*
X00759Y01178*
X00753Y0118*
G37*
G36*
X01169Y01156D02*
X01162D01*
X01157Y01154*
X01152Y0115*
X0115Y01144*
Y01138*
X01152Y01132*
X01157Y01127*
X01162Y01125*
X01169*
X01174Y01127*
X01179Y01132*
X01181Y01138*
Y01144*
X01179Y0115*
X01174Y01154*
X01169Y01156*
G37*
G36*
X00569Y01153D02*
X00533D01*
Y01117*
X00534*
X00544Y0112*
X00553Y01125*
X00561Y01133*
X00566Y01142*
X00569Y01153*
Y01153*
G37*
G36*
X00523D02*
X00487D01*
Y01153*
X0049Y01142*
X00495Y01133*
X00503Y01125*
X00512Y0112*
X00523Y01117*
X00523*
Y01153*
G37*
G36*
X01267Y01182D02*
X01258D01*
X0125Y0118*
X01242Y01175*
X01235Y01169*
X01231Y01161*
X01228Y01152*
Y01143*
X01231Y01135*
X01235Y01127*
X01242Y0112*
X0125Y01116*
X01258Y01113*
X01267*
X01276Y01116*
X01284Y0112*
X0129Y01127*
X01295Y01135*
X01297Y01143*
Y01152*
X01295Y01161*
X0129Y01169*
X01284Y01175*
X01276Y0118*
X01267Y01182*
G37*
G36*
X00816Y01135D02*
X0081D01*
X00804Y01133*
X008Y01128*
X00797Y01122*
Y01116*
X008Y0111*
X00804Y01106*
X0081Y01103*
X00816*
X00822Y01106*
X00826Y0111*
X00829Y01116*
Y01122*
X00826Y01128*
X00822Y01133*
X00816Y01135*
G37*
G36*
X007Y01134D02*
X00694D01*
X00688Y01131*
X00684Y01127*
X00681Y01121*
Y01115*
X00684Y01109*
X00688Y01105*
X00694Y01102*
X007*
X00706Y01105*
X0071Y01109*
X00713Y01115*
Y01121*
X0071Y01127*
X00706Y01131*
X007Y01134*
G37*
G36*
X00754D02*
X00747D01*
X00742Y01131*
X00737Y01127*
X00735Y01121*
Y01115*
X00737Y01109*
X00742Y01105*
X00747Y01102*
X00754*
X00759Y01105*
X00764Y01109*
X00766Y01115*
Y01121*
X00764Y01127*
X00759Y01131*
X00754Y01134*
G37*
G36*
X01476Y01164D02*
X01467D01*
X01458Y01162*
X0145Y01157*
X01443Y01151*
X01439Y01143*
X01436Y01134*
Y01125*
X01439Y01116*
X01443Y01108*
X0145Y01102*
X01458Y01097*
X01467Y01095*
X01476*
X01485Y01097*
X01493Y01102*
X01499Y01108*
X01504Y01116*
X01506Y01125*
Y01134*
X01504Y01143*
X01499Y01151*
X01493Y01157*
X01485Y01162*
X01476Y01164*
G37*
G36*
X0117Y01114D02*
X01163D01*
X01158Y01112*
X01153Y01107*
X01151Y01101*
Y01095*
X01153Y01089*
X01158Y01085*
X01163Y01082*
X0117*
X01175Y01085*
X0118Y01089*
X01182Y01095*
Y01101*
X0118Y01107*
X01175Y01112*
X0117Y01114*
G37*
G36*
X0113Y01086D02*
X01124D01*
X01118Y01083*
X01113Y01079*
X01111Y01073*
Y01067*
X01113Y01061*
X01118Y01057*
X01124Y01054*
X0113*
X01136Y01057*
X0114Y01061*
X01143Y01067*
Y01073*
X0114Y01079*
X01136Y01083*
X0113Y01086*
G37*
G36*
X01477Y0107D02*
X01476D01*
Y01035*
X01512*
Y01035*
X01509Y01045*
X01504Y01055*
X01496Y01062*
X01487Y01068*
X01477Y0107*
G37*
G36*
X01466D02*
X01466D01*
X01455Y01068*
X01446Y01062*
X01438Y01055*
X01433Y01045*
X0143Y01035*
Y01035*
X01466*
Y0107*
G37*
G36*
X01267Y01082D02*
X01258D01*
X0125Y0108*
X01242Y01075*
X01235Y01069*
X01231Y01061*
X01228Y01052*
Y01043*
X01231Y01035*
X01235Y01027*
X01242Y0102*
X0125Y01016*
X01258Y01013*
X01267*
X01276Y01016*
X01284Y0102*
X0129Y01027*
X01295Y01035*
X01297Y01043*
Y01052*
X01295Y01061*
X0129Y01069*
X01284Y01075*
X01276Y0108*
X01267Y01082*
G37*
G36*
X01512Y01025D02*
X01476D01*
Y00989*
X01477*
X01487Y00991*
X01496Y00997*
X01504Y01004*
X01509Y01014*
X01512Y01024*
Y01025*
G37*
G36*
X01466D02*
X0143D01*
Y01024*
X01433Y01014*
X01438Y01004*
X01446Y00997*
X01455Y00991*
X01466Y00989*
X01466*
Y01025*
G37*
G36*
X01303Y00988D02*
X01268D01*
Y00953*
X01303*
Y00988*
G37*
G36*
X01258D02*
X01222D01*
Y00953*
X01258*
Y00988*
G37*
G36*
X00915Y00942D02*
X00908D01*
X00903Y0094*
X00898Y00936*
X00896Y0093*
Y00924*
X00898Y00918*
X00903Y00913*
X00908Y00911*
X00915*
X0092Y00913*
X00925Y00918*
X00927Y00924*
Y0093*
X00925Y00936*
X0092Y0094*
X00915Y00942*
G37*
G36*
X0086Y00941D02*
X00854D01*
X00848Y00938*
X00844Y00934*
X00841Y00928*
Y00922*
X00844Y00916*
X00848Y00912*
X00854Y00909*
X0086*
X00866Y00912*
X0087Y00916*
X00873Y00922*
Y00928*
X0087Y00934*
X00866Y00938*
X0086Y00941*
G37*
G36*
X01303Y00943D02*
X01268D01*
Y00907*
X01303*
Y00943*
G37*
G36*
X01258D02*
X01222D01*
Y00907*
X01258*
Y00943*
G37*
G36*
X00563Y00974D02*
X00493D01*
Y00905*
X00563*
Y00974*
G37*
G36*
X01506Y00964D02*
X01436D01*
Y00895*
X01506*
Y00964*
G37*
G36*
X00799Y00941D02*
X00793D01*
X00787Y00938*
X00783Y00934*
X00781Y00928*
Y00922*
X00783Y00916*
X00787Y00912*
X00792Y0091*
X00792Y00906*
X00788Y00904*
X00784Y00899*
X00781Y00894*
Y00887*
X00784Y00882*
X00788Y00877*
X00794Y00875*
X008*
X00806Y00877*
X0081Y00882*
X00813Y00887*
Y00894*
X0081Y00899*
X00806Y00904*
X00801Y00906*
X00801Y0091*
X00805Y00912*
X0081Y00916*
X00812Y00922*
Y00928*
X0081Y00934*
X00805Y00938*
X00799Y00941*
G37*
G36*
X00915Y00905D02*
X00909D01*
X00903Y00903*
X00899Y00898*
X00896Y00892*
Y00886*
X00899Y0088*
X00903Y00876*
X00909Y00874*
X00915*
X00921Y00876*
X00925Y0088*
X00928Y00886*
Y00892*
X00925Y00898*
X00921Y00903*
X00915Y00905*
G37*
G36*
X00859D02*
X00852D01*
X00847Y00903*
X00842Y00898*
X0084Y00892*
Y00886*
X00842Y0088*
X00847Y00876*
X00852Y00874*
X00859*
X00864Y00876*
X00869Y0088*
X00871Y00886*
Y00892*
X00869Y00898*
X00864Y00903*
X00859Y00905*
G37*
G36*
X01303Y0084D02*
X01297D01*
X01291Y00837*
X01286Y00833*
X01284Y00827*
Y00821*
X01286Y00815*
X01291Y00811*
X01297Y00808*
X01303*
X01309Y00811*
X01313Y00815*
X01315Y00821*
Y00827*
X01313Y00833*
X01309Y00837*
X01303Y0084*
G37*
G36*
X00533Y00874D02*
X00524D01*
X00515Y00872*
X00507Y00867*
X005Y00861*
X00496Y00853*
X00493Y00844*
Y00835*
X00496Y00826*
X005Y00818*
X00507Y00812*
X00515Y00807*
X00524Y00805*
X00533*
X00542Y00807*
X0055Y00812*
X00556Y00818*
X00561Y00826*
X00563Y00835*
Y00844*
X00561Y00853*
X00556Y00861*
X0055Y00867*
X00542Y00872*
X00533Y00874*
G37*
G36*
X01246Y00827D02*
X0124D01*
X01234Y00825*
X0123Y00821*
X01227Y00815*
Y00809*
X01228Y00806*
X01228Y00805*
X01226Y00803*
X0122*
X01215Y008*
X0121Y00796*
X01208Y0079*
Y00784*
X0121Y00778*
X01215Y00774*
X0122Y00771*
X01227*
X01232Y00774*
X01237Y00778*
X01239Y00784*
Y0079*
X01238Y00792*
X01239Y00794*
X01241Y00796*
X01246*
X01252Y00798*
X01256Y00803*
X01259Y00809*
Y00815*
X01256Y00821*
X01252Y00825*
X01246Y00827*
G37*
G36*
X01325Y00784D02*
X01319D01*
X01313Y00782*
X01309Y00777*
X01306Y00771*
Y00765*
X01309Y00759*
X01313Y00755*
X01319Y00753*
X01325*
X01331Y00755*
X01335Y00759*
X01338Y00765*
Y00771*
X01335Y00777*
X01331Y00782*
X01325Y00784*
G37*
G36*
X00534Y0078D02*
X00533D01*
Y00745*
X00569*
Y00745*
X00566Y00755*
X00561Y00765*
X00553Y00772*
X00544Y00778*
X00534Y0078*
G37*
G36*
X00523D02*
X00523D01*
X00512Y00778*
X00503Y00772*
X00495Y00765*
X0049Y00755*
X00487Y00745*
Y00745*
X00523*
Y0078*
G37*
G36*
X01365Y00745D02*
X01359D01*
X01353Y00742*
X01348Y00738*
X01346Y00732*
Y00726*
X01348Y0072*
X01353Y00716*
X01359Y00713*
X01365*
X01371Y00716*
X01375Y0072*
X01378Y00726*
Y00732*
X01375Y00738*
X01371Y00742*
X01365Y00745*
G37*
G36*
X00569Y00735D02*
X00533D01*
Y00699*
X00534*
X00544Y00701*
X00553Y00707*
X00561Y00714*
X00566Y00724*
X00569Y00734*
Y00735*
G37*
G36*
X00523D02*
X00487D01*
Y00734*
X0049Y00724*
X00495Y00714*
X00503Y00707*
X00512Y00701*
X00523Y00699*
X00523*
Y00735*
G37*
G36*
X01152Y00753D02*
X01083D01*
Y00684*
X01152*
Y00753*
G37*
G36*
X01022D02*
X01013D01*
X01004Y0075*
X00997Y00746*
X0099Y00739*
X00986Y00732*
X00983Y00723*
Y00714*
X00986Y00705*
X0099Y00697*
X00997Y00691*
X01004Y00686*
X01013Y00684*
X01022*
X01031Y00686*
X01039Y00691*
X01045Y00697*
X0105Y00705*
X01052Y00714*
Y00723*
X0105Y00732*
X01045Y00739*
X01039Y00746*
X01031Y0075*
X01022Y00753*
G37*
G36*
X00922D02*
X00913D01*
X00904Y0075*
X00897Y00746*
X0089Y00739*
X00886Y00732*
X00883Y00723*
Y00714*
X00886Y00705*
X0089Y00697*
X00897Y00691*
X00904Y00686*
X00913Y00684*
X00922*
X00931Y00686*
X00939Y00691*
X00945Y00697*
X0095Y00705*
X00952Y00714*
Y00723*
X0095Y00732*
X00945Y00739*
X00939Y00746*
X00931Y0075*
X00922Y00753*
G37*
G36*
X01839Y0071D02*
X01826D01*
Y00683*
X01871*
X0187Y00686*
X01867Y00694*
X01862Y00701*
X01855Y00706*
X01848Y00709*
X01839Y0071*
G37*
G36*
X01816D02*
X01802D01*
X01794Y00709*
X01786Y00706*
X01779Y00701*
X01774Y00694*
X01771Y00686*
X01771Y00683*
X01816*
Y0071*
G37*
G36*
X01385Y00714D02*
X01378D01*
X01373Y00711*
X01368Y00707*
X01366Y00701*
Y00695*
X01368Y00689*
X01373Y00685*
X01378Y00682*
X01385*
X0139Y00685*
X01395Y00689*
X01397Y00695*
Y00701*
X01395Y00707*
X0139Y00711*
X01385Y00714*
G37*
G36*
X01506Y00672D02*
X01499D01*
X01493Y0067*
X01489Y00665*
X01487Y0066*
Y00653*
X01489Y00647*
X01493Y00643*
X01499Y00641*
X01506*
X01511Y00643*
X01516Y00647*
X01518Y00653*
Y0066*
X01516Y00665*
X01511Y0067*
X01506Y00672*
G37*
G36*
X01636Y00611D02*
X0163D01*
X01624Y00609*
X0162Y00604*
X01618Y00599*
Y00592*
X0162Y00587*
X01624Y00582*
X0163Y0058*
X01636*
X01642Y00582*
X01647Y00587*
X01649Y00592*
Y00599*
X01647Y00604*
X01642Y00609*
X01636Y00611*
G37*
G36*
X01519Y00562D02*
X01513D01*
X01507Y0056*
X01503Y00555*
X015Y0055*
Y00543*
X01503Y00538*
X01507Y00533*
X01513Y00531*
X01519*
X01525Y00533*
X01529Y00538*
X01532Y00543*
Y0055*
X01529Y00555*
X01525Y0056*
X01519Y00562*
G37*
G36*
X01646Y00547D02*
X01639D01*
X01633Y00545*
X01629Y00541*
X01627Y00535*
Y00529*
X01629Y00523*
X01633Y00518*
X01639Y00516*
X01646*
X01651Y00518*
X01656Y00523*
X01658Y00529*
Y00535*
X01656Y00541*
X01651Y00545*
X01646Y00547*
G37*
G36*
X00563Y00584D02*
X00493D01*
Y00514*
X00563*
Y00584*
G37*
G36*
X00974Y00531D02*
X00968D01*
X00962Y00529*
X00958Y00524*
X00955Y00518*
Y00512*
X00958Y00506*
X00962Y00502*
X00968Y005*
X00974*
X0098Y00502*
X00984Y00506*
X00987Y00512*
Y00518*
X00984Y00524*
X0098Y00529*
X00974Y00531*
G37*
G36*
X00534Y0049D02*
X00533D01*
Y00454*
X00569*
Y00454*
X00566Y00464*
X00561Y00474*
X00553Y00481*
X00544Y00487*
X00534Y0049*
G37*
G36*
X00523D02*
X00523D01*
X00513Y00487*
X00503Y00481*
X00496Y00474*
X0049Y00464*
X00487Y00454*
Y00454*
X00523*
Y0049*
G37*
G36*
X01345Y00483D02*
X01338D01*
X01333Y0048*
X01328Y00476*
X01326Y0047*
Y00464*
X01328Y00458*
X01333Y00453*
X01338Y00451*
X01345*
X0135Y00453*
X01355Y00458*
X01357Y00464*
Y0047*
X01355Y00476*
X0135Y0048*
X01345Y00483*
G37*
G36*
X01644Y00502D02*
X01637D01*
X01632Y005*
X01627Y00495*
X01625Y0049*
Y00483*
X01627Y00478*
X01632Y00473*
X01633Y00472*
Y00468*
X01632Y00468*
X01628Y00463*
X01625Y00457*
Y00451*
X01628Y00445*
X01632Y00441*
X01638Y00439*
X01644*
X0165Y00441*
X01654Y00445*
X01657Y00451*
Y00457*
X01654Y00463*
X0165Y00468*
X01648Y00468*
Y00473*
X01649Y00473*
X01654Y00478*
X01656Y00483*
Y0049*
X01654Y00495*
X01649Y005*
X01644Y00502*
G37*
G36*
X01576Y0047D02*
X0157D01*
X01564Y00468*
X01559Y00463*
X01557Y00457*
Y00451*
X01559Y00445*
X01564Y00441*
X0157Y00439*
X01576*
X01582Y00441*
X01586Y00445*
X01588Y00451*
Y00457*
X01586Y00463*
X01582Y00468*
X01576Y0047*
G37*
G36*
X00569Y00444D02*
X00533D01*
Y00408*
X00534*
X00544Y00411*
X00553Y00416*
X00561Y00424*
X00566Y00433*
X00569Y00443*
Y00444*
G37*
G36*
X00523D02*
X00487D01*
Y00443*
X0049Y00433*
X00496Y00424*
X00503Y00416*
X00513Y00411*
X00523Y00408*
X00523*
Y00444*
G37*
G36*
X01634Y00423D02*
X01628D01*
X01622Y00421*
X01618Y00417*
X01615Y00411*
Y00405*
X01618Y00399*
X01622Y00394*
X01628Y00392*
X01634*
X0164Y00394*
X01644Y00399*
X01647Y00405*
Y00411*
X01644Y00417*
X0164Y00421*
X01634Y00423*
G37*
G36*
X01871Y00673D02*
X01821D01*
X01771*
X01771Y0067*
X01774Y00662*
X01779Y00656*
X01781Y00654*
X0178Y0065*
X01718*
X01715Y00649*
X01714Y00646*
Y00355*
X01715Y00352*
X01718Y0035*
X0178*
X01781Y00346*
X01779Y00345*
X01774Y00338*
X01771Y00331*
X01771Y00327*
X01821*
X01871*
X0187Y00331*
X01867Y00338*
X01862Y00345*
X0186Y00346*
X01861Y0035*
X01895*
X01898Y00352*
X01899Y00355*
Y00646*
X01898Y00649*
X01895Y0065*
X01861*
X0186Y00654*
X01862Y00656*
X01867Y00662*
X0187Y0067*
X01871Y00673*
G37*
G36*
X00934Y00354D02*
X00928D01*
X00922Y00351*
X00918Y00347*
X00915Y00341*
Y00335*
X00918Y00329*
X00922Y00325*
X00928Y00322*
X00934*
X0094Y00325*
X00944Y00329*
X00947Y00335*
Y00341*
X00944Y00347*
X0094Y00351*
X00934Y00354*
G37*
G36*
X00983Y00376D02*
X00976D01*
X00971Y00373*
X00966Y00369*
X00964Y00363*
Y00357*
X00966Y00351*
X00967Y0035*
X00967Y00349*
X00966Y00345*
X00961Y00343*
X00957Y00339*
X00955Y00333*
Y00327*
X00957Y00321*
X00961Y00317*
X00967Y00314*
X00973*
X00979Y00317*
X00984Y00321*
X00986Y00327*
Y00333*
X00984Y00339*
X00983Y0034*
X00983Y00341*
X00984Y00345*
X00988Y00346*
X00993Y00351*
X00995Y00357*
Y00363*
X00993Y00369*
X00988Y00373*
X00983Y00376*
G37*
G36*
X00533Y00384D02*
X00524D01*
X00515Y00381*
X00507Y00377*
X005Y0037*
X00496Y00362*
X00493Y00353*
Y00344*
X00496Y00335*
X005Y00327*
X00507Y00321*
X00515Y00316*
X00524Y00314*
X00533*
X00542Y00316*
X0055Y00321*
X00556Y00327*
X00561Y00335*
X00563Y00344*
Y00353*
X00561Y00362*
X00556Y0037*
X0055Y00377*
X00542Y00381*
X00533Y00384*
G37*
G36*
X01871Y00317D02*
X01826D01*
Y0029*
X01839*
X01848Y00291*
X01855Y00295*
X01862Y003*
X01867Y00306*
X0187Y00314*
X01871Y00317*
G37*
G36*
X01816D02*
X01771D01*
X01771Y00314*
X01774Y00306*
X01779Y003*
X01786Y00295*
X01794Y00291*
X018Y00291*
X018Y00287*
X01796Y00285*
X01791Y0028*
X01789Y00274*
Y00268*
X01791Y00262*
X01796Y00258*
X01801Y00255*
X01808*
X01813Y00258*
X01818Y00262*
X0182Y00268*
Y00274*
X01818Y0028*
X01813Y00285*
X01809Y00286*
X0181Y0029*
X01816*
Y00317*
G37*
G36*
X00884Y00273D02*
X00878D01*
X00872Y00271*
X00868Y00267*
X00866Y00261*
Y00254*
X00868Y00249*
X00872Y00244*
X00878Y00242*
X00884*
X0089Y00244*
X00895Y00249*
X00897Y00254*
Y00261*
X00895Y00267*
X0089Y00271*
X00884Y00273*
G37*
G36*
X00533Y00284D02*
X00524D01*
X00515Y00281*
X00507Y00277*
X005Y0027*
X00496Y00262*
X00493Y00253*
Y00244*
X00496Y00235*
X005Y00227*
X00507Y00221*
X00515Y00216*
X00524Y00214*
X00533*
X00542Y00216*
X0055Y00221*
X00556Y00227*
X00561Y00235*
X00563Y00244*
Y00253*
X00561Y00262*
X00556Y0027*
X0055Y00277*
X00542Y00281*
X00533Y00284*
G37*
G36*
X00928Y00191D02*
X0086D01*
Y00124*
X00928*
Y00191*
G37*
G36*
X00798D02*
X0079D01*
X00781Y00189*
X00773Y00184*
X00767Y00178*
X00762Y0017*
X0076Y00162*
Y00153*
X00762Y00144*
X00767Y00137*
X00773Y0013*
X00781Y00126*
X0079Y00124*
X00798*
X00807Y00126*
X00815Y0013*
X00821Y00137*
X00826Y00144*
X00828Y00153*
Y00162*
X00826Y0017*
X00821Y00178*
X00815Y00184*
X00807Y00189*
X00798Y00191*
G37*
G36*
X00533Y00184D02*
X00524D01*
X00515Y00181*
X00507Y00177*
X005Y0017*
X00496Y00162*
X00493Y00153*
Y00144*
X00496Y00135*
X005Y00127*
X00507Y00121*
X00515Y00116*
X00524Y00114*
X00533*
X00542Y00116*
X0055Y00121*
X00556Y00127*
X00561Y00135*
X00563Y00144*
Y00153*
X00561Y00162*
X00556Y0017*
X0055Y00177*
X00542Y00181*
X00533Y00184*
G37*
G36*
X01468Y0012D02*
X01462D01*
X01456Y00118*
X01452Y00113*
X01449Y00108*
Y00101*
X01452Y00095*
X01456Y00091*
X01462Y00089*
X01468*
X01474Y00091*
X01478Y00095*
X01481Y00101*
Y00108*
X01478Y00113*
X01474Y00118*
X01468Y0012*
G37*
G36*
X00799Y00097D02*
X00799D01*
Y00062*
X00834*
Y00063*
X00831Y00073*
X00826Y00082*
X00818Y00089*
X00809Y00095*
X00799Y00097*
G37*
G36*
X00789D02*
X00789D01*
X00779Y00095*
X00769Y00089*
X00762Y00082*
X00757Y00073*
X00754Y00063*
Y00062*
X00789*
Y00097*
G37*
G36*
X00898Y00091D02*
X0089D01*
X00881Y00089*
X00873Y00085*
X00867Y00078*
X00862Y0007*
X0086Y00062*
Y00053*
X00862Y00044*
X00867Y00037*
X00873Y0003*
X00881Y00026*
X0089Y00024*
X00898*
X00907Y00026*
X00915Y0003*
X00921Y00037*
X00926Y00044*
X00928Y00053*
Y00062*
X00926Y0007*
X00921Y00078*
X00915Y00085*
X00907Y00089*
X00898Y00091*
G37*
G36*
X00834Y00052D02*
X00799D01*
Y00017*
X00799*
X00809Y0002*
X00818Y00025*
X00826Y00033*
X00831Y00042*
X00834Y00052*
Y00052*
G37*
G36*
X00789D02*
X00754D01*
Y00052*
X00757Y00042*
X00762Y00033*
X00769Y00025*
X00779Y0002*
X00789Y00017*
X00789*
Y00052*
G37*
G36*
X01202Y00036D02*
X01195D01*
X01189Y00034*
X01185Y00029*
X01183Y00023*
Y00017*
X01185Y00011*
X01189Y00007*
X01195Y00005*
X01202*
X01207Y00007*
X01212Y00011*
X01214Y00017*
Y00023*
X01212Y00029*
X01207Y00034*
X01202Y00036*
G37*
%LNpcb1-3*%
%LPD*%
G54D60*
X01471Y0103D03*
X00528Y01158D03*
Y01549D03*
X00528Y00449D03*
X00528Y0074D03*
G54D63*
X00794Y00057D03*
G54D64*
X01821Y00678D03*
Y00322D03*
G54D84*
X01263Y00948D03*
G54D85*
X00167Y01908D03*
Y02139D03*
X00398Y01908D03*
Y02139D03*
G54D88*
X01961Y00116D03*
X00777Y01382D03*
X00624Y00801D03*
X0089Y01031D03*
X01906Y02108D03*
X01945Y02029D03*
X01906Y0195D03*
X01945Y01872D03*
Y01714D03*
Y01557D03*
X01906Y01321D03*
X01945Y01242D03*
X01906Y01163D03*
X01945Y01084D03*
X01906Y01006D03*
X01945Y00927D03*
X01906Y00691D03*
X01945Y00612D03*
Y00454D03*
Y00297D03*
Y00139D03*
X01866Y02029D03*
Y01872D03*
X01827Y01321D03*
X01866Y01242D03*
X01827Y01163D03*
X01866Y01084D03*
X01827Y01006D03*
X01866Y00927D03*
X01787Y02029D03*
X01748Y0195D03*
X01787Y01872D03*
X01748Y01793D03*
Y01321D03*
X01787Y01242D03*
X01748Y01163D03*
X01787Y01084D03*
X01748Y01006D03*
X01787Y00927D03*
X01709Y02029D03*
X01669Y0195D03*
X01709Y01872D03*
X01669Y01793D03*
X01709Y01714D03*
X01669Y01321D03*
X01709Y01242D03*
X01669Y01163D03*
X01709Y01084D03*
X01669Y01006D03*
X01709Y00927D03*
Y00769D03*
X01669Y00218D03*
X0163Y02029D03*
X01591Y0195D03*
X0163Y01872D03*
X01591Y01793D03*
X0163Y01399D03*
X01591Y01321D03*
X0163Y01242D03*
X01591Y01163D03*
X0163Y01084D03*
X01591Y01006D03*
X0163Y00927D03*
X01591Y00218D03*
X01512Y02108D03*
X01551Y02029D03*
X01512Y0195D03*
X01551Y01872D03*
Y01714D03*
Y01242D03*
X01512Y01163D03*
X01551Y01084D03*
Y00927D03*
X01433Y02108D03*
X01473Y02029D03*
X01433Y01163D03*
X01394Y02029D03*
Y01242D03*
X01315D03*
X00961Y00061D03*
X00724D03*
X00646Y02108D03*
X00685Y02029D03*
X00646Y0195D03*
Y01793D03*
Y00061D03*
X00567Y02108D03*
X00606Y02029D03*
X00567Y0195D03*
X00606Y01399D03*
X00567Y00061D03*
X00488Y02108D03*
X00528Y02029D03*
X00488Y01478D03*
Y00061D03*
X00449Y02029D03*
X0041Y01793D03*
Y01636D03*
Y01478D03*
Y01321D03*
Y01163D03*
Y00061D03*
X0037Y02029D03*
X00331Y01793D03*
X0037Y01714D03*
X00331Y01636D03*
X0037Y01557D03*
X00331Y01478D03*
X0037Y01399D03*
X00331Y01321D03*
X0037Y01242D03*
X00331Y01163D03*
X0037Y01084D03*
X00331Y01006D03*
X0037Y00927D03*
X00331Y00848D03*
X0037Y00769D03*
X00331Y00691D03*
X0037Y00612D03*
X00331Y00533D03*
X0037Y00454D03*
X00331Y00376D03*
X0037Y00297D03*
X00331Y00218D03*
X0037Y00139D03*
X00331Y00061D03*
X00252Y02108D03*
Y0195D03*
X00291Y01872D03*
X00252Y01793D03*
X00291Y01714D03*
X00252Y01636D03*
X00291Y01557D03*
X00252Y01478D03*
X00291Y01399D03*
X00252Y01321D03*
X00291Y01242D03*
X00252Y01163D03*
X00291Y01084D03*
X00252Y01006D03*
X00291Y00927D03*
X00252Y00848D03*
X00291Y00769D03*
X00252Y00691D03*
X00291Y00612D03*
X00252Y00533D03*
X00291Y00454D03*
X00252Y00376D03*
X00291Y00297D03*
X00252Y00218D03*
X00291Y00139D03*
X00252Y00061D03*
X00173Y01793D03*
X00213Y01714D03*
X00173Y01636D03*
X00213Y01557D03*
X00173Y01478D03*
X00213Y01399D03*
X00173Y01321D03*
X00213Y01242D03*
X00173Y01163D03*
X00213Y01084D03*
X00173Y01006D03*
X00213Y00927D03*
X00173Y00848D03*
X00213Y00769D03*
X00173Y00691D03*
X00213Y00612D03*
X00173Y00533D03*
X00213Y00454D03*
X00173Y00376D03*
X00213Y00297D03*
X00173Y00218D03*
X00213Y00139D03*
X00173Y00061D03*
X00134Y02029D03*
X00095Y01793D03*
X00134Y01714D03*
X00095Y01636D03*
X00134Y01557D03*
X00095Y01478D03*
X00134Y01399D03*
X00095Y01321D03*
X00134Y01242D03*
X00095Y01163D03*
X00134Y01084D03*
X00095Y01006D03*
X00134Y00927D03*
X00095Y00848D03*
X00134Y00769D03*
X00095Y00691D03*
X00134Y00612D03*
X00095Y00533D03*
X00134Y00454D03*
X00095Y00376D03*
X00134Y00297D03*
X00095Y00218D03*
X00134Y00139D03*
X00095Y00061D03*
X01745Y00013D03*
X01158Y01314D03*
X01098Y01754D03*
X01144Y01812D03*
X011D03*
X00834Y01802D03*
X0107Y00893D03*
X00642Y00948D03*
X01671Y00761D03*
X01638Y00322D03*
Y00374D03*
X01794Y01592D03*
Y01653D03*
X0171Y01601D03*
Y01654D03*
X01638Y01602D03*
Y01653D03*
X00816Y00821D03*
X00758Y01538D03*
X0083Y0155D03*
X00621Y01666D03*
X00959Y01308D03*
X01012D03*
Y01338D03*
X00958D03*
X00937Y01621D03*
X00935Y01659D03*
X00941Y00517D03*
X00883Y00291D03*
X0087Y00495D03*
X01557Y00498D03*
X01058Y0002D03*
X01337Y0002D03*
X01577Y00057D03*
M02*