%FSTAX23Y23*%
%MOIN*%
%SFA1B1*%

%IPPOS*%
%AMD64*
4,1,8,-0.040400,0.000000,-0.040400,0.000000,-0.018700,-0.021700,0.018700,-0.021700,0.040400,0.000000,0.040400,0.000000,0.018700,0.021700,-0.018700,0.021700,-0.040400,0.000000,0.0*
1,1,0.043300,-0.018700,0.000000*
1,1,0.043300,-0.018700,0.000000*
1,1,0.043300,0.018700,0.000000*
1,1,0.043300,0.018700,0.000000*
%
%AMD89*
4,1,8,-0.032500,0.000000,-0.032500,0.000000,-0.010800,-0.021700,0.010800,-0.021700,0.032500,0.000000,0.032500,0.000000,0.010800,0.021700,-0.010800,0.021700,-0.032500,0.000000,0.0*
1,1,0.043300,-0.010800,0.000000*
1,1,0.043300,-0.010800,0.000000*
1,1,0.043300,0.010800,0.000000*
1,1,0.043300,0.010800,0.000000*
%
%ADD56C,0.081020*%
%ADD57R,0.081020X0.081020*%
%ADD58C,0.145980*%
%ADD59C,0.090870*%
%ADD60C,0.061810*%
%ADD61R,0.061810X0.061810*%
%ADD62R,0.081020X0.081020*%
%ADD63C,0.059840*%
G04~CAMADD=64~8~0.0~0.0~433.1~807.1~216.5~0.0~15~0.0~0.0~0.0~0.0~0~0.0~0.0~0.0~0.0~0~0.0~0.0~0.0~90.0~808.0~434.0*
%ADD64D64*%
%ADD65R,0.059840X0.059840*%
G04~CAMADD=89~8~0.0~0.0~433.1~649.6~216.5~0.0~15~0.0~0.0~0.0~0.0~0~0.0~0.0~0.0~0.0~0~0.0~0.0~0.0~90.0~650.0~434.0*
%ADD89D89*%
%LNpcb1-1*%
%LPD*%
G54D56*
X01263Y01348D03*
Y01248D03*
Y01148D03*
Y01048D03*
X01018Y00718D03*
X00918D03*
G54D57*
X01263Y00948D03*
G54D58*
X00283Y02024D03*
X00167Y01908D03*
Y02139D03*
X00398Y01908D03*
Y02139D03*
X00923Y02148D03*
X01154D03*
X00923Y01917D03*
X01154D03*
X01039Y02033D03*
G54D59*
X01837Y01968D03*
Y01771D03*
G54D60*
X01471Y0113D03*
Y0103D03*
Y0123D03*
Y0133D03*
X00528Y01158D03*
Y01258D03*
Y01649D03*
Y01549D03*
X00528Y00349D03*
X00528Y0084D03*
X00528Y00449D03*
X00528Y0074D03*
X00528Y00249D03*
Y00149D03*
G54D61*
X01471Y0093D03*
X00528Y01358D03*
Y01749D03*
Y0094D03*
X00528Y00549D03*
G54D62*
X01118Y00718D03*
G54D63*
X00894Y00057D03*
X00794Y00157D03*
Y00057D03*
G54D64*
X01821Y00678D03*
Y00322D03*
G54D65*
X00894Y00157D03*
G54D89*
X01702Y00678D03*
Y00322D03*
M02*