%FSTAX23Y23*%
%MOIN*%
%SFA1B1*%

%IPPOS*%
%AMD19*
4,1,8,0.017200,-0.002600,0.017200,0.002600,0.000000,0.019800,0.000000,0.019800,-0.017200,0.002600,-0.017200,-0.002600,0.000000,-0.019800,0.000000,-0.019800,0.017200,-0.002600,0.0*
1,1,0.034340,0.000000,-0.002600*
1,1,0.034340,0.000000,0.002600*
1,1,0.034340,0.000000,0.002600*
1,1,0.034340,0.000000,-0.002600*
%
%AMD20*
4,1,8,0.062600,-0.002600,0.062600,0.002600,0.045400,0.019800,-0.045400,0.019800,-0.062600,0.002600,-0.062600,-0.002600,-0.045400,-0.019800,0.045400,-0.019800,0.062600,-0.002600,0.0*
1,1,0.034400,0.045400,-0.002600*
1,1,0.034400,0.045400,0.002600*
1,1,0.034400,-0.045400,0.002600*
1,1,0.034400,-0.045400,-0.002600*
%
%AMD64*
4,1,8,-0.040400,0.000000,-0.040400,0.000000,-0.018700,-0.021700,0.018700,-0.021700,0.040400,0.000000,0.040400,0.000000,0.018700,0.021700,-0.018700,0.021700,-0.040400,0.000000,0.0*
1,1,0.043300,-0.018700,0.000000*
1,1,0.043300,-0.018700,0.000000*
1,1,0.043300,0.018700,0.000000*
1,1,0.043300,0.018700,0.000000*
%
%AMD67*
4,1,8,-0.006900,-0.027600,0.006900,-0.027600,0.008900,-0.025600,0.008900,0.025600,0.006900,0.027600,-0.006900,0.027600,-0.008900,0.025600,-0.008900,-0.025600,-0.006900,-0.027600,0.0*
1,1,0.003900,-0.006900,-0.025600*
1,1,0.003900,0.006900,-0.025600*
1,1,0.003900,0.006900,0.025600*
1,1,0.003900,-0.006900,0.025600*
%
%ADD12C,0.007870*%
%ADD18R,0.034340X0.039540*%
G04~CAMADD=19~8~0.0~0.0~395.4~343.4~171.7~0.0~15~0.0~0.0~0.0~0.0~0~0.0~0.0~0.0~0.0~0~0.0~0.0~0.0~270.0~344.0~395.0*
%ADD19D19*%
G04~CAMADD=20~8~0.0~0.0~395.4~1252.8~172.0~0.0~15~0.0~0.0~0.0~0.0~0~0.0~0.0~0.0~0.0~0~0.0~0.0~0.0~270.0~1254.0~395.0*
%ADD20D20*%
%ADD24R,0.061210X0.075050*%
%ADD31R,0.020290X0.018600*%
%ADD32R,0.029850X0.031970*%
%ADD36R,0.039370X0.011810*%
%ADD38R,0.039850X0.045600*%
%ADD40R,0.018600X0.020290*%
%ADD41R,0.032480X0.009840*%
%ADD43R,0.026570X0.009840*%
%ADD44R,0.009840X0.032480*%
%ADD45R,0.031970X0.029850*%
%ADD47R,0.015750X0.042320*%
%ADD48R,0.117130X0.013780*%
%ADD49C,0.035430*%
%ADD60C,0.061810*%
%ADD61R,0.061810X0.061810*%
%ADD63C,0.059840*%
G04~CAMADD=64~8~0.0~0.0~433.1~807.1~216.5~0.0~15~0.0~0.0~0.0~0.0~0~0.0~0.0~0.0~0.0~0~0.0~0.0~0.0~90.0~808.0~434.0*
%ADD64D64*%
%ADD65R,0.059840X0.059840*%
G04~CAMADD=67~8~0.0~0.0~177.2~551.2~19.5~0.0~15~0.0~0.0~0.0~0.0~0~0.0~0.0~0.0~0.0~0~0.0~0.0~0.0~180.0~178.0~552.0*
%ADD67D67*%
%ADD68O,0.011810X0.062990*%
%ADD69O,0.062990X0.011810*%
%ADD70R,0.039370X0.035430*%
%ADD71R,0.275590X0.157480*%
%ADD72R,0.157480X0.098430*%
%ADD73R,0.035430X0.039370*%
%ADD74R,0.074800X0.110240*%
%ADD75R,0.033470X0.037400*%
%ADD76R,0.031500X0.031500*%
%ADD77R,0.031500X0.035430*%
%ADD78R,0.035430X0.031500*%
%ADD79R,0.078740X0.216540*%
%ADD80R,0.047240X0.064960*%
%ADD81R,0.037400X0.033470*%
%ADD82R,0.009840X0.009840*%
%ADD83R,0.031500X0.031500*%
%ADD84C,0.061020*%
%ADD85R,0.061020X0.061020*%
%ADD86C,0.125980*%
%ADD87C,0.070870*%
%ADD88R,0.061020X0.061020*%
%ADD89C,0.023620*%
%ADD90C,0.019680*%
%LNpcb1-1*%
%LPD*%
G36*
X01489Y01945D02*
Y01536D01*
X01429Y01476*
X01243*
X01103Y01337*
Y01284*
X01102Y01284*
X011*
Y01246*
X01095*
Y01241*
X01076*
Y01238*
X01069*
Y01394*
X01151Y01476*
Y01684*
X01176Y01708*
X0118Y01706*
Y01703*
X01203*
Y01733*
X01208*
Y01738*
X01236*
Y01763*
X01234Y01767*
X01254Y01787*
Y01945*
X01268Y01981*
X01474*
X01489Y01945*
G37*
G36*
X01167Y01835D02*
Y01763D01*
X0116*
Y01733*
X01155*
Y01728*
X01127*
Y01714*
X01079*
Y01748*
X01039*
Y01753*
X01034*
Y018*
X01008*
Y01832*
X01011Y01836*
X01167Y01835*
G37*
G36*
X01026Y01939D02*
Y01908D01*
Y01882*
X01Y01857*
X00984Y0184*
Y01706*
X00961Y01684*
X00911*
Y01657*
X00903*
Y01626*
X00893*
Y01657*
X00889*
Y01666*
X00839Y01716*
X00841Y0172*
X00863*
Y01743*
X00833*
Y01753*
X00863*
Y01763*
X00872*
Y01836*
X00836Y01872*
Y0196*
X00888Y02007*
X00957*
X01026Y01939*
G37*
G36*
X00802Y01645D02*
Y01606D01*
X008Y01604*
X00782*
X0078Y01606*
Y01632*
X00782Y01634*
X00792*
X00794Y01636*
Y01645*
X00796Y01647*
X008*
X00802Y01645*
G37*
G36*
X00974Y01602D02*
X00972Y016D01*
X00918*
Y01673*
X00974*
Y01602*
G37*
G36*
X00802Y01535D02*
Y01496D01*
X008Y01494*
X00796*
X00794Y01496*
Y01506*
X00792Y01508*
X00782*
X0078Y0151*
Y01535*
X00782Y01537*
X008*
X00802Y01535*
G37*
G36*
X011Y01493D02*
X00986D01*
Y0156*
X00983*
Y01566*
X00914*
Y01576*
X00983*
Y0158*
X00986*
Y01649*
X011*
Y01493*
G37*
G36*
X0088Y0152D02*
X00898D01*
Y01515*
X00903*
Y01484*
X00905*
Y01476*
X0089Y01463*
Y01375*
X00885Y0137*
X00882Y01373*
Y01378*
Y01416*
X00846*
Y01373*
X00877*
X00882*
X00885Y0137*
X00868Y01352*
Y01347*
X00846*
Y01318*
X00841*
Y01313*
X00813*
Y01299*
X00791*
Y01348*
Y01478*
X00799Y01486*
X00841*
Y01484*
X00851*
Y0151*
X00856*
Y01515*
X00871*
Y01521*
X0088*
Y0152*
G37*
G36*
X00972Y01538D02*
X00975Y01538D01*
Y0149*
X00986Y01478*
X01039*
X01063Y01454*
Y01215*
X01055*
Y01236*
X00996*
Y01215*
X0098*
Y01236*
X0092*
Y01215*
X0089*
X00878Y01202*
X00817*
X00813Y01208*
Y01222*
Y01276*
X00825Y01288*
X00867*
Y01288*
X00889*
Y01318*
Y01347*
X00881*
X00879Y01352*
X00899Y01372*
Y01463*
X00928Y01491*
Y01535*
X0093Y01537*
Y01537*
X00932Y01539*
X00971*
X00972Y01538*
G37*
G36*
X00703Y01288D02*
X00719Y01272D01*
Y01211*
X00745Y01186*
X00888*
X00907Y01205*
X0092Y01205*
Y01193*
X0098*
Y01201*
X00983Y01204*
X00996Y01204*
Y01193*
X01055*
Y012*
X01059Y01203*
X01114Y01202*
Y01208*
X01116*
Y01246*
X01126*
Y01208*
X01126*
Y01202*
Y01086*
X01124*
X01118Y01083*
X01113Y01079*
X01112Y01076*
X0068*
X00626Y0113*
Y0127*
X00645Y01288*
X00703*
G37*
G36*
X01152Y01208D02*
X01154D01*
X01155Y01207*
Y01202*
X01184*
X01195Y01188*
Y01087*
X01184Y01076*
X01145*
X01136Y01085*
Y01205*
X0114Y01208*
X01142*
Y01246*
X01152*
Y01208*
G37*
G36*
X00875Y01013D02*
X00907D01*
Y00992*
X00966*
Y01013*
X00998*
X01005Y01007*
Y0088*
X00996Y00871*
X00739*
Y00895*
X00712*
Y009*
X00707*
Y0093*
X00684*
Y00927*
X0068Y00924*
X00668*
Y01026*
X00674Y01032*
X00857*
X00875Y01013*
G37*
G36*
X01713Y007D02*
X01717D01*
X01723Y00698*
X01729Y00694*
X01733Y00688*
X01735Y00681*
X01735Y00675*
X01733Y00668*
X01729Y00662*
X01726Y0066*
X01679*
X01676Y00662*
X01672Y00668*
X0167Y00675*
X0167Y00681*
X01672Y00688*
X01676Y00694*
X01682Y00698*
X01688Y007*
X01692*
X01713*
G37*
G36*
X01729Y00338D02*
X01733Y00332D01*
X01735Y00326*
X01735Y00319*
X01733Y00312*
X01729Y00307*
X01723Y00303*
X01717Y00301*
X01713Y00301*
X01692*
X01688Y00301*
X01682Y00303*
X01676Y00307*
X01672Y00312*
X0167Y00319*
X0167Y00326*
X01672Y00332*
X01676Y00338*
X01679Y0034*
X01726*
X01729Y00338*
G37*
%LNpcb1-2*%
%LPC*%
G36*
X01453Y01953D02*
X0137D01*
Y01898*
X01453*
Y01953*
G37*
G36*
X0136D02*
X01276D01*
Y01898*
X0136*
Y01953*
G37*
G36*
X01453Y01888D02*
X0137D01*
Y01834*
X01453*
Y01888*
G37*
G36*
X0136D02*
X01276D01*
Y01834*
X0136*
Y01888*
G37*
G36*
X01236Y01728D02*
X01213D01*
Y01703*
X01236*
Y01728*
G37*
G36*
X01256Y01636D02*
X01214D01*
Y01576*
X01256*
Y01636*
G37*
G36*
X01204D02*
X01161D01*
Y01576*
X01204*
Y01636*
G37*
G36*
X01256Y01566D02*
X01214D01*
Y01505*
X01256*
Y01566*
G37*
G36*
X01204D02*
X01161D01*
Y01505*
X01204*
Y01566*
G37*
G36*
X0109Y01284D02*
X01089D01*
X01084Y01283*
X0108Y0128*
X01077Y01276*
X01076Y01271*
Y01251*
X0109*
Y01284*
G37*
G36*
X01079Y018D02*
X01044D01*
Y01758*
X01079*
Y018*
G37*
G36*
X0115Y01763D02*
X01127D01*
Y01738*
X0115*
Y01763*
G37*
G36*
X0093Y0199D02*
X00928D01*
Y01922*
X00996*
Y01924*
X00993Y01938*
X00988Y01952*
X0098Y01963*
X00969Y01974*
X00958Y01982*
X00944Y01987*
X0093Y0199*
G37*
G36*
X00918D02*
X00916D01*
X00902Y01987*
X00888Y01982*
X00876Y01974*
X00866Y01963*
X00858Y01952*
X00853Y01938*
X0085Y01924*
Y01922*
X00918*
Y0199*
G37*
G36*
X00996Y01912D02*
X00928D01*
Y01844*
X0093*
X00944Y01847*
X00958Y01852*
X00969Y0186*
X0098Y0187*
X00988Y01882*
X00993Y01896*
X00996Y0191*
Y01912*
G37*
G36*
X00918D02*
X0085D01*
Y0191*
X00853Y01896*
X00858Y01882*
X00866Y0187*
X00876Y0186*
X00888Y01852*
X00902Y01847*
X00916Y01844*
X00918*
Y01912*
G37*
G36*
X00963Y018D02*
X00927D01*
Y01758*
X00963*
Y018*
G37*
G36*
X00917D02*
X00882D01*
Y01758*
X00917*
Y018*
G37*
G36*
X00963Y01748D02*
X00927D01*
Y01705*
X00963*
Y01748*
G37*
G36*
X00917D02*
X00882D01*
Y01705*
X00917*
Y01748*
G37*
G36*
X00966Y0164D02*
X00959D01*
Y01636*
X00961Y01634*
X00966*
Y0164*
G37*
G36*
X01095Y01636D02*
X01052D01*
Y01576*
X01095*
Y01636*
G37*
G36*
X01042D02*
X01D01*
Y01576*
X01042*
Y01636*
G37*
G36*
X01095Y01566D02*
X01052D01*
Y01505*
X01095*
Y01566*
G37*
G36*
X01042D02*
X01D01*
Y01505*
X01042*
Y01566*
G37*
G36*
X00893Y0151D02*
X0088D01*
Y01484*
X00893*
Y0151*
G37*
G36*
X00871Y01505D02*
X00861D01*
Y01484*
X00871*
Y01505*
G37*
G36*
X00882Y01468D02*
X00846D01*
Y01426*
X00882*
Y01468*
G37*
G36*
X00836D02*
X008D01*
Y01426*
X00836*
Y01468*
G37*
G36*
Y01416D02*
X008D01*
Y01373*
X00836*
Y01416*
G37*
G36*
X00836Y01347D02*
X00813D01*
Y01323*
X00836*
Y01347*
G37*
G36*
X00966Y01508D02*
X00961D01*
X00959Y01506*
Y01502*
X00966*
Y01508*
G37*
G36*
X00998Y01468D02*
X00962D01*
Y01426*
X00998*
Y01468*
G37*
G36*
X00952D02*
X00917D01*
Y01426*
X00952*
Y01468*
G37*
G36*
X00998Y01416D02*
X00962D01*
Y01373*
X00998*
Y01416*
G37*
G36*
X00952D02*
X00917D01*
Y01373*
X00952*
Y01416*
G37*
G36*
X00922Y01347D02*
X00899D01*
Y01323*
X00922*
Y01347*
G37*
G36*
Y01313D02*
X00899D01*
Y01288*
X00922*
Y01313*
G37*
G36*
X00876Y01276D02*
X00854D01*
Y01251*
X00876*
Y01276*
G37*
G36*
X00844D02*
X00821D01*
Y01251*
X00844*
Y01276*
G37*
G36*
X01055Y01269D02*
X01031D01*
Y01246*
X01055*
Y01269*
G37*
G36*
X01021D02*
X00996D01*
Y01246*
X01021*
Y01269*
G37*
G36*
X0098D02*
X00955D01*
Y01246*
X0098*
Y01269*
G37*
G36*
X00945D02*
X0092D01*
Y01246*
X00945*
Y01269*
G37*
G36*
X00876Y01241D02*
X00854D01*
Y01217*
X00876*
Y01241*
G37*
G36*
X00844D02*
X00821D01*
Y01217*
X00844*
Y01241*
G37*
G36*
X00673Y01276D02*
Y01251D01*
X00695*
X00695Y01256*
X00692Y01263*
X00688Y01268*
X00682Y01273*
X00675Y01275*
X00673Y01276*
G37*
G36*
X00663D02*
X00661Y01275D01*
X00655Y01273*
X00649Y01268*
X00645Y01263*
X00642Y01256*
X00641Y01251*
X00663*
Y01276*
G37*
G36*
X00695Y01241D02*
X00673D01*
Y01217*
X00675Y01217*
X00682Y0122*
X00688Y01224*
X00692Y0123*
X00695Y01237*
X00695Y01241*
G37*
G36*
X00663D02*
X00641D01*
X00642Y01237*
X00645Y0123*
X00649Y01224*
X00655Y0122*
X00661Y01217*
X00663Y01217*
Y01241*
G37*
G36*
X01055Y01183D02*
X01031D01*
Y0116*
X01055*
Y01183*
G37*
G36*
X01021D02*
X00996D01*
Y0116*
X01021*
Y01183*
G37*
G36*
X0098D02*
X00955D01*
Y0116*
X0098*
Y01183*
G37*
G36*
X00945D02*
X0092D01*
Y0116*
X00945*
Y01183*
G37*
G36*
X00804Y01017D02*
X00763D01*
Y00992*
X00831*
X0083Y00997*
X00828Y01003*
X00823Y01009*
X00818Y01013*
X00811Y01016*
X00804Y01017*
G37*
G36*
X00753D02*
X00713D01*
X00706Y01016*
X00699Y01013*
X00694Y01009*
X00689Y01003*
X00687Y00997*
X00686Y00992*
X00753*
Y01017*
G37*
G36*
X00966Y00982D02*
X00941D01*
Y00959*
X00966*
Y00982*
G37*
G36*
X00931D02*
X00907D01*
Y00959*
X00931*
Y00982*
G37*
G36*
X00831D02*
X00763D01*
Y00957*
X00804*
X00811Y00958*
X00818Y00961*
X00823Y00965*
X00828Y00971*
X0083Y00977*
X00831Y00982*
G37*
G36*
X00753D02*
X00686D01*
X00687Y00977*
X00689Y00971*
X00694Y00965*
X00699Y00961*
X00706Y00958*
X00713Y00957*
X00753*
Y00982*
G37*
G36*
X00739Y0093D02*
X00717D01*
Y00905*
X00739*
Y0093*
G37*
%LNpcb1-3*%
%LPD*%
G54D12*
X00528Y00249D02*
X00566Y00211D01*
X00646Y00231D02*
X01044D01*
X00528Y00349D02*
X00646Y00231D01*
X00693Y01439D02*
Y01519D01*
X00658Y01555D02*
Y0156D01*
X01717Y00039D02*
X01745Y00011D01*
X01692Y00039D02*
X01717D01*
X01501Y00427D02*
X01546D01*
X01573Y00454*
Y00454*
X01628Y0051*
X01687*
X01642Y00532D02*
X01643Y00531D01*
X01686D02*
X01687Y0053D01*
X01643Y00531D02*
X01686D01*
X01642Y00488D02*
X01685D01*
X01562Y00408D02*
X01642Y00488D01*
X01501Y00408D02*
X01562D01*
X01685Y00488D02*
X01687Y0049D01*
X01641Y00457D02*
X01655Y00471D01*
X01687*
X01641Y00454D02*
Y00457D01*
X01687Y00663D02*
X01702Y00679D01*
Y0068*
X01687Y00648D02*
Y00663D01*
Y00628D02*
Y00648D01*
X01157Y01313D02*
X01172Y01297D01*
Y01246D02*
Y01297D01*
X00595Y01103D02*
X00682Y01017D01*
X00595Y01103D02*
Y0128D01*
X00628Y01313*
X00695*
X00758Y01249*
Y01246D02*
Y01249D01*
X01071Y00892D02*
X01083Y00904D01*
X0107Y00893D02*
Y00984D01*
X01015Y0104D02*
X0107Y00984D01*
X00936Y0104D02*
X01015D01*
X00884Y01846D02*
X0089Y01852D01*
X00923Y01885D02*
Y01917D01*
X0089Y01852D02*
X00923Y01885D01*
X0089Y01852D02*
Y01852D01*
X00682Y01846D02*
X00884D01*
X00518Y01846D02*
X00615D01*
X00615Y01846*
X00441Y01787D02*
X00485Y01832D01*
X00506*
X00518Y01844D02*
Y01846D01*
X00506Y01832D02*
X00518Y01844D01*
X00398Y01908D02*
X00513D01*
X00518Y01913*
X01126Y01069D02*
X01147Y01048D01*
Y01013D02*
Y01048D01*
X01083Y00904D02*
X0111D01*
X01122Y00917*
Y00919*
X01121Y0092D02*
X01122Y00919D01*
X01121Y0092D02*
Y01013D01*
X01172Y0092D02*
X01174Y00919D01*
X01172Y0092D02*
Y01013D01*
X01263Y01248D02*
X01381Y01129D01*
Y00824D02*
Y01129D01*
Y00824D02*
X01449Y00756D01*
X013Y00824D02*
X01342Y00782D01*
Y00567D02*
Y00782D01*
X01263Y01148D02*
X01362Y01049D01*
Y00812D02*
Y01049D01*
Y00812D02*
X0142Y00753D01*
X00633Y01439D02*
Y01467D01*
X00666Y015*
X01322Y00567D02*
Y00768D01*
X01243Y00567D02*
Y00812D01*
X01223Y00567D02*
Y00787D01*
X00642Y00948D02*
X00658Y00932D01*
X00642Y00948D02*
Y00948D01*
X00658Y009D02*
Y00932D01*
X01672Y00759D02*
X01749D01*
X01672D02*
X01702Y00729D01*
X01671Y00761D02*
X01672Y00759D01*
X01702Y0068D02*
Y00729D01*
X01612Y00709D02*
X0166Y00758D01*
X0161Y00709D02*
X01612D01*
X01502Y00655D02*
X01658Y00811D01*
X01873*
X01925Y00759*
X018D02*
X01866D01*
X01044Y00368D02*
X01243D01*
X01342Y00467*
X01633Y00594D02*
X01638Y00589D01*
X01633Y00594D02*
Y00601D01*
X01641Y00609*
X01638Y00589D02*
X01687D01*
X01641Y00609D02*
X01687D01*
X01612Y00576D02*
X01637Y00551D01*
X01612Y00576D02*
Y00655D01*
X01637Y00551D02*
X01685D01*
X01634Y00408D02*
X01638D01*
X01631D02*
X01634D01*
X01804Y0027D02*
X01877D01*
X01905Y0024D02*
Y00242D01*
X01877Y0027D02*
X01905Y00242D01*
X01597Y0032D02*
X01702D01*
X01591Y00314D02*
X01597Y0032D01*
X01641Y00373D02*
Y00374D01*
Y0037D02*
Y00373D01*
X01686*
X01641Y0037D02*
X01657Y00355D01*
X01685D02*
X01687Y00353D01*
X01657Y00355D02*
X01685D01*
X01638Y00374D02*
X01641D01*
X01686Y00373D02*
X01687Y00372D01*
X01649Y00392D02*
X01687D01*
X01637Y00404D02*
Y00407D01*
X01638Y00408*
X01634D02*
X01638Y00412D01*
X01687*
X01637Y00404D02*
X01649Y00392D01*
X01616Y00431D02*
X01687D01*
X01591Y00366D02*
Y00406D01*
X01616Y00431*
X00633Y01379D02*
X0065Y01362D01*
X01686Y01614D02*
X01709D01*
X01611Y01467D02*
Y01539D01*
X01686Y01614*
X01721Y01467D02*
X01843D01*
X01863Y01848D02*
X01902Y0181D01*
X01476Y01848D02*
X01863D01*
X01902Y01467D02*
Y0181D01*
X00815Y0082D02*
X00865D01*
X00983Y00881D02*
X0104Y00824D01*
X01056D02*
X01069Y00811D01*
X0104Y00824D02*
X01056D01*
X01069Y00809D02*
Y00811D01*
X00689Y01754D02*
X00699Y01764D01*
X00675Y01721D02*
X00689Y01735D01*
Y01754*
X00658Y01555D02*
X00693Y01519D01*
X00737Y01462D02*
X00791Y01515D01*
X00737Y01362D02*
Y01462D01*
X00774Y0155D02*
X00792D01*
X00762Y01538D02*
X00774Y0155D01*
X00792D02*
X00793Y01551D01*
X00758Y01538D02*
X00762D01*
X00829Y01551D02*
X0083Y0155D01*
X00828Y01551D02*
X00829D01*
X00793Y01551D02*
X00794Y01551D01*
X00761Y01547D02*
X00785Y01571D01*
X00796*
X00816Y01537D02*
X00829Y01549D01*
X00918Y0155D02*
X00929Y01539D01*
X0083Y0155D02*
X00918D01*
X00816Y0151D02*
Y01537D01*
X00648Y01623D02*
X00652Y01626D01*
X00625Y01623D02*
X00648D01*
X00621Y0172D02*
X00622Y01721D01*
X00621Y01627D02*
Y0172D01*
Y01627D02*
X00625Y01623D01*
X00652Y01626D02*
X00656Y01622D01*
X00665Y01613*
X00738*
X00633Y01379D02*
Y01439D01*
X0065Y01362D02*
X00686D01*
X00658Y0156D02*
X00746D01*
X00777Y0159*
X00793*
X00752Y01653D02*
X00764D01*
X00738Y01666D02*
X00752Y01653D01*
X00764D02*
X00791Y01626D01*
X00816Y01631D02*
Y01648D01*
X00743Y01721D02*
X00816Y01648D01*
X00675Y01721D02*
X00743D01*
X00836Y01631D02*
X00856D01*
X00777Y0172D02*
X00836Y01661D01*
Y01631D02*
Y01661D01*
X00764Y01748D02*
X00777Y01734D01*
X00762Y01748D02*
X00764D01*
X00777Y0172D02*
Y01734D01*
X00799Y01721D02*
Y01779D01*
X0079Y01787D02*
X00799Y01779D01*
X00775Y01787D02*
X0079D01*
X00762Y01801D02*
X00775Y01787D01*
X00799Y01721D02*
X00869Y01651D01*
Y01574D02*
Y01651D01*
Y01574D02*
X0087Y01572D01*
X00876*
X00877Y01571*
X00914*
X00836Y0151D02*
Y01542D01*
X00796Y01571D02*
X00808D01*
X0112Y00721D02*
Y00809D01*
X01118Y00718D02*
X0112Y00721D01*
X00915Y00809D02*
X00918Y00807D01*
Y00718D02*
Y00807D01*
X01067Y00618D02*
X0112D01*
X01145Y00593*
Y00567D02*
Y00593D01*
X00943Y00569D02*
Y0057D01*
X0099Y00618*
X01067*
X00941Y00567D02*
X00943Y00569D01*
X00941Y00464D02*
Y00567D01*
X00939Y00463D02*
X00941Y00464D01*
X00992Y0057D02*
X0101Y00588D01*
X01067*
X00992Y00569D02*
Y0057D01*
Y00568D02*
Y00569D01*
X00971Y00464D02*
Y00546D01*
X00992Y00568*
X00971Y00464D02*
X00971D01*
X00994Y00486D02*
X01044D01*
X00971Y00464D02*
X00994Y00486D01*
X01067Y00587D02*
X01087Y00567D01*
X01125*
X01067Y00587D02*
Y00588D01*
X01018Y00718D02*
X01069Y00667D01*
X01162*
X01204Y00625*
Y00567D02*
Y00625D01*
X0142Y00567D02*
Y00753D01*
X01381Y00567D02*
Y00697D01*
X01361Y00567D02*
Y00728D01*
X01449Y00473D02*
Y00756D01*
X00926Y00408D02*
X01044D01*
X00899Y00435D02*
Y00574D01*
X0087Y00601D02*
X00872D01*
X00899Y00574*
Y00435D02*
X00926Y00408D01*
X0161Y00658D02*
X01612Y00655D01*
X01449Y00473D02*
X01475Y00447D01*
X01501*
X00991Y00309D02*
X01044D01*
X0097Y0033D02*
X00991Y00309D01*
X00983Y0029D02*
X01044D01*
X00935Y00338D02*
X00983Y0029D01*
X00931Y00338D02*
X00935D01*
X00979Y00359D02*
X00989Y00349D01*
X01044*
X00938Y00288D02*
X00941Y00285D01*
X00883Y00291D02*
X00885Y00288D01*
X00938*
X00941Y00285D02*
X00971D01*
X00986Y0027D02*
X01044D01*
X00971Y00285D02*
X00986Y0027D01*
X00883Y00256D02*
X0094D01*
X00941Y00255*
X00881Y00258D02*
X00883Y00256D01*
X00945Y00251D02*
X01044D01*
X01044Y0025*
X00941Y00255D02*
X00945Y00251D01*
X00566Y00211D02*
X01044D01*
X0087Y00439D02*
Y00548D01*
Y00439D02*
X00871Y00438D01*
X01685Y00551D02*
X01687Y00549D01*
X01501Y00531D02*
X01568Y00598D01*
X01569*
X01501Y00486D02*
Y00531D01*
X01568Y00548D02*
X01569D01*
X01501Y00467D02*
X01527D01*
X01557Y00497*
Y00537*
X01568Y00548*
X00838Y00631D02*
X00868Y00601D01*
X00722Y00666D02*
Y00735D01*
Y00666D02*
X00757Y00631D01*
X00838*
X00868Y00601D02*
X0087D01*
X00871Y00385D02*
X01015D01*
X01018Y00388*
X01044*
X00845Y00361D02*
X00869Y00385D01*
X00871*
X00722Y00361D02*
X00845D01*
X00937Y00195D02*
X00941Y00191D01*
X00794Y00157D02*
X00832Y00195D01*
X00941Y00191D02*
X01044D01*
X00832Y00195D02*
X00937D01*
X00894Y00057D02*
X00947Y0011D01*
X01125*
X01058Y0002D02*
X01058Y0002D01*
X01127D02*
X01128Y00019D01*
X01058Y0002D02*
X01127D01*
X01158Y00019D02*
X01158Y00019D01*
X01238*
X01238Y00019*
X01158Y00077D02*
X01164Y00084D01*
Y0011*
X01158Y00019D02*
Y00077D01*
X01128Y00042D02*
X01145Y00059D01*
X01128Y00019D02*
Y00042D01*
X01145Y00059D02*
Y0011D01*
X01574Y0006D02*
X01577Y00057D01*
X01574Y00054D02*
X01577Y00057D01*
X01268Y00019D02*
X01336D01*
X0153Y00098D02*
X01536Y00103D01*
X0153Y00085D02*
Y00097D01*
X01536Y00103D02*
X01536D01*
X0153Y00097D02*
Y00098D01*
X0153Y00097D02*
X0153Y00097D01*
X01428Y00058D02*
X01503D01*
X0153Y00085*
X01401Y00085D02*
Y0011D01*
Y00085D02*
X01428Y00058D01*
X01531Y0002D02*
X01565Y00054D01*
X01574*
X01531Y00019D02*
Y0002D01*
X01574Y0006D02*
Y00066D01*
X01536Y00103D02*
X01537D01*
X01574Y00066*
X01409Y00044D02*
D01*
X01473Y00028D02*
X01482Y00019D01*
X01425Y00028D02*
X01473D01*
X01409Y00044D02*
X01425Y00028D01*
X01381Y00072D02*
Y0011D01*
Y00072D02*
X01409Y00044D01*
X0142Y00105D02*
X01422Y00103D01*
X01507*
X0142Y00105D02*
Y0011D01*
X01551Y00291D02*
X01574Y00268D01*
X0154Y00368D02*
X01551Y00357D01*
Y00291D02*
Y00357D01*
X01501Y00368D02*
X0154D01*
X01551Y0027D02*
X01569Y00252D01*
X01551Y0025D02*
X01561Y0024D01*
X01501Y0025D02*
X01551D01*
X01561Y0024D02*
X0169D01*
X01501Y0027D02*
X01551D01*
X01527Y00231D02*
X01561Y00196D01*
X01632*
X01501Y00231D02*
X01527D01*
X0169Y0024D02*
X01707Y00224D01*
Y00196D02*
Y00224D01*
X01569Y00252D02*
X01718D01*
X01774Y00196*
X01768Y00268D02*
X01796Y0024D01*
X01574Y00268D02*
X01768D01*
X01796Y0024D02*
X01854D01*
Y00166D02*
Y0024D01*
X01961Y00116D02*
Y00145D01*
X01905Y00166D02*
X01939D01*
X01961Y00145*
X01941Y00096D02*
X01961Y00116D01*
X01902Y00096D02*
X01941D01*
X01961Y00057D02*
Y00116D01*
X01867Y00027D02*
X01931D01*
X01961Y00057*
X0184Y00103D02*
X01849Y00094D01*
X01779Y00103D02*
X0184D01*
X01774Y00108D02*
Y00137D01*
Y00108D02*
X01779Y00103D01*
X01781Y00027D02*
X01816D01*
X01707Y00101D02*
X01781Y00027D01*
X01707Y00101D02*
Y00137D01*
X01632D02*
X0164Y00129D01*
Y00039D02*
Y00129D01*
X01208Y01733D02*
X01212Y01736D01*
X01816Y00027D02*
X01816Y00027D01*
G54D18*
X00849Y01246D03*
G54D19*
X00758Y01246D03*
X00668D03*
G54D20*
X00758Y00987D03*
G54D24*
X00922Y01753D03*
X01039D03*
X00957Y01421D03*
X00841D03*
G54D31*
X01158Y00019D03*
X01128D03*
X01536Y00103D03*
X01268Y00019D03*
X00941Y00464D03*
X01507Y00103D03*
X01238Y00019D03*
X00971Y00464D03*
G54D32*
X00992Y00569D03*
X00943D03*
X01482Y00019D03*
X01531D03*
G54D36*
X01687Y0053D03*
Y0049D03*
Y00648D03*
Y00628D03*
Y00372D03*
Y00353D03*
Y0051D03*
Y00471D03*
Y00451D03*
Y00569D03*
Y00589D03*
Y00412D03*
Y00609D03*
Y00392D03*
Y00431D03*
Y00549D03*
G54D38*
X00656Y01622D03*
Y01559D03*
G54D40*
X01067Y00618D03*
X00941Y00285D03*
X01067Y00588D03*
X00941Y00255D03*
G54D41*
X00796Y01571D03*
G54D43*
X00793Y01551D03*
Y0159D03*
G54D44*
X00836Y0151D03*
X00816D03*
Y01631D03*
X00856Y0151D03*
X00836Y01631D03*
X00856D03*
G54D45*
X01569Y00548D03*
Y00598D03*
G54D47*
X00898Y01515D03*
Y01626D03*
G54D48*
X00914Y01571D03*
G54D49*
X01702Y0068D03*
Y0032D03*
G54D60*
X01471Y0113D03*
Y0103D03*
Y0123D03*
Y0133D03*
X00528Y01158D03*
Y01258D03*
Y01649D03*
Y01549D03*
X00528Y00349D03*
X00528Y0084D03*
X00528Y00449D03*
X00528Y0074D03*
X00528Y00249D03*
Y00149D03*
G54D61*
X01471Y0093D03*
X00528Y01358D03*
Y01749D03*
Y0094D03*
X00528Y00549D03*
G54D63*
X00894Y00057D03*
X00794Y00157D03*
Y00057D03*
G54D64*
X01821Y00678D03*
Y00322D03*
G54D65*
X00894Y00157D03*
G54D67*
X01095Y01013D03*
X01172D03*
X01147Y01246D03*
Y01013D03*
X01095Y01246D03*
X01121D03*
Y01013D03*
X01172Y01246D03*
G54D68*
X01361Y00567D03*
X01381Y0011D03*
X01125D03*
X01401D03*
X01145Y00567D03*
Y0011D03*
X01381Y00567D03*
X01223D03*
X01322D03*
X0142D03*
Y0011D03*
X01164D03*
X01125Y00567D03*
X01204D03*
X01243D03*
X01342D03*
X01184Y0011D03*
X01204D03*
X01223D03*
X01243D03*
X01263D03*
X01283D03*
X01302D03*
X01322D03*
X01342D03*
X01361D03*
X01401Y00567D03*
X01302D03*
X01283D03*
X01263D03*
X01184D03*
X01164D03*
G54D69*
X01501Y00447D03*
X01044Y00349D03*
X01501Y00309D03*
X01044Y00408D03*
X01501D03*
X01044Y00211D03*
Y00309D03*
Y00191D03*
X01501Y00467D03*
X01044Y0027D03*
X01501Y00329D03*
X01044Y00368D03*
Y00388D03*
X01501Y00427D03*
X01044Y00231D03*
X01501Y00486D03*
X01044D03*
Y0025D03*
X01501Y00349D03*
Y00368D03*
X01044Y0029D03*
Y00467D03*
Y00447D03*
Y00427D03*
Y00329D03*
X01501Y00191D03*
Y00211D03*
Y00231D03*
Y0025D03*
Y0027D03*
Y0029D03*
Y00388D03*
G54D70*
X00833Y01748D03*
Y01801D03*
X0095Y01188D03*
Y01241D03*
X00936Y00987D03*
Y0104D03*
X01026Y01188D03*
Y01241D03*
X0087Y00601D03*
X00738Y01613D03*
X0087Y00548D03*
X00871Y00438D03*
Y00385D03*
X00738Y01666D03*
X00762Y01748D03*
Y01801D03*
G54D71*
X01709Y01614D03*
Y02126D03*
G54D72*
X01365Y01893D03*
G54D73*
X00675Y01721D03*
X00622D03*
X01155Y01733D03*
X00894Y01318D03*
X00658Y009D03*
X00712D03*
X01208Y01733D03*
X00841Y01318D03*
G54D74*
X01047Y01571D03*
X01209D03*
G54D75*
X0164Y00039D03*
X01692D03*
X0112Y00809D03*
X01069D03*
X00917Y0082D03*
X00865D03*
X01905Y00166D03*
X01122Y00919D03*
X01749Y00759D03*
X01867Y00027D03*
X01902Y00096D03*
X01854Y00166D03*
Y0024D03*
X00737Y01362D03*
X00686D03*
X00684Y01439D03*
X00633D03*
X018Y00759D03*
X01816Y00027D03*
X0185Y00096D03*
X01905Y0024D03*
X01174Y00919D03*
G54D76*
X01707Y00196D03*
Y00137D03*
X01632Y00196D03*
Y00137D03*
X01774Y00196D03*
Y00137D03*
G54D77*
X00518Y01846D03*
Y01913D03*
G54D78*
X00615Y01846D03*
X00682D03*
G54D79*
X00722Y00735D03*
Y00361D03*
G54D80*
X01611Y01467D03*
X01721D03*
G54D81*
X0161Y00709D03*
X01591Y00314D03*
X0161Y00658D03*
X01591Y00366D03*
G54D82*
X00951Y01625D03*
Y01516D03*
X00791Y01515D03*
Y01626D03*
G54D83*
X01925Y00759D03*
X01902Y01467D03*
X01866Y00759D03*
X01843Y01467D03*
G54D84*
X01263Y01348D03*
Y01248D03*
Y01148D03*
Y01048D03*
X01018Y00718D03*
X00918D03*
G54D85*
X01263Y00948D03*
G54D86*
X00283Y02024D03*
X00167Y01908D03*
Y02139D03*
X00398Y01908D03*
Y02139D03*
X00923Y02148D03*
X01154D03*
X00923Y01917D03*
X01154D03*
X01039Y02033D03*
G54D87*
X01837Y01968D03*
Y01771D03*
G54D88*
X01118Y00718D03*
G54D89*
X00441Y01789D03*
X01465Y00104D03*
X01745Y00013D03*
X01573Y00454D03*
X01642Y00532D03*
X0164Y00486D03*
X01641Y00454D03*
X01158Y01314D03*
X01098Y01754D03*
X01144Y01812D03*
X011D03*
X00834Y01802D03*
X00738Y01463D03*
X01127Y0107D03*
X0107Y00893D03*
X013Y00824D03*
X00666Y015D03*
X01322Y00768D03*
X01243Y00812D03*
X01223Y00787D03*
X00642Y00948D03*
X01166Y01098D03*
X00813Y01119D03*
Y01166D03*
X00751Y01118D03*
X0075Y01165D03*
X00697Y01118D03*
X00697Y01165D03*
X01671Y00761D03*
X01502Y00656D03*
X01342Y00467D03*
X01633Y00596D03*
X01804Y00271D03*
X01638Y00322D03*
Y00374D03*
X01631Y00408D03*
X01165Y01141D03*
X01165Y01182D03*
X01183Y01686D03*
X01794Y01592D03*
Y01653D03*
X0171Y01601D03*
Y01654D03*
X01638Y01602D03*
Y01653D03*
X00816Y00821D03*
X00912Y00889D03*
X00912Y00927D03*
X00857Y00925D03*
X00855Y00889D03*
X00797Y00891D03*
X00796Y00925D03*
X007Y01765D03*
X00758Y01538D03*
X0083Y0155D03*
X00621Y01666D03*
X00959Y01308D03*
X01012D03*
Y01338D03*
X00958D03*
X00842Y01422D03*
X00854Y01359D03*
X00804D03*
X00937Y01621D03*
X00935Y01659D03*
X00941Y00517D03*
X00971Y00515D03*
X01381Y00698D03*
X01362Y00729D03*
X0097Y0033D03*
X00931Y00338D03*
X0098Y0036D03*
X00883Y00291D03*
X0087Y00495D03*
X01557Y00498D03*
X01516Y00547D03*
X00881Y00258D03*
X01058Y0002D03*
X01198D03*
X01337Y0002D03*
X01577Y00057D03*
G54D90*
X01961Y00116D03*
M02*