%FSTAX23Y23*%
%MOIN*%
%SFA1B1*%

%IPPOS*%
%AMD19*
4,1,8,0.017200,-0.002600,0.017200,0.002600,0.000000,0.019800,0.000000,0.019800,-0.017200,0.002600,-0.017200,-0.002600,0.000000,-0.019800,0.000000,-0.019800,0.017200,-0.002600,0.0*
1,1,0.034340,0.000000,-0.002600*
1,1,0.034340,0.000000,0.002600*
1,1,0.034340,0.000000,0.002600*
1,1,0.034340,0.000000,-0.002600*
%
%AMD20*
4,1,8,0.062600,-0.002600,0.062600,0.002600,0.045400,0.019800,-0.045400,0.019800,-0.062600,0.002600,-0.062600,-0.002600,-0.045400,-0.019800,0.045400,-0.019800,0.062600,-0.002600,0.0*
1,1,0.034400,0.045400,-0.002600*
1,1,0.034400,0.045400,0.002600*
1,1,0.034400,-0.045400,0.002600*
1,1,0.034400,-0.045400,-0.002600*
%
%AMD64*
4,1,8,-0.040400,0.000000,-0.040400,0.000000,-0.018700,-0.021700,0.018700,-0.021700,0.040400,0.000000,0.040400,0.000000,0.018700,0.021700,-0.018700,0.021700,-0.040400,0.000000,0.0*
1,1,0.043300,-0.018700,0.000000*
1,1,0.043300,-0.018700,0.000000*
1,1,0.043300,0.018700,0.000000*
1,1,0.043300,0.018700,0.000000*
%
%AMD66*
4,1,8,-0.006900,-0.027600,0.006900,-0.027600,0.008900,-0.025600,0.008900,0.025600,0.006900,0.027600,-0.006900,0.027600,-0.008900,0.025600,-0.008900,-0.025600,-0.006900,-0.027600,0.0*
1,1,0.003900,-0.006900,-0.025600*
1,1,0.003900,0.006900,-0.025600*
1,1,0.003900,0.006900,0.025600*
1,1,0.003900,-0.006900,0.025600*
%
%ADD12C,0.007870*%
%ADD18R,0.034340X0.039540*%
G04~CAMADD=19~8~0.0~0.0~395.4~343.4~171.7~0.0~15~0.0~0.0~0.0~0.0~0~0.0~0.0~0.0~0.0~0~0.0~0.0~0.0~270.0~344.0~395.0*
%ADD19D19*%
G04~CAMADD=20~8~0.0~0.0~395.4~1252.8~172.0~0.0~15~0.0~0.0~0.0~0.0~0~0.0~0.0~0.0~0.0~0~0.0~0.0~0.0~270.0~1254.0~395.0*
%ADD20D20*%
%ADD24R,0.061210X0.075050*%
%ADD31R,0.020290X0.018600*%
%ADD32R,0.029850X0.031970*%
%ADD36R,0.039370X0.011810*%
%ADD38R,0.039850X0.045600*%
%ADD40R,0.018600X0.020290*%
%ADD41R,0.032480X0.009840*%
%ADD43R,0.026570X0.009840*%
%ADD44R,0.009840X0.032480*%
%ADD45R,0.031970X0.029850*%
%ADD47R,0.015750X0.042320*%
%ADD48R,0.117130X0.013780*%
%ADD49C,0.035430*%
%ADD60C,0.061810*%
%ADD61R,0.061810X0.061810*%
%ADD63C,0.059840*%
G04~CAMADD=64~8~0.0~0.0~433.1~807.1~216.5~0.0~15~0.0~0.0~0.0~0.0~0~0.0~0.0~0.0~0.0~0~0.0~0.0~0.0~90.0~808.0~434.0*
%ADD64D64*%
%ADD65R,0.059840X0.059840*%
G04~CAMADD=66~8~0.0~0.0~177.2~551.2~19.5~0.0~15~0.0~0.0~0.0~0.0~0~0.0~0.0~0.0~0.0~0~0.0~0.0~0.0~180.0~178.0~552.0*
%ADD66D66*%
%ADD67O,0.011810X0.062990*%
%ADD68O,0.062990X0.011810*%
%ADD69R,0.039370X0.035430*%
%ADD70R,0.275590X0.157480*%
%ADD71R,0.157480X0.098430*%
%ADD72R,0.035430X0.039370*%
%ADD73R,0.074800X0.110240*%
%ADD74R,0.033470X0.037400*%
%ADD75R,0.031500X0.031500*%
%ADD76R,0.031500X0.035430*%
%ADD77R,0.035430X0.031500*%
%ADD78R,0.078740X0.216540*%
%ADD79R,0.047240X0.064960*%
%ADD80R,0.037400X0.033470*%
%ADD81R,0.009840X0.009840*%
%ADD82R,0.031500X0.031500*%
%ADD83C,0.061020*%
%ADD84R,0.061020X0.061020*%
%ADD85C,0.125980*%
%ADD86C,0.070870*%
%ADD87R,0.061020X0.061020*%
%ADD88C,0.023620*%
%LNpcb1-1*%
%LPD*%
G36*
X00829Y02053D02*
X00661Y01885D01*
X00548*
X00543Y01885*
Y0189*
Y01908*
X00518*
X00492*
Y01885*
X00487Y01885*
X00473*
X00472Y01885*
X00469Y0189*
X00471Y01901*
Y01903*
X00403*
Y01835*
X00405*
X00419Y01838*
X00433Y01843*
X00445Y01851*
X00455Y01861*
X00463Y01873*
X00464Y01876*
X00469Y01875*
Y01827*
X00446Y01804*
X00444Y01804*
X00438*
X00432Y01802*
X00428Y01798*
X00426Y01792*
Y01786*
X00428Y0178*
X00432Y01775*
X00438Y01773*
X00444*
X0045Y01775*
X00455Y0178*
X00457Y01786*
Y01792*
X00457Y01792*
X00465Y018*
X00469Y01803*
X00563*
X00563Y01789*
X00558Y01784*
X00493*
Y01715*
X00563*
X00563Y0171*
X00563Y01668*
X00558Y01667*
X00556Y01671*
X0055Y01677*
X00542Y01682*
X00533Y01684*
X00524*
X00515Y01682*
X00507Y01677*
X005Y01671*
X00496Y01663*
X00493Y01654*
Y01645*
X00496Y01636*
X005Y01628*
X00507Y01622*
X00515Y01617*
X00524Y01615*
X00533*
X00542Y01617*
X0055Y01622*
X00556Y01628*
X00558Y01632*
X00563Y01631*
X00564Y01579*
X00559Y01577*
X00553Y01582*
X00544Y01588*
X00534Y0159*
X00533*
Y01549*
Y01508*
X00534*
X00544Y01511*
X00553Y01517*
X00559Y01522*
X00564Y0152*
X00564Y01398*
X00559Y01393*
X00493*
Y01323*
X00563*
X00564Y01319*
X00564Y01275*
X00559Y01274*
X00556Y01279*
X0055Y01286*
X00542Y01291*
X00533Y01293*
X00524*
X00515Y01291*
X00507Y01286*
X005Y01279*
X00496Y01272*
X00493Y01263*
Y01253*
X00496Y01245*
X005Y01237*
X00507Y0123*
X00515Y01226*
X00524Y01223*
X00533*
X00542Y01226*
X0055Y0123*
X00556Y01237*
X00559Y01242*
X00564Y01241*
X00564Y01187*
X00559Y01185*
X00553Y01191*
X00544Y01196*
X00534Y01199*
X00533*
Y01158*
Y01117*
X00534*
X00544Y0112*
X00553Y01125*
X0056Y01132*
X00565Y0113*
X00565Y00979*
X0056Y00974*
X00493*
Y00905*
X0056*
X00563*
X00565Y009*
X00565Y00855*
X00564Y00854*
X0056Y00854*
X00556Y00861*
X0055Y00867*
X00542Y00872*
X00533Y00874*
X00524*
X00515Y00872*
X00507Y00867*
X005Y00861*
X00496Y00853*
X00493Y00844*
Y00835*
X00496Y00826*
X005Y00818*
X00507Y00812*
X00515Y00807*
X00524Y00805*
X00533*
X00542Y00807*
X0055Y00812*
X00556Y00818*
X0056Y00825*
X00563Y00825*
X00565Y00824*
X00565Y00766*
X0056Y00765*
X00553Y00772*
X00544Y00778*
X00534Y0078*
X00533*
Y0074*
Y00699*
X00534*
X00544Y00701*
X00553Y00707*
X0056Y00714*
X00565Y00713*
X00565Y00713*
X00566Y00587*
X00561Y00584*
X00493*
Y00514*
X00561*
X00563*
X00566Y0051*
X00566Y00475*
X00562Y00474*
X00561Y00474*
X00553Y00481*
X00544Y00487*
X00534Y0049*
X00533*
Y00449*
Y00408*
X00534*
X00544Y00411*
X00553Y00416*
X00561Y00424*
X00561Y00424*
X00566Y00423*
X00566Y00361*
X00561Y0036*
X00561Y00362*
X00556Y0037*
X0055Y00377*
X00542Y00381*
X00533Y00384*
X00524*
X00515Y00381*
X00507Y00377*
X005Y0037*
X00496Y00362*
X00493Y00353*
Y00344*
X00496Y00335*
X005Y00327*
X00507Y00321*
X00515Y00316*
X00524Y00314*
X00533*
X00542Y00316*
X00547Y00319*
X00566Y00299*
X00566Y0026*
X00561Y0026*
X00561Y00262*
X00556Y0027*
X0055Y00277*
X00542Y00281*
X00533Y00284*
X00524*
X00515Y00281*
X00507Y00277*
X005Y0027*
X00496Y00262*
X00493Y00253*
Y00244*
X00496Y00235*
X005Y00227*
X00507Y00221*
X00515Y00216*
X00524Y00214*
X00533*
X00542Y00216*
X00547Y00219*
X0056Y00205*
X00563Y00203*
X00566Y00203*
X00573*
X0063Y00146*
X00762*
X00762Y00144*
X00767Y00137*
X00773Y0013*
X00781Y00126*
X0079Y00124*
X00798*
X00807Y00126*
X00815Y0013*
X00821Y00137*
X00826Y00144*
X00826Y00146*
X0086*
Y00124*
X00928*
Y00146*
X01049*
Y00119*
X00947*
X00944Y00118*
X00941Y00116*
X00912Y00086*
X00907Y00089*
X00898Y00091*
X0089*
X00881Y00089*
X00873Y00085*
X00867Y00078*
X00862Y0007*
X0086Y00062*
Y00053*
X00862Y00044*
X00867Y00037*
X00873Y0003*
X00881Y00026*
X0089Y00024*
X00898*
X00907Y00026*
X00915Y0003*
X00921Y00037*
X00926Y00044*
X00928Y00053*
Y00062*
X00926Y0007*
X00923Y00075*
X0095Y00102*
X01049*
Y00061*
X00972Y-00016*
X00016*
X00016Y-00015*
Y02217*
X00019Y02219*
X00829*
Y02053*
G37*
G36*
X01873Y01817D02*
Y01798D01*
X01868Y01797*
X01861Y01803*
X01852Y01808*
X01842Y01811*
X01832*
X01822Y01808*
X01813Y01803*
X01806Y01796*
X01801Y01787*
X01798Y01777*
Y01766*
X01801Y01756*
X01806Y01747*
X01813Y0174*
X01822Y01735*
X01832Y01732*
X01842*
X01852Y01735*
X01861Y0174*
X01868Y01746*
X01873Y01744*
Y01516*
X01674*
X0166Y01503*
Y01407*
X01924*
X01983Y01347*
Y00839*
X01659*
X01549Y00729*
X01494*
X01409Y00814*
Y01129*
X01352Y01186*
Y01363*
X01513Y01524*
Y0182*
X01869Y01821*
X01873Y01817*
G37*
G36*
X01489Y01945D02*
Y01536D01*
X01429Y01476*
X01243*
X01103Y01337*
Y01284*
X01102Y01284*
X011*
Y01246*
X01095*
Y01241*
X01076*
Y01238*
X01069*
Y01394*
X01151Y01476*
Y01684*
X01176Y01708*
X0118Y01706*
Y01703*
X01203*
Y01733*
X01208*
Y01738*
X01236*
Y01763*
X01234Y01767*
X01254Y01787*
Y01945*
X01268Y01981*
X01474*
X01489Y01945*
G37*
G36*
X01167Y01835D02*
Y01763D01*
X0116*
Y01733*
X01155*
Y01728*
X01127*
Y01714*
X01079*
Y01748*
X01039*
Y01753*
X01034*
Y018*
X01008*
Y01832*
X01011Y01836*
X01167Y01835*
G37*
G36*
X01026Y01939D02*
Y01908D01*
Y01882*
X01Y01857*
X00984Y0184*
Y01706*
X00961Y01684*
X00911*
Y01657*
X00903*
Y01626*
X00893*
Y01657*
X00889*
Y01666*
X00839Y01716*
X00841Y0172*
X00863*
Y01743*
X00833*
Y01753*
X00863*
Y01763*
X00872*
Y01836*
X00836Y01872*
Y0196*
X00888Y02007*
X00957*
X01026Y01939*
G37*
G36*
X00802Y01645D02*
Y01606D01*
X008Y01604*
X00782*
X0078Y01606*
Y01632*
X00782Y01634*
X00792*
X00794Y01636*
Y01645*
X00796Y01647*
X008*
X00802Y01645*
G37*
G36*
X00974Y01602D02*
X00972Y016D01*
X00918*
Y01673*
X00974*
Y01602*
G37*
G36*
X00802Y01535D02*
Y01496D01*
X008Y01494*
X00796*
X00794Y01496*
Y01506*
X00792Y01508*
X00782*
X0078Y0151*
Y01535*
X00782Y01537*
X008*
X00802Y01535*
G37*
G36*
X011Y01493D02*
X00986D01*
Y0156*
X00983*
Y01566*
X00914*
Y01576*
X00983*
Y0158*
X00986*
Y01649*
X011*
Y01493*
G37*
G36*
X0088Y0152D02*
X00898D01*
Y01515*
X00903*
Y01484*
X00905*
Y01476*
X0089Y01463*
Y01375*
X00885Y0137*
X00882Y01373*
Y01378*
Y01416*
X00846*
Y01373*
X00877*
X00882*
X00885Y0137*
X00868Y01352*
Y01347*
X00846*
Y01318*
X00841*
Y01313*
X00813*
Y01299*
X00791*
Y01348*
Y01374*
X00793Y01379*
Y01385*
X00791Y01391*
Y01478*
X00799Y01486*
X00841*
Y01484*
X00851*
Y0151*
X00856*
Y01515*
X00871*
Y01521*
X0088*
Y0152*
G37*
G36*
X00972Y01538D02*
X00975Y01538D01*
Y0149*
X00986Y01478*
X01039*
X01063Y01454*
Y01215*
X01055*
Y01236*
X00996*
Y01215*
X0098*
Y01236*
X0092*
Y01215*
X0089*
X00878Y01202*
X00817*
X00813Y01208*
Y01222*
Y01276*
X00825Y01288*
X00867*
Y01288*
X00889*
Y01318*
Y01347*
X00881*
X00879Y01352*
X00899Y01372*
Y01463*
X00928Y01491*
Y01535*
X0093Y01537*
Y01537*
X00932Y01539*
X00971*
X00972Y01538*
G37*
G36*
X00703Y01288D02*
X00719Y01272D01*
Y01211*
X00745Y01186*
X00888*
X00907Y01205*
X0092Y01205*
Y01193*
X0098*
Y01201*
X00983Y01204*
X00996Y01204*
Y01193*
X01055*
Y012*
X01059Y01203*
X01114Y01202*
Y01208*
X01116*
Y01246*
X01126*
Y01208*
X01126*
Y01202*
Y01086*
X01124*
X01118Y01083*
X01113Y01079*
X01112Y01076*
X0068*
X00626Y0113*
Y0127*
X00645Y01288*
X00703*
G37*
G36*
X01152Y01208D02*
X01154D01*
X01155Y01207*
Y01202*
X01184*
X01195Y01188*
Y01087*
X01184Y01076*
X01145*
X01136Y01085*
Y01205*
X0114Y01208*
X01142*
Y01246*
X01152*
Y01208*
G37*
G36*
X00875Y01013D02*
X00907D01*
Y00992*
X00966*
Y01013*
X00998*
X01005Y01007*
Y0088*
X00996Y00871*
X00739*
Y00895*
X00712*
Y009*
X00707*
Y0093*
X00684*
Y00927*
X0068Y00924*
X00668*
Y01026*
X00674Y01032*
X00857*
X00875Y01013*
G37*
G36*
X01713Y007D02*
X01717D01*
X01723Y00698*
X01729Y00694*
X01733Y00688*
X01735Y00681*
X01735Y00675*
X01733Y00668*
X01729Y00662*
X01726Y0066*
X01679*
X01676Y00662*
X01672Y00668*
X0167Y00675*
X0167Y00681*
X01672Y00688*
X01676Y00694*
X01682Y00698*
X01688Y007*
X01692*
X01713*
G37*
G36*
X01729Y00338D02*
X01733Y00332D01*
X01735Y00326*
X01735Y00319*
X01733Y00312*
X01729Y00307*
X01723Y00303*
X01717Y00301*
X01713Y00301*
X01692*
X01688Y00301*
X01682Y00303*
X01676Y00307*
X01672Y00312*
X0167Y00319*
X0167Y00326*
X01672Y00332*
X01676Y00338*
X01679Y0034*
X01726*
X01729Y00338*
G37*
%LNpcb1-2*%
%LPC*%
G36*
X00405Y02212D02*
X00403D01*
Y02144*
X00471*
Y02146*
X00468Y0216*
X00463Y02174*
X00455Y02186*
X00445Y02196*
X00433Y02204*
X00419Y02209*
X00405Y02212*
G37*
G36*
X00393D02*
X00391D01*
X00377Y02209*
X00363Y02204*
X00352Y02196*
X00341Y02186*
X00333Y02174*
X00328Y0216*
X00325Y02146*
Y02144*
X00393*
Y02212*
G37*
G36*
X00174D02*
X00172D01*
Y02144*
X0024*
Y02146*
X00237Y0216*
X00232Y02174*
X00224Y02186*
X00213Y02196*
X00202Y02204*
X00188Y02209*
X00174Y02212*
G37*
G36*
X00162D02*
X0016D01*
X00146Y02209*
X00132Y02204*
X0012Y02196*
X0011Y02186*
X00102Y02174*
X00097Y0216*
X00094Y02146*
Y02144*
X00162*
Y02212*
G37*
G36*
X00471Y02134D02*
X00403D01*
Y02066*
X00405*
X00419Y02069*
X00433Y02074*
X00445Y02082*
X00455Y02093*
X00463Y02104*
X00468Y02118*
X00471Y02132*
Y02134*
G37*
G36*
X00393D02*
X00325D01*
Y02132*
X00328Y02118*
X00333Y02104*
X00341Y02093*
X00352Y02082*
X00363Y02074*
X00377Y02069*
X00391Y02066*
X00393*
Y02134*
G37*
G36*
X0024D02*
X00172D01*
Y02066*
X00174*
X00188Y02069*
X00202Y02074*
X00213Y02082*
X00224Y02093*
X00232Y02104*
X00237Y02118*
X0024Y02132*
Y02134*
G37*
G36*
X00162D02*
X00094D01*
Y02132*
X00097Y02118*
X00102Y02104*
X0011Y02093*
X0012Y02082*
X00132Y02074*
X00146Y02069*
X0016Y02066*
X00162*
Y02134*
G37*
G36*
X00289Y0209D02*
X00276D01*
X00263Y02088*
X00251Y02083*
X0024Y02075*
X00231Y02066*
X00223Y02055*
X00218Y02043*
X00216Y0203*
Y02017*
X00218Y02004*
X00223Y01992*
X00231Y01981*
X0024Y01972*
X00251Y01964*
X00263Y01959*
X00276Y01957*
X00289*
X00302Y01959*
X00314Y01964*
X00325Y01972*
X00334Y01981*
X00342Y01992*
X00347Y02004*
X00349Y02017*
Y0203*
X00347Y02043*
X00342Y02055*
X00334Y02066*
X00325Y02075*
X00314Y02083*
X00302Y02088*
X00289Y0209*
G37*
G36*
X00543Y0194D02*
X00523D01*
Y01918*
X00543*
Y0194*
G37*
G36*
X00513D02*
X00492D01*
Y01918*
X00513*
Y0194*
G37*
G36*
X00405Y01981D02*
X00403D01*
Y01913*
X00471*
Y01915*
X00468Y01929*
X00463Y01943*
X00455Y01954*
X00445Y01965*
X00433Y01973*
X00419Y01978*
X00405Y01981*
G37*
G36*
X00393D02*
X00391D01*
X00377Y01978*
X00363Y01973*
X00352Y01965*
X00341Y01954*
X00333Y01943*
X00328Y01929*
X00325Y01915*
Y01913*
X00393*
Y01981*
G37*
G36*
X00174D02*
X00172D01*
Y01913*
X0024*
Y01915*
X00237Y01929*
X00232Y01943*
X00224Y01954*
X00213Y01965*
X00202Y01973*
X00188Y01978*
X00174Y01981*
G37*
G36*
X00162D02*
X0016D01*
X00146Y01978*
X00132Y01973*
X0012Y01965*
X0011Y01954*
X00102Y01943*
X00097Y01929*
X00094Y01915*
Y01913*
X00162*
Y01981*
G37*
G36*
X00393Y01903D02*
X00325D01*
Y01901*
X00328Y01887*
X00333Y01873*
X00341Y01861*
X00352Y01851*
X00363Y01843*
X00377Y01838*
X00391Y01835*
X00393*
Y01903*
G37*
G36*
X0024D02*
X00172D01*
Y01835*
X00174*
X00188Y01838*
X00202Y01843*
X00213Y01851*
X00224Y01861*
X00232Y01873*
X00237Y01887*
X0024Y01901*
Y01903*
G37*
G36*
X00162D02*
X00094D01*
Y01901*
X00097Y01887*
X00102Y01873*
X0011Y01861*
X0012Y01851*
X00132Y01843*
X00146Y01838*
X0016Y01835*
X00162*
Y01903*
G37*
G36*
X00523Y0159D02*
X00523D01*
X00512Y01588*
X00503Y01582*
X00495Y01575*
X0049Y01565*
X00487Y01555*
Y01554*
X00523*
Y0159*
G37*
G36*
Y01544D02*
X00487D01*
Y01544*
X0049Y01534*
X00495Y01524*
X00503Y01517*
X00512Y01511*
X00523Y01508*
X00523*
Y01544*
G37*
G36*
Y01199D02*
X00523D01*
X00512Y01196*
X00503Y01191*
X00495Y01183*
X0049Y01174*
X00487Y01163*
Y01163*
X00523*
Y01199*
G37*
G36*
Y01153D02*
X00487D01*
Y01153*
X0049Y01142*
X00495Y01133*
X00503Y01125*
X00512Y0112*
X00523Y01117*
X00523*
Y01153*
G37*
G36*
Y0078D02*
X00523D01*
X00512Y00778*
X00503Y00772*
X00495Y00765*
X0049Y00755*
X00487Y00745*
Y00745*
X00523*
Y0078*
G37*
G36*
Y00735D02*
X00487D01*
Y00734*
X0049Y00724*
X00495Y00714*
X00503Y00707*
X00512Y00701*
X00523Y00699*
X00523*
Y00735*
G37*
G36*
X00523Y0049D02*
X00523D01*
X00513Y00487*
X00503Y00481*
X00496Y00474*
X0049Y00464*
X00487Y00454*
Y00454*
X00523*
Y0049*
G37*
G36*
Y00444D02*
X00487D01*
Y00443*
X0049Y00433*
X00496Y00424*
X00503Y00416*
X00513Y00411*
X00523Y00408*
X00523*
Y00444*
G37*
G36*
X00533Y00184D02*
X00524D01*
X00515Y00181*
X00507Y00177*
X005Y0017*
X00496Y00162*
X00493Y00153*
Y00144*
X00496Y00135*
X005Y00127*
X00507Y00121*
X00515Y00116*
X00524Y00114*
X00533*
X00542Y00116*
X0055Y00121*
X00556Y00127*
X00561Y00135*
X00563Y00144*
Y00153*
X00561Y00162*
X00556Y0017*
X0055Y00177*
X00542Y00181*
X00533Y00184*
G37*
G36*
X00799Y00097D02*
X00799D01*
Y00062*
X00834*
Y00063*
X00831Y00073*
X00826Y00082*
X00818Y00089*
X00809Y00095*
X00799Y00097*
G37*
G36*
X00789D02*
X00789D01*
X00779Y00095*
X00769Y00089*
X00762Y00082*
X00757Y00073*
X00754Y00063*
Y00062*
X00789*
Y00097*
G37*
G36*
X00834Y00052D02*
X00799D01*
Y00017*
X00799*
X00809Y0002*
X00818Y00025*
X00826Y00033*
X00831Y00042*
X00834Y00052*
Y00052*
G37*
G36*
X00789D02*
X00754D01*
Y00052*
X00757Y00042*
X00762Y00033*
X00769Y00025*
X00779Y0002*
X00789Y00017*
X00789*
Y00052*
G37*
G36*
X01857Y01703D02*
X01714D01*
Y01619*
X01857*
Y01703*
G37*
G36*
X01704D02*
X01561D01*
Y01619*
X01704*
Y01703*
G37*
G36*
X01857Y01609D02*
X01714D01*
Y01525*
X01857*
Y01609*
G37*
G36*
X01704D02*
X01561D01*
Y01525*
X01704*
Y01609*
G37*
G36*
X01645Y01509D02*
X01616D01*
Y01472*
X01645*
Y01509*
G37*
G36*
X01606D02*
X01577D01*
Y01472*
X01606*
Y01509*
G37*
G36*
X01645Y01462D02*
X01616D01*
Y01424*
X01645*
Y01462*
G37*
G36*
X01606D02*
X01577D01*
Y01424*
X01606*
Y01462*
G37*
G36*
X01476Y01364D02*
X01467D01*
X01458Y01362*
X0145Y01357*
X01443Y01351*
X01439Y01343*
X01436Y01334*
Y01325*
X01439Y01316*
X01443Y01308*
X0145Y01302*
X01458Y01297*
X01467Y01295*
X01476*
X01485Y01297*
X01493Y01302*
X01499Y01308*
X01504Y01316*
X01506Y01325*
Y01334*
X01504Y01343*
X01499Y01351*
X01493Y01357*
X01485Y01362*
X01476Y01364*
G37*
G36*
Y01264D02*
X01467D01*
X01458Y01262*
X0145Y01257*
X01443Y01251*
X01439Y01243*
X01436Y01234*
Y01225*
X01439Y01216*
X01443Y01208*
X0145Y01202*
X01458Y01197*
X01467Y01195*
X01476*
X01485Y01197*
X01493Y01202*
X01499Y01208*
X01504Y01216*
X01506Y01225*
Y01234*
X01504Y01243*
X01499Y01251*
X01493Y01257*
X01485Y01262*
X01476Y01264*
G37*
G36*
Y01164D02*
X01467D01*
X01458Y01162*
X0145Y01157*
X01443Y01151*
X01439Y01143*
X01436Y01134*
Y01125*
X01439Y01116*
X01443Y01108*
X0145Y01102*
X01458Y01097*
X01467Y01095*
X01476*
X01485Y01097*
X01493Y01102*
X01499Y01108*
X01504Y01116*
X01506Y01125*
Y01134*
X01504Y01143*
X01499Y01151*
X01493Y01157*
X01485Y01162*
X01476Y01164*
G37*
G36*
X01477Y0107D02*
X01476D01*
Y01035*
X01512*
Y01035*
X01509Y01045*
X01504Y01055*
X01496Y01062*
X01487Y01068*
X01477Y0107*
G37*
G36*
X01466D02*
X01466D01*
X01455Y01068*
X01446Y01062*
X01438Y01055*
X01433Y01045*
X0143Y01035*
Y01035*
X01466*
Y0107*
G37*
G36*
X01512Y01025D02*
X01476D01*
Y00989*
X01477*
X01487Y00991*
X01496Y00997*
X01504Y01004*
X01509Y01014*
X01512Y01024*
Y01025*
G37*
G36*
X01466D02*
X0143D01*
Y01024*
X01433Y01014*
X01438Y01004*
X01446Y00997*
X01455Y00991*
X01466Y00989*
X01466*
Y01025*
G37*
G36*
X01506Y00964D02*
X01436D01*
Y00895*
X01506*
Y00964*
G37*
G36*
X01453Y01953D02*
X0137D01*
Y01898*
X01453*
Y01953*
G37*
G36*
X0136D02*
X01276D01*
Y01898*
X0136*
Y01953*
G37*
G36*
X01453Y01888D02*
X0137D01*
Y01834*
X01453*
Y01888*
G37*
G36*
X0136D02*
X01276D01*
Y01834*
X0136*
Y01888*
G37*
G36*
X01236Y01728D02*
X01213D01*
Y01703*
X01236*
Y01728*
G37*
G36*
X01256Y01636D02*
X01214D01*
Y01576*
X01256*
Y01636*
G37*
G36*
X01204D02*
X01161D01*
Y01576*
X01204*
Y01636*
G37*
G36*
X01256Y01566D02*
X01214D01*
Y01505*
X01256*
Y01566*
G37*
G36*
X01204D02*
X01161D01*
Y01505*
X01204*
Y01566*
G37*
G36*
X0109Y01284D02*
X01089D01*
X01084Y01283*
X0108Y0128*
X01077Y01276*
X01076Y01271*
Y01251*
X0109*
Y01284*
G37*
G36*
X01079Y018D02*
X01044D01*
Y01758*
X01079*
Y018*
G37*
G36*
X0115Y01763D02*
X01127D01*
Y01738*
X0115*
Y01763*
G37*
G36*
X0093Y0199D02*
X00928D01*
Y01922*
X00996*
Y01924*
X00993Y01938*
X00988Y01952*
X0098Y01963*
X00969Y01974*
X00958Y01982*
X00944Y01987*
X0093Y0199*
G37*
G36*
X00918D02*
X00916D01*
X00902Y01987*
X00888Y01982*
X00876Y01974*
X00866Y01963*
X00858Y01952*
X00853Y01938*
X0085Y01924*
Y01922*
X00918*
Y0199*
G37*
G36*
X00996Y01912D02*
X00928D01*
Y01844*
X0093*
X00944Y01847*
X00958Y01852*
X00969Y0186*
X0098Y0187*
X00988Y01882*
X00993Y01896*
X00996Y0191*
Y01912*
G37*
G36*
X00918D02*
X0085D01*
Y0191*
X00853Y01896*
X00858Y01882*
X00866Y0187*
X00876Y0186*
X00888Y01852*
X00902Y01847*
X00916Y01844*
X00918*
Y01912*
G37*
G36*
X00963Y018D02*
X00927D01*
Y01758*
X00963*
Y018*
G37*
G36*
X00917D02*
X00882D01*
Y01758*
X00917*
Y018*
G37*
G36*
X00963Y01748D02*
X00927D01*
Y01705*
X00963*
Y01748*
G37*
G36*
X00917D02*
X00882D01*
Y01705*
X00917*
Y01748*
G37*
G36*
X00966Y0164D02*
X00959D01*
Y01636*
X00961Y01634*
X00966*
Y0164*
G37*
G36*
X01095Y01636D02*
X01052D01*
Y01576*
X01095*
Y01636*
G37*
G36*
X01042D02*
X01D01*
Y01576*
X01042*
Y01636*
G37*
G36*
X01095Y01566D02*
X01052D01*
Y01505*
X01095*
Y01566*
G37*
G36*
X01042D02*
X01D01*
Y01505*
X01042*
Y01566*
G37*
G36*
X00893Y0151D02*
X0088D01*
Y01484*
X00893*
Y0151*
G37*
G36*
X00871Y01505D02*
X00861D01*
Y01484*
X00871*
Y01505*
G37*
G36*
X00882Y01468D02*
X00846D01*
Y01426*
X00882*
Y01468*
G37*
G36*
X00836D02*
X008D01*
Y01426*
X00836*
Y01468*
G37*
G36*
Y01416D02*
X008D01*
Y01373*
X00836*
Y01416*
G37*
G36*
X00836Y01347D02*
X00813D01*
Y01323*
X00836*
Y01347*
G37*
G36*
X00966Y01508D02*
X00961D01*
X00959Y01506*
Y01502*
X00966*
Y01508*
G37*
G36*
X00998Y01468D02*
X00962D01*
Y01426*
X00998*
Y01468*
G37*
G36*
X00952D02*
X00917D01*
Y01426*
X00952*
Y01468*
G37*
G36*
X00998Y01416D02*
X00962D01*
Y01373*
X00998*
Y01416*
G37*
G36*
X00952D02*
X00917D01*
Y01373*
X00952*
Y01416*
G37*
G36*
X00922Y01347D02*
X00899D01*
Y01323*
X00922*
Y01347*
G37*
G36*
Y01313D02*
X00899D01*
Y01288*
X00922*
Y01313*
G37*
G36*
X00876Y01276D02*
X00854D01*
Y01251*
X00876*
Y01276*
G37*
G36*
X00844D02*
X00821D01*
Y01251*
X00844*
Y01276*
G37*
G36*
X01055Y01269D02*
X01031D01*
Y01246*
X01055*
Y01269*
G37*
G36*
X01021D02*
X00996D01*
Y01246*
X01021*
Y01269*
G37*
G36*
X0098D02*
X00955D01*
Y01246*
X0098*
Y01269*
G37*
G36*
X00945D02*
X0092D01*
Y01246*
X00945*
Y01269*
G37*
G36*
X00876Y01241D02*
X00854D01*
Y01217*
X00876*
Y01241*
G37*
G36*
X00844D02*
X00821D01*
Y01217*
X00844*
Y01241*
G37*
G36*
X00673Y01276D02*
Y01251D01*
X00695*
X00695Y01256*
X00692Y01263*
X00688Y01268*
X00682Y01273*
X00675Y01275*
X00673Y01276*
G37*
G36*
X00663D02*
X00661Y01275D01*
X00655Y01273*
X00649Y01268*
X00645Y01263*
X00642Y01256*
X00641Y01251*
X00663*
Y01276*
G37*
G36*
X00695Y01241D02*
X00673D01*
Y01217*
X00675Y01217*
X00682Y0122*
X00688Y01224*
X00692Y0123*
X00695Y01237*
X00695Y01241*
G37*
G36*
X00663D02*
X00641D01*
X00642Y01237*
X00645Y0123*
X00649Y01224*
X00655Y0122*
X00661Y01217*
X00663Y01217*
Y01241*
G37*
G36*
X01055Y01183D02*
X01031D01*
Y0116*
X01055*
Y01183*
G37*
G36*
X01021D02*
X00996D01*
Y0116*
X01021*
Y01183*
G37*
G36*
X0098D02*
X00955D01*
Y0116*
X0098*
Y01183*
G37*
G36*
X00945D02*
X0092D01*
Y0116*
X00945*
Y01183*
G37*
G36*
X00804Y01017D02*
X00763D01*
Y00992*
X00831*
X0083Y00997*
X00828Y01003*
X00823Y01009*
X00818Y01013*
X00811Y01016*
X00804Y01017*
G37*
G36*
X00753D02*
X00713D01*
X00706Y01016*
X00699Y01013*
X00694Y01009*
X00689Y01003*
X00687Y00997*
X00686Y00992*
X00753*
Y01017*
G37*
G36*
X00966Y00982D02*
X00941D01*
Y00959*
X00966*
Y00982*
G37*
G36*
X00931D02*
X00907D01*
Y00959*
X00931*
Y00982*
G37*
G36*
X00831D02*
X00763D01*
Y00957*
X00804*
X00811Y00958*
X00818Y00961*
X00823Y00965*
X00828Y00971*
X0083Y00977*
X00831Y00982*
G37*
G36*
X00753D02*
X00686D01*
X00687Y00977*
X00689Y00971*
X00694Y00965*
X00699Y00961*
X00706Y00958*
X00713Y00957*
X00753*
Y00982*
G37*
G36*
X00739Y0093D02*
X00717D01*
Y00905*
X00739*
Y0093*
G37*
%LNpcb1-3*%
%LPD*%
G54D12*
X00528Y00249D02*
X00566Y00211D01*
X00646Y00231D02*
X01044D01*
X00528Y00349D02*
X00646Y00231D01*
X00693Y01439D02*
Y01519D01*
X00658Y01555D02*
Y0156D01*
X01717Y00039D02*
X01745Y00011D01*
X01692Y00039D02*
X01717D01*
X01501Y00427D02*
X01546D01*
X01573Y00454*
Y00454*
X01628Y0051*
X01687*
X01642Y00532D02*
X01643Y00531D01*
X01686D02*
X01687Y0053D01*
X01643Y00531D02*
X01686D01*
X01642Y00488D02*
X01685D01*
X01562Y00408D02*
X01642Y00488D01*
X01501Y00408D02*
X01562D01*
X01685Y00488D02*
X01687Y0049D01*
X01641Y00457D02*
X01655Y00471D01*
X01687*
X01641Y00454D02*
Y00457D01*
X01687Y00663D02*
X01702Y00679D01*
Y0068*
X01687Y00648D02*
Y00663D01*
Y00628D02*
Y00648D01*
X01157Y01313D02*
X01172Y01297D01*
Y01246D02*
Y01297D01*
X00595Y01103D02*
X00682Y01017D01*
X00595Y01103D02*
Y0128D01*
X00628Y01313*
X00695*
X00758Y01249*
Y01246D02*
Y01249D01*
X01071Y00892D02*
X01083Y00904D01*
X0107Y00893D02*
Y00984D01*
X01015Y0104D02*
X0107Y00984D01*
X00936Y0104D02*
X01015D01*
X00884Y01846D02*
X0089Y01852D01*
X00923Y01885D02*
Y01917D01*
X0089Y01852D02*
X00923Y01885D01*
X0089Y01852D02*
Y01852D01*
X00682Y01846D02*
X00884D01*
X00518Y01846D02*
X00615D01*
X00615Y01846*
X00441Y01787D02*
X00485Y01832D01*
X00506*
X00518Y01844D02*
Y01846D01*
X00506Y01832D02*
X00518Y01844D01*
X00398Y01908D02*
X00513D01*
X00518Y01913*
X01126Y01069D02*
X01147Y01048D01*
Y01013D02*
Y01048D01*
X01083Y00904D02*
X0111D01*
X01122Y00917*
Y00919*
X01121Y0092D02*
X01122Y00919D01*
X01121Y0092D02*
Y01013D01*
X01172Y0092D02*
X01174Y00919D01*
X01172Y0092D02*
Y01013D01*
X01263Y01248D02*
X01381Y01129D01*
Y00824D02*
Y01129D01*
Y00824D02*
X01449Y00756D01*
X013Y00824D02*
X01342Y00782D01*
Y00567D02*
Y00782D01*
X01263Y01148D02*
X01362Y01049D01*
Y00812D02*
Y01049D01*
Y00812D02*
X0142Y00753D01*
X00633Y01439D02*
Y01467D01*
X00666Y015*
X01322Y00567D02*
Y00768D01*
X01243Y00567D02*
Y00812D01*
X01223Y00567D02*
Y00787D01*
X00642Y00948D02*
X00658Y00932D01*
X00642Y00948D02*
Y00948D01*
X00658Y009D02*
Y00932D01*
X01672Y00759D02*
X01749D01*
X01672D02*
X01702Y00729D01*
X01671Y00761D02*
X01672Y00759D01*
X01702Y0068D02*
Y00729D01*
X01612Y00709D02*
X0166Y00758D01*
X0161Y00709D02*
X01612D01*
X01502Y00655D02*
X01658Y00811D01*
X01873*
X01925Y00759*
X018D02*
X01866D01*
X01044Y00368D02*
X01243D01*
X01342Y00467*
X01633Y00594D02*
X01638Y00589D01*
X01633Y00594D02*
Y00601D01*
X01641Y00609*
X01638Y00589D02*
X01687D01*
X01641Y00609D02*
X01687D01*
X01612Y00576D02*
X01637Y00551D01*
X01612Y00576D02*
Y00655D01*
X01637Y00551D02*
X01685D01*
X01634Y00408D02*
X01638D01*
X01631D02*
X01634D01*
X01804Y0027D02*
X01877D01*
X01905Y0024D02*
Y00242D01*
X01877Y0027D02*
X01905Y00242D01*
X01597Y0032D02*
X01702D01*
X01591Y00314D02*
X01597Y0032D01*
X01641Y00373D02*
Y00374D01*
Y0037D02*
Y00373D01*
X01686*
X01641Y0037D02*
X01657Y00355D01*
X01685D02*
X01687Y00353D01*
X01657Y00355D02*
X01685D01*
X01638Y00374D02*
X01641D01*
X01686Y00373D02*
X01687Y00372D01*
X01649Y00392D02*
X01687D01*
X01637Y00404D02*
Y00407D01*
X01638Y00408*
X01634D02*
X01638Y00412D01*
X01687*
X01637Y00404D02*
X01649Y00392D01*
X01616Y00431D02*
X01687D01*
X01591Y00366D02*
Y00406D01*
X01616Y00431*
X00633Y01379D02*
X0065Y01362D01*
X01686Y01614D02*
X01709D01*
X01611Y01467D02*
Y01539D01*
X01686Y01614*
X01721Y01467D02*
X01843D01*
X01863Y01848D02*
X01902Y0181D01*
X01476Y01848D02*
X01863D01*
X01902Y01467D02*
Y0181D01*
X00815Y0082D02*
X00865D01*
X00983Y00881D02*
X0104Y00824D01*
X01056D02*
X01069Y00811D01*
X0104Y00824D02*
X01056D01*
X01069Y00809D02*
Y00811D01*
X00689Y01754D02*
X00699Y01764D01*
X00675Y01721D02*
X00689Y01735D01*
Y01754*
X00658Y01555D02*
X00693Y01519D01*
X00737Y01462D02*
X00791Y01515D01*
X00737Y01362D02*
Y01462D01*
X00774Y0155D02*
X00792D01*
X00762Y01538D02*
X00774Y0155D01*
X00792D02*
X00793Y01551D01*
X00758Y01538D02*
X00762D01*
X00829Y01551D02*
X0083Y0155D01*
X00828Y01551D02*
X00829D01*
X00793Y01551D02*
X00794Y01551D01*
X00761Y01547D02*
X00785Y01571D01*
X00796*
X00816Y01537D02*
X00829Y01549D01*
X00918Y0155D02*
X00929Y01539D01*
X0083Y0155D02*
X00918D01*
X00816Y0151D02*
Y01537D01*
X00648Y01623D02*
X00652Y01626D01*
X00625Y01623D02*
X00648D01*
X00621Y0172D02*
X00622Y01721D01*
X00621Y01627D02*
Y0172D01*
Y01627D02*
X00625Y01623D01*
X00652Y01626D02*
X00656Y01622D01*
X00665Y01613*
X00738*
X00633Y01379D02*
Y01439D01*
X0065Y01362D02*
X00686D01*
X00658Y0156D02*
X00746D01*
X00777Y0159*
X00793*
X00752Y01653D02*
X00764D01*
X00738Y01666D02*
X00752Y01653D01*
X00764D02*
X00791Y01626D01*
X00816Y01631D02*
Y01648D01*
X00743Y01721D02*
X00816Y01648D01*
X00675Y01721D02*
X00743D01*
X00836Y01631D02*
X00856D01*
X00777Y0172D02*
X00836Y01661D01*
Y01631D02*
Y01661D01*
X00764Y01748D02*
X00777Y01734D01*
X00762Y01748D02*
X00764D01*
X00777Y0172D02*
Y01734D01*
X00799Y01721D02*
Y01779D01*
X0079Y01787D02*
X00799Y01779D01*
X00775Y01787D02*
X0079D01*
X00762Y01801D02*
X00775Y01787D01*
X00799Y01721D02*
X00869Y01651D01*
Y01574D02*
Y01651D01*
Y01574D02*
X0087Y01572D01*
X00876*
X00877Y01571*
X00914*
X00836Y0151D02*
Y01542D01*
X00796Y01571D02*
X00808D01*
X0112Y00721D02*
Y00809D01*
X01118Y00718D02*
X0112Y00721D01*
X00915Y00809D02*
X00918Y00807D01*
Y00718D02*
Y00807D01*
X01067Y00618D02*
X0112D01*
X01145Y00593*
Y00567D02*
Y00593D01*
X00943Y00569D02*
Y0057D01*
X0099Y00618*
X01067*
X00941Y00567D02*
X00943Y00569D01*
X00941Y00464D02*
Y00567D01*
X00939Y00463D02*
X00941Y00464D01*
X00992Y0057D02*
X0101Y00588D01*
X01067*
X00992Y00569D02*
Y0057D01*
Y00568D02*
Y00569D01*
X00971Y00464D02*
Y00546D01*
X00992Y00568*
X00971Y00464D02*
X00971D01*
X00994Y00486D02*
X01044D01*
X00971Y00464D02*
X00994Y00486D01*
X01067Y00587D02*
X01087Y00567D01*
X01125*
X01067Y00587D02*
Y00588D01*
X01018Y00718D02*
X01069Y00667D01*
X01162*
X01204Y00625*
Y00567D02*
Y00625D01*
X0142Y00567D02*
Y00753D01*
X01381Y00567D02*
Y00697D01*
X01361Y00567D02*
Y00728D01*
X01449Y00473D02*
Y00756D01*
X00926Y00408D02*
X01044D01*
X00899Y00435D02*
Y00574D01*
X0087Y00601D02*
X00872D01*
X00899Y00574*
Y00435D02*
X00926Y00408D01*
X0161Y00658D02*
X01612Y00655D01*
X01449Y00473D02*
X01475Y00447D01*
X01501*
X00991Y00309D02*
X01044D01*
X0097Y0033D02*
X00991Y00309D01*
X00983Y0029D02*
X01044D01*
X00935Y00338D02*
X00983Y0029D01*
X00931Y00338D02*
X00935D01*
X00979Y00359D02*
X00989Y00349D01*
X01044*
X00938Y00288D02*
X00941Y00285D01*
X00883Y00291D02*
X00885Y00288D01*
X00938*
X00941Y00285D02*
X00971D01*
X00986Y0027D02*
X01044D01*
X00971Y00285D02*
X00986Y0027D01*
X00883Y00256D02*
X0094D01*
X00941Y00255*
X00881Y00258D02*
X00883Y00256D01*
X00945Y00251D02*
X01044D01*
X01044Y0025*
X00941Y00255D02*
X00945Y00251D01*
X00566Y00211D02*
X01044D01*
X0087Y00439D02*
Y00548D01*
Y00439D02*
X00871Y00438D01*
X01685Y00551D02*
X01687Y00549D01*
X01501Y00531D02*
X01568Y00598D01*
X01569*
X01501Y00486D02*
Y00531D01*
X01568Y00548D02*
X01569D01*
X01501Y00467D02*
X01527D01*
X01557Y00497*
Y00537*
X01568Y00548*
X00838Y00631D02*
X00868Y00601D01*
X00722Y00666D02*
Y00735D01*
Y00666D02*
X00757Y00631D01*
X00838*
X00868Y00601D02*
X0087D01*
X00871Y00385D02*
X01015D01*
X01018Y00388*
X01044*
X00845Y00361D02*
X00869Y00385D01*
X00871*
X00722Y00361D02*
X00845D01*
X00937Y00195D02*
X00941Y00191D01*
X00794Y00157D02*
X00832Y00195D01*
X00941Y00191D02*
X01044D01*
X00832Y00195D02*
X00937D01*
X00894Y00057D02*
X00947Y0011D01*
X01125*
X01058Y0002D02*
X01058Y0002D01*
X01127D02*
X01128Y00019D01*
X01058Y0002D02*
X01127D01*
X01158Y00019D02*
X01158Y00019D01*
X01238*
X01238Y00019*
X01158Y00077D02*
X01164Y00084D01*
Y0011*
X01158Y00019D02*
Y00077D01*
X01128Y00042D02*
X01145Y00059D01*
X01128Y00019D02*
Y00042D01*
X01145Y00059D02*
Y0011D01*
X01574Y0006D02*
X01577Y00057D01*
X01574Y00054D02*
X01577Y00057D01*
X01268Y00019D02*
X01336D01*
X0153Y00098D02*
X01536Y00103D01*
X0153Y00085D02*
Y00097D01*
X01536Y00103D02*
X01536D01*
X0153Y00097D02*
Y00098D01*
X0153Y00097D02*
X0153Y00097D01*
X01428Y00058D02*
X01503D01*
X0153Y00085*
X01401Y00085D02*
Y0011D01*
Y00085D02*
X01428Y00058D01*
X01531Y0002D02*
X01565Y00054D01*
X01574*
X01531Y00019D02*
Y0002D01*
X01574Y0006D02*
Y00066D01*
X01536Y00103D02*
X01537D01*
X01574Y00066*
X01409Y00044D02*
D01*
X01473Y00028D02*
X01482Y00019D01*
X01425Y00028D02*
X01473D01*
X01409Y00044D02*
X01425Y00028D01*
X01381Y00072D02*
Y0011D01*
Y00072D02*
X01409Y00044D01*
X0142Y00105D02*
X01422Y00103D01*
X01507*
X0142Y00105D02*
Y0011D01*
X01551Y00291D02*
X01574Y00268D01*
X0154Y00368D02*
X01551Y00357D01*
Y00291D02*
Y00357D01*
X01501Y00368D02*
X0154D01*
X01551Y0027D02*
X01569Y00252D01*
X01551Y0025D02*
X01561Y0024D01*
X01501Y0025D02*
X01551D01*
X01561Y0024D02*
X0169D01*
X01501Y0027D02*
X01551D01*
X01527Y00231D02*
X01561Y00196D01*
X01632*
X01501Y00231D02*
X01527D01*
X0169Y0024D02*
X01707Y00224D01*
Y00196D02*
Y00224D01*
X01569Y00252D02*
X01718D01*
X01774Y00196*
X01768Y00268D02*
X01796Y0024D01*
X01574Y00268D02*
X01768D01*
X01796Y0024D02*
X01854D01*
Y00166D02*
Y0024D01*
X01961Y00116D02*
Y00145D01*
X01905Y00166D02*
X01939D01*
X01961Y00145*
X01941Y00096D02*
X01961Y00116D01*
X01902Y00096D02*
X01941D01*
X01961Y00057D02*
Y00116D01*
X01867Y00027D02*
X01931D01*
X01961Y00057*
X0184Y00103D02*
X01849Y00094D01*
X01779Y00103D02*
X0184D01*
X01774Y00108D02*
Y00137D01*
Y00108D02*
X01779Y00103D01*
X01781Y00027D02*
X01816D01*
X01707Y00101D02*
X01781Y00027D01*
X01707Y00101D02*
Y00137D01*
X01632D02*
X0164Y00129D01*
Y00039D02*
Y00129D01*
X01208Y01733D02*
X01212Y01736D01*
X01816Y00027D02*
X01816Y00027D01*
G54D18*
X00849Y01246D03*
G54D19*
X00758Y01246D03*
X00668D03*
G54D20*
X00758Y00987D03*
G54D24*
X00922Y01753D03*
X01039D03*
X00957Y01421D03*
X00841D03*
G54D31*
X01158Y00019D03*
X01128D03*
X01536Y00103D03*
X01268Y00019D03*
X00941Y00464D03*
X01507Y00103D03*
X01238Y00019D03*
X00971Y00464D03*
G54D32*
X00992Y00569D03*
X00943D03*
X01482Y00019D03*
X01531D03*
G54D36*
X01687Y0053D03*
Y0049D03*
Y00648D03*
Y00628D03*
Y00372D03*
Y00353D03*
Y0051D03*
Y00471D03*
Y00451D03*
Y00569D03*
Y00589D03*
Y00412D03*
Y00609D03*
Y00392D03*
Y00431D03*
Y00549D03*
G54D38*
X00656Y01622D03*
Y01559D03*
G54D40*
X01067Y00618D03*
X00941Y00285D03*
X01067Y00588D03*
X00941Y00255D03*
G54D41*
X00796Y01571D03*
G54D43*
X00793Y01551D03*
Y0159D03*
G54D44*
X00836Y0151D03*
X00816D03*
Y01631D03*
X00856Y0151D03*
X00836Y01631D03*
X00856D03*
G54D45*
X01569Y00548D03*
Y00598D03*
G54D47*
X00898Y01515D03*
Y01626D03*
G54D48*
X00914Y01571D03*
G54D49*
X01702Y0068D03*
Y0032D03*
G54D60*
X01471Y0113D03*
Y0103D03*
Y0123D03*
Y0133D03*
X00528Y01158D03*
Y01258D03*
Y01649D03*
Y01549D03*
X00528Y00349D03*
X00528Y0084D03*
X00528Y00449D03*
X00528Y0074D03*
X00528Y00249D03*
Y00149D03*
G54D61*
X01471Y0093D03*
X00528Y01358D03*
Y01749D03*
Y0094D03*
X00528Y00549D03*
G54D63*
X00894Y00057D03*
X00794Y00157D03*
Y00057D03*
G54D64*
X01821Y00678D03*
Y00322D03*
G54D65*
X00894Y00157D03*
G54D66*
X01095Y01013D03*
X01172D03*
X01147Y01246D03*
Y01013D03*
X01095Y01246D03*
X01121D03*
Y01013D03*
X01172Y01246D03*
G54D67*
X01361Y00567D03*
X01381Y0011D03*
X01125D03*
X01401D03*
X01145Y00567D03*
Y0011D03*
X01381Y00567D03*
X01223D03*
X01322D03*
X0142D03*
Y0011D03*
X01164D03*
X01125Y00567D03*
X01204D03*
X01243D03*
X01342D03*
X01184Y0011D03*
X01204D03*
X01223D03*
X01243D03*
X01263D03*
X01283D03*
X01302D03*
X01322D03*
X01342D03*
X01361D03*
X01401Y00567D03*
X01302D03*
X01283D03*
X01263D03*
X01184D03*
X01164D03*
G54D68*
X01501Y00447D03*
X01044Y00349D03*
X01501Y00309D03*
X01044Y00408D03*
X01501D03*
X01044Y00211D03*
Y00309D03*
Y00191D03*
X01501Y00467D03*
X01044Y0027D03*
X01501Y00329D03*
X01044Y00368D03*
Y00388D03*
X01501Y00427D03*
X01044Y00231D03*
X01501Y00486D03*
X01044D03*
Y0025D03*
X01501Y00349D03*
Y00368D03*
X01044Y0029D03*
Y00467D03*
Y00447D03*
Y00427D03*
Y00329D03*
X01501Y00191D03*
Y00211D03*
Y00231D03*
Y0025D03*
Y0027D03*
Y0029D03*
Y00388D03*
G54D69*
X00833Y01748D03*
Y01801D03*
X0095Y01188D03*
Y01241D03*
X00936Y00987D03*
Y0104D03*
X01026Y01188D03*
Y01241D03*
X0087Y00601D03*
X00738Y01613D03*
X0087Y00548D03*
X00871Y00438D03*
Y00385D03*
X00738Y01666D03*
X00762Y01748D03*
Y01801D03*
G54D70*
X01709Y01614D03*
Y02126D03*
G54D71*
X01365Y01893D03*
G54D72*
X00675Y01721D03*
X00622D03*
X01155Y01733D03*
X00894Y01318D03*
X00658Y009D03*
X00712D03*
X01208Y01733D03*
X00841Y01318D03*
G54D73*
X01047Y01571D03*
X01209D03*
G54D74*
X0164Y00039D03*
X01692D03*
X0112Y00809D03*
X01069D03*
X00917Y0082D03*
X00865D03*
X01905Y00166D03*
X01122Y00919D03*
X01749Y00759D03*
X01867Y00027D03*
X01902Y00096D03*
X01854Y00166D03*
Y0024D03*
X00737Y01362D03*
X00686D03*
X00684Y01439D03*
X00633D03*
X018Y00759D03*
X01816Y00027D03*
X0185Y00096D03*
X01905Y0024D03*
X01174Y00919D03*
G54D75*
X01707Y00196D03*
Y00137D03*
X01632Y00196D03*
Y00137D03*
X01774Y00196D03*
Y00137D03*
G54D76*
X00518Y01846D03*
Y01913D03*
G54D77*
X00615Y01846D03*
X00682D03*
G54D78*
X00722Y00735D03*
Y00361D03*
G54D79*
X01611Y01467D03*
X01721D03*
G54D80*
X0161Y00709D03*
X01591Y00314D03*
X0161Y00658D03*
X01591Y00366D03*
G54D81*
X00951Y01625D03*
Y01516D03*
X00791Y01515D03*
Y01626D03*
G54D82*
X01925Y00759D03*
X01902Y01467D03*
X01866Y00759D03*
X01843Y01467D03*
G54D83*
X01263Y01348D03*
Y01248D03*
Y01148D03*
Y01048D03*
X01018Y00718D03*
X00918D03*
G54D84*
X01263Y00948D03*
G54D85*
X00283Y02024D03*
X00167Y01908D03*
Y02139D03*
X00398Y01908D03*
Y02139D03*
X00923Y02148D03*
X01154D03*
X00923Y01917D03*
X01154D03*
X01039Y02033D03*
G54D86*
X01837Y01968D03*
Y01771D03*
G54D87*
X01118Y00718D03*
G54D88*
X01961Y00116D03*
X00777Y01382D03*
X00624Y00801D03*
X0089Y01031D03*
X01906Y02108D03*
X01945Y02029D03*
X01906Y0195D03*
X01945Y01872D03*
Y01714D03*
Y01557D03*
X01906Y01321D03*
X01945Y01242D03*
X01906Y01163D03*
X01945Y01084D03*
X01906Y01006D03*
X01945Y00927D03*
X01906Y00691D03*
X01945Y00612D03*
Y00454D03*
Y00297D03*
Y00139D03*
X01866Y02029D03*
Y01872D03*
X01827Y01321D03*
X01866Y01242D03*
X01827Y01163D03*
X01866Y01084D03*
X01827Y01006D03*
X01866Y00927D03*
X01787Y02029D03*
X01748Y0195D03*
X01787Y01872D03*
X01748Y01793D03*
Y01321D03*
X01787Y01242D03*
X01748Y01163D03*
X01787Y01084D03*
X01748Y01006D03*
X01787Y00927D03*
X01709Y02029D03*
X01669Y0195D03*
X01709Y01872D03*
X01669Y01793D03*
X01709Y01714D03*
X01669Y01321D03*
X01709Y01242D03*
X01669Y01163D03*
X01709Y01084D03*
X01669Y01006D03*
X01709Y00927D03*
Y00769D03*
X01669Y00218D03*
X0163Y02029D03*
X01591Y0195D03*
X0163Y01872D03*
X01591Y01793D03*
X0163Y01399D03*
X01591Y01321D03*
X0163Y01242D03*
X01591Y01163D03*
X0163Y01084D03*
X01591Y01006D03*
X0163Y00927D03*
X01591Y00218D03*
X01512Y02108D03*
X01551Y02029D03*
X01512Y0195D03*
X01551Y01872D03*
Y01714D03*
Y01242D03*
X01512Y01163D03*
X01551Y01084D03*
Y00927D03*
X01433Y02108D03*
X01473Y02029D03*
X01433Y01163D03*
X01394Y02029D03*
Y01242D03*
X01315D03*
X00961Y00061D03*
X00724D03*
X00646Y02108D03*
X00685Y02029D03*
X00646Y0195D03*
Y01793D03*
Y00061D03*
X00567Y02108D03*
X00606Y02029D03*
X00567Y0195D03*
X00606Y01399D03*
X00567Y00061D03*
X00488Y02108D03*
X00528Y02029D03*
X00488Y01478D03*
Y00061D03*
X00449Y02029D03*
X0041Y01793D03*
Y01636D03*
Y01478D03*
Y01321D03*
Y01163D03*
Y00061D03*
X0037Y02029D03*
X00331Y01793D03*
X0037Y01714D03*
X00331Y01636D03*
X0037Y01557D03*
X00331Y01478D03*
X0037Y01399D03*
X00331Y01321D03*
X0037Y01242D03*
X00331Y01163D03*
X0037Y01084D03*
X00331Y01006D03*
X0037Y00927D03*
X00331Y00848D03*
X0037Y00769D03*
X00331Y00691D03*
X0037Y00612D03*
X00331Y00533D03*
X0037Y00454D03*
X00331Y00376D03*
X0037Y00297D03*
X00331Y00218D03*
X0037Y00139D03*
X00331Y00061D03*
X00252Y02108D03*
Y0195D03*
X00291Y01872D03*
X00252Y01793D03*
X00291Y01714D03*
X00252Y01636D03*
X00291Y01557D03*
X00252Y01478D03*
X00291Y01399D03*
X00252Y01321D03*
X00291Y01242D03*
X00252Y01163D03*
X00291Y01084D03*
X00252Y01006D03*
X00291Y00927D03*
X00252Y00848D03*
X00291Y00769D03*
X00252Y00691D03*
X00291Y00612D03*
X00252Y00533D03*
X00291Y00454D03*
X00252Y00376D03*
X00291Y00297D03*
X00252Y00218D03*
X00291Y00139D03*
X00252Y00061D03*
X00173Y01793D03*
X00213Y01714D03*
X00173Y01636D03*
X00213Y01557D03*
X00173Y01478D03*
X00213Y01399D03*
X00173Y01321D03*
X00213Y01242D03*
X00173Y01163D03*
X00213Y01084D03*
X00173Y01006D03*
X00213Y00927D03*
X00173Y00848D03*
X00213Y00769D03*
X00173Y00691D03*
X00213Y00612D03*
X00173Y00533D03*
X00213Y00454D03*
X00173Y00376D03*
X00213Y00297D03*
X00173Y00218D03*
X00213Y00139D03*
X00173Y00061D03*
X00134Y02029D03*
X00095Y01793D03*
X00134Y01714D03*
X00095Y01636D03*
X00134Y01557D03*
X00095Y01478D03*
X00134Y01399D03*
X00095Y01321D03*
X00134Y01242D03*
X00095Y01163D03*
X00134Y01084D03*
X00095Y01006D03*
X00134Y00927D03*
X00095Y00848D03*
X00134Y00769D03*
X00095Y00691D03*
X00134Y00612D03*
X00095Y00533D03*
X00134Y00454D03*
X00095Y00376D03*
X00134Y00297D03*
X00095Y00218D03*
X00134Y00139D03*
X00095Y00061D03*
X00441Y01789D03*
X01465Y00104D03*
X01745Y00013D03*
X01573Y00454D03*
X01642Y00532D03*
X0164Y00486D03*
X01641Y00454D03*
X01158Y01314D03*
X01098Y01754D03*
X01144Y01812D03*
X011D03*
X00834Y01802D03*
X00738Y01463D03*
X01127Y0107D03*
X0107Y00893D03*
X013Y00824D03*
X00666Y015D03*
X01322Y00768D03*
X01243Y00812D03*
X01223Y00787D03*
X00642Y00948D03*
X01166Y01098D03*
X00813Y01119D03*
Y01166D03*
X00751Y01118D03*
X0075Y01165D03*
X00697Y01118D03*
X00697Y01165D03*
X01671Y00761D03*
X01502Y00656D03*
X01342Y00467D03*
X01633Y00596D03*
X01804Y00271D03*
X01638Y00322D03*
Y00374D03*
X01631Y00408D03*
X01165Y01141D03*
X01165Y01182D03*
X01183Y01686D03*
X01794Y01592D03*
Y01653D03*
X0171Y01601D03*
Y01654D03*
X01638Y01602D03*
Y01653D03*
X00816Y00821D03*
X00912Y00889D03*
X00912Y00927D03*
X00857Y00925D03*
X00855Y00889D03*
X00797Y00891D03*
X00796Y00925D03*
X007Y01765D03*
X00758Y01538D03*
X0083Y0155D03*
X00621Y01666D03*
X00959Y01308D03*
X01012D03*
Y01338D03*
X00958D03*
X00842Y01422D03*
X00854Y01359D03*
X00804D03*
X00937Y01621D03*
X00935Y01659D03*
X00941Y00517D03*
X00971Y00515D03*
X01381Y00698D03*
X01362Y00729D03*
X0097Y0033D03*
X00931Y00338D03*
X0098Y0036D03*
X00883Y00291D03*
X0087Y00495D03*
X01557Y00498D03*
X01516Y00547D03*
X00881Y00258D03*
X01058Y0002D03*
X01198D03*
X01337Y0002D03*
X01577Y00057D03*
M02*