%FSTAX23Y23*%
%MOIN*%
%SFA1B1*%

%IPPOS*%
%AMD64*
4,1,8,-0.040400,0.000000,-0.040400,0.000000,-0.018700,-0.021700,0.018700,-0.021700,0.040400,0.000000,0.040400,0.000000,0.018700,0.021700,-0.018700,0.021700,-0.040400,0.000000,0.0*
1,1,0.043300,-0.018700,0.000000*
1,1,0.043300,-0.018700,0.000000*
1,1,0.043300,0.018700,0.000000*
1,1,0.043300,0.018700,0.000000*
%
%ADD12C,0.007870*%
%ADD60C,0.061810*%
%ADD63C,0.059840*%
G04~CAMADD=64~8~0.0~0.0~433.1~807.1~216.5~0.0~15~0.0~0.0~0.0~0.0~0~0.0~0.0~0.0~0.0~0~0.0~0.0~0.0~90.0~808.0~434.0*
%ADD64D64*%
%ADD65R,0.059840X0.059840*%
%ADD83C,0.061020*%
%ADD84R,0.061020X0.061020*%
%ADD85C,0.125980*%
%ADD88C,0.023620*%
%LNpcb1-1*%
%LPD*%
G36*
X01336Y01707D02*
X00975Y01346D01*
X00972Y01346*
X00967Y01351*
X00962Y01353*
X00955*
X0095Y01351*
X00945Y01346*
X00943Y01341*
Y01334*
X00945Y01329*
X0095Y01324*
X0095Y01321*
X00946Y01318*
X00819*
X00775Y01362*
X00777Y01367*
X0078*
X00786Y01369*
X00791Y01373*
X00793Y01379*
Y01385*
X00791Y01391*
X00786Y01396*
X0078Y01398*
X00774*
X00768Y01396*
X00767Y01394*
X00762Y01396*
Y01522*
X00767Y01524*
X00771Y01529*
X00774Y01534*
Y01541*
X00771Y01547*
X00767Y01551*
X00762Y01553*
Y02219*
X0089*
X00891Y02214*
X00888Y02213*
X00876Y02205*
X00866Y02195*
X00858Y02183*
X00853Y02169*
X0085Y02155*
Y02153*
X00996*
Y02155*
X00993Y02169*
X00988Y02183*
X0098Y02195*
X00969Y02205*
X00958Y02213*
X00955Y02214*
X00956Y02219*
X01121*
X01122Y02214*
X01119Y02213*
X01108Y02205*
X01097Y02195*
X01089Y02183*
X01084Y02169*
X01081Y02155*
Y02153*
X01227*
Y02155*
X01224Y02169*
X01219Y02183*
X01211Y02195*
X01201Y02205*
X01189Y02213*
X01186Y02214*
X01187Y02219*
X01336*
Y01707*
G37*
G36*
X01474Y01484D02*
X01529Y01429D01*
Y01279*
X01419*
Y01394*
X01392Y01421*
X0139Y01422*
X01204*
X00887Y01104*
Y0107*
X00634*
X00594Y0103*
Y00282*
X00666Y00211*
X0095*
Y00106*
X00537Y00103*
X00536Y00108*
X00544Y00111*
X00553Y00116*
X00561Y00124*
X00566Y00133*
X00569Y00143*
Y00144*
X00528*
X00487*
Y00143*
X0049Y00133*
X00496Y00124*
X00503Y00116*
X00513Y00111*
X00521Y00108*
X0052Y00103*
X00426Y00103*
X00423Y00106*
Y01011*
X00715Y0127*
X00974*
X01Y01297*
X01003Y01295*
X01008Y01292*
X01015*
X0102Y01295*
X01025Y01299*
X01027Y01305*
Y01311*
X01025Y01317*
X01023Y01319*
X01187Y01484*
X01474*
G37*
G36*
X0073Y01477D02*
X00726Y01474D01*
X00723Y01469*
X00722Y01463*
X00723Y01457*
X00726Y01452*
X0073Y01449*
X0073Y01374*
X00796Y01308*
X00953*
X0136Y01715*
Y02212*
X01976*
X01978Y02208*
X01975Y02204*
Y-00006*
X01561Y-00007*
X01557Y-00003*
Y00347*
X01748*
Y0035*
X01778*
X0178Y00345*
X01779Y00345*
X01774Y00338*
X01771Y00331*
X01771Y00327*
X01821*
X01871*
X0187Y00331*
X01867Y00338*
X01862Y00345*
X01861Y00345*
X01863Y0035*
X01895*
X01898Y00352*
X01899Y00355*
Y00646*
X01898Y00649*
X01895Y0065*
X01863*
X01861Y00655*
X01862Y00656*
X01867Y00662*
X0187Y0067*
X01871Y00673*
X01821*
X01771*
X01771Y0067*
X01774Y00662*
X01779Y00656*
X0178Y00655*
X01778Y0065*
X01748*
Y00705*
X01586Y00867*
X01375*
X01303Y00939*
Y00943*
X01263*
Y00948*
X01258*
Y00988*
X01254*
X01227Y01015*
Y01031*
X01232Y01032*
X01233Y01031*
X01238Y01023*
X01245Y01018*
X01254Y01014*
X01263Y01013*
X01272Y01014*
X0128Y01018*
X01287Y01023*
X01293Y01031*
X01296Y01039*
X01298Y01048*
X01296Y01057*
X01293Y01065*
X01287Y01072*
X0128Y01078*
X01272Y01081*
X01263Y01083*
X01254Y01081*
X01245Y01078*
X01238Y01072*
X01233Y01065*
X01232Y01064*
X01227Y01065*
Y01131*
X01232Y01132*
X01233Y01131*
X01238Y01123*
X01245Y01118*
X01254Y01114*
X01263Y01113*
X01272Y01114*
X0128Y01118*
X01287Y01123*
X01293Y01131*
X01296Y01139*
X01298Y01148*
X01296Y01157*
X01293Y01165*
X01287Y01172*
X0128Y01178*
X01272Y01181*
X01263Y01183*
X01254Y01181*
X01245Y01178*
X01238Y01172*
X01233Y01165*
X01232Y01164*
X01227Y01165*
Y01184*
X01181Y0123*
X0115*
X01142Y01221*
X01142Y01221*
X01107Y01186*
X01107Y01186*
X01104Y01183*
Y00951*
X01232Y00823*
X01228Y00818*
X01227Y00812*
X01228Y00807*
X01225Y00804*
X01224Y00803*
X01223Y00803*
X01217Y00802*
X01212Y00798*
X01209Y00793*
X01207Y00787*
X01209Y00781*
X01212Y00776*
X01217Y00772*
X01223Y00771*
X0123Y00772*
X01235Y00776*
X01238Y00781*
X0124Y00787*
X01239Y00791*
X01242Y00795*
X01242Y00796*
X01243Y00796*
X01249Y00797*
X01254Y008*
X01309Y00746*
X0135*
X01351Y00741*
X0135Y0074*
X01347Y00735*
X01346Y00729*
X01347Y00723*
X0135Y00718*
X01356Y00714*
X01362Y00713*
X01368Y00714*
X01373Y00718*
X01377Y00723*
X01378Y00729*
X01377Y00735*
X01373Y0074*
X01372Y00741*
X01374Y00746*
X01477*
X01496Y00726*
Y00701*
X01397*
X01396Y00704*
X01393Y00709*
X01388Y00713*
X01381Y00714*
X01375Y00713*
X0137Y00709*
X01367Y00704*
X01366Y00701*
X01252*
X01089Y00862*
Y01184*
X01202Y01297*
X01319*
Y01414*
X01391*
X01412Y01393*
Y0127*
X01544*
Y01434*
X01481Y01497*
X01185*
X00974Y01286*
X00688*
X00568Y0118*
X00562Y01181*
X00557Y01187*
X00549Y01194*
X00539Y01198*
X00533Y01199*
Y01158*
X00528*
Y01153*
X00488*
X00488Y01147*
X00492Y01137*
X00499Y01129*
X00502Y01126*
X00503Y01121*
X00398Y01028*
X00395Y00094*
X00767*
X00769Y00089*
X00766Y00086*
X00759Y00078*
X00755Y00068*
X00754Y00062*
X00794*
X00834*
X00833Y00068*
X00829Y00078*
X00822Y00086*
X00819Y00089*
X00821Y00094*
X0088*
X00881Y00089*
X00877Y00087*
X0087Y00082*
X00864Y00074*
X00861Y00066*
X0086Y00057*
X00861Y00049*
X00864Y0004*
X0087Y00033*
X00877Y00028*
X00885Y00024*
X00894Y00023*
X00903Y00024*
X00911Y00028*
X00918Y00033*
X00924Y0004*
X00927Y00049*
X00928Y00057*
X00927Y00066*
X00924Y00074*
X00918Y00082*
X00911Y00087*
X00907Y00089*
X00908Y00094*
X00957*
Y00217*
X00672*
X00603Y00286*
Y01028*
X00638Y01064*
X00898*
Y0111*
X00985Y01195*
X0099Y01193*
Y01088*
X0092Y01018*
X00898*
X00898Y01018*
X00642*
Y00307*
X00714Y00235*
X01004*
X01083Y00156*
Y-00007*
X00395*
X00029*
Y02219*
X00725*
X0073Y01477*
G37*
G36*
X01216Y01181D02*
Y01018D01*
X01247Y00987*
X01245Y00982*
X01228*
Y00913*
X01297*
Y0093*
X01302Y00932*
X01374Y0086*
X0142*
X01537*
X01718Y00679*
Y0065*
X01715Y00649*
X01714Y00646*
Y00355*
X01646*
X01645Y0036*
X01646Y0036*
X01651Y00365*
X01653Y0037*
Y00377*
X01651Y00383*
X01646Y00387*
X01641Y00389*
X01634*
X01629Y00387*
X01624Y00383*
X01622Y00377*
Y0037*
X01624Y00365*
X01629Y0036*
X0163Y0036*
X01629Y00355*
X01577*
Y00439*
X01582Y00441*
X01586Y00445*
X01588Y00451*
Y00457*
X01586Y00463*
X01582Y00468*
X01577Y00469*
Y00657*
X0148Y00754*
X01336*
X01334Y00759*
X01335Y00759*
X01338Y00765*
Y00771*
X01335Y00777*
X01331Y00782*
X01325Y00784*
X01319*
X01313Y00782*
X01309Y00777*
X01307Y00773*
X01302Y00771*
X01259Y00814*
Y00815*
X01256Y00821*
X01252Y00825*
X01246Y00827*
X01245*
X0111Y00963*
Y01058*
X01115Y0106*
X01118Y01057*
X01124Y01054*
X0113*
X01136Y01057*
X0114Y01061*
X01143Y01067*
Y01073*
X0114Y01079*
X01136Y01083*
X0113Y01086*
X01124*
X01118Y01083*
X01115Y0108*
X0111Y01082*
Y01183*
X01145Y01218*
X01179*
X01216Y01181*
G37*
G36*
X01313Y01401D02*
Y01302D01*
X01198*
X01082Y01186*
Y0091*
X01077Y00907*
X01073Y00908*
X01067*
X01061Y00906*
X01057Y00901*
X01055Y00896*
Y00889*
X01057Y00884*
X01061Y00879*
X01067Y00877*
X01073*
X01077Y00878*
X01082Y00875*
Y00857*
X01244Y00695*
X01366*
X01368Y00689*
X01373Y00685*
X01378Y00682*
X01385*
X0139Y00685*
X01395Y00689*
X01397Y00695*
X01503*
X01551Y00647*
Y00513*
X01548Y00512*
X01544Y00507*
X01542Y00501*
Y00495*
X01544Y00489*
X01548Y00485*
X01551Y00484*
Y-00008*
X01093*
Y00163*
X01014Y00241*
X00717*
X00647Y00311*
X0065Y00935*
X00651Y00935*
X00655Y00939*
X00658Y00945*
Y00951*
X00655Y00957*
X00651Y00962*
X0065Y00962*
X00651Y01013*
X00926*
X00998Y01086*
Y01191*
X01212Y01405*
X01309*
X01313Y01401*
G37*
%LNpcb1-2*%
%LPC*%
G36*
X01227Y02143D02*
X01159D01*
Y02075*
X01161*
X01175Y02078*
X01189Y02083*
X01201Y02091*
X01211Y02102*
X01219Y02113*
X01224Y02127*
X01227Y02141*
Y02143*
G37*
G36*
X01149D02*
X01081D01*
Y02141*
X01084Y02127*
X01089Y02113*
X01097Y02102*
X01108Y02091*
X01119Y02083*
X01133Y02078*
X01147Y02075*
X01149*
Y02143*
G37*
G36*
X00996D02*
X00928D01*
Y02075*
X0093*
X00944Y02078*
X00958Y02083*
X00969Y02091*
X0098Y02102*
X00988Y02113*
X00993Y02127*
X00996Y02141*
Y02143*
G37*
G36*
X00918D02*
X0085D01*
Y02141*
X00853Y02127*
X00858Y02113*
X00866Y02102*
X00876Y02091*
X00888Y02083*
X00902Y02078*
X00916Y02075*
X00918*
Y02143*
G37*
G36*
X01045Y02099D02*
X01032D01*
X01019Y02097*
X01007Y02092*
X00996Y02084*
X00987Y02075*
X00979Y02064*
X00974Y02052*
X00972Y02039*
Y02026*
X00974Y02013*
X00979Y02001*
X00987Y0199*
X00996Y01981*
X01007Y01973*
X01019Y01968*
X01032Y01966*
X01045*
X01058Y01968*
X0107Y01973*
X01081Y01981*
X0109Y0199*
X01098Y02001*
X01103Y02013*
X01105Y02026*
Y02039*
X01103Y02052*
X01098Y02064*
X0109Y02075*
X01081Y02084*
X0107Y02092*
X01058Y02097*
X01045Y02099*
G37*
G36*
X01161Y0199D02*
X01159D01*
Y01922*
X01227*
Y01924*
X01224Y01938*
X01219Y01952*
X01211Y01963*
X01201Y01974*
X01189Y01982*
X01175Y01987*
X01161Y0199*
G37*
G36*
X01149D02*
X01147D01*
X01133Y01987*
X01119Y01982*
X01108Y01974*
X01097Y01963*
X01089Y01952*
X01084Y01938*
X01081Y01924*
Y01922*
X01149*
Y0199*
G37*
G36*
X0093D02*
X00928D01*
Y01922*
X00996*
Y01924*
X00993Y01938*
X00988Y01952*
X0098Y01963*
X00969Y01974*
X00958Y01982*
X00944Y01987*
X0093Y0199*
G37*
G36*
X00918D02*
X00916D01*
X00902Y01987*
X00888Y01982*
X00876Y01974*
X00866Y01963*
X00858Y01952*
X00853Y01938*
X0085Y01924*
Y01922*
X00918*
Y0199*
G37*
G36*
X01227Y01912D02*
X01159D01*
Y01844*
X01161*
X01175Y01847*
X01189Y01852*
X01201Y0186*
X01211Y0187*
X01219Y01882*
X01224Y01896*
X01227Y0191*
Y01912*
G37*
G36*
X01149D02*
X01081D01*
Y0191*
X01084Y01896*
X01089Y01882*
X01097Y0187*
X01108Y0186*
X01119Y01852*
X01133Y01847*
X01147Y01844*
X01149*
Y01912*
G37*
G36*
X00996D02*
X00928D01*
Y01844*
X0093*
X00944Y01847*
X00958Y01852*
X00969Y0186*
X0098Y0187*
X00988Y01882*
X00993Y01896*
X00996Y0191*
Y01912*
G37*
G36*
X00918D02*
X0085D01*
Y0191*
X00853Y01896*
X00858Y01882*
X00866Y0187*
X00876Y0186*
X00888Y01852*
X00902Y01847*
X00916Y01844*
X00918*
Y01912*
G37*
G36*
X01147Y01828D02*
X01141D01*
X01135Y01826*
X0113Y01821*
X01128Y01815*
Y01809*
X0113Y01803*
X01135Y01799*
X01141Y01797*
X01147*
X01153Y01799*
X01157Y01803*
X0116Y01809*
Y01815*
X01157Y01821*
X01153Y01826*
X01147Y01828*
G37*
G36*
X01103D02*
X01097D01*
X01091Y01826*
X01087Y01821*
X01084Y01815*
Y01809*
X01087Y01803*
X01091Y01799*
X01097Y01797*
X01103*
X01109Y01799*
X01113Y01803*
X01116Y01809*
Y01815*
X01113Y01821*
X01109Y01826*
X01103Y01828*
G37*
G36*
X00837Y01818D02*
X00831D01*
X00825Y01816*
X0082Y01811*
X00818Y01806*
Y01799*
X0082Y01794*
X00825Y01789*
X00831Y01787*
X00837*
X00843Y01789*
X00847Y01794*
X0085Y01799*
Y01806*
X00847Y01811*
X00843Y01816*
X00837Y01818*
G37*
G36*
X01101Y0177D02*
X01095D01*
X01089Y01767*
X01085Y01763*
X01082Y01757*
Y01751*
X01085Y01745*
X01089Y0174*
X01095Y01738*
X01101*
X01107Y0174*
X01112Y01745*
X01114Y01751*
Y01757*
X01112Y01763*
X01107Y01767*
X01101Y0177*
G37*
G36*
X01187Y01702D02*
X0118D01*
X01175Y01699*
X0117Y01695*
X01168Y01689*
Y01683*
X0117Y01677*
X01175Y01673*
X0118Y0167*
X01187*
X01192Y01673*
X01197Y01677*
X01199Y01683*
Y01689*
X01197Y01695*
X01192Y01699*
X01187Y01702*
G37*
G36*
X00938Y01674D02*
X00932D01*
X00926Y01672*
X00922Y01668*
X00919Y01662*
Y01656*
X00922Y0165*
X00926Y01645*
X00932Y01643*
X00938*
X00944Y01645*
X00948Y0165*
X00951Y01656*
Y01662*
X00948Y01668*
X00944Y01672*
X00938Y01674*
G37*
G36*
X0094Y01637D02*
X00934D01*
X00928Y01634*
X00924Y0163*
X00921Y01624*
Y01618*
X00924Y01612*
X00928Y01608*
X00934Y01605*
X0094*
X00946Y01608*
X0095Y01612*
X00953Y01618*
Y01624*
X0095Y0163*
X00946Y01634*
X0094Y01637*
G37*
G36*
X00833Y01566D02*
X00827D01*
X00821Y01564*
X00816Y01559*
X00814Y01553*
Y01547*
X00816Y01541*
X00821Y01537*
X00827Y01535*
X00833*
X00839Y01537*
X00843Y01541*
X00846Y01547*
Y01553*
X00843Y01559*
X00839Y01564*
X00833Y01566*
G37*
G36*
X01477Y0137D02*
X01476D01*
Y01335*
X01512*
Y01335*
X01509Y01345*
X01504Y01355*
X01496Y01362*
X01487Y01368*
X01477Y0137*
G37*
G36*
X01466D02*
X01466D01*
X01455Y01368*
X01446Y01362*
X01438Y01355*
X01433Y01345*
X0143Y01335*
Y01335*
X01466*
Y0137*
G37*
G36*
X01512Y01325D02*
X01476D01*
Y01289*
X01477*
X01487Y01291*
X01496Y01297*
X01504Y01304*
X01509Y01314*
X01512Y01324*
Y01325*
G37*
G36*
X01466D02*
X0143D01*
Y01324*
X01433Y01314*
X01438Y01304*
X01446Y01297*
X01455Y01291*
X01466Y01289*
X01466*
Y01325*
G37*
G36*
X00563Y00974D02*
X00493D01*
Y00905*
X00563*
Y00974*
G37*
G36*
X00533Y00874D02*
X00524D01*
X00515Y00872*
X00507Y00867*
X005Y00861*
X00496Y00853*
X00493Y00844*
Y00835*
X00496Y00826*
X005Y00818*
X00507Y00812*
X00515Y00807*
X00524Y00805*
X00533*
X00542Y00807*
X0055Y00812*
X00556Y00818*
X00561Y00826*
X00563Y00835*
Y00844*
X00561Y00853*
X00556Y00861*
X0055Y00867*
X00542Y00872*
X00533Y00874*
G37*
G36*
Y00774D02*
X00524D01*
X00515Y00772*
X00507Y00767*
X005Y00761*
X00496Y00753*
X00493Y00744*
Y00735*
X00496Y00726*
X005Y00718*
X00507Y00712*
X00515Y00707*
X00524Y00705*
X00533*
X00542Y00707*
X0055Y00712*
X00556Y00718*
X00561Y00726*
X00563Y00735*
Y00744*
X00561Y00753*
X00556Y00761*
X0055Y00767*
X00542Y00772*
X00533Y00774*
G37*
G36*
X00563Y00584D02*
X00493D01*
Y00514*
X00563*
Y00584*
G37*
G36*
X00533Y00484D02*
X00524D01*
X00515Y00481*
X00507Y00477*
X005Y0047*
X00496Y00462*
X00493Y00453*
Y00444*
X00496Y00435*
X005Y00427*
X00507Y00421*
X00515Y00416*
X00524Y00414*
X00533*
X00542Y00416*
X0055Y00421*
X00556Y00427*
X00561Y00435*
X00563Y00444*
Y00453*
X00561Y00462*
X00556Y0047*
X0055Y00477*
X00542Y00481*
X00533Y00484*
G37*
G36*
Y00384D02*
X00524D01*
X00515Y00381*
X00507Y00377*
X005Y0037*
X00496Y00362*
X00493Y00353*
Y00344*
X00496Y00335*
X005Y00327*
X00507Y00321*
X00515Y00316*
X00524Y00314*
X00533*
X00542Y00316*
X0055Y00321*
X00556Y00327*
X00561Y00335*
X00563Y00344*
Y00353*
X00561Y00362*
X00556Y0037*
X0055Y00377*
X00542Y00381*
X00533Y00384*
G37*
G36*
Y00284D02*
X00524D01*
X00515Y00281*
X00507Y00277*
X005Y0027*
X00496Y00262*
X00493Y00253*
Y00244*
X00496Y00235*
X005Y00227*
X00507Y00221*
X00515Y00216*
X00524Y00214*
X00533*
X00542Y00216*
X0055Y00221*
X00556Y00227*
X00561Y00235*
X00563Y00244*
Y00253*
X00561Y00262*
X00556Y0027*
X0055Y00277*
X00542Y00281*
X00533Y00284*
G37*
G36*
X00934Y00197D02*
X00899D01*
Y00162*
X00934*
Y00197*
G37*
G36*
X00889D02*
X00854D01*
Y00162*
X00889*
Y00197*
G37*
G36*
X00534Y0019D02*
X00533D01*
Y00154*
X00569*
Y00154*
X00566Y00164*
X00561Y00174*
X00553Y00181*
X00544Y00187*
X00534Y0019*
G37*
G36*
X00523D02*
X00523D01*
X00513Y00187*
X00503Y00181*
X00496Y00174*
X0049Y00164*
X00487Y00154*
Y00154*
X00523*
Y0019*
G37*
G36*
X00798Y00191D02*
X0079D01*
X00781Y00189*
X00773Y00184*
X00767Y00178*
X00762Y0017*
X0076Y00162*
Y00153*
X00762Y00144*
X00767Y00137*
X00773Y0013*
X00781Y00126*
X0079Y00124*
X00798*
X00807Y00126*
X00815Y0013*
X00821Y00137*
X00826Y00144*
X00828Y00153*
Y00162*
X00826Y0017*
X00821Y00178*
X00815Y00184*
X00807Y00189*
X00798Y00191*
G37*
G36*
X00934Y00152D02*
X00899D01*
Y00117*
X00934*
Y00152*
G37*
G36*
X00889D02*
X00854D01*
Y00117*
X00889*
Y00152*
G37*
G36*
X00403Y02212D02*
Y02144D01*
X00471*
X0047Y02153*
X00466Y02167*
X00459Y0218*
X0045Y02191*
X00439Y022*
X00426Y02207*
X00412Y02211*
X00403Y02212*
G37*
G36*
X00393D02*
X00384Y02211D01*
X0037Y02207*
X00357Y022*
X00346Y02191*
X00337Y0218*
X0033Y02167*
X00326Y02153*
X00325Y02144*
X00393*
Y02212*
G37*
G36*
X00172D02*
Y02144D01*
X0024*
X00239Y02153*
X00235Y02167*
X00228Y0218*
X00219Y02191*
X00208Y022*
X00195Y02207*
X00181Y02211*
X00172Y02212*
G37*
G36*
X00162D02*
X00153Y02211D01*
X00139Y02207*
X00126Y022*
X00115Y02191*
X00106Y0218*
X00099Y02167*
X00095Y02153*
X00094Y02144*
X00162*
Y02212*
G37*
G36*
X00471Y02134D02*
X00403D01*
Y02066*
X00412Y02067*
X00426Y02071*
X00439Y02078*
X0045Y02087*
X00459Y02098*
X00466Y02111*
X0047Y02125*
X00471Y02134*
G37*
G36*
X00393D02*
X00325D01*
X00326Y02125*
X0033Y02111*
X00337Y02098*
X00346Y02087*
X00357Y02078*
X0037Y02071*
X00384Y02067*
X00393Y02066*
Y02134*
G37*
G36*
X0024D02*
X00172D01*
Y02066*
X00181Y02067*
X00195Y02071*
X00208Y02078*
X00219Y02087*
X00228Y02098*
X00235Y02111*
X00239Y02125*
X0024Y02134*
G37*
G36*
X00162D02*
X00094D01*
X00095Y02125*
X00099Y02111*
X00106Y02098*
X00115Y02087*
X00126Y02078*
X00139Y02071*
X00153Y02067*
X00162Y02066*
Y02134*
G37*
G36*
X00283Y02091D02*
X00269Y02089D01*
X00257Y02086*
X00245Y02079*
X00235Y02071*
X00227Y02061*
X0022Y02049*
X00217Y02037*
X00215Y02024*
X00217Y0201*
X0022Y01998*
X00227Y01986*
X00235Y01976*
X00245Y01968*
X00257Y01961*
X00269Y01958*
X00283Y01956*
X00296Y01958*
X00308Y01961*
X0032Y01968*
X0033Y01976*
X00338Y01986*
X00345Y01998*
X00348Y0201*
X0035Y02024*
X00348Y02037*
X00345Y02049*
X00338Y02061*
X0033Y02071*
X0032Y02079*
X00308Y02086*
X00296Y02089*
X00283Y02091*
G37*
G36*
X01837Y02008D02*
X01827Y02007D01*
X01817Y02003*
X01809Y01996*
X01803Y01988*
X01799Y01979*
X01797Y01968*
X01799Y01958*
X01803Y01948*
X01809Y0194*
X01817Y01934*
X01827Y0193*
X01837Y01929*
X01847Y0193*
X01857Y01934*
X01865Y0194*
X01872Y01948*
X01876Y01958*
X01877Y01968*
X01876Y01979*
X01872Y01988*
X01865Y01996*
X01857Y02003*
X01847Y02007*
X01837Y02008*
G37*
G36*
X00403Y01981D02*
Y01913D01*
X00471*
X0047Y01922*
X00466Y01936*
X00459Y01949*
X0045Y0196*
X00439Y01969*
X00426Y01976*
X00412Y0198*
X00403Y01981*
G37*
G36*
X00393D02*
X00384Y0198D01*
X0037Y01976*
X00357Y01969*
X00346Y0196*
X00337Y01949*
X0033Y01936*
X00326Y01922*
X00325Y01913*
X00393*
Y01981*
G37*
G36*
X00172D02*
Y01913D01*
X0024*
X00239Y01922*
X00235Y01936*
X00228Y01949*
X00219Y0196*
X00208Y01969*
X00195Y01976*
X00181Y0198*
X00172Y01981*
G37*
G36*
X00162D02*
X00153Y0198D01*
X00139Y01976*
X00126Y01969*
X00115Y0196*
X00106Y01949*
X00099Y01936*
X00095Y01922*
X00094Y01913*
X00162*
Y01981*
G37*
G36*
X00471Y01903D02*
X00403D01*
Y01835*
X00412Y01836*
X00426Y0184*
X00439Y01847*
X0045Y01856*
X00459Y01867*
X00466Y0188*
X0047Y01894*
X00471Y01903*
G37*
G36*
X00393D02*
X00325D01*
X00326Y01894*
X0033Y0188*
X00337Y01867*
X00346Y01856*
X00357Y01847*
X0037Y0184*
X00384Y01836*
X00393Y01835*
Y01903*
G37*
G36*
X0024D02*
X00172D01*
Y01835*
X00181Y01836*
X00195Y0184*
X00208Y01847*
X00219Y01856*
X00228Y01867*
X00235Y0188*
X00239Y01894*
X0024Y01903*
G37*
G36*
X00162D02*
X00094D01*
X00095Y01894*
X00099Y0188*
X00106Y01867*
X00115Y01856*
X00126Y01847*
X00139Y0184*
X00153Y01836*
X00162Y01835*
Y01903*
G37*
G36*
X00441Y01805D02*
X00435Y01804D01*
X0043Y018*
X00427Y01795*
X00425Y01789*
X00427Y01783*
X0043Y01777*
X00435Y01774*
X00441Y01773*
X00447Y01774*
X00453Y01777*
X00456Y01783*
X00457Y01789*
X00456Y01795*
X00453Y018*
X00447Y01804*
X00441Y01805*
G37*
G36*
X007Y01781D02*
X00694Y0178D01*
X00689Y01776*
X00685Y01771*
X00684Y01765*
X00685Y01759*
X00689Y01754*
X00694Y0175*
X007Y01749*
X00706Y0175*
X00711Y01754*
X00715Y01759*
X00716Y01765*
X00715Y01771*
X00711Y01776*
X00706Y0178*
X007Y01781*
G37*
G36*
X01837Y01811D02*
X01827Y0181D01*
X01817Y01806*
X01809Y01799*
X01803Y01791*
X01799Y01782*
X01797Y01771*
X01799Y01761*
X01803Y01752*
X01809Y01743*
X01817Y01737*
X01827Y01733*
X01837Y01732*
X01847Y01733*
X01857Y01737*
X01865Y01743*
X01872Y01752*
X01876Y01761*
X01877Y01771*
X01876Y01782*
X01872Y01791*
X01865Y01799*
X01857Y01806*
X01847Y0181*
X01837Y01811*
G37*
G36*
X00563Y01784D02*
X00493D01*
Y01715*
X00563*
Y01784*
G37*
G36*
X00528Y01685D02*
X00519Y01683D01*
X00511Y0168*
X00503Y01674*
X00498Y01667*
X00494Y01658*
X00493Y01649*
X00494Y0164*
X00498Y01632*
X00503Y01625*
X00511Y01619*
X00519Y01615*
X00528Y01614*
X00537Y01615*
X00546Y01619*
X00553Y01625*
X00559Y01632*
X00562Y0164*
X00563Y01649*
X00562Y01658*
X00559Y01667*
X00553Y01674*
X00546Y0168*
X00537Y01683*
X00528Y01685*
G37*
G36*
X00533Y0159D02*
Y01554D01*
X00569*
X00568Y0156*
X00564Y0157*
X00557Y01579*
X00549Y01585*
X00539Y01589*
X00533Y0159*
G37*
G36*
X00523D02*
X00518Y01589D01*
X00508Y01585*
X00499Y01579*
X00492Y0157*
X00488Y0156*
X00488Y01554*
X00523*
Y0159*
G37*
G36*
X00569Y01544D02*
X00533D01*
Y01509*
X00539Y0151*
X00549Y01514*
X00557Y0152*
X00564Y01529*
X00568Y01539*
X00569Y01544*
G37*
G36*
X00523D02*
X00488D01*
X00488Y01539*
X00492Y01529*
X00499Y0152*
X00508Y01514*
X00518Y0151*
X00523Y01509*
Y01544*
G37*
G36*
X00666Y01516D02*
X00659Y01515D01*
X00654Y01511*
X00651Y01506*
X00649Y015*
X00651Y01494*
X00654Y01489*
X00659Y01485*
X00666Y01484*
X00672Y01485*
X00677Y01489*
X0068Y01494*
X00682Y015*
X0068Y01506*
X00677Y01511*
X00672Y01515*
X00666Y01516*
G37*
G36*
X00563Y01393D02*
X00493D01*
Y01323*
X00563*
Y01393*
G37*
G36*
X00528Y01293D02*
X00519Y01292D01*
X00511Y01288*
X00503Y01283*
X00498Y01276*
X00494Y01267*
X00493Y01258*
X00494Y01249*
X00498Y0124*
X00503Y01233*
X00511Y01228*
X00519Y01224*
X00528Y01223*
X00537Y01224*
X00546Y01228*
X00553Y01233*
X00559Y0124*
X00562Y01249*
X00563Y01258*
X00562Y01267*
X00559Y01276*
X00553Y01283*
X00546Y01288*
X00537Y01292*
X00528Y01293*
G37*
G36*
X01263Y01283D02*
X01254Y01281D01*
X01245Y01278*
X01238Y01272*
X01233Y01265*
X01229Y01257*
X01228Y01248*
X01229Y01239*
X01233Y01231*
X01238Y01223*
X01245Y01218*
X01254Y01214*
X01263Y01213*
X01272Y01214*
X0128Y01218*
X01287Y01223*
X01293Y01231*
X01296Y01239*
X01298Y01248*
X01296Y01257*
X01293Y01265*
X01287Y01272*
X0128Y01278*
X01272Y01281*
X01263Y01283*
G37*
G36*
X01471Y01265D02*
X01462Y01264D01*
X01454Y0126*
X01446Y01254*
X01441Y01247*
X01437Y01239*
X01436Y0123*
X01437Y0122*
X01441Y01212*
X01446Y01205*
X01454Y01199*
X01462Y01196*
X01471Y01194*
X0148Y01196*
X01489Y01199*
X01496Y01205*
X01502Y01212*
X01505Y0122*
X01506Y0123*
X01505Y01239*
X01502Y01247*
X01496Y01254*
X01489Y0126*
X0148Y01264*
X01471Y01265*
G37*
G36*
X00523Y01199D02*
X00518Y01198D01*
X00508Y01194*
X00499Y01187*
X00492Y01179*
X00488Y01169*
X00488Y01163*
X00523*
Y01199*
G37*
G36*
X01471Y01165D02*
X01462Y01164D01*
X01454Y0116*
X01446Y01154*
X01441Y01147*
X01437Y01139*
X01436Y0113*
X01437Y0112*
X01441Y01112*
X01446Y01105*
X01454Y01099*
X01462Y01096*
X01471Y01094*
X0148Y01096*
X01489Y01099*
X01496Y01105*
X01502Y01112*
X01505Y0112*
X01506Y0113*
X01505Y01139*
X01502Y01147*
X01496Y01154*
X01489Y0116*
X0148Y01164*
X01471Y01165*
G37*
G36*
X01476Y0107D02*
Y01035D01*
X01512*
X01511Y0104*
X01507Y0105*
X015Y01059*
X01492Y01065*
X01482Y01069*
X01476Y0107*
G37*
G36*
X01466D02*
X01461Y01069D01*
X01451Y01065*
X01442Y01059*
X01435Y0105*
X01431Y0104*
X01431Y01035*
X01466*
Y0107*
G37*
G36*
Y01025D02*
X01431D01*
X01431Y01019*
X01435Y01009*
X01442Y01*
X01451Y00994*
X01461Y0099*
X01466Y00989*
Y01025*
G37*
G36*
X01512D02*
X01476D01*
Y00989*
X01482Y0099*
X01492Y00994*
X015Y01*
X01507Y01009*
X01511Y01019*
X01512Y01025*
G37*
G36*
X01303Y00988D02*
X01268D01*
Y00953*
X01303*
Y00988*
G37*
G36*
X01506Y00964D02*
X01436D01*
Y00895*
X01506*
Y00964*
G37*
G36*
X01839Y0071D02*
X01826D01*
Y00683*
X01871*
X0187Y00686*
X01867Y00694*
X01862Y00701*
X01855Y00706*
X01848Y00709*
X01839Y0071*
G37*
G36*
X01816D02*
X01802D01*
X01794Y00709*
X01786Y00706*
X01779Y00701*
X01774Y00694*
X01771Y00686*
X01771Y00683*
X01816*
Y0071*
G37*
G36*
X01871Y00317D02*
X01826D01*
Y0029*
X01839*
X01848Y00291*
X01855Y00295*
X01862Y003*
X01867Y00306*
X0187Y00314*
X01871Y00317*
G37*
G36*
X01816D02*
X01771D01*
X01771Y00314*
X01774Y00306*
X01779Y003*
X01786Y00295*
X01794Y00291*
X01797Y00291*
X01798Y00287*
X01798Y00286*
X01793Y00283*
X0179Y00277*
X01788Y00271*
X0179Y00265*
X01793Y0026*
X01798Y00256*
X01804Y00255*
X01811Y00256*
X01816Y0026*
X01819Y00265*
X0182Y00271*
X01819Y00277*
X01816Y00283*
X01812Y00285*
X01813Y0029*
X01816*
Y00317*
G37*
G36*
X00789Y00052D02*
X00754D01*
X00755Y00047*
X00759Y00037*
X00766Y00029*
X00774Y00023*
X00784Y00019*
X00789Y00018*
Y00052*
G37*
G36*
X00834D02*
X00799D01*
Y00018*
X00804Y00019*
X00814Y00023*
X00822Y00029*
X00829Y00037*
X00833Y00047*
X00834Y00052*
G37*
G36*
X01303Y0084D02*
X01297D01*
X01291Y00837*
X01286Y00833*
X01284Y00827*
Y00821*
X01286Y00815*
X01291Y00811*
X01297Y00808*
X01303*
X01309Y00811*
X01313Y00815*
X01315Y00821*
Y00827*
X01313Y00833*
X01309Y00837*
X01303Y0084*
G37*
G36*
X01646Y00547D02*
X01639D01*
X01633Y00545*
X01629Y00541*
X01627Y00535*
Y00529*
X01629Y00523*
X01633Y00518*
X01639Y00516*
X01646*
X01651Y00518*
X01656Y00523*
X01658Y00529*
Y00535*
X01656Y00541*
X01651Y00545*
X01646Y00547*
G37*
G36*
X01644Y00502D02*
X01637D01*
X01632Y005*
X01627Y00495*
X01625Y0049*
Y00483*
X01627Y00478*
X01632Y00473*
X01632Y00473*
X01632Y00468*
X01628Y00463*
X01625Y00457*
Y00451*
X01628Y00445*
X01632Y00441*
X01638Y00439*
X01644*
X0165Y00441*
X01654Y00445*
X01657Y00451*
Y00457*
X01654Y00463*
X0165Y00468*
X0165Y00468*
X01649Y00473*
X01654Y00478*
X01656Y00483*
Y0049*
X01654Y00495*
X01649Y005*
X01644Y00502*
G37*
G36*
X01268Y01388D02*
X01268D01*
Y01353*
X01303*
Y01353*
X01301Y01364*
X01295Y01373*
X01288Y0138*
X01278Y01386*
X01268Y01388*
G37*
G36*
X01258D02*
X01257D01*
X01247Y01386*
X01238Y0138*
X0123Y01373*
X01225Y01364*
X01222Y01353*
Y01353*
X01258*
Y01388*
G37*
G36*
X01303Y01343D02*
X01268D01*
Y01307*
X01268*
X01278Y0131*
X01288Y01315*
X01295Y01323*
X01301Y01332*
X01303Y01343*
Y01343*
G37*
G36*
X01258D02*
X01222D01*
Y01343*
X01225Y01332*
X0123Y01323*
X01238Y01315*
X01247Y0131*
X01257Y01307*
X01258*
Y01343*
G37*
G36*
X01161Y0133D02*
X01154D01*
X01149Y01327*
X01144Y01323*
X01142Y01317*
Y01311*
X01144Y01305*
X01149Y013*
X01154Y01298*
X01161*
X01167Y013*
X01171Y01305*
X01173Y01311*
Y01317*
X01171Y01323*
X01167Y01327*
X01161Y0133*
G37*
G36*
X00819Y00837D02*
X00812D01*
X00807Y00834*
X00802Y0083*
X008Y00824*
Y00818*
X00802Y00812*
X00807Y00807*
X00812Y00805*
X00819*
X00824Y00807*
X00829Y00812*
X00831Y00818*
Y00824*
X00829Y0083*
X00824Y00834*
X00819Y00837*
G37*
G36*
X01152Y00753D02*
X01083D01*
Y00684*
X01152*
Y00753*
G37*
G36*
X01022D02*
X01013D01*
X01004Y0075*
X00997Y00746*
X0099Y00739*
X00986Y00732*
X00983Y00723*
Y00714*
X00986Y00705*
X0099Y00697*
X00997Y00691*
X01004Y00686*
X01013Y00684*
X01022*
X01031Y00686*
X01039Y00691*
X01045Y00697*
X0105Y00705*
X01052Y00714*
Y00723*
X0105Y00732*
X01045Y00739*
X01039Y00746*
X01031Y0075*
X01022Y00753*
G37*
G36*
X00922D02*
X00913D01*
X00904Y0075*
X00897Y00746*
X0089Y00739*
X00886Y00732*
X00883Y00723*
Y00714*
X00886Y00705*
X0089Y00697*
X00897Y00691*
X00904Y00686*
X00913Y00684*
X00922*
X00931Y00686*
X00939Y00691*
X00945Y00697*
X0095Y00705*
X00952Y00714*
Y00723*
X0095Y00732*
X00945Y00739*
X00939Y00746*
X00931Y0075*
X00922Y00753*
G37*
G36*
X00944Y00533D02*
X00938D01*
X00932Y0053*
X00928Y00526*
X00925Y0052*
Y00514*
X00928Y00508*
X00932Y00504*
X00938Y00501*
X00944*
X0095Y00504*
X00955Y00508*
X00957Y00514*
Y0052*
X00955Y00526*
X0095Y0053*
X00944Y00533*
G37*
G36*
X00873Y00511D02*
X00867D01*
X00861Y00508*
X00857Y00504*
X00854Y00498*
Y00492*
X00857Y00486*
X00861Y00481*
X00867Y00479*
X00873*
X00879Y00481*
X00884Y00486*
X00886Y00492*
Y00498*
X00884Y00504*
X00879Y00508*
X00873Y00511*
G37*
G36*
X01345Y00483D02*
X01338D01*
X01333Y0048*
X01328Y00476*
X01326Y0047*
Y00464*
X01328Y00458*
X01333Y00453*
X01338Y00451*
X01345*
X0135Y00453*
X01355Y00458*
X01357Y00464*
Y0047*
X01355Y00476*
X0135Y0048*
X01345Y00483*
G37*
G36*
X00934Y00354D02*
X00928D01*
X00922Y00351*
X00918Y00347*
X00915Y00341*
Y00335*
X00918Y00329*
X00922Y00325*
X00928Y00322*
X00934*
X0094Y00325*
X00944Y00329*
X00947Y00335*
Y00341*
X00944Y00347*
X0094Y00351*
X00934Y00354*
G37*
G36*
X00983Y00376D02*
X00976D01*
X00971Y00373*
X00966Y00369*
X00964Y00363*
Y00357*
X00966Y00351*
X00967Y00351*
X00967Y0035*
X00965Y00345*
X00961Y00343*
X00957Y00339*
X00955Y00333*
Y00327*
X00957Y00321*
X00961Y00317*
X00967Y00314*
X00973*
X00979Y00317*
X00984Y00321*
X00986Y00327*
Y00333*
X00984Y00339*
X00983Y00339*
X00983Y0034*
X00985Y00345*
X00988Y00346*
X00993Y00351*
X00995Y00357*
Y00363*
X00993Y00369*
X00988Y00373*
X00983Y00376*
G37*
G36*
X00886Y00306D02*
X00879D01*
X00874Y00304*
X00869Y003*
X00867Y00294*
Y00287*
X00869Y00282*
X00874Y00277*
X00879Y00275*
X00886*
X00892Y00277*
X00896Y00282*
X00898Y00287*
Y00294*
X00896Y003*
X00892Y00304*
X00886Y00306*
G37*
G36*
X0134Y00036D02*
X01334D01*
X01328Y00033*
X01324Y00029*
X01321Y00023*
Y00017*
X01324Y00011*
X01328Y00007*
X01334Y00004*
X0134*
X01346Y00007*
X0135Y00011*
X01353Y00017*
Y00023*
X0135Y00029*
X01346Y00033*
X0134Y00036*
G37*
%LNpcb1-3*%
%LPD*%
G54D12*
X01385Y01414D02*
X01405Y01393D01*
X01209Y01414D02*
X01385D01*
X00966Y0116D02*
Y01171D01*
X01209Y01414*
G54D60*
X01471Y0103D03*
Y0133D03*
X00528Y01158D03*
Y01549D03*
X00528Y00149D03*
G54D63*
X00794Y00057D03*
G54D64*
X01821Y00678D03*
Y00322D03*
G54D65*
X00894Y00157D03*
G54D83*
X01263Y01348D03*
G54D84*
X01263Y00948D03*
G54D85*
X00167Y01908D03*
Y02139D03*
X00398Y01908D03*
Y02139D03*
X00923Y02148D03*
X01154D03*
X00923Y01917D03*
X01154D03*
G54D88*
X01961Y00116D03*
X00624Y00801D03*
X0089Y01031D03*
X01906Y02108D03*
X01945Y02029D03*
X01906Y0195D03*
X01945Y01872D03*
Y01714D03*
Y01557D03*
X01906Y01321D03*
X01945Y01242D03*
X01906Y01163D03*
X01945Y01084D03*
X01906Y01006D03*
X01945Y00927D03*
X01906Y00691D03*
X01945Y00612D03*
Y00454D03*
Y00297D03*
Y00139D03*
X01866Y02029D03*
Y01872D03*
X01827Y01321D03*
X01866Y01242D03*
X01827Y01163D03*
X01866Y01084D03*
X01827Y01006D03*
X01866Y00927D03*
X01787Y02029D03*
X01748Y0195D03*
X01787Y01872D03*
X01748Y01793D03*
Y01321D03*
X01787Y01242D03*
X01748Y01163D03*
X01787Y01084D03*
X01748Y01006D03*
X01787Y00927D03*
X01709Y02029D03*
X01669Y0195D03*
X01709Y01872D03*
X01669Y01793D03*
X01709Y01714D03*
X01669Y01321D03*
X01709Y01242D03*
X01669Y01163D03*
X01709Y01084D03*
X01669Y01006D03*
X01709Y00927D03*
Y00769D03*
X01669Y00218D03*
X0163Y02029D03*
X01591Y0195D03*
X0163Y01872D03*
X01591Y01793D03*
X0163Y01399D03*
X01591Y01321D03*
X0163Y01242D03*
X01591Y01163D03*
X0163Y01084D03*
X01591Y01006D03*
X0163Y00927D03*
X01591Y00218D03*
X01512Y02108D03*
X01551Y02029D03*
X01512Y0195D03*
X01551Y01872D03*
Y01714D03*
Y01242D03*
X01512Y01163D03*
X01551Y01084D03*
Y00927D03*
X01433Y02108D03*
X01473Y02029D03*
X01433Y01163D03*
X01394Y02029D03*
Y01242D03*
X01315D03*
X00961Y00061D03*
X00724D03*
X00646Y02108D03*
X00685Y02029D03*
X00646Y0195D03*
Y01793D03*
Y00061D03*
X00567Y02108D03*
X00606Y02029D03*
X00567Y0195D03*
X00606Y01399D03*
X00567Y00061D03*
X00488Y02108D03*
X00528Y02029D03*
X00488Y01478D03*
Y00061D03*
X00449Y02029D03*
X0041Y01793D03*
Y01636D03*
Y01478D03*
Y01321D03*
Y01163D03*
Y00061D03*
X0037Y02029D03*
X00331Y01793D03*
X0037Y01714D03*
X00331Y01636D03*
X0037Y01557D03*
X00331Y01478D03*
X0037Y01399D03*
X00331Y01321D03*
X0037Y01242D03*
X00331Y01163D03*
X0037Y01084D03*
X00331Y01006D03*
X0037Y00927D03*
X00331Y00848D03*
X0037Y00769D03*
X00331Y00691D03*
X0037Y00612D03*
X00331Y00533D03*
X0037Y00454D03*
X00331Y00376D03*
X0037Y00297D03*
X00331Y00218D03*
X0037Y00139D03*
X00331Y00061D03*
X00252Y02108D03*
Y0195D03*
X00291Y01872D03*
X00252Y01793D03*
X00291Y01714D03*
X00252Y01636D03*
X00291Y01557D03*
X00252Y01478D03*
X00291Y01399D03*
X00252Y01321D03*
X00291Y01242D03*
X00252Y01163D03*
X00291Y01084D03*
X00252Y01006D03*
X00291Y00927D03*
X00252Y00848D03*
X00291Y00769D03*
X00252Y00691D03*
X00291Y00612D03*
X00252Y00533D03*
X00291Y00454D03*
X00252Y00376D03*
X00291Y00297D03*
X00252Y00218D03*
X00291Y00139D03*
X00252Y00061D03*
X00173Y01793D03*
X00213Y01714D03*
X00173Y01636D03*
X00213Y01557D03*
X00173Y01478D03*
X00213Y01399D03*
X00173Y01321D03*
X00213Y01242D03*
X00173Y01163D03*
X00213Y01084D03*
X00173Y01006D03*
X00213Y00927D03*
X00173Y00848D03*
X00213Y00769D03*
X00173Y00691D03*
X00213Y00612D03*
X00173Y00533D03*
X00213Y00454D03*
X00173Y00376D03*
X00213Y00297D03*
X00173Y00218D03*
X00213Y00139D03*
X00173Y00061D03*
X00134Y02029D03*
X00095Y01793D03*
X00134Y01714D03*
X00095Y01636D03*
X00134Y01557D03*
X00095Y01478D03*
X00134Y01399D03*
X00095Y01321D03*
X00134Y01242D03*
X00095Y01163D03*
X00134Y01084D03*
X00095Y01006D03*
X00134Y00927D03*
X00095Y00848D03*
X00134Y00769D03*
X00095Y00691D03*
X00134Y00612D03*
X00095Y00533D03*
X00134Y00454D03*
X00095Y00376D03*
X00134Y00297D03*
X00095Y00218D03*
X00134Y00139D03*
X00095Y00061D03*
X01465Y00104D03*
X01745Y00013D03*
X00642Y00948D03*
X01166Y01098D03*
X00813Y01119D03*
Y01166D03*
X00751Y01118D03*
X0075Y01165D03*
X00697Y01118D03*
X00697Y01165D03*
X01502Y00656D03*
X01633Y00596D03*
X01638Y00322D03*
X01631Y00408D03*
X01165Y01141D03*
X01165Y01182D03*
X01794Y01592D03*
Y01653D03*
X0171Y01601D03*
Y01654D03*
X01638Y01602D03*
Y01653D03*
X00912Y00889D03*
X00912Y00927D03*
X00857Y00925D03*
X00855Y00889D03*
X00797Y00891D03*
X00796Y00925D03*
X00621Y01666D03*
X00959Y01308D03*
X01012D03*
Y01338D03*
X00842Y01422D03*
X00854Y01359D03*
X00804D03*
X00971Y00515D03*
X01516Y00547D03*
X00881Y00258D03*
X01058Y0002D03*
X01198D03*
X01577Y00057D03*
M02*